<?xml version="1.0" encoding="utf-8"?>
<!-- Generator: Adobe Illustrator 28.0.0, SVG Export Plug-In . SVG Version: 6.00 Build 0)  -->
<svg version="1.1" id="Capa_1" xmlns="http://www.w3.org/2000/svg" xmlns:xlink="http://www.w3.org/1999/xlink" x="0px" y="0px"
	 viewBox="0 0 653.8 500" style="enable-background:new 0 0 653.8 500;" xml:space="preserve">
<style type="text/css">
	.st0{fill:#FFFFFF;}
	.st1{fill:#849A5D;}
	.st2{opacity:0.4;fill:#D0D1D3;enable-background:new    ;}
	.st3{fill:#434244;}
	.st4{fill:#383838;}
	.st5{fill:#E5B7AC;}
	.st6{fill:#E5E5E6;}
	.st7{fill:#F1F1F2;}
	.st8{opacity:0.5;fill:#CA7E86;enable-background:new    ;}
	.st9{fill:#9CC7ED;}
	.st10{fill:#D0D1D3;}
	.st11{fill:#59595B;}
	.st12{fill:#808083;}
	.st13{fill:#BABCBE;}
	.st14{fill:#BE717E;}
	.st15{fill:#C58F80;}
	.st16{opacity:0.2;fill:#C58F80;enable-background:new    ;}
	.st17{fill:#E6E6E7;}
	.st18{fill:#68AAE3;}
	.st19{opacity:0.4;fill:#AA7168;enable-background:new    ;}
	.st20{fill:#B56F61;}
	.st21{fill:#996158;}
	.st22{fill:#AA7168;}
	.st23{opacity:0.3;fill:#C58F80;enable-background:new    ;}
	.st24{fill:#A87067;}
	.st25{fill:#B78074;}
	.st26{fill:#CA7E86;}
	.st27{fill:#583B1C;}
	.st28{opacity:0.4;fill:#CA7E86;enable-background:new    ;}
	.st29{fill:#BBBCBF;}
	.st30{fill:#A6A8AA;}
	.st31{fill:#6D6E70;}
	.st32{fill:#DF922F;}
	.st33{fill:#CFD1D2;}
	.st34{fill:#6CB476;}
	.st35{fill:#9B7B53;}
	.st36{fill:#7F5E40;}
	.st37{fill:#3B3B3B;}
	.st38{fill:#583C1C;}
	.st39{fill:#D7A39B;}
	.st40{fill:#E38669;}
	.st41{fill:#599C8D;}
	.st42{fill:#4B8C7B;}
	.st43{fill:#72C7B5;}
	.st44{fill:#C53E5D;}
</style>
<g id="BACKGROUND">
	<rect x="-0.1" class="st0" width="653.6" height="500"/>
</g>
<g id="OBJECTS">
	<g>
		<path class="st1" d="M239.2,134.9c0.2,2,0.5,3.9,1,5.8c5.7,22.2,21,34.2,58-15.2C336.5,74.5,232.7,61.5,239.2,134.9z"/>
		<path class="st1" d="M583.3,407.7h-31.2c24.5-39.4,68.4-102.8,34-128.4c-35.9-26.8-88.9-53-84.2-119.4
			c4.8-66.4-121.4-140.1-184.7-42c-63.2,98.1-161.1,73-232.5,85.8c-99.3,17.7-27.1,158.4,13.4,206.2l-9.3-2.2
			c-1.5,0-2.8,1.4-2.8,3.2c0,1.7,1.3,3.2,2.8,3.2h494.4c1.5,0,2.8-1.4,2.8-3.2C586.1,409.1,584.8,407.7,583.3,407.7L583.3,407.7z"/>
	</g>
	<rect x="0.1" y="405.4" class="st1" width="653.6" height="94.4"/>
	<path class="st2" d="M503.3,442.3c0,0-97.6,28.7-218,28.7s-218-28.7-218-28.7s97.6-28.7,218-28.7S503.3,442.3,503.3,442.3z"/>
	<g>
		<g>
			<path class="st3" d="M409.8,418.2l-0.6,4.4c0,0-10.6,5.3-12.3,5.3c-1.7,0.1-22.6-4-19.7,15.9l51.9-1.8l-1.1-24.4L409.8,418.2
				L409.8,418.2z"/>
			<path class="st3" d="M446.6,439.3v4.8c0,0,20.2,6.8,29.8-1.7c0,0,0.1-1.7-0.3-4.3c-0.6-3.4-2.4-8.2-7-12.3l-1.8-10.8l-15.3,3.8
				v6.1c0,0-4.8,11.2-5.3,13.9C446.6,439.1,446.6,439.2,446.6,439.3L446.6,439.3z"/>
			<polygon class="st4" points="463.1,235.7 470.4,418.8 448.9,420.7 430.1,271.8 430.1,420.7 406.2,420.7 399.8,236.5 			"/>
			<path class="st4" d="M446.6,439.3v4.8c0,0,20.2,6.8,29.8-1.7c0,0,0.1-1.7-0.3-4.3c-13.4,7.2-28.5,1.1-29.4,0.8
				C446.6,439.1,446.6,439.2,446.6,439.3L446.6,439.3z"/>
			<polygon class="st4" points="429.1,442 428.7,437.2 377,439.6 377.2,443.8 			"/>
		</g>
		<path class="st0" d="M482.9,321.1l-21.1,1.7l-28.8,2.4l-4.4-17.5l-3.6,16.6l-37.6-1.2l7.5-140.1l-2.7-38.2
			c0,0,16.5-17.1,36.9-20.8c34.8,2.5,47.3,18.8,47.3,18.8s-1.9,30.3-8.5,47.8c-0.1,0.4-0.2,1.1-0.3,2c-0.1,1.1,0,2.6,0,4.4v0.1
			c0,1.1,0.1,2.3,0.2,3.6v0.2c1.9,29.1,13.3,108.4,14.8,119c0.1,0.4,0.1,0.7,0.1,0.9C482.8,321,482.9,321.1,482.9,321.1L482.9,321.1
			z"/>
		<path class="st2" d="M467.7,197C467.7,197,467.6,197,467.7,197C467.6,197,467.6,196.9,467.7,197L467.7,197z"/>
		<path class="st2" d="M461.8,322.8c0,0,11.1-30.6-2.9-128.7c-4.9-34.2,5.1-45.6,5.4-46.7c0,0.2-0.3,1.6-1.8,10.7
			c-1.4,7.9,0.7,26,1.5,34.4c0.2,2.7,3.2,4.4,3.7,4.4c0,0.4,0.1,1.6,0.2,3.6v0.2c1.9,29.1,13.3,108.4,14.8,119
			c0.1,0.4,0.1,0.7,0.1,0.9v0.3L461.8,322.8L461.8,322.8z"/>
		<g>
			<path class="st5" d="M472.1,252.6c0,0,30.6-29.5,31.2-36c0.5-6.5-12.8-33-12.8-33l-18.7,1.7L486,216l-21.2,30.4"/>
			<path class="st5" d="M464.8,246.4c0,0-15.2,7.9-15,10.1c0.2,2.3,4.1,0.8,6.9-0.8c0,0-3.5,11.9-1.9,16.1c0.6,1.8,4.1,0.9,4.9-2
				c0,0,8.2-1.6,9.6-4c3.3-4.3,3-7.3,2.6-14.3L464.8,246.4L464.8,246.4z"/>
			<path class="st0" d="M475.8,145.2c0,0,32.2,64.7,31.2,70.7s-28.6,40.8-28.6,40.8l-15.1-15.9l15.1-27.5l-16.9-25.9
				C461.5,187.5,451.7,150.1,475.8,145.2L475.8,145.2z"/>
		</g>
		<g>
			<path class="st5" d="M395.1,188l-10.4,30.7l15.5,30.4c0,0,13.3,6.6,13.5,8.9c0.2,2.3-5.2-0.3-7.4-1.4c0,0,4.5,8,3.6,15.5
				c-0.2,1.9-2.8,1.6-3.8-1.1c0,0-6.1,0-7.4-2.2c-2.9-3.6-3.2-6.6-3.8-13.6c0,0-22.3-29.5-22.7-36c-0.4-6.5,9.3-33,9.3-33L395.1,188
				L395.1,188z"/>
			<path class="st0" d="M392.2,147.8c0,0-23.5,64.7-22.8,70.7s20.8,40.8,20.8,40.8l11-15.8l-11-27.5l12.3-25.9
				C402.6,190.2,409.7,152.7,392.2,147.8z"/>
		</g>
		<polygon class="st6" points="448.9,283.6 460.9,286.6 472.8,283.6 472.8,261.1 448.9,261.1 		"/>
		<polygon class="st6" points="392.9,283.6 404,286.6 415.1,283.6 415.1,261.1 392.9,261.1 		"/>
		<polygon class="st6" points="429.1,312.3 429.3,292.9 429.4,273.4 429.3,234.6 428.8,195.7 428.4,176.3 427.9,156.9 427.7,176.3 
			427.7,195.7 427.8,234.6 428.3,273.4 428.6,292.9 		"/>
		<path class="st7" d="M478.4,213.4l-5.8-8.8c3.5,3.7,4.5,4.2,6.5,2.7c6.1-4.5,13.4,0.1,19.8,3.9
			C487.1,207.8,480.7,208.6,478.4,213.4L478.4,213.4z"/>
		<path class="st7" d="M394.8,159.7l-1.5,50.1l-3,6.2l8.8,21.9c0,0-6.2-17.4-14.3-19.2s-8.1-1.9-8.1-1.9l9-0.9L394.8,159.7
			L394.8,159.7z"/>
		<g>
			<path class="st5" d="M446.7,125.9l-1.3,5.7c0,0-0.5,1.3-1.3,3.5c-2.7,7.2-9.4,23.4-15.8,30.8c-6.6-13.8-8.8-24.5-9.5-30.1
				c-0.4-2.8,0.2-4.2,0.2-4.2s-0.3-4.9-0.3-6.1v-9.8l11.4,1.8l14.1-13.2c0,0-0.1,1-0.2,2.6c-0.1,2.2-0.2,5.5,0,8.4
				c0.2,1.6,0.5,3.4,0.9,4.9C445.8,123.4,446.7,125.9,446.7,125.9L446.7,125.9z"/>
			<path class="st8" d="M445,120.2c-8.9,18.1-21.9,10.6-26.3,7.5v-9.1l11.4,1.8l13.9-13.6c-0.1,2.2-0.2,5.5,0,8.4
				C444.2,116.9,444.6,118.6,445,120.2z"/>
		</g>
		<g>
			<path class="st9" d="M446.1,135.1c-2.1,5.6-6.4,16.1-11.2,24.9c-2.3,4.2-4.7,8-7.1,10.7c-1.5-3.1-2.7-6.2-3.7-9.2
				c-4.2-12.6-4.8-24.1-5.5-29.3c7.9,5.8,18,6,27.3-7.8L446.1,135.1L446.1,135.1z"/>
			<polygon class="st10" points="420.9,146 429.4,136.1 437.4,146.3 436,149.9 429.4,138.6 422.1,150.6 			"/>
			<path class="st11" d="M430.5,145l1.9-4.7c-2.6-2.3-3.9-2-6.3,0c0.4,2,0.8,3.2,1.7,4.9l0,0l-3.7,15.8c1,3,2.2,6.1,3.7,9.2
				c2.4-2.7,4.8-6.6,7.1-10.7L430.5,145L430.5,145z"/>
		</g>
		<g>
			<polygon class="st6" points="446.2,124 427.8,170.7 449.5,150.1 445.4,141.8 454.6,138 450.9,128.5 			"/>
			<path class="st6" d="M418.7,125.5c0.4,14,4,29.5,8.8,44.7l-19.9-20.1l6.4-7.7l-7.6-3.5l6.5-9.8L418.7,125.5L418.7,125.5z"/>
		</g>
		<g>
			<g>
				<path class="st12" d="M408.3,184.3c-0.7-0.3-1.4-0.7-2-1.3c-3.3-3-5.1-9.4-5.2-18.9c-0.1-7.1,0.8-13.4,0.8-13.5l0.8,0.1
					c0,0.2-3.4,24.9,4.2,31.7c1.8,1.6,4.1,2.1,6.9,1.4l0.2,0.8C411.8,185.1,410,185,408.3,184.3L408.3,184.3z"/>
				<path class="st12" d="M400.4,182.3c-1-0.5-2.1-1.1-3.2-2.1l0.5-0.6c2.8,2.3,5.3,3.1,7.6,2.1c8.5-3.5,11.1-28.5,11.1-28.7
					l0.8,0.1c0,0.1-0.7,6.5-2.4,13.2c-2.3,9.2-5.4,14.6-9.2,16.1C404,183.2,402.3,183.1,400.4,182.3L400.4,182.3z"/>
				<path class="st11" d="M401.9,151.2c-0.3-0.1-0.4-0.4-0.4-0.7s0.3-7,4-10.1c1.5-1.2,3.3-1.7,5.4-1.4s3.8,1.3,4.9,2.9
					c2.9,4,1.7,10.5,1.6,10.8c-0.1,0.4-0.4,0.6-0.8,0.6c-0.4-0.1-0.6-0.4-0.6-0.8c0-0.1,1.1-6.2-1.4-9.7c-0.9-1.3-2.3-2.1-4-2.3
					s-3.1,0.1-4.3,1.1c-3.2,2.7-3.5,9-3.5,9.1c0,0.4-0.3,0.7-0.7,0.7C402.1,151.3,402,151.3,401.9,151.2L401.9,151.2z"/>
				<path class="st13" d="M418,183.8c0.1,0.9-1,1.7-2.3,1.8s-2.4-0.6-2.5-1.5s1-1.7,2.3-1.8S417.9,182.9,418,183.8z"/>
				<path class="st13" d="M398.3,180.2c-0.6,0.7-1.9,0.5-2.9-0.3c-1-0.9-1.3-2.1-0.7-2.8c0.6-0.7,1.9-0.5,2.9,0.3
					C398.6,178.3,398.9,179.5,398.3,180.2z"/>
				<path class="st11" d="M410.5,140.1c-0.3-0.1-0.5-0.4-0.4-0.8c0.1-0.4,2.1-14.9,8.6-14.9c0.1,0,0,1.4,0,1.4
					c-5.5,0.7-7.2,13.7-7.2,13.8c-0.1,0.4-0.4,0.6-0.8,0.6C410.7,140.2,410.6,140.2,410.5,140.1z"/>
			</g>
			<g>
				<rect x="451.4" y="177.4" class="st12" width="1" height="4.6"/>
				<path class="st13" d="M455.8,184.9c0,2.4-2,4.4-4.4,4.4s-4.4-2-4.4-4.4s2-4.4,4.4-4.4S455.8,182.4,455.8,184.9z"/>
				<circle class="st12" cx="449.5" cy="184.1" r="2.6"/>
				<path class="st11" d="M451.2,178.1c0-1,0.1-9.3,1-25.4c0.8-13.3-4.4-25.3-6.1-28.9l-0.6-2c0.1-0.8,9.1,9.5,8.1,31
					c-0.8,16.1-0.9,25.2-0.9,25.3C452.2,178.5,451.2,178.1,451.2,178.1z"/>
			</g>
		</g>
		<g>
			<path class="st5" d="M410.5,97c-0.5,16.1,7.9,29.4,18.8,29.7s20-12.5,20.5-28.6s-7.9-29.4-18.8-29.7
				C420.1,68.2,411,80.9,410.5,97z"/>
			<path class="st3" d="M440.2,84.5c0,0-11.5,6.5-14.6,4.1s-2.3-6.1-2.3-6.1s-15,8.1-19.8,3s4.5-8.3,4.5-8.3s-4.9-2.1-3.4-9.3
				c1.7-8.6,14.2-7.6,18.4-6.3c0,0-0.3-5.3,4.4-7.3c4.7-2.1,17.8,7.7,20.3,15.5c0,0,4.9-2.3,7,2c2.2,4.3-1.2,8.4-1.2,8.4
				s2.3,1.1,2.4,3c0.1,3.5-3.4,6.3-3.4,14.3c0,0-4.8,2.3-4.7,8.9c0,0-3.3-11.2-0.1-18C447.6,88.5,440.4,89.4,440.2,84.5L440.2,84.5z
				"/>
			<g>
				<path class="st5" d="M412.2,101.2c0,0-3.5-8.9-9.3-6.9s0.2,16.8,9.1,13.9L412.2,101.2L412.2,101.2z"/>
				<path class="st14" d="M404.5,98.4c4.1,0.1,6.3,3.8,6.4,4s0,0.4-0.1,0.5h-0.2c-0.1,0-0.2-0.1-0.3-0.2c0,0-0.9-1.4-2.4-2.5
					c-1.4,0.9-0.8,3.3-0.8,3.3c0.1,0.2-0.1,0.4-0.2,0.4h-0.1c-0.1,0-0.3-0.1-0.3-0.2s-0.7-2.7,0.8-3.9c-0.8-0.4-1.7-0.7-2.7-0.8
					h-0.1c-0.2,0-0.3-0.2-0.3-0.3C404.2,98.5,404.3,98.4,404.5,98.4L404.5,98.4z"/>
			</g>
			<g>
				<path class="st5" d="M447.6,108.4c5.8,2.3,10.8-3.3,11.8-8c0.5-2.4,0-4.5-1.9-5.3c-4-1.6-7.2,2.2-8.7,4.6
					C448.2,100.7,447.6,108.4,447.6,108.4L447.6,108.4z"/>
				<path class="st14" d="M455.6,99c-4.1-0.2-6.5,3.4-6.6,3.6s-0.1,0.4,0.1,0.5c0.1,0,0.1,0.1,0.2,0.1s0.2-0.1,0.3-0.2
					c0,0,0.9-1.4,2.5-2.3c1.4,1,0.6,3.3,0.6,3.4c-0.1,0.2,0,0.4,0.2,0.4h0.1c0.1,0,0.3-0.1,0.3-0.2s0.9-2.6-0.6-3.9
					c0.8-0.4,1.7-0.6,2.8-0.6h0.1c0.2,0,0.3-0.1,0.4-0.3C456,99.2,455.8,99,455.6,99z"/>
			</g>
			<polygon class="st3" points="407.9,86.5 410.4,98 412.7,102.6 413.2,84.2 			"/>
			<path class="st3" d="M423.3,101.8c0,2.2-0.5,4-1.2,4s-1.2-1.8-1.2-4s0.5-4,1.2-4S423.3,99.6,423.3,101.8z"/>
			<path class="st3" d="M437.8,101.8c0,2.2-0.5,4-1.2,4c-0.6,0-1.2-1.8-1.2-4s0.5-4,1.2-4S437.8,99.6,437.8,101.8z"/>
			<g>
				<g>
					<g>
						<path class="st14" d="M442.6,105.1c0,0.3,0.9,0.5,1.9,0.4s1.8-0.5,1.7-0.8c0-0.3-0.9-0.5-1.9-0.4
							C443.4,104.4,442.6,104.8,442.6,105.1z"/>
						<path class="st14" d="M442.4,107.1c0.1-0.3,0.9-0.5,1.9-0.3s1.7,0.6,1.7,0.9c-0.1,0.3-0.9,0.5-1.9,0.3
							S442.3,107.4,442.4,107.1z"/>
					</g>
					<g>
						<path class="st14" d="M417.2,106.3c0-0.3-0.9-0.5-1.9-0.4s-1.8,0.5-1.7,0.8c0,0.3,0.9,0.5,1.9,0.4
							C416.4,107,417.2,106.7,417.2,106.3z"/>
						<path class="st14" d="M417.4,104.4c-0.1,0.3-0.9,0.5-1.9,0.3s-1.7-0.6-1.7-0.9c0.1-0.3,0.9-0.5,1.9-0.3
							S417.5,104.1,417.4,104.4z"/>
					</g>
				</g>
				<g>
					<path class="st14" d="M429.2,109.5h0.1c0.5,0,1.7-0.4,2-3.5c0.4-5.1-0.4-7.9-0.4-8c0-0.2-0.2-0.3-0.4-0.2
						c-0.2,0-0.3,0.2-0.2,0.4c0,0,0.7,2.8,0.4,7.8c-0.1,2.1-0.8,2.9-1.3,2.9c-0.8,0.1-1.9-1.3-2.4-3.6c0-0.2-0.2-0.3-0.4-0.3
						s-0.3,0.2-0.3,0.4C426.7,107.8,427.9,109.5,429.2,109.5L429.2,109.5z"/>
					<path class="st14" d="M429.2,115.2c5.2,0.2,8.4-3.7,8.6-3.9c0.1-0.1,0.1-0.4,0-0.5s-0.4-0.1-0.5,0c0,0-3.2,3.8-8,3.7
						c-4.8-0.1-7.1-4-7.1-4.1c-0.1-0.2-0.3-0.2-0.5-0.1s-0.2,0.3-0.1,0.5C421.7,110.9,424,115,429.2,115.2z"/>
					<g>
						<path class="st3" d="M419.3,94.3c1.1-0.4,2.4-0.2,3.7,0.5c0.5,0.2,1.1,0.1,1.3-0.4c0.2-0.5,0.1-1.1-0.4-1.3
							c-1.9-1-3.6-1.2-5.3-0.6c-2.6,0.9-3.9,4.4-3.4,4.7C415.3,97.2,417.5,94.8,419.3,94.3L419.3,94.3z"/>
						<path class="st3" d="M443.5,98.1c0.5-0.2-0.3-3.9-2.8-5.1c-1.5-0.7-3.3-0.8-5.3-0.1c-0.5,0.2-0.8,0.7-0.6,1.2
							c0.2,0.5,0.7,0.8,1.2,0.6c1.5-0.5,2.7-0.5,3.8,0C441.6,95.6,443.4,98.2,443.5,98.1L443.5,98.1z"/>
					</g>
				</g>
			</g>
		</g>
	</g>
	<g>
		<g>
			<path class="st15" d="M190.5,183.7c-1.7,2.2-5.7,3.7-10.1,3.2H180c-2.8-0.4-5.7-1.5-8.3-3.7c-1.1-3.4-2.4-7.2-3.6-11.1
				c-0.7-2.2-1.4-4.6-2.1-6.9c-1.9-6.4-3.8-13.1-5.4-19.7c-8-44.2,11.7-25,17.7-16.3c0,0.1,0.1,0.2,0.1,0.3c0.1,0.2,0.2,0.4,0.2,0.6
				c6.2,16,9.3,24.7,10.8,38c0.3,2.8,0.6,5.8,0.8,9.1C190.3,179.2,190.4,181.4,190.5,183.7L190.5,183.7z"/>
			<path class="st16" d="M171.7,183.1C171.7,183.1,174.3,185.3,171.7,183.1c-1.1-3.4-2.4-7.2-3.6-11.1c-0.7-2.2-1.4-4.6-2.1-6.9
				c6.7-10.8,10.7-23.1,12.4-35.6c0.1,0.2,0.2,0.4,0.2,0.6c6.2,16,9.3,24.7,10.8,38c-2.8-2.3-13.1-7.1-13.6-5.4
				C172.9,173,171.7,183.1,171.7,183.1L171.7,183.1z"/>
			<path class="st9" d="M172.5,159.3c8.3,0,15.2,5.6,17.5,9.2c0-12-5.5-28.5-11.7-39.4c-6-8.7-25.6-27.9-17.6,16.3
				C161.2,147.5,171.9,157.2,172.5,159.3L172.5,159.3z"/>
		</g>
		<g>
			<path class="st0" d="M168.5,440.8l-29-1l1.1-26l18.6,0.7l0.6,4.6c0,0,10.8,5.6,12.6,5.7"/>
			<path class="st17" d="M172.5,424.8c1.8,0.1,20.3,2.2,20.1,16.9l-24.1-0.9"/>
			<path class="st0" d="M120.6,438.7c0,0.2,0.1,0.3,0.1,0.4v5.6c0,0-22.6,7.9-33.4-2c0,0-0.2-2,0.4-5"/>
			<path class="st0" d="M87.7,437.8c0.7-3.9,2.6-9.5,7.8-14.3l2.1-12.6l17.1,4.5v7.1c0,0,5.4,13,6,16.1"/>
			<path class="st17" d="M120.6,438.7c0,0-1.8-7.5-15.9-8.4c-14-0.9-17.1,7.5-17.1,7.5l15.5,8.8L120.6,438.7z"/>
			<polygon class="st18" points="166.2,244.4 166.2,415.5 135.7,417.3 135.2,365.3 134.3,261.7 131.1,296.7 120,417.3 91.5,414.6 
				95.9,295.6 98,240.6 			"/>
			<path class="st2" d="M166.2,244.4v46.5c-10.1,1.6-22.6,1.2-22.9,4.2c-1.4,13.5-2.8,40.3-8.1,75.5l-0.9-109l-2.7,29.7
				c-9.1,0.3-27.8-1.1-27.9,0c-2.6,24.9-8.8,58.2-11.2,97L98,240.4L166.2,244.4L166.2,244.4z"/>
			<polygon class="st0" points="139.5,439.8 139.5,434.6 192.9,437.2 192.6,441.7 			"/>
			<path class="st0" d="M120.6,439.1v5.6c0,0-22.6,7.9-33.4-2c0,0-0.2-2,0.4-5c15,8.3,31.9,1.3,32.9,0.9
				C120.6,438.9,120.6,439,120.6,439.1z"/>
		</g>
		<path class="st9" d="M175.9,286.3l-30.4,1l-3.9,0.1l-5.5-17.6l-3,18.7l-3.1-0.3l-39.4-3.4c0,0,8.1-104.6,5.1-112.9
			c-4.2-11.5-6.5-28.3-7.7-39.4c-0.7-6.8-1-11.4-1-11.4s12.8-17.3,48.4-20c21,4,37.8,22.1,37.8,22.1s-0.5,33-1.3,46.8
			C169.2,218.1,175.9,286.3,175.9,286.3L175.9,286.3z"/>
		
			<rect x="95.3" y="241.4" transform="matrix(6.522508e-02 -0.9979 0.9979 6.522508e-02 -150.9106 345.6335)" class="st18" width="27.5" height="23.9"/>
		<path class="st2" d="M161.4,121.2l7.6,37.4c0,0,3.8,0.5,7.7,1.2c4,0.7,9.7,4.8,9.7,4.8s-1.6-4.9-5.9-7.3c-2.6-1.5-5.2-1.9-6.6-1.9
			C173,155.4,161.4,121.2,161.4,121.2z"/>
		<path class="st2" d="M104,201.8c-6.1,52-5.1,76.9,17.1,85.6l-30.3-2.5c0,0,8.1-104.6,5.1-112.9c-4.2-11.5-6.5-28.3-7.7-39.4
			l3.4-11.5c0,0,24,13.9,30.4,31s46.9,6.5,46.9,6.5l3.8,0.6c0,0-2.2,27.2-1.8,36.6C171.4,205.2,104,201.8,104,201.8L104,201.8z"/>
		<path class="st2" d="M141.7,287.4l-5.5-17.6c0.3-2.9,1.4-13.2,1.4-13.2C137.7,272.8,141.7,287.4,141.7,287.4L141.7,287.4z"/>
		<path class="st18" d="M148.6,105.5c-3.9-1.6-8.1-3.4-12.4-4.3c-7.9,0.6-20.1,3.1-21.6,3.7c0,0,0.2,6.8,1.4,11.2
			c3.8,13.7,11.9,17.5,20.6,25c12.9-12,11.5-26.6,11.5-26.6S148.6,106.6,148.6,105.5z"/>
		<g>
			<g>
				<path class="st12" d="M127.9,163.1c-0.8-0.1-1.6-0.2-2.3-0.6c-4.2-1.7-8.1-7.3-11.5-16.5c-2.5-6.8-3.9-13.2-3.9-13.2l0.8-0.2
					c0.1,0.3,5.3,25.2,14.9,29.2c2.3,0.9,4.7,0.6,7.1-1l0.4,0.7C131.5,162.7,129.7,163.2,127.9,163.1z"/>
				<path class="st12" d="M119.6,163.9c-1.2-0.1-2.4-0.4-3.8-0.9l0.3-0.7c3.5,1.3,6.2,1.1,8-0.5c7.1-6.3,1-31.3,0.9-31.5l0.8-0.2
					c0,0.1,1.6,6.5,2.2,13.6c0.9,9.6-0.3,15.9-3.4,18.7C123.3,163.5,121.6,164.1,119.6,163.9L119.6,163.9z"/>
				<path class="st11" d="M110.4,133.4c-0.3,0-0.5-0.2-0.6-0.5s-2.1-6.9,0.5-11.1c1-1.7,2.6-2.8,4.7-3.2c2.1-0.4,4.1-0.1,5.7,1.1
					c4.1,2.9,5.2,9.5,5.3,9.8c0.1,0.4-0.2,0.7-0.6,0.8c-0.4,0.1-0.7-0.2-0.8-0.6c0-0.1-1.1-6.4-4.7-8.9c-1.3-0.9-2.9-1.2-4.6-0.9
					c-1.7,0.4-3,1.2-3.8,2.6c-2.2,3.7-0.3,9.9-0.3,10c0.1,0.4-0.1,0.8-0.5,0.9C110.7,133.4,110.4,133.4,110.4,133.4z"/>
				<path class="st10" d="M137,159.3c0.4,0.9-0.3,2-1.6,2.5c-1.2,0.5-2.5,0.3-2.9-0.6c-0.4-0.9,0.3-2,1.6-2.5S136.7,158.5,137,159.3
					z"/>
				<path class="st13" d="M116.8,162.6c-0.3,0.9-1.6,1.2-2.9,0.7c-1.2-0.5-2-1.6-1.6-2.5c0.3-0.9,1.6-1.2,2.9-0.7
					C116.4,160.6,117.1,161.7,116.8,162.6z"/>
				<path class="st11" d="M114.9,119.7c-0.3,0-0.6-0.3-0.6-0.6c-0.1-0.4-3.1-15.1,3.2-17.4c0.1,0,0.5,1.3,0.5,1.3
					c-5,2.6-2.3,15.7-2.3,15.8c0.1,0.4-0.2,0.8-0.6,0.8C115.1,119.7,115,119.7,114.9,119.7z"/>
			</g>
			<g>
				
					<rect x="155" y="157.4" transform="matrix(0.9953 -9.688717e-02 9.688717e-02 0.9953 -14.7506 15.822)" class="st12" width="1" height="4.7"/>
				<path class="st13" d="M152,164.6c-0.2,3.1,2.7,5.4,5.6,4.6c1.9-0.5,3.3-2.2,3.4-4.1c0.2-3.1-2.7-5.4-5.6-4.6
					C153.5,161,152.1,162.7,152,164.6z"/>
				<path class="st12" d="M155.7,163.7c-0.2,1.9,1.6,3.3,3.4,2.8c1-0.3,1.8-1.2,1.8-2.2c0.2-1.9-1.6-3.3-3.4-2.8
					C156.6,161.7,155.8,162.6,155.7,163.7z"/>
				<path class="st11" d="M154.7,158.4c-0.1-1.1-0.9-9.5-1.6-26c-0.6-13.6-7.1-25.3-9.2-28.8l-0.8-2c0-0.9,10.3,8.7,11.4,30.7
					c0.9,16.5,1.6,25.7,1.6,25.8C155.8,158.7,154.7,158.4,154.7,158.4z"/>
			</g>
		</g>
		<g>
			<path class="st15" d="M117.7,104.9c0,0,1.7,9.2,2.5,11.5c2.8,7.3,8.3,12.9,15.8,19.3c10.3-10.9,9.9-22.9,9.9-22.9s0.3-5,0.3-6.2
				s0.5-11.2,0.5-11.2l-12.2,3l-16.1-8.1L117.7,104.9L117.7,104.9z"/>
			<path class="st19" d="M117.9,99.3c9.1,18.6,23.5,16.6,28,13.4l0.4-13.3l-11.7,1.8l-16.2-14.8c0.1,1.5,0.1,6.1-0.1,9.5
				C118.2,97.5,118.1,98.8,117.9,99.3z"/>
		</g>
		<g>
			<g>
				<path class="st15" d="M117.6,83.8l-0.4,6.5c-5.6,1.6-9.8-4.2-10.3-8.7c-0.3-2.3,0.4-4.2,2.3-4.8c3.9-1.1,6.5,2.8,7.7,5.2
					C117.4,83,117.6,83.8,117.6,83.8z"/>
				<path class="st20" d="M110.3,79.6c3.6,1.5,4.2,5.5,4.3,5.7c0,0.2-0.1,0.3-0.3,0.4h-0.2c-0.1,0-0.2-0.1-0.2-0.2
					c0,0-0.3-1.5-1.2-3c-1.6,0.3-1.8,2.6-1.8,2.6c0,0.2-0.2,0.3-0.4,0.3h-0.1c-0.1-0.1-0.1-0.3-0.1-0.4s0.3-2.6,2-3.1
					c-0.5-0.6-1.2-1.2-2.1-1.6h-0.1c-0.2,0-0.2-0.3-0.2-0.4C110,79.6,110.2,79.5,110.3,79.6L110.3,79.6z"/>
			</g>
			<g>
				<path class="st15" d="M151.7,82.2l-0.4,6.5c5.4,2.3,10.2-2.8,11.3-7.2c0.5-2.2,0.1-4.2-1.6-5c-3.7-1.6-6.8,1.9-8.3,4.1
					C152,81.5,151.7,82.2,151.7,82.2z"/>
				<path class="st20" d="M159.5,79c-3.7,1-4.9,4.9-5,5.1s0,0.3,0.2,0.4h0.2c0.1,0,0.2-0.1,0.2-0.2c0,0,0.5-1.5,1.6-2.8
					c1.5,0.5,1.5,2.8,1.5,2.9c0,0.2,0.1,0.3,0.3,0.3h0.1c0.1,0,0.2-0.2,0.2-0.3s0.1-2.6-1.6-3.4c0.6-0.6,1.4-1.1,2.3-1.3h0.1
					c0.2,0,0.3-0.2,0.2-0.4C159.8,79.1,159.7,79,159.5,79L159.5,79z"/>
			</g>
			<path class="st15" d="M154.7,70.9c0.2,5.7-1.7,20.9-2.2,23.5s-7.8,15-10.1,15.3c-2.3,0.2-10.4,0.9-13.3-0.7
				c-2.9-1.6-11.8-12.7-12.4-14.9c-0.6-2.2-2-16.6-2.2-22c-0.5-16.5,8.1-23.7,19.2-24S154.2,54.4,154.7,70.9z"/>
			<path class="st3" d="M141.6,81c0,1.6,0.5,2.9,1.2,2.9s1.2-1.3,1.2-2.9s-0.5-2.9-1.2-2.9C142.2,78.1,141.6,79.4,141.6,81z"/>
			<path class="st3" d="M126.7,81c0,1.6,0.5,2.9,1.2,2.9s1.2-1.3,1.2-2.9s-0.5-2.9-1.2-2.9C127.3,78.1,126.7,79.4,126.7,81z"/>
			<path class="st21" d="M149,94.8c-1.1,0.5,0.7-4.2-13.4-3.9c-12.7,0.3-12.2,3.4-14.8,3.4s-5.1-7.2-5.1-7.2l0,0
				c0.4,3.4,0.7,6.2,1,7c0.6,2.2,9.6,13.4,12.4,14.9s11,0.9,13.3,0.7c2.3-0.2,9.6-12.7,10.1-15.3c0.2-1.2,0.7-4.9,1.2-9.2
				C153.7,85.2,150,94.2,149,94.8z M136,102.9c-5.8,0-11.5-3.1-11.5-6.1s5.6-4.5,11.5-4.5s11.7,1.3,11.7,4.3S141.8,102.9,136,102.9z
				"/>
			<g>
				<g>
					<g>
						<path class="st20" d="M121.8,85.6c0,0.3-0.9,0.5-1.9,0.4s-1.8-0.5-1.8-0.8s0.9-0.5,1.9-0.4C121.1,84.9,121.8,85.3,121.8,85.6z
							"/>
						<path class="st20" d="M122,87.6c-0.1-0.3-0.9-0.5-1.9-0.3s-1.8,0.6-1.7,0.9s0.9,0.5,1.9,0.3C121.3,88.4,122.1,88,122,87.6z"/>
					</g>
					<g>
						<path class="st20" d="M147.9,86.9c0-0.3,0.9-0.5,1.9-0.4s1.8,0.5,1.8,0.8s-0.9,0.5-1.9,0.4C148.6,87.6,147.8,87.2,147.9,86.9z
							"/>
						<path class="st20" d="M147.6,84.9c0.1,0.3,0.9,0.5,1.9,0.3s1.8-0.6,1.7-0.9s-0.9-0.5-1.9-0.3
							C148.3,84.1,147.6,84.5,147.6,84.9z"/>
					</g>
				</g>
				<g>
					<path class="st20" d="M135.6,90.1L135.6,90.1c-0.6,0-1.9-0.4-2.1-3.6c-0.4-5.2,0.4-8.1,0.4-8.2c0-0.2,0.2-0.3,0.4-0.2
						c0.2,0,0.3,0.2,0.2,0.4c0,0-0.8,2.9-0.4,7.9c0.2,2.1,0.8,2.9,1.3,3c0.8,0.1,2-1.4,2.4-3.7c0-0.2,0.2-0.3,0.4-0.3
						s0.3,0.2,0.3,0.4C138.2,88.3,136.9,90.1,135.6,90.1L135.6,90.1z"/>
					<path class="st20" d="M136.7,99c-4.9,0.1-8-3.5-8.1-3.7c-0.1-0.1-0.1-0.3,0-0.5c0.1-0.1,0.3-0.1,0.5,0c0,0,3,3.6,7.6,3.5
						s6.7-3.8,6.7-3.8c0.1-0.2,0.3-0.2,0.4-0.1c0.2,0.1,0.2,0.3,0.1,0.4C143.9,95,141.7,98.9,136.7,99z"/>
					<g>
						<path class="st21" d="M145.7,74.5c-1.1-0.4-2.4-0.2-3.8,0.5c-0.5,0.3-1.1,0.1-1.3-0.4c-0.3-0.5-0.1-1.1,0.4-1.3
							c1.9-1,3.7-1.2,5.4-0.6c2.6,0.9,4,4.6,3.5,4.8C149.7,77.5,147.5,75.1,145.7,74.5z"/>
						<path class="st21" d="M120.9,78.5c-0.5-0.2,0.3-4,2.8-5.2c1.6-0.8,3.4-0.8,5.4-0.1c0.5,0.2,0.8,0.8,0.6,1.3s-0.8,0.8-1.3,0.6
							c-1.5-0.5-2.8-0.5-3.9,0C122.9,75.9,121,78.5,120.9,78.5z"/>
					</g>
				</g>
			</g>
		</g>
		<g>
			<g>
				<path class="st15" d="M152.9,160.6c0,0,7.5-1.7,14.6-0.9c3.8,1,8.2,5.4,9,6.1c1.5,1.8,2.8,7.8,2.6,9.4c0.2,2.2-1,4.2-2.7,2
					c-1.8-3.7-3.6-7.7-3.6-7.7l-4-4.2c0,0,3.2,3.1,4,4.2c0.8,1.2,2.4,11.3,1.7,12.6s-3.1,0.2-3.4-2.2c0,0,0.1,2.4-0.6,3
					c-0.7,0.6-1.5,0.2-2.3-2.9c0,0-0.6,1.9-1.5,2c-1.9-0.1-2.6-6.9-2.9-7.3c-0.4-0.4-6.4,2.5-9.8-5
					C149.9,163.2,152.9,160.6,152.9,160.6L152.9,160.6z"/>
				<path class="st22" d="M171.1,179.9c0-1.4-0.2-2.7-0.3-4c-0.2-1.3-0.5-2.6-1-3.8C170.1,174.7,170.5,177.3,171.1,179.9z"/>
				<path class="st22" d="M168.2,179.9c0-1.1-0.2-2.2-0.4-3.3c-0.3-1-0.5-2.1-1.1-3C167.2,175.8,167.5,177.9,168.2,179.9z"/>
			</g>
			<path class="st15" d="M175.1,192.6c-0.3,0-0.6-0.1-0.9-0.1c-9.3-1.1-52.8-12.9-52.8-12.9l-0.1-2.7l-0.3-5.8l6.4-1.8
				c0,0,15-0.1,36.4,2.4c1.5,0,3,0.1,4.4,0.2c9.7,0.9,17,4.1,20.3,7.8c1.2,1.3,1.9,2.6,2,3.9C191.2,189.1,183.9,193.3,175.1,192.6
				L175.1,192.6z"/>
			<path class="st15" d="M175.1,192.6c-0.3,0-0.6-0.1-0.9-0.1c-9.3-1.1-52.8-12.9-52.8-12.9l-0.1-2.7l-0.3-5.8l6.4-1.8
				c0,0,15.1-1.7,36.5,0.8c18.1,1.9,21.3,6,24.6,9.7c1.2,1.3,1.9,2.6,2,3.9C191.2,189.1,183.9,193.3,175.1,192.6L175.1,192.6z"/>
			<path class="st23" d="M174.2,171.7c0,0-6.2-1.7-14.6-1.4c0,0,13.4,1.3,20.6,4.8C180.2,175,177,172.6,174.2,171.7L174.2,171.7z"/>
			<path class="st16" d="M175.1,192.6c-0.3,0-0.6-0.1-0.9-0.1c-9.3-1.1-52.8-12.9-52.8-12.9l-0.1-2.7c7.5,2.5,14.9,5.1,22.6,6.8
				c11.8,2.6,23.7,5.4,35.6,3.3c0.2,0,0.4-0.1,0.6-0.1c9.4-2.1,9.7-9,10-9.9l0.3,0.3c0.1,2,0.2,4.2,0.3,6.5
				C191.2,189.1,183.9,193.3,175.1,192.6L175.1,192.6z"/>
			<path class="st15" d="M83.1,144.9c5.4,23.1,9,31.2,22.1,51.7c4.4,1.3,11.6-2.3,14-11c-3.2-10.9-6.4-25.4-11.1-38.1
				C99,127.4,93,121.1,89.4,123C85.6,125,81.3,131.7,83.1,144.9z"/>
			<path class="st9" d="M89.5,178.1c3-1.2,29.8-18.9,29.7-19.2c-9.1-20.1-26.1-43.3-29.3-40.6c-5.9,5-8.6,13.4-6.8,26.5
				C84.1,149.5,88.5,174.6,89.5,178.1z"/>
			<g>
				<path class="st15" d="M130.3,176.4c0,0-4.8-12-6.5-14.2c-2.8-3.3-9.5-6-10.5-6.5c-2.3-0.7-7.9,0.1-9.1,1c-2.1,0.7-3.9,2.6-1,3.4
					c4.3,0.3,9.1,0,9.1,0l5.7,3.1c0,0-4.4-1.9-5.8-2.2c-1.5-0.3-11.5,2.3-12.4,3.5c-0.8,1.2,1.3,3.1,3.7,2.4c0,0-2.2,0.9-2.4,1.8
					c-0.2,0.9,0.6,1.6,3.8,1c0,0-1.5,1.4-1.1,2.3c1.1,1.8,7.6-0.3,8.2-0.1c0.6,0.2,0.8,7.3,9.4,7.5
					C129.2,180.8,130.3,176.4,130.3,176.4z"/>
				<path class="st23" d="M113.6,170.3c-0.5,0.1-5.5,2.4-9.8,1.9c1.1,1.8,7.6-0.3,8.2-0.1c0.6,0.2,0.8,7.3,9.4,7.5
					c3,0.5,8.9-4.2,10.3-4.8C119.5,176.1,116.9,178.6,113.6,170.3L113.6,170.3z"/>
				<path class="st23" d="M103.5,167c1.2-0.6,2.5-1,3.9-1.3c1.3-0.3,2.6-0.6,4-0.5C108.7,165.8,106.2,166.6,103.5,167z"/>
				<path class="st23" d="M104.9,169.8c1-0.5,2.1-0.7,3.2-1c1.1-0.2,2.2-0.4,3.3-0.2C109.2,169.2,107.1,169.6,104.9,169.8z"/>
			</g>
			<path class="st15" d="M160.7,160.2l-7.9,0.4c0,0-11.2,4.5-29,13.6c-13.2,5.1-20.7,14.1-19.8,19.7c1,5.6,8.9,7.2,16.7,3.3
				c7.7-4,41.6-29.8,41.6-29.8L160.7,160.2z"/>
			<path class="st16" d="M120.7,197.2c0.2-0.1,0.4-0.2,0.6-0.3c10.6-6.7,37.5-26.2,37.5-26.2s-2,1.4-5.3,3.5l0,0
				c-1.1,0.7-2.2,1.4-3.5,2.2c-0.1,0.1-0.2,0.1-0.3,0.2c-0.6,0.4-1.3,0.8-2,1.2h-0.1c-0.6,0.4-1.3,0.8-2,1.2
				c-0.2,0.1-0.3,0.2-0.5,0.3c-1.4,0.9-2.9,1.7-4.4,2.7c-0.2,0.1-0.4,0.2-0.6,0.4c-0.7,0.4-1.4,0.8-2,1.2c-0.1,0.1-0.2,0.1-0.3,0.2
				c-0.8,0.4-1.6,0.9-2.4,1.3c-0.2,0.1-0.4,0.2-0.6,0.4c-0.7,0.4-1.3,0.7-2,1.1c-0.2,0.1-0.4,0.2-0.5,0.3c-0.8,0.4-1.6,0.9-2.4,1.3
				c-0.2,0.1-0.4,0.2-0.6,0.3c-0.7,0.4-1.3,0.7-2,1.1c-0.2,0.1-0.4,0.2-0.6,0.3c-0.8,0.4-1.6,0.8-2.4,1.2c-0.2,0.1-0.3,0.2-0.5,0.2
				c-0.7,0.3-1.3,0.7-2,1c-0.2,0.1-0.4,0.2-0.6,0.3c-0.8,0.4-1.6,0.8-2.4,1.1c-0.1,0-0.2,0.1-0.3,0.1c-0.7,0.3-1.4,0.6-2,0.9
				c-0.2,0.1-0.4,0.2-0.6,0.3c-3.6,1.3-4.9-0.1-5.3-0.4c0,0-0.1,0-0.1-0.1c-0.2-0.1-0.3-0.3-0.5-0.4l-0.1-0.1
				c-0.1-0.1-0.3-0.3-0.5-0.4l-0.1-0.1l-0.5-0.5l-0.1-0.1c-1-1-2-2.2-3-3.5l0,0c-0.2-0.3-0.4-0.5-0.6-0.8l0,0
				c-2.2-3-6.1-11.3-6.1-11.3s0.1-2.2,4.1-7.5l-9.7,6.2c2.8,5.9,6.2,11.7,11.3,19.6l0,0c0.1,0.1,0.2,0.3,0.2,0.4
				c0.1,0.2,0.2,0.4,0.4,0.5l0,0c0.1,0.1,0.1,0.2,0.2,0.2l0,0c0.1,0.1,0.3,0.3,0.4,0.4l0,0c0.1,0.1,0.2,0.2,0.3,0.3l0,0
				c0.1,0.1,0.3,0.2,0.4,0.3l0,0c0.1,0.1,0.2,0.2,0.4,0.2l0,0c0.2,0.1,0.4,0.2,0.7,0.4c0.1,0,0.1,0.1,0.2,0.1l0,0
				c0.2,0.1,0.4,0.2,0.7,0.3l0,0c0.1,0,0.2,0.1,0.3,0.1c0.8,0.2,1.6,0.4,2.5,0.5h2.3c0.4,0,0.8-0.1,1.2-0.2l0,0c0.1,0,0.2,0,0.3-0.1
				l0,0c0.3-0.1,0.7-0.1,1-0.2l0,0c0.1,0,0.3-0.1,0.4-0.1c0.3-0.1,0.6-0.2,1-0.3l0,0c0.1,0,0.2-0.1,0.3-0.1c0.4-0.1,0.7-0.3,1.1-0.4
				l0,0c0.1-0.1,0.3-0.1,0.4-0.2l0,0C119.8,197.6,120.3,197.4,120.7,197.2L120.7,197.2L120.7,197.2z"/>
		</g>
	</g>
	<g>
		<g>
			<path class="st15" d="M300,176.7c0,0-13.9,44.1-14.6,96.9c0,0,5.1,2.3,10.7-0.1c0,0,6.1-48.4,18.7-74.9
				c2.9-5.7,2.3-13.3,0.9-17.6C302.6,159.9,300,176.7,300,176.7L300,176.7z"/>
			<g>
				<path class="st24" d="M288.8,282.8c0,0,2.9,5.8,3.4,6.3c0.5,0.6,4.3,2.1,4.6,3.1c0.3,1-0.9,2-3.7,1c-2.8-1.1-3.6-1.4-4.1-2
					s-3.7-6.6-3.7-6.6L288.8,282.8z"/>
				<path class="st25" d="M287.8,284.2c0,0,2.4,7.1,2.9,7.8c0.5,0.7,4.7,3,4.9,4.2c0.2,1.1-1.4,2.3-4.5,0.6
					c-3.1-1.6-3.9-2.1-4.4-2.8c-0.5-0.7-3.2-8.1-3.2-8.1L287.8,284.2z"/>
				<path class="st15" d="M285.4,273.3c0,0-3,8.2-3.4,10.6c-0.5,2.5,4.2,12.1,4.8,14.9c1,2.9,3.7,2.4,3.1-1.6
					c-0.5-4.3-2.3-11.4-2.4-12.1c-0.1-0.6,3.5-4,4-4.2s2.7,3,2.8,3.6s-1.4,4.6,1.2,6.6c2.7,2,4.1-6.6,3.8-8.3
					c-0.3-1.7-0.8-7.4-4.2-10.6l-8.2-0.2L285.4,273.3L285.4,273.3z"/>
			</g>
		</g>
		<g>
			<path class="st9" d="M310.9,155c0,0-4.8,3-5.8,4.7c-5.8,7.3-16.6,41.9-16.6,41.9l18.6,7.4l6.4-27.1L310.9,155L310.9,155z"/>
			<path class="st2" d="M297.9,205.5c0,0-3.4-13.9-0.7-20.6c2.6-6.7,9.8-22.8,9.8-22.8s-9.8,14.4-13.2,27.4
				c-1.2,4.5,1.6,15.1,1.6,15.1L297.9,205.5L297.9,205.5z"/>
		</g>
		<g>
			<path class="st15" d="M335.7,146.6c23.2,6.1,29.6,13.4,29.6,13.4l-15.6,43.2c0,0-3.2,16.7,1.3,24.6c15.8,13.2,3.5,35,3.5,35
				c-10.6,7.5-33.7-2.9-33.7-2.9s-11.2-3.1-19.3-13.2c0,0,4.3-16.7,1.6-28.2c-5.5-16.2-6.5-30-2.7-41.9
				C304.8,168.3,314.4,147.3,335.7,146.6L335.7,146.6z"/>
			<polygon class="st15" points="345.8,130.7 347.4,151.9 322.4,153.8 322.8,145.3 323.2,138.3 323.4,137.9 328.9,129 			"/>
			<g>
				<g>
					<path class="st15" d="M348.6,120.2c0,0,3-8.6,8.6-6.9s0.4,15.9-8.1,13.4L348.6,120.2z"/>
					<path class="st26" d="M355.7,117.2c-3.9,0.2-5.9,3.8-5.9,4c-0.1,0.2,0,0.4,0.1,0.4h0.2c0.1,0,0.2-0.1,0.3-0.2
						c0,0,0.8-1.4,2.2-2.4c1.4,0.8,0.9,3.1,0.9,3.1c0,0.2,0.1,0.3,0.2,0.4h0.1c0.1,0,0.3-0.1,0.3-0.2s0.6-2.5-0.9-3.7
						c0.7-0.4,1.6-0.8,2.6-0.8h0.1c0.2,0,0.3-0.2,0.3-0.3C356,117.4,355.9,117.2,355.7,117.2L355.7,117.2z"/>
				</g>
				<path class="st23" d="M346.6,138.4c-0.2,0.4-9.5,21-23.8,9.7l0.4-8.7l0.2,0.5C323.3,139.8,335.3,144,346.6,138.4L346.6,138.4z"
					/>
				<path class="st15" d="M350.5,116.1c1,15.2-8.6,28-16.8,28.8c-8.1,0.4-19.4-11.1-20.4-26.3s6.5-28.1,16.8-28.8
					C340.3,89.1,349.5,100.9,350.5,116.1z"/>
				<g>
					<g>
						<g>
							<path class="st26" d="M320.2,124.9c0,0.3-0.8,0.5-1.8,0.4c-0.9-0.1-1.7-0.4-1.7-0.7s0.8-0.5,1.8-0.4S320.2,124.6,320.2,124.9
								z"/>
							<path class="st26" d="M320.5,126.7c-0.1-0.3-0.9-0.4-1.8-0.2s-1.6,0.6-1.6,0.9c0.1,0.3,0.9,0.4,1.8,0.2
								C319.9,127.5,320.6,127,320.5,126.7z"/>
						</g>
						<g>
							<path class="st26" d="M344.3,125.2c0-0.3,0.8-0.5,1.8-0.4c0.9,0.1,1.7,0.4,1.7,0.7c0,0.3-0.8,0.5-1.8,0.4
								C345.1,125.8,344.3,125.5,344.3,125.2z"/>
							<path class="st26" d="M344.1,123.3c0.1,0.3,0.9,0.4,1.8,0.2c0.9-0.2,1.6-0.6,1.6-0.9c-0.1-0.3-0.9-0.4-1.8-0.2
								C344.7,122.6,344,123,344.1,123.3z"/>
						</g>
					</g>
					<path class="st3" d="M324.6,120.7c-0.2-2.5-0.8-4.4-1.5-4.4l-3.1,0.3c0,0,0.5,0.9,2.4,1c-0.2,0.8-0.2,2-0.1,3.2
						c0.2,2.5,0.8,4.4,1.5,4.4C324.4,125.2,324.7,123.1,324.6,120.7L324.6,120.7z"/>
					<path class="st3" d="M339.7,119.4c-0.1-1.3-0.3-2.4-0.6-3.2c1.8-0.3,2.3-1.3,2.3-1.3l-3.1,0.1c-0.6,0-1,2.1-0.9,4.5
						c0.2,2.5,0.8,4.4,1.5,4.4C339.5,123.9,339.9,121.9,339.7,119.4L339.7,119.4z"/>
					<g>
						<path class="st26" d="M332.2,129.2h-0.1c-0.5,0-1.7-0.3-2-3.3c-0.5-4.8,0.1-7.5,0.1-7.6c0-0.2,0.2-0.3,0.4-0.2
							c0.2,0,0.3,0.2,0.2,0.4c0,0-0.6,2.7-0.1,7.4c0.2,2,0.8,2.7,1.3,2.7c0.7,0,1.8-1.3,2.1-3.5c0-0.2,0.2-0.3,0.4-0.3
							s0.3,0.2,0.3,0.4C334.5,127.5,333.4,129.1,332.2,129.2L332.2,129.2z"/>
						<path class="st26" d="M332.8,134c-4.1,0.3-6.8-2.7-6.9-2.9c-0.1-0.1-0.1-0.3,0-0.4c0.1-0.1,0.3-0.1,0.4,0c0,0,2.6,2.9,6.5,2.7
							c3.8-0.3,5.5-3.4,5.5-3.4c0.1-0.1,0.2-0.2,0.4-0.1c0.1,0.1,0.2,0.2,0.1,0.4C338.7,130.4,337,133.7,332.8,134z"/>
						<path class="st27" d="M340.7,111.3c-1.1-0.4-2.4-0.3-3.8,0.3c-0.5,0.2-1.1,0-1.3-0.5c-0.2-0.5,0-1.1,0.5-1.3
							c1.9-0.8,3.7-0.9,5.3-0.3c2.5,1,3.6,4.7,3.1,4.9C344.4,114.5,342.4,112,340.7,111.3L340.7,111.3z"/>
						<path class="st27" d="M321,112.6c1.1-0.5,2.3-0.4,3.8,0.1c0.5,0.2,1.1-0.1,1.3-0.6c0.2-0.5-0.1-1.1-0.6-1.3
							c-1.9-0.8-3.7-0.8-5.3-0.1c-2.5,1.1-3.4,4.8-2.9,5C317.4,115.9,319.3,113.4,321,112.6z"/>
					</g>
				</g>
			</g>
			<g>
				<path class="st15" d="M332.8,403.8l-0.5-51.9c-2-2.4-3.5-5.1-4.1-8.2c-1.7-8.6-3.6-17.5-3-26.3c0.3-5.1,2-9.7,4.8-13.4
					c-1.1-5.5-2.3-11-3.4-16.5c-1.6-8.1-2.4-16.3-4.5-24.3c-0.7-2.8-0.9-5.5-0.6-8.2l-5.4,13.6l-0.2,2.7l-5.5,78.9l7.9,70.2
					l1.6,14.4c5.8,0.6,7.3-0.2,13.2,0l-0.1-14.5L332.8,403.8L332.8,403.8z"/>
				<path class="st28" d="M328.4,344.4l-1.6,4.2l6,55.2l-0.5-51.9C330.4,349.7,329,347.2,328.4,344.4L328.4,344.4z"/>
				<g>
					<path class="st0" d="M289.9,444.3h46.4l-2.8-14.9c0,0-5.2,5.6-9.1,3.8c-4-1.4-6-5.4-6-5.4s-7.6,3.4-15.2,6.4l0,0
						C296.2,437,288.5,439.6,289.9,444.3L289.9,444.3z"/>
					<path class="st17" d="M289.9,444.3H307l0.8-0.6c0,0-1-5.7-4.6-9.5l0,0C296.2,437,288.5,439.6,289.9,444.3L289.9,444.3z"/>
					<rect x="289.8" y="443.7" class="st0" width="46.6" height="4.2"/>
				</g>
			</g>
			<g>
				<path class="st15" d="M367.7,409.3l-0.5-51.9c-2-2.4-3.5-5.1-4.1-8.2c-1.7-8.6-3.6-17.5-3-26.3c0.3-5.1,2-9.7,4.8-13.4
					c-1.1-5.5-2.3-11-3.4-16.5c-1.6-8.1-2.4-16.3-4.5-24.3c-0.7-2.8-0.9-5.5-0.6-8.2l-5.4,13.6l-0.2,2.7l-5.5,78.9l7.9,70.2
					l1.6,14.4c5.8,0.6,7.3-0.2,13.2,0l-0.1-14.5L367.7,409.3L367.7,409.3z"/>
				<path class="st0" d="M376,451.2c-0.6-3.9-3.4-11.2-7.9-16c0,0-2.8,4.7-8.1,4.1c-1.6-0.2-5.7-3.6-5.7-3.6s-6.8,13.3-7.3,16.5"/>
				<path class="st17" d="M347.1,452.1c0,0,1.6-7.5,13.9-8.4s15,7.5,15,7.5l-13.7,8.8L347.1,452.1L347.1,452.1z"/>
				<path class="st0" d="M347,452.5v5.6c0,0,19.9,7.9,29.3-2c0,0,0.1-2-0.3-5c-13.2,8.3-28.1,1.3-28.9,0.9
					C347.1,452.3,347,452.4,347,452.5z"/>
				<path class="st28" d="M363.3,344.4l-1.6,4.2l6,55.2l-0.5-51.9C365.3,349.7,363.9,347.2,363.3,344.4L363.3,344.4z"/>
			</g>
			<polygon class="st18" points="370.2,427.9 349,429 332.8,309 334.8,426.1 311.6,425 302,248.1 364.7,258.9 366,298 			"/>
			<path class="st7" d="M364.7,427.7L364.7,427.7c0-32.2-6.3-114.4-12.9-114.6c-39.3-1.2-45.7-6.3-45.7-6.3L366,298l0.4-0.1
				l3.8,129.9L364.7,427.7L364.7,427.7z"/>
			<path class="st9" d="M302.3,306.3c0.4,0.1,3.1,0.4,3.9,0.6c0.7,0.1,1.4,0.2,1.7,0.2c1.7,0.2,3.4,0.3,5.2,0.5
				c12.8,1,25.8,0.9,38.6-0.2c3.1-0.3,6.3-0.4,9.4-1h-0.2c0.6-0.1,1.1-0.2,1.4-0.2c1.7-0.3,3.4-0.5,5.1-0.8c0.5-0.1,1-0.2,1.5-0.3
				c-0.6-9.2-1-18-1.1-24.5c-0.3-22.4-7.3-32.3-7.3-32.3s-4.1-0.6-10.1-1.3c-0.9-0.1-1.9-0.2-2.9-0.3c-16.3-1.8-42.5-3.6-45.8,2.8
				c-0.1,0.1-0.1,0.2-0.2,0.4c-1.2,3.3-1.9,30.5-2.3,56.2C300.2,305.9,301.2,306.1,302.3,306.3L302.3,306.3z"/>
			<g>
				<rect x="331.8" y="260.7" class="st18" width="26.5" height="27.5"/>
				<g>
					<g>
						<path class="st29" d="M343.8,302.9c0.1,0,6.9-0.2,8.8-6.8c1.8-6.3,3.1-21.8,3.1-22.4l-1-0.1c0,0.2-1.3,16-3.1,22.2
							c-1.7,5.9-7.8,6.1-7.9,6.1L343.8,302.9L343.8,302.9z"/>
						<path class="st30" d="M339.9,302.4c0,0.6,1,1.1,2.2,1.1s2.2-0.5,2.2-1.1s-1-1.1-2.2-1.1C340.9,301.2,339.9,301.7,339.9,302.4z
							"/>
					</g>
					<g>
						<path class="st29" d="M350.2,302.9c-0.1,0-6.9-0.2-8.8-6.8c-1.8-6.3-3.1-21.8-3.1-22.4l1-0.1c0,0.2,1.3,16,3.1,22.2
							c1.7,5.9,7.8,6.1,7.9,6.1L350.2,302.9L350.2,302.9z"/>
						<path class="st30" d="M354.1,302.4c0,0.6-1,1.1-2.2,1.1s-2.2-0.5-2.2-1.1s1-1.1,2.2-1.1S354.1,301.7,354.1,302.4z"/>
					</g>
					<path class="st3" d="M346,263v-3.7c0,0,0.1-0.8,1-0.8s1,0.8,1,0.8v3.7c4.6,0.8,8.2,6.6,8.2,13.7h-2.1c0-6.3-3.3-11.7-7.2-11.7
						s-7.2,5.4-7.2,11.7h-2.1C337.8,269.6,341.4,263.8,346,263L346,263z"/>
				</g>
			</g>
			<path class="st9" d="M360.4,248.1c0.6,6.4,1,10.3,1,10.3s-2.7-0.1-7-0.4c-2.9-0.2-6.5-0.4-10.4-0.6c-17.7-1.2-42.5-3.5-42.3-6.9
				v-1.3c0.3-10.9-0.7-30.9-1.7-35.5c-1.6-7.6-3.9-16-3.5-26.1c0-6.7,14.1-31.9,14.5-32.4l0,0l5.2-2.6c2.1-1,3.8-1.7,3.9-1.7
				c-0.2,0.2-2.7,15-0.8,15.7c4.9,1.6,28.2-16.7,28.2-16.7s2.8,0.8,6.4,2.3c3.8,1.5,8.5,3.8,11.6,6.4l0,0c1.6,1.4,2.9,2.9,3.3,4.5
				c2.2,3.7-5,11.4-8.6,22.7c-1,3-1.6,6.1-2,9.4c-0.3,2.4-0.5,4.9-0.6,7.4v0.1c-0.1,3.2-0.1,6.5,0,10
				C358.5,227.1,359.6,239.8,360.4,248.1L360.4,248.1z"/>
			<path class="st2" d="M349.9,242.7c-0.3,1-0.1,2.4,0.4,4c1.1,3.7,3.5,8.4,4,11.2c0,0.1,0,0.3,0.1,0.4c2.9,20.3,1,36.3-3.7,49
				c0.3,0,0.5,0,0.8-0.1c3.1-0.3,6.3-0.4,9.4-1h-0.2c0.6-0.1,1.1-0.2,1.4-0.2c1.7-0.3,3.4-0.5,5.1-0.8c0.5-0.1,1-0.2,1.5-0.3
				c-0.6-9.2-1-18-1.1-24.5c-0.3-22.4-7.3-32.3-7.3-32.3c-0.8-8.3-1.9-21-2.8-35.3c0-3.5-0.1-6.8,0-10v-0.1c0.1-2.6,0.3-5,0.6-7.4
				l-12.8-20.2C345.3,175.1,357.6,214.8,349.9,242.7z"/>
		</g>
		<path class="st15" d="M369.9,163.3c0,0,12.7,25.3,21.9,63.3c-4.2,1.6-8.4,1.9-12.9,2.3c-1.8,0.2-3.2,0.7-4.3,1.4
			c-3.8-10.4-8.2-20.6-13.3-28.9C342.9,171.7,369.9,163.3,369.9,163.3L369.9,163.3z"/>
		<g>
			
				<rect x="308.9" y="206.6" transform="matrix(0.7318 -0.6815 0.6815 0.7318 -70.7489 287.6258)" class="st31" width="42.3" height="54.3"/>
			<g>
				<polygon class="st0" points="350.8,237.2 354.8,242 333,262.5 299.6,228 326.3,203 354.9,234.4 				"/>
				<path class="st32" d="M328.1,209.4l-21.6,20.3c-0.1,0.1-0.4,0.1-0.5,0l-0.2-0.2c-0.1-0.1-0.1-0.4,0-0.5l21.6-20.3
					c0.1-0.1,0.4-0.1,0.5,0l0.2,0.2C328.3,209,328.3,209.2,328.1,209.4z"/>
				<g>
					<path class="st33" d="M329.9,211.5l-15,14.1c-0.1,0.1-0.2,0.1-0.3,0l-0.1-0.1c-0.1-0.1-0.1-0.2,0-0.3l15-14.1
						c0.1-0.1,0.2-0.1,0.3,0l0.1,0.1C330,211.2,330,211.4,329.9,211.5z"/>
					<path class="st33" d="M331.1,212.8l-15,14c-0.1,0.1-0.3,0.1-0.4,0l-0.1-0.1c-0.1-0.1-0.1-0.3,0-0.4l15-14
						c0.1-0.1,0.3-0.1,0.4,0l0.1,0.1C331.2,212.6,331.2,212.7,331.1,212.8z"/>
					<path class="st33" d="M332.4,214.1l-15,14.1c-0.1,0.1-0.2,0.1-0.3,0l-0.1-0.1c-0.1-0.1-0.1-0.2,0-0.3l15-14.1
						c0.1-0.1,0.2-0.1,0.3,0l0.1,0.1C332.5,213.9,332.4,214,332.4,214.1z"/>
					<path class="st33" d="M326,222.6l-7.4,7c-0.1,0.1-0.2,0.1-0.3,0l-0.1-0.1c-0.1-0.1-0.1-0.2,0-0.3l7.4-7c0.1-0.1,0.2-0.1,0.3,0
						l0.1,0.1C326.1,222.3,326.1,222.5,326,222.6z"/>
					<path class="st33" d="M316.5,232l-4.2,3.9c-0.1,0.1-0.4,0.1-0.5,0l-4.1-4.4c-0.1-0.1-0.1-0.4,0-0.5l4.2-3.9
						c0.1-0.1,0.4-0.1,0.5,0l0.6,0.7c0.1,0.1,0.1,0.4,0,0.5s-0.4,0.1-0.5,0l-0.4-0.4l-3.7,3.5l3.7,3.9l3.7-3.5l-1.6-1.7
						c-0.1-0.1-0.1-0.4,0-0.5s0.4-0.1,0.5,0l1.9,2C316.7,231.6,316.7,231.8,316.5,232z"/>
					<path class="st34" d="M313.4,233.1L313.4,233.1c-0.1,0.1-0.2,0.1-0.3,0.1l-2.4-0.4c-0.2,0-0.3-0.2-0.3-0.4s0.2-0.3,0.4-0.3
						l2,0.3l0.5-4.9c0-0.2,0.2-0.3,0.4-0.3s0.3,0.2,0.3,0.4l-0.5,5.3C313.5,233,313.5,233.1,313.4,233.1L313.4,233.1z"/>
				</g>
				<g>
					<path class="st33" d="M336.2,218.2l-15,14.1c-0.1,0.1-0.2,0.1-0.3,0l-0.1-0.1c-0.1-0.1-0.1-0.2,0-0.3l15-14.1
						c0.1-0.1,0.2-0.1,0.3,0l0.1,0.1C336.3,218,336.3,218.1,336.2,218.2z"/>
					<path class="st33" d="M337.4,219.5l-15,14.1c-0.1,0.1-0.2,0.1-0.3,0l-0.1-0.1c-0.1-0.1-0.1-0.2,0-0.3l15-14.1
						c0.1-0.1,0.2-0.1,0.3,0l0.1,0.1C337.5,219.3,337.5,219.4,337.4,219.5z"/>
					<path class="st33" d="M338.7,220.8l-15,14.1c-0.1,0.1-0.2,0.1-0.3,0l-0.1-0.1c-0.1-0.1-0.1-0.2,0-0.3l15-14.1
						c0.1-0.1,0.2-0.1,0.3,0l0.1,0.1C338.8,220.6,338.8,220.7,338.7,220.8z"/>
					<path class="st33" d="M332.3,229.3l-7.4,7c-0.1,0.1-0.2,0.1-0.3,0l-0.1-0.1c-0.1-0.1-0.1-0.2,0-0.3l7.4-7
						c0.1-0.1,0.2-0.1,0.3,0l0.1,0.1C332.4,229.1,332.4,229.2,332.3,229.3z"/>
					<path class="st33" d="M322.8,238.7l-4.2,3.9c-0.1,0.1-0.4,0.1-0.5,0l-4.1-4.4c-0.1-0.1-0.1-0.4,0-0.5l4.2-3.9
						c0.1-0.1,0.4-0.1,0.5,0l0.6,0.7c0.1,0.1,0.1,0.4,0,0.5s-0.4,0.1-0.5,0l-0.4-0.4l-3.7,3.5l3.7,3.9l3.7-3.5l-1.6-1.7
						c-0.1-0.1-0.1-0.4,0-0.5s0.4-0.1,0.5,0l1.9,2C323,238.3,323,238.6,322.8,238.7z"/>
					<path class="st34" d="M319.8,239.8C319.8,239.8,319.7,239.9,319.8,239.8c-0.1,0.1-0.2,0.1-0.3,0.1l-2.4-0.4
						c-0.2,0-0.3-0.2-0.3-0.4s0.2-0.3,0.4-0.3l2,0.3l0.5-4.9c0-0.2,0.2-0.3,0.4-0.3s0.3,0.2,0.3,0.4l-0.5,5.3
						C319.9,239.7,319.8,239.8,319.8,239.8L319.8,239.8z"/>
				</g>
				<g>
					<path class="st33" d="M342.5,224.9l-15,14.1c-0.1,0.1-0.2,0.1-0.3,0l-0.1-0.1c-0.1-0.1-0.1-0.2,0-0.3l15-14.1
						c0.1-0.1,0.2-0.1,0.3,0l0.1,0.1C342.6,224.7,342.6,224.8,342.5,224.9z"/>
					<path class="st33" d="M343.8,226.2l-15,14.1c-0.1,0.1-0.2,0.1-0.3,0l-0.1-0.1c-0.1-0.1-0.1-0.2,0-0.3l15-14.1
						c0.1-0.1,0.2-0.1,0.3,0l0.1,0.1V226.2z"/>
					<path class="st33" d="M345,227.6l-15,14.1c-0.1,0.1-0.2,0.1-0.3,0l-0.1-0.1c-0.1-0.1-0.1-0.2,0-0.3l15-14.1
						c0.1-0.1,0.2-0.1,0.3,0l0.1,0.1C345.1,227.3,345.1,227.5,345,227.6z"/>
					<path class="st33" d="M338.6,236l-7.4,7c-0.1,0.1-0.2,0.1-0.3,0l-0.1-0.1c-0.1-0.1-0.1-0.2,0-0.3l7.4-7c0.1-0.1,0.2-0.1,0.3,0
						l0.1,0.1C338.7,235.8,338.7,235.9,338.6,236z"/>
					<path class="st33" d="M329.1,245.4l-4.2,3.9c-0.1,0.1-0.4,0.1-0.5,0l-4.1-4.4c-0.1-0.1-0.1-0.4,0-0.5l4.2-3.9
						c0.1-0.1,0.4-0.1,0.5,0l0.6,0.7c0.1,0.1,0.1,0.4,0,0.5s-0.4,0.1-0.5,0l-0.4-0.4l-3.7,3.5l3.7,3.9l3.7-3.5l-1.6-1.7
						c-0.1-0.1-0.1-0.4,0-0.5s0.4-0.1,0.5,0l1.9,2C329.3,245.1,329.3,245.3,329.1,245.4z"/>
					<path class="st34" d="M326.1,246.6L326.1,246.6c-0.1,0.1-0.2,0.1-0.3,0.1l-2.4-0.4c-0.2,0-0.3-0.2-0.3-0.4s0.2-0.3,0.4-0.3
						l2,0.3l0.5-4.9c0-0.2,0.2-0.3,0.4-0.3s0.3,0.2,0.3,0.4l-0.5,5.3C326.2,246.4,326.1,246.5,326.1,246.6L326.1,246.6z"/>
				</g>
				<g>
					<path class="st33" d="M348.8,231.7l-15,14c-0.1,0.1-0.3,0.1-0.4,0l-0.1-0.1c-0.1-0.1-0.1-0.3,0-0.4l15-14
						c0.1-0.1,0.3-0.1,0.4,0l0.1,0.1C348.9,231.4,348.9,231.6,348.8,231.7z"/>
					<path class="st33" d="M350.1,233l-15,14.1c-0.1,0.1-0.2,0.1-0.3,0l-0.1-0.1c-0.1-0.1-0.1-0.2,0-0.3l15-14.1
						c0.1-0.1,0.2-0.1,0.3,0l0.1,0.1C350.2,232.7,350.2,232.9,350.1,233z"/>
					<path class="st33" d="M351.3,234.3l-15,14.1c-0.1,0.1-0.2,0.1-0.3,0l-0.1-0.1c-0.1-0.1-0.1-0.2,0-0.3l15-14.1
						c0.1-0.1,0.2-0.1,0.3,0l0.1,0.1C351.4,234.1,351.4,234.2,351.3,234.3z"/>
					<path class="st33" d="M345,242.7l-7.4,7c-0.1,0.1-0.2,0.1-0.3,0l-0.1-0.1c-0.1-0.1-0.1-0.2,0-0.3l7.4-7c0.1-0.1,0.2-0.1,0.3,0
						l0.1,0.1V242.7z"/>
					<path class="st33" d="M335.5,252.1l-4.2,3.9c-0.1,0.1-0.4,0.1-0.5,0l-4.1-4.4c-0.1-0.1-0.1-0.4,0-0.5l4.2-3.9
						c0.1-0.1,0.4-0.1,0.5,0l0.6,0.7c0.1,0.1,0.1,0.4,0,0.5s-0.4,0.1-0.5,0l-0.4-0.4l-3.7,3.5l3.7,3.9l3.7-3.5l-1.6-1.7
						c-0.1-0.1-0.1-0.4,0-0.5s0.4-0.1,0.5,0l1.9,2C335.6,251.8,335.6,252,335.5,252.1L335.5,252.1z"/>
					<path class="st34" d="M332.4,253.3L332.4,253.3c-0.1,0.1-0.2,0.1-0.3,0.1l-2.4-0.4c-0.2,0-0.3-0.2-0.3-0.4s0.2-0.3,0.4-0.3
						l2,0.3l0.5-4.9c0-0.2,0.2-0.3,0.4-0.3s0.3,0.2,0.3,0.4l-0.5,5.3C332.5,253.1,332.5,253.2,332.4,253.3L332.4,253.3z"/>
				</g>
				<polygon class="st13" points="354.8,242 354.9,234.4 350.8,237.2 				"/>
			</g>
			<path class="st35" d="M317.4,207.9l2.7,2.9L308,222.1l-2.7-2.9c-0.8-0.8-0.7-2.1,0.1-2.9l4-3.7c0.3,0.1,0.6,0.1,0.9-0.2
				c0.2-0.2,0.3-0.6,0.2-0.9l4-3.7C315.3,207,316.6,207,317.4,207.9L317.4,207.9z"/>
			<path class="st35" d="M308.4,210.4c-0.7,0.7-0.8,1.8-0.1,2.5l2,2.1c0.7,0.7,1.8,0.8,2.5,0.1s0.8-1.8,0.1-2.5l-2-2.1
				C310.3,209.7,309.1,209.7,308.4,210.4z M310.3,212.4c-0.3,0.2-0.6,0.3-0.9,0.2c-0.1,0-0.2-0.1-0.3-0.2c-0.3-0.3-0.3-0.9,0-1.2
				s0.9-0.3,1.2,0c0.1,0.1,0.1,0.2,0.2,0.3C310.6,211.8,310.5,212.1,310.3,212.4L310.3,212.4z"/>
			
				<rect x="305" y="214.5" transform="matrix(0.7318 -0.6815 0.6815 0.7318 -62.9362 271.3269)" class="st36" width="16.5" height="2.2"/>
		</g>
		<path class="st15" d="M329.8,247.8c0,0-2.2-3.8-0.6-9.9c0,0,10.9-3.6,25-8.9c5.9-2.2,12.2-4.7,18.6-7.3c0.9-0.4,1.7-0.7,2.6-1.1
			c5.1-2.1,12.9-2.4,14.7,1.5c0.7,1.6,4,6,0.5,11.6C385.8,240.9,352.7,244.4,329.8,247.8L329.8,247.8z"/>
		<path class="st15" d="M304.4,242.7c1.2-1.5,14.9-6.7,14.9-6.7c-2.9-1.6-6.1-4.2-4.3-5.6c1.7-1.2,14.3,5.9,15.9,6.9
			c0.1,0.5-0.4,1-0.3,1.5c0,2.7,0.1,8.1,0.1,8.1c-5.8,4-8.3,5.8-13.7,5.2c-2.8,0.1-8.4-6.2-8.4-6.2
			C305.8,246.8,303.2,244.2,304.4,242.7z"/>
		<path class="st9" d="M359.7,163.3l5.2-5.1l5.6,4.2c0,0,11.7,24.9,17.9,43.6l-23.3,10.8l-11.4-21.3
			C353.8,195.5,347,176.7,359.7,163.3L359.7,163.3z"/>
		<path class="st18" d="M316.9,169.9c4.9,4,36.9-17.8,36.9-17.8c-3.6-1.4-6.4-2.3-6.4-2.3s-23.3,18.3-28.2,16.7
			c-1.9-0.7,0.6-15.5,0.8-15.7c-0.1,0-1.7,0.7-3.9,1.7C315,160.1,314.5,168,316.9,169.9L316.9,169.9z"/>
		<g>
			<path class="st37" d="M305.3,124.1c0,0-3.3,4.9-1.9,7.5c1.4,2.7,2.5,0.8,2.5,4.5s3.5,2.4,4.3,1.2c3.2-2.6,3.8,4.6,9.7,1.1
				c4.3-2-4.8-18.8-4.8-18.8l-7.7-1.2L305.3,124.1z"/>
			<path class="st37" d="M362.9,122c0,0,1.8,3.7,0.5,7.3c-1.4,3.6-4.1,1.3-4.5,2c-0.4,0.8-0.4,3.8-2.8,4.3c-2.3,0.5-2.5-1.8-4-0.7
				c-0.6,0.5-1.5,3.6-4.3,3.3c-4.6-0.2-5.5-5.3-3.4-10.5c2.1-5.2,10.1-14,10.4-14.2c0.3-0.1,7.6,2.1,7.6,2.1L362.9,122L362.9,122z"
				/>
			<g>
				<ellipse class="st15" cx="332.7" cy="121.2" rx="18.3" ry="27.2"/>
				<g>
					<path class="st37" d="M342.5,117.4c-1-0.5-2.3-0.5-3.7,0c-0.5,0.2-1-0.1-1.2-0.6s0.1-1,0.6-1.2c1.9-0.7,3.7-0.7,5.2,0
						c2.4,1.1,3.2,4.8,2.7,5C346,120.7,344.2,118.1,342.5,117.4z"/>
					<path class="st37" d="M318.2,120.9c-0.1,0,0-3.9,2.4-5.1c1.5-0.8,3.3-0.8,5.2-0.1c0.5,0.2,0.8,0.7,0.6,1.2
						c-0.2,0.5-0.7,0.8-1.2,0.6c-1.4-0.5-2.7-0.5-3.7,0C319.7,118.4,318.6,120.9,318.2,120.9z"/>
				</g>
				<g>
					<g>
						<g>
							<path class="st20" d="M320.9,127.8c0,0.3-0.8,0.4-1.8,0.3c-0.9-0.1-1.6-0.5-1.6-0.8s0.8-0.4,1.8-0.3
								C320.2,127.2,320.9,127.5,320.9,127.8z"/>
							<path class="st20" d="M321,129.6c0-0.3-0.8-0.4-1.8-0.3c-0.9,0.1-1.6,0.5-1.6,0.8s0.8,0.4,1.8,0.3
								C320.4,130.3,321.1,129.9,321,129.6z"/>
						</g>
						<g>
							<path class="st20" d="M344.5,129.6c0-0.3,0.8-0.4,1.8-0.3c0.9,0.1,1.6,0.5,1.6,0.8s-0.8,0.4-1.8,0.3
								C345.2,130.3,344.5,129.9,344.5,129.6z"/>
							<path class="st20" d="M344.4,127.8c0,0.3,0.8,0.4,1.8,0.3c0.9-0.1,1.6-0.5,1.6-0.8s-0.8-0.4-1.8-0.3
								C345.1,127.2,344.3,127.5,344.4,127.8z"/>
						</g>
					</g>
					<path class="st20" d="M332.9,132.1h-0.1c-0.5,0-1.6-0.5-1.7-3.3c-0.2-4.7,0.6-7.3,0.6-7.4c0-0.2,0.2-0.3,0.4-0.2
						c0.2,0.1,0.3,0.2,0.2,0.4c0,0-0.8,2.6-0.6,7.2c0.1,1.9,0.6,2.7,1.1,2.7c0.7,0.1,1.8-1.2,2.3-3.3c0-0.2,0.2-0.3,0.4-0.2
						c0.2,0,0.3,0.2,0.2,0.4C335.3,130.5,334.1,132.1,332.9,132.1L332.9,132.1z"/>
				</g>
			</g>
			<g>
				<path class="st3" d="M363.2,110.5c0.2-1.7,2.2-4.4,0.8-7.2c-1.4-2.8-4-2-4.3-4.3s-1.1-5.9-4.9-5.5c-3.7,0.3-1.8-1.9-4-5.3
					c-2.2-3.5-5.6-0.3-6.7-0.8s-1.3-6.5-6.9-7.7c-5.6-1.3-7.3,5.2-7.9,5.3c-0.6,0.1-1.7-1.8-3.7-1.3s-1.1,2.8-2.5,2.7
					c-1.4-0.1-4.9-0.8-6.9,0c-2.1,0.8-2.7,4.9-2.7,4.9s-3.3-1.4-5.2,0c-2,1.4-1.4,4-2,6s-3.2,1.4-6.2,4.6s-0.5,9.7-1.8,10.5
					c-1.3,0.7-2.9,2.9-2.5,6c0.4,3,5.3,3.2,5.2,6.1c-0.1,2.8-2.2,4.6,1.4,5.6s5.8-6.6,5.8-6.6c1.5,1.2,5,0.8,7.8-1.5
					s0.7-7.1,0.5-8.8c-0.3-1.7,1-1.4,3.8-2.3c2.8-0.8,3.6-5.2,3.6-5.2c3.3,1.5,4.1-2.3,6-0.9c-2.1,1.9-1.3,5-1.1,7.1v0.3
					c0,0.1-0.1,0.2-0.1,0.4c-0.3,1.7-2.6,2.5-3.4,1.8c-0.8-0.6-0.1-1.8-0.1-1.8c-1.3,0.4-1.6,3.2,1.1,3.2h0.4c2.8,0.3,3.4-3.5,4-6.3
					c0.3-1.6,1.9-2.7,3.2-3.4c0.7-0.2,1.4-0.5,2.1-0.8l0,0c1.7-0.9,3-2.1,3-2.1l0,0c0,0-1.7,5.2,2.3,8.2c4.1,3,2.9,6.3,2.2,6.9
					c-0.7,0.6-2.1,0.4-2.1,0.4s2.1,1.2,3.8-0.4c1.7-1.6,0.9-4.9,0-5.7c-0.6-0.5-0.9-1.8-0.9-2.9c2.4,1,5.2-1.2,4.5,2.4
					c-0.7,3.7,0.6,6.6,3.7,7.8c3.1,1.3,5.2-3.6,6.3-2.7c1.1,0.8,0.8,2.7,2.6,4.3c1.8,1.6,4.9,0.3,5-2.2
					C366.5,116.7,363,112.2,363.2,110.5L363.2,110.5z"/>
				<path class="st37" d="M341.2,101.2c1,0.4,2.1,0.7,3.1,0.6c0.5,0,1-0.1,1.5-0.2c0.3-0.1,0.5-0.1,0.7-0.2c0.3-0.1,0.5-0.2,0.8-0.2
					c0.6-0.1,1.1-0.2,1.7-0.1c0.6,0,1.1,0.1,1.7,0.3c0.5,0.2,1.1,0.5,1.4,1c0.4,0.5,0.6,1.1,0.6,1.7v0.5c0,0.2,0,0.3-0.1,0.4
					c0,0.3-0.1,0.6-0.2,0.8c-0.1,0.5-0.2,1.1-0.2,1.6c-0.1,1.1-0.1,2.2,0,3.3c0.1,1.1,0.2,2.2,0.6,3.2c0.2,0.5,0.5,0.9,0.8,1.3
					c0.4,0.3,0.9,0.5,1.4,0.5v0.1c-0.5,0.1-1.2,0.1-1.7-0.2c-0.5-0.3-0.9-0.8-1.2-1.3c-0.6-1.1-0.8-2.2-0.9-3.4
					c-0.1-1.2,0-2.3,0.1-3.5c0.1-0.6,0.2-1.1,0.4-1.7c0.1-0.3,0.2-0.6,0.3-0.8c0-0.1,0.1-0.3,0.1-0.4l0.1-0.4c0.1-0.5,0-1.1-0.3-1.5
					s-0.8-0.7-1.3-0.9c-1-0.3-2.1,0-3.1,0.3c-0.3,0.1-0.5,0.2-0.7,0.3c-0.3,0.1-0.5,0.2-0.8,0.2c-0.6,0.1-1.2,0.2-1.7,0.1
					C343.1,102.5,342,102,341.2,101.2L341.2,101.2L341.2,101.2z"/>
				<path class="st37" d="M343.6,95.9c1.1,0.9,2.6,1,3.8,0.7c0.6-0.1,1.3-0.4,2-0.6s1.4-0.3,2.1-0.4c0.7,0,1.5,0,2.2,0.5
					c0.3,0.2,0.6,0.5,0.8,0.9c0,0.1,0.1,0.2,0.1,0.3l0.1,0.3c0.1,0.2,0.1,0.4,0.1,0.6c0.1,0.7,0.1,1.5,0.3,2.2
					c0.1,0.7,0.3,1.4,0.6,2c0.2,0.3,0.4,0.5,0.6,0.7c0.3,0.2,0.5,0.4,0.8,0.5c0.1,0.1,0.3,0.1,0.5,0.2s0.4,0.1,0.6,0.2
					c0.4,0.2,0.7,0.5,0.9,0.8c0.5,0.7,0.7,1.5,0.7,2.3s-0.1,1.6-0.4,2.3c-0.1,0.4-0.3,0.7-0.5,1.1c-0.1,0.2-0.2,0.4-0.1,0.6
					s0.3,0.5,0.5,0.8s0.4,0.5,0.7,0.8c0.5,0.5,1,1.1,1.4,1.7s0.8,1.3,0.7,2.1H362c-0.1-0.7-0.6-1.3-1-1.8c-0.5-0.5-1-1-1.5-1.4
					c-0.5-0.5-1.1-0.9-1.5-1.8c-0.1-0.2-0.1-0.5-0.1-0.7c0-0.3,0.1-0.5,0.2-0.7c0.1-0.3,0.3-0.6,0.4-0.9c0.2-0.6,0.3-1.3,0.4-2
					c0-0.7-0.1-1.3-0.4-1.8c-0.1-0.3-0.4-0.4-0.6-0.6c-0.1-0.1-0.3-0.1-0.4-0.2c-0.2-0.1-0.4-0.1-0.5-0.2c-0.3-0.2-0.7-0.4-1-0.7
					c-0.3-0.3-0.5-0.6-0.6-1c-0.3-0.7-0.4-1.5-0.4-2.2c-0.1-0.7-0.1-1.5-0.2-2.2s-0.5-1.3-1.1-1.6c-0.6-0.2-1.2-0.2-1.9-0.1
					c-0.7,0.1-1.3,0.2-2,0.4c-0.7,0.1-1.3,0.4-2.1,0.5c-0.7,0.1-1.5,0.1-2.2-0.2C344.7,97,344,96.6,343.6,95.9L343.6,95.9
					L343.6,95.9z"/>
				<path class="st37" d="M339.2,97.4c-0.8-0.5-1.6-0.9-2.5-1.1c-0.4-0.1-0.9-0.2-1.3-0.3c-0.4,0-0.9,0-1.3,0.1s-0.8,0.3-1.2,0.5
					c-0.4,0.2-0.8,0.5-1.1,0.8c-0.8,0.5-1.5,1.1-2.3,1.6s-1.7,0.9-2.7,1s-2-0.2-2.8-0.6c-0.8-0.3-1.7-0.5-2.7-0.5
					c-0.9,0-1.8,0.2-2.6,0.7c-0.8,0.4-1.3,1.2-1.5,2c-0.1,0.2-0.1,0.4-0.1,0.6s0,0.5-0.1,0.7c-0.1,0.5-0.2,1-0.3,1.5
					c-0.3,1-1,1.9-1.8,2.5s-1.6,1.1-2.3,1.6l-0.6,0.4c-0.2,0.1-0.3,0.2-0.4,0.4c-0.2,0.3-0.4,0.6-0.4,1c-0.1,0.8,0.1,1.8,0.4,2.7
					c0.2,0.9,0.5,1.8,0.7,2.8c0.1,0.5,0.1,1,0.1,1.5c-0.1,0.5-0.2,1-0.6,1.4l-0.1-0.1c0.3-0.4,0.3-0.9,0.3-1.3
					c0-0.5-0.1-0.9-0.2-1.4c-0.2-0.9-0.6-1.8-0.9-2.7c-0.3-0.9-0.6-1.9-0.6-3c0-0.5,0.2-1.1,0.6-1.6c0.2-0.2,0.4-0.4,0.6-0.6
					l0.6-0.4c1.5-1.1,3.3-1.9,3.9-3.5c0.2-0.4,0.3-0.8,0.3-1.3l0.1-0.7c0.1-0.3,0.1-0.5,0.2-0.8c0.3-1,1-1.9,1.9-2.3
					s1.9-0.6,2.8-0.6s1.9,0.2,2.8,0.6c0.2,0.1,0.4,0.2,0.7,0.2c0.2,0.1,0.4,0.1,0.6,0.2s0.4,0,0.7,0c0.2,0,0.4,0,0.6-0.1
					c0.9-0.2,1.7-0.6,2.4-1.1c0.8-0.5,1.5-1.1,2.3-1.6c0.4-0.3,0.8-0.5,1.2-0.8c0.5-0.2,0.9-0.4,1.4-0.5c1-0.1,2,0.1,2.9,0.4
					c0.4,0.2,0.9,0.4,1.3,0.7C338.5,96.7,338.9,97,339.2,97.4L339.2,97.4L339.2,97.4z"/>
				<path class="st37" d="M340.5,93c-0.9-1-1.9-1.9-3-2.6c-1.1-0.8-2.2-1.4-3.4-1.6h-0.9c-0.3,0.1-0.6,0.1-0.8,0.3
					c-0.6,0.2-1.1,0.6-1.5,1s-0.8,1-1.2,1.6c-0.4,0.6-1.1,1.1-1.9,1.2c-0.7,0.1-1.4,0.1-2.1,0s-1.3-0.2-2-0.4
					c-1.3-0.3-2.6-0.7-3.9-0.7c-0.6,0-1.3,0.1-1.9,0.4s-1,0.8-1.4,1.3c-0.8,1.1-1.1,2.4-1.7,3.7c-0.3,0.6-0.7,1.3-1.4,1.7
					c-0.2,0.1-0.3,0.2-0.5,0.2s-0.4,0.1-0.5,0.1l-1,0.1c-1.2,0.2-2.3,0.9-3.2,1.9c-0.9,0.9-1.5,2.1-1.5,3.3v0.4
					c0,0.1,0.1,0.3,0.1,0.4c0.1,0.2,0.1,0.4,0.2,0.6c0,0.2,0.1,0.4,0,0.6c0,0.4-0.2,0.9-0.4,1.2c-0.2,0.3-0.5,0.6-0.8,0.8
					c-0.5,0.5-1,0.8-1.4,1.3s-0.7,1-0.8,1.6c-0.2,0.6-0.2,1.2-0.1,1.9c0,0.7,0.1,1.3,0.3,2c0.2,1.3,0.5,2.7,0.6,4.1
					c0.1,0.7,0.1,1.4,0,2.1s-0.4,1.4-1,1.8l-0.1-0.1c0.5-0.5,0.7-1.1,0.7-1.8c0.1-0.7,0-1.3-0.1-2c-0.2-1.3-0.6-2.6-0.9-4
					c-0.1-0.7-0.3-1.4-0.4-2.1s-0.1-1.4,0.1-2.2c0.2-0.7,0.5-1.4,1-2s1-1,1.5-1.4c0.2-0.2,0.5-0.4,0.6-0.6s0.2-0.4,0.3-0.7V106
					l-0.1-0.4c-0.1-0.2-0.1-0.4-0.1-0.6s0-0.4-0.1-0.6c0-0.8,0.2-1.5,0.6-2.2c0.3-0.7,0.8-1.2,1.3-1.7c1-1,2.3-1.8,3.7-2l1-0.1
					c0.2,0,0.3-0.1,0.4-0.1s0.3-0.1,0.4-0.2c0.5-0.3,0.9-0.8,1.2-1.3c0.3-0.6,0.6-1.2,0.9-1.8c0.3-0.6,0.6-1.2,1-1.8
					c0.4-0.6,0.9-1.1,1.5-1.4s1.3-0.5,2-0.5s1.3,0.1,2,0.2l2,0.3c0.7,0.1,1.3,0.2,1.9,0.2c0.7,0.1,1.3,0,1.9-0.1s1-0.5,1.4-1
					s0.8-1.1,1.3-1.6s1.1-0.9,1.8-1.2c0.3-0.1,0.7-0.2,1-0.3h1.1c0.7,0.1,1.4,0.4,2,0.7c0.6,0.3,1.2,0.7,1.7,1.2
					c0.5,0.4,1,0.9,1.5,1.4C339.8,91.8,340.2,92.3,340.5,93L340.5,93L340.5,93z"/>
			</g>
			<path class="st3" d="M343.2,123.1c-0.2-0.5-0.4-0.9-0.8-1.2c-0.3-0.3-0.6-0.5-1-0.6s-0.8-0.1-1.2-0.1c-0.8,0.1-1.5,0.6-2,1.2
				s-0.9,1.2-1.1,2c0.6-0.4,1.1-0.8,1.7-1.2c0.5-0.3,1.1-0.6,1.6-0.7c1-0.2,2.1,0.4,3.1,1.5l1.8-1.6
				C345.3,122.4,343.2,123.1,343.2,123.1z"/>
			<path class="st3" d="M321.4,122.8c0.2-0.4,0.5-0.9,0.8-1.2c0.3-0.3,0.7-0.5,1-0.6c0.4-0.1,0.8-0.1,1.2,0c0.8,0.2,1.4,0.6,1.9,1.2
				s0.9,1.2,1.1,2c-0.6-0.4-1.1-0.9-1.6-1.2c-0.5-0.3-1.1-0.6-1.6-0.7c-1-0.2-2.1,0.4-3.1,1.5l-1.8-1.7
				C319.3,122.1,321.4,122.8,321.4,122.8z"/>
			<path class="st20" d="M333.3,138.5c-4.2,0.2-6.9-3.4-7.1-3.6c-0.1-0.1-0.1-0.3,0-0.5c0.1-0.1,0.3-0.1,0.4,0c0,0,2.7,3.5,6.6,3.3
				s5.6-3.9,5.6-3.9c0.1-0.2,0.2-0.2,0.4-0.1c0.1,0.1,0.2,0.3,0.1,0.4C339.3,134.4,337.5,138.3,333.3,138.5L333.3,138.5z"/>
		</g>
	</g>
	<g>
		<path class="st38" d="M253.4,93.2C244.6,82,235,91,235,91l6.8,7.4c0,0,2.3,8.2,9.6,13.3c0,0,0.1,0.5,0.2,1.2l-35.2-3.3
			c0,0,4.2,6.9-8.1,20.3c-12.6,13.8-10.6,31-10.6,31l57.6,2.9l0.5-41.2c0,0,0-0.1,0.1-0.1C259.1,117.4,262.2,104.4,253.4,93.2z"/>
		<g>
			<path class="st5" d="M265.8,180.8c0,0,12.6,44.4,11.8,97.3c0,0-5.1,2.1-10.7-0.4c0,0-4.6-48.6-16.5-75.4
				c-2.7-5.7-2-13.3-0.4-17.6C263.6,163.9,265.8,180.8,265.8,180.8L265.8,180.8z"/>
			<g>
				<path class="st5" d="M273.8,287.2c0,0-3.1,5.7-3.6,6.2s-4.4,2-4.7,2.9c-0.3,0.9,0.9,2.1,3.7,1.1c2.8-1,3.6-1.3,4.2-1.8
					c0.5-0.5,3.9-6.5,3.9-6.5L273.8,287.2L273.8,287.2z"/>
				<path class="st5" d="M274.8,288.6c0,0-2.6,7-3.2,7.7c-0.5,0.7-4.7,2.9-5,4c-0.2,1.1,1.4,2.3,4.5,0.8s4-2,4.5-2.7s3.4-8,3.4-8
					L274.8,288.6z"/>
				<path class="st5" d="M277.5,277.7c0,0,2.8,8.2,3.1,10.7c0.4,2.5-4.6,12-5.3,14.8c-1.1,2.9-3.7,2.3-3.1-1.7
					c0.6-4.3,2.6-11.4,2.7-12s-3.4-4.1-3.9-4.3c-0.5-0.2-2.7,2.9-2.9,3.5c-0.2,0.6,1.3,4.6-1.4,6.6c-2.7,1.9-3.9-6.8-3.5-8.4
					s1.1-7.4,4.6-10.5h8.2L277.5,277.7L277.5,277.7z"/>
			</g>
			<path class="st0" d="M280.5,276.5c0,0-8.1,3.6-13.6,1.1c0,0-4.6-48.6-16.5-75.4c-2.7-5.7-2-13.3-0.4-17.6
				c4-6,10.7-14.2,10.7-14.2S279.6,190.6,280.5,276.5z"/>
			<path class="st2" d="M278.4,277.3c0,0-6.1,2.9-11.6,0.4c0,0-4.6-48.6-16.5-75.4c-2.7-5.7-2-13.3-0.4-17.6
				c4-6,10.7-14.2,10.7-14.2s9.1,7.2,9.9,32C271.4,224.6,277.2,272,278.4,277.3L278.4,277.3z"/>
		</g>
		<path class="st5" d="M227.9,149.5c-22.5,6.4-33.4,14.7-33.4,14.7l20.7,40.6c0,0,3.4,16.2-0.8,24c-15.1,13.1-11.9,27.5-11.9,27.5
			c10.5,7.1,41.9,3.1,41.9,3.1s10.8-3.2,18.5-13.2c0,0-3.4-20.3-0.9-31.6c5.1-15.9,6.5-27.2,2.6-38.7
			C260.2,168.1,248.6,149.8,227.9,149.5L227.9,149.5z"/>
		<g>
			<path class="st5" d="M240.4,240.4l0.5,7.4l0.2,2.7l0.2,2.7l5.8,91.6l5.3,69.4l0.4,5.3c0,0-0.5,9.7-1,11.2
				c-2.5,4.3,0.9,12.2,1.2,15.8c0.3,3.8,22.6,8,23.2,1.4c-1.4-4.8-10.2-17.8-10.6-20.1c-0.4-2.2-0.5-9.6-0.5-9.6l2-58.4l0.5-15.2
				l4.4-90.5v-0.3l-5.2-15.1l-9.8,0.5l-4.3,0.2L240.4,240.4L240.4,240.4z"/>
			<path class="st3" d="M272.4,439.2c0,0-0.4,4.9-7.6,4.7c-7.1-0.2-11.3-5.8-11.3-5.8s-1.2-5.9-1.4-6.4c-0.3-0.5-0.4-6.8-0.4-6.8
				s-2.5,7.9-1.5,11.4c0,0,1.9,9.2,3.3,11.7s8.9,4.6,15.7,4.6C276.1,452.7,280.2,448.1,272.4,439.2L272.4,439.2z"/>
			<path class="st5" d="M201.4,412.3l-0.6,5.3c0,0-2.3,9.5-3,10.9c-3.3,3.8-1.4,12.1-1.7,15.7c-0.4,3.8,20.7,12,22.5,5.7
				c-0.4-5-6.7-19.4-6.7-21.7s1.6-9.4,1.3-9.5l16.1-71.9l13.2-72.5l5.6-31.8l-28.9-15c0,0-8.1,7.3-8.9,16.9
				c-2.1,27-1.1,98.8-1.1,98.8L201.4,412.3L201.4,412.3z"/>
			<path class="st39" d="M208.9,324.7l23.5,4c0,0-3.4,19.6-5.3,27.9c-2.8,13.7-12.1,54.7-12.1,54.7l11.8-78.8L208.9,324.7
				L208.9,324.7z"/>
			<path class="st39" d="M268.2,327.6l-2.5,67.1l-0.9,24.6l-1.5-87l-17.2-2.7C256.6,329.7,268,327.9,268.2,327.6L268.2,327.6z"/>
			<path class="st3" d="M216.5,442c0,0-1.5,4.7-8.4,3s-9.8-8.1-9.8-8.1s0.1-6.1,0-6.6c-0.2-0.5,1.1-6.7,1.1-6.7s-4.1,7.1-3.9,10.9
				c0,0-0.1,9.4,0.7,12.1c0.9,2.7,7.7,6.4,14.4,7.9C217.2,456,222.2,452.4,216.5,442L216.5,442z"/>
		</g>
		<path class="st3" d="M214.7,234.6c0,0-10.2,16.7-12,37.9s-4.9,71.2-4.9,71.2s47.3,9.3,79.4,1.6l-5.1-88.3L214.7,234.6L214.7,234.6
			z"/>
		<polygon class="st5" points="222.1,133.7 216.5,155.6 241,156.3 241,141.7 234.1,132.3 		"/>
		<path class="st8" d="M223.3,137.8c0.1,0.4,1,8.1,9.3,10.6c3.1,0.9,6.3,1.3,8.4,1.1v-7.8l0,0C241,141.7,232,143.2,223.3,137.8
			L223.3,137.8z"/>
		<path class="st40" d="M199.5,250.7c0,0,7.5,4.6,19.8,8.3l0,0c3.6,1.1,7.7,2.1,12.1,2.9c0.8,0.2,1.6,0.3,2.4,0.4
			c14.2,2.6,24.7-0.2,28.5-1.5c1-0.3,1.5-0.6,1.5-0.6c1.3-5,1.1-12.8,0.7-20.8c-0.5-10.2-1.6-20.6-0.6-25.3c1.6-8.3,8.6-17.2,6.3-29
			c-1.5-8.5-11.6-23.5-11.6-23.5c-5.6-4.3-14-7.5-14-7.5s0.2,7.8,1.2,12.5c1,4.8-9.2,6.4-15,1.7c-7.4-6-14.3-15.5-14.3-15.5
			s-19.8,7.4-22.4,10.3c-4,3,10.2,21.1,10.2,21.1s1.5,2.8,5.3,10.1c4.7,8.9,9.1,26.3,3.4,33.2C207.4,234.6,199.5,250.7,199.5,250.7
			L199.5,250.7z"/>
		<path class="st0" d="M261.8,332.6l20.5-5.9c0,0-17.2-118.9-15.4-120c1.8-1.1,6-15.7,5.1-20.8s-12.2-23.7-14.3-25.7
			c-2.2-2-16.5-8.5-16.5-8.5l0,0c0.3,0.9,11,28.3,13.2,42.3c0.5,3.5,0.6,9.8,0.4,17.4C254.2,234.6,261.8,332.6,261.8,332.6z"/>
		<path class="st6" d="M254.4,194.1c0.5,3.5,0.6,9.8,0.4,17.4l0.4,1.2l3.8-42l-8.4-3.5l3.5-4.2l-12.9-11.2
			C241.5,152.6,252.2,180.1,254.4,194.1z"/>
		<path class="st0" d="M238.9,332.6l-47.2-5c0,0,8.1-89,6.6-97.6c-0.4-2.3-1.6-7-3-12.8c-3.9-16.2-9.4-41.4-4.8-49.2
			c2.9-10.7,27.5-18.1,27.5-18.1s18.3,30.1,21,44.2c0.8,4.1,2.1,12.2,3.6,21.7l0,0C246.3,238.6,238.9,332.6,238.9,332.6L238.9,332.6
			z"/>
		<path class="st2" d="M191.7,327.6c0,0,8.1-89,6.6-97.6c-0.4-2.3-1.6-7-3-12.8l11.4-10.1c0,0,2.6,33.8,0.6,66.4
			c-3.1,49.7,8.1,49.9,23.4,58.2L191.7,327.6z"/>
		<path class="st6" d="M223.6,165.8l-7.1,7.5l26,42.5c-1.5-9.4-2.9-17.5-3.6-21.7c-2.6-14.1-21-44.2-21-44.2l-5.3,10.9L223.6,165.8
			L223.6,165.8z"/>
		<g>
			<polygon class="st41" points="179.9,256.6 178,298.9 230.4,302.2 232.3,300.1 234.1,259 			"/>
			<polygon class="st42" points="178.9,256.6 177.1,298.9 230.5,300.7 231.4,299.8 233.2,259 			"/>
			
				<rect x="183.2" y="252.7" transform="matrix(4.326755e-02 -0.9991 0.9991 4.326755e-02 -84.0804 471.8833)" class="st43" width="42.3" height="54.3"/>
			<path class="st0" d="M227.5,278c0,3.4-2.7,6.1-6.1,6.1s-6.1-2.7-6.1-6.1s2.7-6.1,6.1-6.1C224.8,271.9,227.5,274.6,227.5,278z"/>
			<path class="st5" d="M210.3,303.5c0.3-1.9-4.6-15.7-4.6-15.7c3.1,1.2,7.2,1.9,7-0.3c-0.2-2.1-10.7-7.3-12.4-7.9
				c-0.5,0.3-10.6,1.6-10.6,1.6c-0.8,8.4,0.7,15.3,4.6,19c1.8,2.2,10.8,2.1,10.8,2.1C206.3,305.1,210,305.4,210.3,303.5L210.3,303.5
				z"/>
			<path class="st5" d="M189.4,174.4c0,0-7.9,49.9,0,107.2c0,0,5.9,1.6,11.5-1.8c0,0-1.3-53.4,8-84.1c2.2-6.6,0.4-14.7-1.9-19.2
				C189.5,155.8,189.4,174.4,189.4,174.4L189.4,174.4z"/>
			<path class="st0" d="M209.7,194.5c-9.3,30.7-6,84.1-6,84.1c-1.5,0.9-3.5,1.6-5.6,2.1c-5.7,1.3-12.3,1.3-12.3,1.3
				c-7.9-57.3,3.4-112.7,3.4-112.7s4.6-14.5,18,2c1.2,2.4,2.4,6.9,3,11.6C210.7,187.1,210.7,191.4,209.7,194.5L209.7,194.5z"/>
			<path class="st2" d="M209.7,194.5c-9.3,30.7-6,84.1-6,84.1c-1.5,0.9-3.5,1.6-5.6,2.1c-0.4-54.2,2-60.4,6.1-81.3
				c1.3-6.9,4.3-7.1,4.7-19.6c0.5,1.1,1,2.1,1.3,3.1C211.3,186.2,211.3,189.5,209.7,194.5z"/>
			<polygon class="st44" points="224.7,277 222.5,277 222.6,274.8 220.5,274.7 220.4,276.9 218.2,276.8 218.1,278.9 220.3,279 
				220.2,281.2 222.4,281.3 222.4,279.1 224.6,279.2 			"/>
		</g>
		<g>
			<path class="st5" d="M213.4,120.1c2.3,15.8,12.8,27.4,23.4,25.8c10.7-1.5,17.5-15.6,15.2-31.4s-12.8-27.4-23.4-25.8
				C217.9,90.2,211.1,104.3,213.4,120.1z"/>
			<g>
				<g>
					<g>
						<path class="st26" d="M248,125.2c0,0.3,0.9,0.5,1.9,0.3c1-0.1,1.7-0.5,1.7-0.9c0-0.3-0.9-0.5-1.9-0.3S248,124.8,248,125.2z"/>
						<path class="st26" d="M247.9,127.1c0-0.3,0.9-0.5,1.9-0.3c1,0.1,1.8,0.5,1.7,0.8c0,0.3-0.9,0.5-1.9,0.3
							C248.6,127.8,247.8,127.4,247.9,127.1z"/>
					</g>
					<g>
						<path class="st26" d="M222.8,127.3c0-0.3-0.9-0.5-1.9-0.3c-1,0.1-1.7,0.5-1.7,0.9c0,0.4,0.9,0.5,1.9,0.3
							S222.9,127.6,222.8,127.3z"/>
						<path class="st26" d="M223,125.3c0,0.3-0.9,0.5-1.9,0.3c-1-0.1-1.8-0.5-1.7-0.8c0-0.3,0.9-0.5,1.9-0.3
							C222.3,124.6,223,125,223,125.3z"/>
					</g>
				</g>
				<g>
					<path class="st26" d="M237.7,130.5h0.1c0.5-0.1,1.7-0.6,1.5-3.7c-0.2-5-1.3-7.7-1.3-7.8c-0.1-0.2-0.3-0.3-0.4-0.2
						c-0.2,0.1-0.3,0.3-0.2,0.4c0,0,1,2.7,1.3,7.6c0.1,2.1-0.4,2.9-1,3c-0.8,0.1-2.1-1.1-2.7-3.3c-0.1-0.2-0.2-0.3-0.4-0.2
						c-0.2,0.1-0.3,0.2-0.2,0.4C235,129,236.4,130.6,237.7,130.5L237.7,130.5z"/>
					<path class="st26" d="M235.9,135.4c4.3-0.4,6.6-3.9,6.7-4s0-0.3-0.1-0.4c-0.1-0.1-0.3,0-0.4,0.1c0,0-2.2,3.4-6.2,3.7
						s-6.2-2.6-6.2-2.7c-0.1-0.1-0.3-0.2-0.4-0.1c-0.1,0.1-0.2,0.3-0.1,0.4C229.3,132.7,231.6,135.8,235.9,135.4z"/>
					<path class="st38" d="M225.5,111.9c1.2-0.5,2.7-0.4,4.4,0.2c0.6,0.2,1.2,0,1.5-0.6c0.2-0.5,0-1.1-0.6-1.3
						c-2.2-0.8-4.3-0.9-6.1-0.2c-2.9,1.1-4,5-3.4,5.2C221.3,115.3,223.6,112.7,225.5,111.9L225.5,111.9z"/>
					<path class="st38" d="M246.5,112.1c-1.2-0.3-2.5-0.1-3.9,0.7c-0.5,0.3-1.1,0.1-1.4-0.4s-0.1-1.1,0.4-1.4
						c1.9-1.1,3.7-1.4,5.5-0.9c2.7,0.8,4.3,4.4,3.8,4.7C250.7,114.9,248.4,112.6,246.5,112.1L246.5,112.1z"/>
				</g>
				<path class="st3" d="M242.1,120.3c-0.1-2.2,0.5-3.8,1.2-3.9l3.5,0.1c0,0-0.6,0.7-2.5,0.9c0.3,0.7,0.3,1.4,0.4,2.5
					c0.1,2.2-0.3,4-1,4.1C242.9,124.1,242.3,122.4,242.1,120.3L242.1,120.3z"/>
				<path class="st3" d="M227,120.2c0-1.1,0.2-2,0.4-2.7c-2.2-0.1-2.8-0.8-2.8-0.8l3.8-0.3c0.8,0,1.4,1.6,1.4,3.7s-0.6,3.8-1.4,3.9
					C227.6,123.9,226.9,122.3,227,120.2z"/>
			</g>
			<g>
				<path class="st3" d="M245.2,127c-5.2,0-6.7-7.3-6.8-11.1v-0.5l0.4-0.1c7.7-2.5,14.3,0.1,14.6,0.2l0.5,0.2l-0.1,0.6
					c-0.1,0.4-1.9,9.6-7.5,10.7H245.2L245.2,127z M239.5,116.4c0.2,2,1,9.3,5.7,9.3s6.7-7,7.3-9.2
					C250.9,116,245.5,114.5,239.5,116.4z"/>
				<path class="st3" d="M227.9,127.6c-6.8-0.1-8.8-11.2-8.9-11.7l-0.1-0.6l0.5-0.2c0.3-0.1,7.4-2.8,15.6,0.1l0.4,0.2v0.5
					c-0.2,3.8-1.7,10.7-6.4,11.6C228.7,127.5,228.3,127.6,227.9,127.6L227.9,127.6z M220.3,116.2c0.5,2.2,2.6,9.9,7.7,10
					c5,0.1,6.1-7.7,6.3-9.9C227.8,114.2,222,115.7,220.3,116.2z"/>
				<path class="st3" d="M238.9,119.6l0.8-0.9c-1.7-2.3-4.4-1.2-5.5-0.3l0.6,1.1C234.9,119.4,237.4,117.6,238.9,119.6L238.9,119.6z"
					/>
				<polygon class="st3" points="219.4,116.5 219.3,115.2 214.3,115.4 214.4,116.8 				"/>
			</g>
			<path class="st38" d="M213,89.3c9.1-18.2,45.2-6.6,45.8,16.5l-3,4.6C255.7,110.3,219.3,109.2,213,89.3z"/>
			<path class="st38" d="M201.2,148.1c3.1-0.6,13.3-4,15.4-10.8c2-6.8,0.4-21.1,0.4-21.1c-0.5-13.2,11-16.6,11-16.6
				c2.3-8-2.7-17.6-14.7-11c-10.6,5.8-14.3,11-11.5,27.7c1,5.8,2.2,13.7,0.9,23C201.9,142.7,201.3,145.7,201.2,148.1L201.2,148.1z"
				/>
		</g>
	</g>
</g>
</svg>
