<?xml version="1.0" encoding="UTF-8"?>
<svg id="Capa_1" data-name="Capa 1" xmlns="http://www.w3.org/2000/svg" viewBox="0 0 500 500">
  <defs>
    <style>
      .cls-1 {
        fill: #4b8c7b;
      }

      .cls-1, .cls-2, .cls-3, .cls-4, .cls-5, .cls-6, .cls-7, .cls-8, .cls-9, .cls-10, .cls-11, .cls-12, .cls-13, .cls-14, .cls-15, .cls-16, .cls-17, .cls-18, .cls-19, .cls-20, .cls-21, .cls-22, .cls-23, .cls-24, .cls-25, .cls-26, .cls-27, .cls-28, .cls-29, .cls-30, .cls-31, .cls-32, .cls-33, .cls-34, .cls-35, .cls-36, .cls-37, .cls-38, .cls-39, .cls-40, .cls-41, .cls-42, .cls-43, .cls-44, .cls-45, .cls-46 {
        stroke-width: 0px;
      }

      .cls-2 {
        fill: #59595b;
      }

      .cls-3 {
        fill: #434244;
      }

      .cls-4 {
        opacity: .5;
      }

      .cls-4, .cls-6, .cls-12 {
        fill: #ca7e86;
      }

      .cls-4, .cls-11, .cls-12, .cls-34, .cls-35, .cls-38 {
        isolation: isolate;
      }

      .cls-5 {
        fill: #c53e5d;
      }

      .cls-7 {
        fill: #599c8d;
      }

      .cls-8 {
        fill: #e38669;
      }

      .cls-9 {
        fill: #72c7b5;
      }

      .cls-10 {
        fill: #bbbcbf;
      }

      .cls-11, .cls-12, .cls-38 {
        opacity: .4;
      }

      .cls-11, .cls-19 {
        fill: #aa7168;
      }

      .cls-13, .cls-38 {
        fill: #d0d1d3;
      }

      .cls-14 {
        fill: #be717e;
      }

      .cls-15 {
        fill: #9cc7ed;
      }

      .cls-16 {
        fill: #6cb476;
      }

      .cls-17 {
        fill: #9b7b53;
      }

      .cls-18 {
        fill: #7f5e40;
      }

      .cls-20 {
        fill: #cfd1d2;
      }

      .cls-21 {
        fill: #e5b7ac;
      }

      .cls-22 {
        fill: #996158;
      }

      .cls-23 {
        fill: #3b3b3b;
      }

      .cls-24 {
        fill: #a6a8aa;
      }

      .cls-25 {
        fill: #df922f;
      }

      .cls-26 {
        fill: #fff;
      }

      .cls-27 {
        fill: #6d7dac;
      }

      .cls-28 {
        fill: #f1f1f2;
      }

      .cls-29 {
        fill: #b78074;
      }

      .cls-30 {
        fill: #e5e5e6;
      }

      .cls-31 {
        fill: #808083;
      }

      .cls-32 {
        fill: #6d6e70;
      }

      .cls-33 {
        fill: #dbdbdb;
      }

      .cls-34 {
        opacity: .2;
      }

      .cls-34, .cls-35, .cls-45 {
        fill: #c58f80;
      }

      .cls-35 {
        opacity: .3;
      }

      .cls-36 {
        fill: #583c1c;
      }

      .cls-37 {
        fill: #583b1c;
      }

      .cls-39 {
        fill: #b56f61;
      }

      .cls-40 {
        fill: #e6e6e7;
      }

      .cls-41 {
        fill: #68aae3;
      }

      .cls-42 {
        fill: #d7a39b;
      }

      .cls-43 {
        fill: #383838;
      }

      .cls-44 {
        fill: #babcbe;
      }

      .cls-46 {
        fill: #a87067;
      }
    </style>
  </defs>
  <g id="BACKGROUND">
    <rect class="cls-33" width="500" height="500"/>
  </g>
  <g id="OBJECTS">
    <g>
      <path class="cls-27" d="m127.5,126.9c5.2,24.7,37.4,41.2,63.6-17.5s-80.5-63-63.6,17.5Z"/>
      <path class="cls-27" d="m497.2,409.4h-31.2c24.5-39.4,27.4-132.9-7-158.5-35.9-26.8-84.8-51.5-80.1-117.9,4.8-66.4-84.5-111.5-147.8-13.4-63.2,98.1-75,22.5-146.4,35.3-99.3,17.8-59.1,206.8-18.6,254.6H2.8c-1.5,0-2.8,1.4-2.8,3.2,0,1.7,1.3,3.2,2.8,3.2h494.4c1.5,0,2.8-1.4,2.8-3.2,0-1.9-1.3-3.3-2.8-3.3Z"/>
    </g>
    <rect class="cls-27" y="405.6" width="500" height="94.4"/>
    <path class="cls-38" d="m466,445s-97.6,28.7-218,28.7-218-28.7-218-28.7c0,0,97.6-28.7,218-28.7s218,28.7,218,28.7Z"/>
    <g>
      <g>
        <path class="cls-3" d="m372.5,420.9l-.6,4.4s-10.6,5.3-12.3,5.3c-1.7.1-22.6-4-19.7,15.9l51.9-1.8-1.1-24.4-18.2.6Z"/>
        <path class="cls-3" d="m409.3,442v4.8s20.2,6.8,29.8-1.7c0,0,.1-1.7-.3-4.3-.6-3.4-2.4-8.2-7-12.3l-1.8-10.8-15.3,3.8v6.1s-4.8,11.2-5.3,13.9c-.1.3-.1.4-.1.5Z"/>
        <polygon class="cls-43" points="425.8 238.4 433.1 421.5 411.6 423.4 392.8 274.5 392.8 423.4 368.9 423.4 362.5 239.2 425.8 238.4"/>
        <path class="cls-43" d="m409.3,442v4.8s20.2,6.8,29.8-1.7c0,0,.1-1.7-.3-4.3-13.4,7.2-28.5,1.1-29.4.8-.1.2-.1.3-.1.4Z"/>
        <polygon class="cls-43" points="391.8 444.7 391.4 439.9 339.7 442.3 339.9 446.5 391.8 444.7"/>
      </g>
      <path class="cls-26" d="m445.6,323.8l-21.1,1.7-28.8,2.4-4.4-17.5-3.6,16.6-37.6-1.2,7.5-140.1-2.7-38.2s16.5-17.1,36.9-20.8c34.8,2.5,47.3,18.8,47.3,18.8,0,0-1.9,30.3-8.5,47.8-.1.4-.2,1.1-.3,2-.1,1.1,0,2.6,0,4.4v.1c0,1.1.1,2.3.2,3.6v.2c1.9,29.1,13.3,108.4,14.8,119,.1.4.1.7.1.9.1.2.2.3.2.3Z"/>
      <path class="cls-38" d="m430.4,199.7s-.1,0,0,0c-.1,0-.1-.1,0,0h0Z"/>
      <path class="cls-38" d="m424.5,325.5s11.1-30.6-2.9-128.7c-4.9-34.2,5.1-45.6,5.4-46.7,0,.2-.3,1.6-1.8,10.7-1.4,7.9.7,26,1.5,34.4.2,2.7,3.2,4.4,3.7,4.4,0,.4.1,1.6.2,3.6v.2c1.9,29.1,13.3,108.4,14.8,119,.1.4.1.7.1.9v.3l-21,1.9Z"/>
      <g>
        <path class="cls-21" d="m434.8,255.3s30.6-29.5,31.2-36c.5-6.5-12.8-33-12.8-33l-18.7,1.7,14.2,30.7-21.2,30.4"/>
        <path class="cls-21" d="m427.5,249.1s-15.2,7.9-15,10.1c.2,2.3,4.1.8,6.9-.8,0,0-3.5,11.9-1.9,16.1.6,1.8,4.1.9,4.9-2,0,0,8.2-1.6,9.6-4,3.3-4.3,3-7.3,2.6-14.3l-7.1-5.1Z"/>
        <path class="cls-26" d="m438.5,147.9s32.2,64.7,31.2,70.7-28.6,40.8-28.6,40.8l-15.1-15.9,15.1-27.5-16.9-25.9c0,.1-9.8-37.3,14.3-42.2Z"/>
      </g>
      <g>
        <path class="cls-21" d="m357.8,190.7l-10.4,30.7,15.5,30.4s13.3,6.6,13.5,8.9-5.2-.3-7.4-1.4c0,0,4.5,8,3.6,15.5-.2,1.9-2.8,1.6-3.8-1.1,0,0-6.1,0-7.4-2.2-2.9-3.6-3.2-6.6-3.8-13.6,0,0-22.3-29.5-22.7-36-.4-6.5,9.3-33,9.3-33l13.6,1.8Z"/>
        <path class="cls-26" d="m354.9,150.5s-23.5,64.7-22.8,70.7,20.8,40.8,20.8,40.8l11-15.8-11-27.5,12.3-25.9c.1.1,7.2-37.4-10.3-42.3Z"/>
      </g>
      <polygon class="cls-30" points="411.6 286.3 423.6 289.3 435.5 286.3 435.5 263.8 411.6 263.8 411.6 286.3"/>
      <polygon class="cls-30" points="355.6 286.3 366.7 289.3 377.8 286.3 377.8 263.8 355.6 263.8 355.6 286.3"/>
      <polygon class="cls-30" points="391.8 315 392 295.6 392.1 276.1 392 237.3 391.5 198.4 391.1 179 390.6 159.6 390.4 179 390.4 198.4 390.5 237.3 391 276.1 391.3 295.6 391.8 315"/>
      <path class="cls-28" d="m441.1,216.1l-5.8-8.8c3.5,3.7,4.5,4.2,6.5,2.7,6.1-4.5,13.4.1,19.8,3.9-11.8-3.4-18.2-2.6-20.5,2.2Z"/>
      <path class="cls-28" d="m357.5,162.4l-1.5,50.1-3,6.2,8.8,21.9s-6.2-17.4-14.3-19.2-8.1-1.9-8.1-1.9l9-.9,9.1-56.2Z"/>
      <g>
        <path class="cls-21" d="m409.4,128.6l-1.3,5.7s-.5,1.3-1.3,3.5c-2.7,7.2-9.4,23.4-15.8,30.8-6.6-13.8-8.8-24.5-9.5-30.1-.4-2.8.2-4.2.2-4.2,0,0-.3-4.9-.3-6.1v-9.8l11.4,1.8,14.1-13.2s-.1,1-.2,2.6c-.1,2.2-.2,5.5,0,8.4.2,1.6.5,3.4.9,4.9.9,3.2,1.8,5.7,1.8,5.7Z"/>
        <path class="cls-4" d="m407.7,122.9c-8.9,18.1-21.9,10.6-26.3,7.5v-9.1l11.4,1.8,13.9-13.6c-.1,2.2-.2,5.5,0,8.4.2,1.7.6,3.4,1,5Z"/>
      </g>
      <g>
        <path class="cls-15" d="m408.8,137.8c-2.1,5.6-6.4,16.1-11.2,24.9-2.3,4.2-4.7,8-7.1,10.7-1.5-3.1-2.7-6.2-3.7-9.2-4.2-12.6-4.8-24.1-5.5-29.3,7.9,5.8,18,6,27.3-7.8l.2,10.7Z"/>
        <polygon class="cls-13" points="383.6 148.7 392.1 138.8 400.1 149 398.7 152.6 392.1 141.3 384.8 153.3 383.6 148.7"/>
        <path class="cls-2" d="m393.2,147.7l1.9-4.7c-2.6-2.3-3.9-2-6.3,0,.4,2,.8,3.2,1.7,4.9h0l-3.7,15.8c1,3,2.2,6.1,3.7,9.2,2.4-2.7,4.8-6.6,7.1-10.7l-4.4-14.5Z"/>
      </g>
      <g>
        <polygon class="cls-30" points="408.9 126.7 390.5 173.4 412.2 152.8 408.1 144.5 417.3 140.7 413.6 131.2 408.9 126.7"/>
        <path class="cls-30" d="m381.4,128.2c.4,14,4,29.5,8.8,44.7l-19.9-20.1,6.4-7.7-7.6-3.5,6.5-9.8,5.8-3.6Z"/>
      </g>
      <g>
        <g>
          <path class="cls-31" d="m371,187c-.7-.3-1.4-.7-2-1.3-3.3-3-5.1-9.4-5.2-18.9-.1-7.1.8-13.4.8-13.5l.8.1c0,.2-3.4,24.9,4.2,31.7,1.8,1.6,4.1,2.1,6.9,1.4l.2.8c-2.2.5-4,.4-5.7-.3Z"/>
          <path class="cls-31" d="m363.1,185c-1-.5-2.1-1.1-3.2-2.1l.5-.6c2.8,2.3,5.3,3.1,7.6,2.1,8.5-3.5,11.1-28.5,11.1-28.7l.8.1c0,.1-.7,6.5-2.4,13.2-2.3,9.2-5.4,14.6-9.2,16.1-1.6.8-3.3.7-5.2-.1Z"/>
          <path class="cls-2" d="m364.6,153.9c-.3-.1-.4-.4-.4-.7s.3-7,4-10.1c1.5-1.2,3.3-1.7,5.4-1.4s3.8,1.3,4.9,2.9c2.9,4,1.7,10.5,1.6,10.8-.1.4-.4.6-.8.6-.4-.1-.6-.4-.6-.8,0-.1,1.1-6.2-1.4-9.7-.9-1.3-2.3-2.1-4-2.3s-3.1.1-4.3,1.1c-3.2,2.7-3.5,9-3.5,9.1,0,.4-.3.7-.7.7,0-.1-.1-.1-.2-.2Z"/>
          <path class="cls-44" d="m380.7,186.5c.1.9-1,1.7-2.3,1.8s-2.4-.6-2.5-1.5,1-1.7,2.3-1.8,2.4.6,2.5,1.5Z"/>
          <path class="cls-44" d="m361,182.9c-.6.7-1.9.5-2.9-.3-1-.9-1.3-2.1-.7-2.8.6-.7,1.9-.5,2.9.3,1,.9,1.3,2.1.7,2.8Z"/>
          <path class="cls-2" d="m373.2,142.8c-.3-.1-.5-.4-.4-.8.1-.4,2.1-14.9,8.6-14.9.1,0,0,1.4,0,1.4-5.5.7-7.2,13.7-7.2,13.8-.1.4-.4.6-.8.6q-.1,0-.2-.1Z"/>
        </g>
        <g>
          <rect class="cls-31" x="414.1" y="180.1" width="1" height="4.6"/>
          <path class="cls-44" d="m418.5,187.6c0,2.4-2,4.4-4.4,4.4s-4.4-2-4.4-4.4,2-4.4,4.4-4.4c2.4,0,4.4,1.9,4.4,4.4Z"/>
          <circle class="cls-31" cx="412.2" cy="186.8" r="2.6"/>
          <path class="cls-2" d="m413.9,180.8c0-1,.1-9.3,1-25.4.8-13.3-4.4-25.3-6.1-28.9l-.6-2c.1-.8,9.1,9.5,8.1,31-.8,16.1-.9,25.2-.9,25.3-.5.4-1.5,0-1.5,0Z"/>
        </g>
      </g>
      <g>
        <path class="cls-21" d="m373.2,99.7c-.5,16.1,7.9,29.4,18.8,29.7s20-12.5,20.5-28.6-7.9-29.4-18.8-29.7c-10.9-.2-20,12.5-20.5,28.6Z"/>
        <path class="cls-3" d="m402.9,87.2s-11.5,6.5-14.6,4.1-2.3-6.1-2.3-6.1c0,0-15,8.1-19.8,3s4.5-8.3,4.5-8.3c0,0-4.9-2.1-3.4-9.3,1.7-8.6,14.2-7.6,18.4-6.3,0,0-.3-5.3,4.4-7.3,4.7-2.1,17.8,7.7,20.3,15.5,0,0,4.9-2.3,7,2,2.2,4.3-1.2,8.4-1.2,8.4,0,0,2.3,1.1,2.4,3,.1,3.5-3.4,6.3-3.4,14.3,0,0-4.8,2.3-4.7,8.9,0,0-3.3-11.2-.1-18-.1.1-7.3,1-7.5-3.9Z"/>
        <g>
          <path class="cls-21" d="m374.9,103.9s-3.5-8.9-9.3-6.9.2,16.8,9.1,13.9l.2-7Z"/>
          <path class="cls-14" d="m367.2,101.1c4.1.1,6.3,3.8,6.4,4s0,.4-.1.5h-.2c-.1,0-.2-.1-.3-.2,0,0-.9-1.4-2.4-2.5-1.4.9-.8,3.3-.8,3.3.1.2-.1.4-.2.4h-.1c-.1,0-.3-.1-.3-.2s-.7-2.7.8-3.9c-.8-.4-1.7-.7-2.7-.8h-.1c-.2,0-.3-.2-.3-.3,0-.2.1-.3.3-.3Z"/>
        </g>
        <g>
          <path class="cls-21" d="m410.3,111.1c5.8,2.3,10.8-3.3,11.8-8,.5-2.4,0-4.5-1.9-5.3-4-1.6-7.2,2.2-8.7,4.6-.6,1-1.2,8.7-1.2,8.7Z"/>
          <path class="cls-14" d="m418.3,101.7c-4.1-.2-6.5,3.4-6.6,3.6s-.1.4.1.5c.1,0,.1.1.2.1s.2-.1.3-.2c0,0,.9-1.4,2.5-2.3,1.4,1,.6,3.3.6,3.4-.1.2,0,.4.2.4h.1c.1,0,.3-.1.3-.2s.9-2.6-.6-3.9c.8-.4,1.7-.6,2.8-.6h.1c.2,0,.3-.1.4-.3,0-.3-.2-.5-.4-.5Z"/>
        </g>
        <polygon class="cls-3" points="370.6 89.2 373.1 100.7 375.4 105.3 375.9 86.9 370.6 89.2"/>
        <path class="cls-3" d="m386,104.5c0,2.2-.5,4-1.2,4s-1.2-1.8-1.2-4,.5-4,1.2-4,1.2,1.8,1.2,4Z"/>
        <path class="cls-3" d="m400.5,104.5c0,2.2-.5,4-1.2,4-.6,0-1.2-1.8-1.2-4s.5-4,1.2-4,1.2,1.8,1.2,4Z"/>
        <g>
          <g>
            <g>
              <path class="cls-14" d="m405.3,107.8c0,.3.9.5,1.9.4s1.8-.5,1.7-.8c0-.3-.9-.5-1.9-.4-.9.1-1.7.5-1.7.8Z"/>
              <path class="cls-14" d="m405.1,109.8c.1-.3.9-.5,1.9-.3s1.7.6,1.7.9c-.1.3-.9.5-1.9.3-1-.2-1.8-.6-1.7-.9Z"/>
            </g>
            <g>
              <path class="cls-14" d="m379.9,109c0-.3-.9-.5-1.9-.4s-1.8.5-1.7.8c0,.3.9.5,1.9.4.9-.1,1.7-.4,1.7-.8Z"/>
              <path class="cls-14" d="m380.1,107.1c-.1.3-.9.5-1.9.3s-1.7-.6-1.7-.9c.1-.3.9-.5,1.9-.3,1,.2,1.8.6,1.7.9Z"/>
            </g>
          </g>
          <g>
            <path class="cls-14" d="m391.9,112.2h.1c.5,0,1.7-.4,2-3.5.4-5.1-.4-7.9-.4-8,0-.2-.2-.3-.4-.2-.2,0-.3.2-.2.4,0,0,.7,2.8.4,7.8-.1,2.1-.8,2.9-1.3,2.9-.8.1-1.9-1.3-2.4-3.6,0-.2-.2-.3-.4-.3s-.3.2-.3.4c.4,2.4,1.6,4.1,2.9,4.1Z"/>
            <path class="cls-14" d="m391.9,117.9c5.2.2,8.4-3.7,8.6-3.9.1-.1.1-.4,0-.5s-.4-.1-.5,0c0,0-3.2,3.8-8,3.7-4.8-.1-7.1-4-7.1-4.1-.1-.2-.3-.2-.5-.1s-.2.3-.1.5c.1.1,2.4,4.2,7.6,4.4Z"/>
            <g>
              <path class="cls-3" d="m382,97c1.1-.4,2.4-.2,3.7.5.5.2,1.1.1,1.3-.4.2-.5.1-1.1-.4-1.3-1.9-1-3.6-1.2-5.3-.6-2.6.9-3.9,4.4-3.4,4.7.1,0,2.3-2.4,4.1-2.9Z"/>
              <path class="cls-3" d="m406.2,100.8c.5-.2-.3-3.9-2.8-5.1-1.5-.7-3.3-.8-5.3-.1-.5.2-.8.7-.6,1.2.2.5.7.8,1.2.6,1.5-.5,2.7-.5,3.8,0,1.8.9,3.6,3.5,3.7,3.4Z"/>
            </g>
          </g>
        </g>
      </g>
    </g>
    <g>
      <g>
        <path class="cls-45" d="m153.2,186.4c-1.7,2.2-5.7,3.7-10.1,3.2h-.4c-2.8-.4-5.7-1.5-8.3-3.7-1.1-3.4-2.4-7.2-3.6-11.1-.7-2.2-1.4-4.6-2.1-6.9-1.9-6.4-3.8-13.1-5.4-19.7-8-44.2,11.7-25,17.7-16.3,0,.1.1.2.1.3.1.2.2.4.2.6,6.2,16,9.3,24.7,10.8,38,.3,2.8.6,5.8.8,9.1.1,2,.2,4.2.3,6.5Z"/>
        <path class="cls-34" d="m134.4,185.8s2.6,2.2,0,0c-1.1-3.4-2.4-7.2-3.6-11.1-.7-2.2-1.4-4.6-2.1-6.9,6.7-10.8,10.7-23.1,12.4-35.6.1.2.2.4.2.6,6.2,16,9.3,24.7,10.8,38-2.8-2.3-13.1-7.1-13.6-5.4-2.9,10.3-4.1,20.4-4.1,20.4Z"/>
        <path class="cls-15" d="m135.2,162c8.3,0,15.2,5.6,17.5,9.2,0-12-5.5-28.5-11.7-39.4-6-8.7-25.6-27.9-17.6,16.3.5,2.1,11.2,11.8,11.8,13.9Z"/>
      </g>
      <g>
        <path class="cls-26" d="m131.2,443.5l-29-1,1.1-26,18.6.7.6,4.6s10.8,5.6,12.6,5.7"/>
        <path class="cls-40" d="m135.2,427.5c1.8.1,20.3,2.2,20.1,16.9l-24.1-.9"/>
        <path class="cls-26" d="m83.3,441.4c0,.2.1.3.1.4v5.6s-22.6,7.9-33.4-2c0,0-.2-2,.4-5"/>
        <path class="cls-26" d="m50.4,440.5c.7-3.9,2.6-9.5,7.8-14.3l2.1-12.6,17.1,4.5v7.1s5.4,13,6,16.1"/>
        <path class="cls-40" d="m83.3,441.4s-1.8-7.5-15.9-8.4c-14-.9-17.1,7.5-17.1,7.5l15.5,8.8,17.5-7.9Z"/>
        <polygon class="cls-41" points="128.9 247.1 128.9 418.2 98.4 420 97.9 368 97 264.4 93.8 299.4 82.7 420 54.2 417.3 58.6 298.3 60.7 243.3 128.9 247.1"/>
        <path class="cls-38" d="m128.9,247.1v46.5c-10.1,1.6-22.6,1.2-22.9,4.2-1.4,13.5-2.8,40.3-8.1,75.5l-.9-109-2.7,29.7c-9.1.3-27.8-1.1-27.9,0-2.6,24.9-8.8,58.2-11.2,97l5.5-147.9,68.2,4Z"/>
        <polygon class="cls-26" points="102.2 442.5 102.2 437.3 155.6 439.9 155.3 444.4 102.2 442.5"/>
        <path class="cls-26" d="m83.3,441.8v5.6s-22.6,7.9-33.4-2c0,0-.2-2,.4-5,15,8.3,31.9,1.3,32.9.9.1.3.1.4.1.5Z"/>
      </g>
      <path class="cls-15" d="m138.6,289l-30.4,1-3.9.1-5.5-17.6-3,18.7-3.1-.3-39.4-3.4s8.1-104.6,5.1-112.9c-4.2-11.5-6.5-28.3-7.7-39.4-.7-6.8-1-11.4-1-11.4,0,0,12.8-17.3,48.4-20,21,4,37.8,22.1,37.8,22.1,0,0-.5,33-1.3,46.8-2.7,48.1,4,116.3,4,116.3Z"/>
      <rect class="cls-41" x="57.86" y="244.09" width="27.5" height="23.9" transform="translate(-188.55 310.8) rotate(-86.26)"/>
      <path class="cls-38" d="m124.1,123.9l7.6,37.4s3.8.5,7.7,1.2c4,.7,9.7,4.8,9.7,4.8,0,0-1.6-4.9-5.9-7.3-2.6-1.5-5.2-1.9-6.6-1.9-.9,0-12.5-34.2-12.5-34.2Z"/>
      <path class="cls-38" d="m66.7,204.5c-6.1,52-5.1,76.9,17.1,85.6l-30.3-2.5s8.1-104.6,5.1-112.9c-4.2-11.5-6.5-28.3-7.7-39.4l3.4-11.5s24,13.9,30.4,31,46.9,6.5,46.9,6.5l3.8.6s-2.2,27.2-1.8,36.6c.5,9.4-66.9,6-66.9,6Z"/>
      <path class="cls-38" d="m104.4,290.1l-5.5-17.6c.3-2.9,1.4-13.2,1.4-13.2.1,16.2,4.1,30.8,4.1,30.8Z"/>
      <path class="cls-41" d="m111.3,108.2c-3.9-1.6-8.1-3.4-12.4-4.3-7.9.6-20.1,3.1-21.6,3.7,0,0,.2,6.8,1.4,11.2,3.8,13.7,11.9,17.5,20.6,25,12.9-12,11.5-26.6,11.5-26.6,0,0,.5-7.9.5-9Z"/>
      <g>
        <g>
          <path class="cls-31" d="m90.6,165.8c-.8-.1-1.6-.2-2.3-.6-4.2-1.7-8.1-7.3-11.5-16.5-2.5-6.8-3.9-13.2-3.9-13.2l.8-.2c.1.3,5.3,25.2,14.9,29.2,2.3.9,4.7.6,7.1-1l.4.7c-1.9,1.2-3.7,1.7-5.5,1.6Z"/>
          <path class="cls-31" d="m82.3,166.6c-1.2-.1-2.4-.4-3.8-.9l.3-.7c3.5,1.3,6.2,1.1,8-.5,7.1-6.3,1-31.3.9-31.5l.8-.2c0,.1,1.6,6.5,2.2,13.6.9,9.6-.3,15.9-3.4,18.7-1.3,1.1-3,1.7-5,1.5Z"/>
          <path class="cls-2" d="m73.1,136.1c-.3,0-.5-.2-.6-.5s-2.1-6.9.5-11.1c1-1.7,2.6-2.8,4.7-3.2,2.1-.4,4.1-.1,5.7,1.1,4.1,2.9,5.2,9.5,5.3,9.8.1.4-.2.7-.6.8s-.7-.2-.8-.6c0-.1-1.1-6.4-4.7-8.9-1.3-.9-2.9-1.2-4.6-.9-1.7.4-3,1.2-3.8,2.6-2.2,3.7-.3,9.9-.3,10,.1.4-.1.8-.5.9h-.3Z"/>
          <path class="cls-13" d="m99.7,162c.4.9-.3,2-1.6,2.5-1.2.5-2.5.3-2.9-.6-.4-.9.3-2,1.6-2.5,1.3-.5,2.6-.2,2.9.6Z"/>
          <path class="cls-44" d="m79.5,165.3c-.3.9-1.6,1.2-2.9.7-1.2-.5-2-1.6-1.6-2.5.3-.9,1.6-1.2,2.9-.7,1.2.5,1.9,1.6,1.6,2.5Z"/>
          <path class="cls-2" d="m77.6,122.4c-.3,0-.6-.3-.6-.6-.1-.4-3.1-15.1,3.2-17.4.1,0,.5,1.3.5,1.3-5,2.6-2.3,15.7-2.3,15.8.1.4-.2.8-.6.8q-.1.1-.2.1Z"/>
        </g>
        <g>
          <rect class="cls-31" x="117.71" y="160.1" width="1" height="4.7" transform="translate(-15.19 12.22) rotate(-5.56)"/>
          <path class="cls-44" d="m114.7,167.3c-.2,3.1,2.7,5.4,5.6,4.6,1.9-.5,3.3-2.2,3.4-4.1.2-3.1-2.7-5.4-5.6-4.6-1.9.5-3.3,2.2-3.4,4.1Z"/>
          <path class="cls-31" d="m118.4,166.4c-.2,1.9,1.6,3.3,3.4,2.8,1-.3,1.8-1.2,1.8-2.2.2-1.9-1.6-3.3-3.4-2.8-.9.2-1.7,1.1-1.8,2.2Z"/>
          <path class="cls-2" d="m117.4,161.1c-.1-1.1-.9-9.5-1.6-26-.6-13.6-7.1-25.3-9.2-28.8l-.8-2c0-.9,10.3,8.7,11.4,30.7.9,16.5,1.6,25.7,1.6,25.8-.3.6-1.4.3-1.4.3Z"/>
        </g>
      </g>
      <g>
        <path class="cls-45" d="m80.4,107.6s1.7,9.2,2.5,11.5c2.8,7.3,8.3,12.9,15.8,19.3,10.3-10.9,9.9-22.9,9.9-22.9,0,0,.3-5,.3-6.2s.5-11.2.5-11.2l-12.2,3-16.1-8.1-.7,14.6Z"/>
        <path class="cls-11" d="m80.6,102c9.1,18.6,23.5,16.6,28,13.4l.4-13.3-11.7,1.8-16.2-14.8c.1,1.5.1,6.1-.1,9.5-.1,1.6-.2,2.9-.4,3.4Z"/>
      </g>
      <g>
        <g>
          <path class="cls-45" d="m80.3,86.5l-.4,6.5c-5.6,1.6-9.8-4.2-10.3-8.7-.3-2.3.4-4.2,2.3-4.8,3.9-1.1,6.5,2.8,7.7,5.2.5,1,.7,1.8.7,1.8Z"/>
          <path class="cls-39" d="m73,82.3c3.6,1.5,4.2,5.5,4.3,5.7,0,.2-.1.3-.3.4h-.2c-.1,0-.2-.1-.2-.2,0,0-.3-1.5-1.2-3-1.6.3-1.8,2.6-1.8,2.6,0,.2-.2.3-.4.3h-.1c-.1-.1-.1-.3-.1-.4s.3-2.6,2-3.1c-.5-.6-1.2-1.2-2.1-1.6h-.1c-.2,0-.2-.3-.2-.4.1-.3.3-.4.4-.3Z"/>
        </g>
        <g>
          <path class="cls-45" d="m114.4,84.9l-.4,6.5c5.4,2.3,10.2-2.8,11.3-7.2.5-2.2.1-4.2-1.6-5-3.7-1.6-6.8,1.9-8.3,4.1-.7.9-1,1.6-1,1.6Z"/>
          <path class="cls-39" d="m122.2,81.7c-3.7,1-4.9,4.9-5,5.1s0,.3.2.4h.2c.1,0,.2-.1.2-.2,0,0,.5-1.5,1.6-2.8,1.5.5,1.5,2.8,1.5,2.9,0,.2.1.3.3.3h.1c.1,0,.2-.2.2-.3s.1-2.6-1.6-3.4c.6-.6,1.4-1.1,2.3-1.3h.1c.2,0,.3-.2.2-.4,0-.2-.1-.3-.3-.3Z"/>
        </g>
        <path class="cls-45" d="m117.4,73.6c.2,5.7-1.7,20.9-2.2,23.5s-7.8,15-10.1,15.3c-2.3.2-10.4.9-13.3-.7s-11.8-12.7-12.4-14.9-2-16.6-2.2-22c-.5-16.5,8.1-23.7,19.2-24,11.1-.3,20.5,6.3,21,22.8Z"/>
        <path class="cls-3" d="m104.3,83.7c0,1.6.5,2.9,1.2,2.9s1.2-1.3,1.2-2.9-.5-2.9-1.2-2.9c-.6,0-1.2,1.3-1.2,2.9Z"/>
        <path class="cls-3" d="m89.4,83.7c0,1.6.5,2.9,1.2,2.9s1.2-1.3,1.2-2.9-.5-2.9-1.2-2.9c-.6,0-1.2,1.3-1.2,2.9Z"/>
        <path class="cls-22" d="m111.7,97.5c-1.1.5.7-4.2-13.4-3.9-12.7.3-12.2,3.4-14.8,3.4s-5.1-7.2-5.1-7.2h0c.4,3.4.7,6.2,1,7,.6,2.2,9.6,13.4,12.4,14.9s11,.9,13.3.7c2.3-.2,9.6-12.7,10.1-15.3.2-1.2.7-4.9,1.2-9.2,0,0-3.7,9-4.7,9.6Zm-13,8.1c-5.8,0-11.5-3.1-11.5-6.1s5.6-4.5,11.5-4.5,11.7,1.3,11.7,4.3-5.9,6.3-11.7,6.3Z"/>
        <g>
          <g>
            <g>
              <path class="cls-39" d="m84.5,88.3c0,.3-.9.5-1.9.4s-1.8-.5-1.8-.8.9-.5,1.9-.4c1.1.1,1.8.5,1.8.8Z"/>
              <path class="cls-39" d="m84.7,90.3c-.1-.3-.9-.5-1.9-.3s-1.8.6-1.7.9c.1.3.9.5,1.9.3,1-.1,1.8-.5,1.7-.9Z"/>
            </g>
            <g>
              <path class="cls-39" d="m110.6,89.6c0-.3.9-.5,1.9-.4s1.8.5,1.8.8-.9.5-1.9.4c-1.1-.1-1.9-.5-1.8-.8Z"/>
              <path class="cls-39" d="m110.3,87.6c.1.3.9.5,1.9.3s1.8-.6,1.7-.9c-.1-.3-.9-.5-1.9-.3-1,.1-1.7.5-1.7.9Z"/>
            </g>
          </g>
          <g>
            <path class="cls-39" d="m98.3,92.8h-.1c-.5,0-1.8-.4-2-3.6-.4-5.2.4-8.1.4-8.2,0-.2.2-.3.4-.2.2,0,.3.2.2.4,0,0-.8,2.9-.4,7.9.2,2.1.8,2.9,1.3,3,.8.1,2-1.4,2.4-3.7,0-.2.2-.3.4-.3s.3.2.3.4c-.3,2.5-1.6,4.3-2.9,4.3Z"/>
            <path class="cls-39" d="m99.4,101.7c-4.9.1-8-3.5-8.1-3.7-.1-.1-.1-.3,0-.5.1-.1.3-.1.5,0,0,0,3,3.6,7.6,3.5s6.7-3.8,6.7-3.8c.1-.2.3-.2.4-.1.2.1.2.3.1.4,0,.2-2.2,4.1-7.2,4.2Z"/>
            <g>
              <path class="cls-22" d="m108.4,77.2c-1.1-.4-2.4-.2-3.8.5-.5.3-1.1.1-1.3-.4-.3-.5-.1-1.1.4-1.3,1.9-1,3.7-1.2,5.4-.6,2.6.9,4,4.6,3.5,4.8-.2,0-2.4-2.4-4.2-3Z"/>
              <path class="cls-22" d="m83.6,81.2c-.5-.2.3-4,2.8-5.2,1.6-.8,3.4-.8,5.4-.1.5.2.8.8.6,1.3-.2.5-.8.8-1.3.6-1.5-.5-2.8-.5-3.9,0-1.6.8-3.5,3.4-3.6,3.4Z"/>
            </g>
          </g>
        </g>
      </g>
      <g>
        <g>
          <path class="cls-45" d="m115.6,163.3s7.5-1.7,14.6-.9c3.8,1,8.2,5.4,9,6.1,1.5,1.8,2.8,7.8,2.6,9.4.2,2.2-1,4.2-2.7,2-1.8-3.7-3.6-7.7-3.6-7.7l-4-4.2s3.2,3.1,4,4.2c.8,1.2,2.4,11.3,1.7,12.6s-3.1.2-3.4-2.2c0,0,.1,2.4-.6,3-.7.6-1.5.2-2.3-2.9,0,0-.6,1.9-1.5,2-1.9-.1-2.6-6.9-2.9-7.3-.4-.4-6.4,2.5-9.8-5-4.1-6.5-1.1-9.1-1.1-9.1Z"/>
          <path class="cls-19" d="m133.8,182.6c0-1.4-.2-2.7-.3-4-.2-1.3-.5-2.6-1-3.8.3,2.6.7,5.2,1.3,7.8Z"/>
          <path class="cls-19" d="m130.9,182.6c0-1.1-.2-2.2-.4-3.3-.3-1-.5-2.1-1.1-3,.5,2.2.8,4.3,1.5,6.3Z"/>
        </g>
        <path class="cls-45" d="m137.8,195.3c-.3,0-.6-.1-.9-.1-9.3-1.1-52.8-12.9-52.8-12.9l-.1-2.7-.3-5.8,6.4-1.8s15-.1,36.4,2.4c1.5,0,3,.1,4.4.2,9.7.9,17,4.1,20.3,7.8,1.2,1.3,1.9,2.6,2,3.9.7,5.5-6.6,9.7-15.4,9Z"/>
        <path class="cls-45" d="m137.8,195.3c-.3,0-.6-.1-.9-.1-9.3-1.1-52.8-12.9-52.8-12.9l-.1-2.7-.3-5.8,6.4-1.8s15.1-1.7,36.5.8c18.1,1.9,21.3,6,24.6,9.7,1.2,1.3,1.9,2.6,2,3.9.7,5.4-6.6,9.6-15.4,8.9Z"/>
        <path class="cls-35" d="m136.9,174.4s-6.2-1.7-14.6-1.4c0,0,13.4,1.3,20.6,4.8,0-.1-3.2-2.5-6-3.4Z"/>
        <path class="cls-34" d="m137.8,195.3c-.3,0-.6-.1-.9-.1-9.3-1.1-52.8-12.9-52.8-12.9l-.1-2.7c7.5,2.5,14.9,5.1,22.6,6.8,11.8,2.6,23.7,5.4,35.6,3.3.2,0,.4-.1.6-.1,9.4-2.1,9.7-9,10-9.9l.3.3c.1,2,.2,4.2.3,6.5.5,5.3-6.8,9.5-15.6,8.8Z"/>
        <path class="cls-45" d="m45.8,147.6c5.4,23.1,9,31.2,22.1,51.7,4.4,1.3,11.6-2.3,14-11-3.2-10.9-6.4-25.4-11.1-38.1-9.1-20.1-15.1-26.4-18.7-24.5-3.8,2-8.1,8.7-6.3,21.9Z"/>
        <path class="cls-15" d="m52.2,180.8c3-1.2,29.8-18.9,29.7-19.2-9.1-20.1-26.1-43.3-29.3-40.6-5.9,5-8.6,13.4-6.8,26.5,1,4.7,5.4,29.8,6.4,33.3Z"/>
        <g>
          <path class="cls-45" d="m93,179.1s-4.8-12-6.5-14.2c-2.8-3.3-9.5-6-10.5-6.5-2.3-.7-7.9.1-9.1,1-2.1.7-3.9,2.6-1,3.4,4.3.3,9.1,0,9.1,0l5.7,3.1s-4.4-1.9-5.8-2.2c-1.5-.3-11.5,2.3-12.4,3.5-.8,1.2,1.3,3.1,3.7,2.4,0,0-2.2.9-2.4,1.8-.2.9.6,1.6,3.8,1,0,0-1.5,1.4-1.1,2.3,1.1,1.8,7.6-.3,8.2-.1s.8,7.3,9.4,7.5c7.8,1.4,8.9-3,8.9-3Z"/>
          <path class="cls-35" d="m76.3,173c-.5.1-5.5,2.4-9.8,1.9,1.1,1.8,7.6-.3,8.2-.1s.8,7.3,9.4,7.5c3,.5,8.9-4.2,10.3-4.8-12.2,1.3-14.8,3.8-18.1-4.5Z"/>
          <path class="cls-35" d="m66.2,169.7c1.2-.6,2.5-1,3.9-1.3,1.3-.3,2.6-.6,4-.5-2.7.6-5.2,1.4-7.9,1.8Z"/>
          <path class="cls-35" d="m67.6,172.5c1-.5,2.1-.7,3.2-1,1.1-.2,2.2-.4,3.3-.2-2.2.6-4.3,1-6.5,1.2Z"/>
        </g>
        <path class="cls-45" d="m123.4,162.9l-7.9.4s-11.2,4.5-29,13.6c-13.2,5.1-20.7,14.1-19.8,19.7,1,5.6,8.9,7.2,16.7,3.3,7.7-4,41.6-29.8,41.6-29.8l-1.6-7.2Z"/>
        <path class="cls-34" d="m83.4,199.9c.2-.1.4-.2.6-.3,10.6-6.7,37.5-26.2,37.5-26.2,0,0-2,1.4-5.3,3.5h0c-1.1.7-2.2,1.4-3.5,2.2-.1.1-.2.1-.3.2-.6.4-1.3.8-2,1.2h-.1c-.6.4-1.3.8-2,1.2-.2.1-.3.2-.5.3-1.4.9-2.9,1.7-4.4,2.7-.2.1-.4.2-.6.4-.7.4-1.4.8-2,1.2-.1.1-.2.1-.3.2-.8.4-1.6.9-2.4,1.3-.2.1-.4.2-.6.4-.7.4-1.3.7-2,1.1-.2.1-.4.2-.5.3-.8.4-1.6.9-2.4,1.3-.2.1-.4.2-.6.3-.7.4-1.3.7-2,1.1-.2.1-.4.2-.6.3-.8.4-1.6.8-2.4,1.2-.2.1-.3.2-.5.2-.7.3-1.3.7-2,1-.2.1-.4.2-.6.3-.8.4-1.6.8-2.4,1.1-.1,0-.2.1-.3.1-.7.3-1.4.6-2,.9-.2.1-.4.2-.6.3-3.6,1.3-4.9-.1-5.3-.4,0,0-.1,0-.1-.1-.2-.1-.3-.3-.5-.4l-.1-.1c-.1-.1-.3-.3-.5-.4l-.1-.1-.5-.5-.1-.1c-1-1-2-2.2-3-3.5h0c-.2-.3-.4-.5-.6-.8h0c-2.2-3-6.1-11.3-6.1-11.3,0,0,.1-2.2,4.1-7.5l-9.7,6.2c2.8,5.9,6.2,11.7,11.3,19.6h0c.1.1.2.3.2.4.1.2.2.4.4.5h0c.1.1.1.2.2.2h0c.1.1.3.3.4.4h0c.1.1.2.2.3.3h0c.1.1.3.2.4.3h0c.1.1.2.2.4.2h0c.2.1.4.2.7.4.1,0,.1.1.2.1h0c.2.1.4.2.7.3h0c.1,0,.2.1.3.1.8.2,1.6.4,2.5.5h2.3c.4,0,.8-.1,1.2-.2h0c.1,0,.2,0,.3-.1h0c.3-.1.7-.1,1-.2h0c.1,0,.3-.1.4-.1.3-.1.6-.2,1-.3h0c.1,0,.2-.1.3-.1.4-.1.7-.3,1.1-.4h0c.1-.1.3-.1.4-.2h0c.4-.1.9-.3,1.3-.5h0Z"/>
      </g>
    </g>
    <g>
      <g>
        <path class="cls-45" d="m262.7,179.4s-13.9,44.1-14.6,96.9c0,0,5.1,2.3,10.7-.1,0,0,6.1-48.4,18.7-74.9,2.9-5.7,2.3-13.3.9-17.6-13.1-21.1-15.7-4.3-15.7-4.3Z"/>
        <g>
          <path class="cls-46" d="m251.5,285.5s2.9,5.8,3.4,6.3c.5.6,4.3,2.1,4.6,3.1.3,1-.9,2-3.7,1-2.8-1.1-3.6-1.4-4.1-2s-3.7-6.6-3.7-6.6l3.5-1.8Z"/>
          <path class="cls-29" d="m250.5,286.9s2.4,7.1,2.9,7.8c.5.7,4.7,3,4.9,4.2.2,1.1-1.4,2.3-4.5.6-3.1-1.6-3.9-2.1-4.4-2.8-.5-.7-3.2-8.1-3.2-8.1l4.3-1.7Z"/>
          <path class="cls-45" d="m248.1,276s-3,8.2-3.4,10.6c-.5,2.5,4.2,12.1,4.8,14.9,1,2.9,3.7,2.4,3.1-1.6-.5-4.3-2.3-11.4-2.4-12.1-.1-.6,3.5-4,4-4.2s2.7,3,2.8,3.6-1.4,4.6,1.2,6.6c2.7,2,4.1-6.6,3.8-8.3-.3-1.7-.8-7.4-4.2-10.6l-8.2-.2-1.5,1.3Z"/>
        </g>
      </g>
      <g>
        <path class="cls-15" d="m273.6,157.7s-4.8,3-5.8,4.7c-5.8,7.3-16.6,41.9-16.6,41.9l18.6,7.4,6.4-27.1-2.6-26.9Z"/>
        <path class="cls-38" d="m260.6,208.2s-3.4-13.9-.7-20.6c2.6-6.7,9.8-22.8,9.8-22.8,0,0-9.8,14.4-13.2,27.4-1.2,4.5,1.6,15.1,1.6,15.1l2.5.9Z"/>
      </g>
      <g>
        <path class="cls-45" d="m298.4,149.3c23.2,6.1,29.6,13.4,29.6,13.4l-15.6,43.2s-3.2,16.7,1.3,24.6c15.8,13.2,3.5,35,3.5,35-10.6,7.5-33.7-2.9-33.7-2.9,0,0-11.2-3.1-19.3-13.2,0,0,4.3-16.7,1.6-28.2-5.5-16.2-6.5-30-2.7-41.9,4.4-8.3,14-29.3,35.3-30Z"/>
        <polygon class="cls-45" points="308.5 133.4 310.1 154.6 285.1 156.5 285.5 148 285.9 141 286.1 140.6 291.6 131.7 308.5 133.4"/>
        <g>
          <g>
            <path class="cls-45" d="m311.3,122.9s3-8.6,8.6-6.9.4,15.9-8.1,13.4l-.5-6.5Z"/>
            <path class="cls-6" d="m318.4,119.9c-3.9.2-5.9,3.8-5.9,4-.1.2,0,.4.1.4h.2c.1,0,.2-.1.3-.2,0,0,.8-1.4,2.2-2.4,1.4.8.9,3.1.9,3.1,0,.2.1.3.2.4h.1c.1,0,.3-.1.3-.2s.6-2.5-.9-3.7c.7-.4,1.6-.8,2.6-.8h.1c.2,0,.3-.2.3-.3-.2-.1-.3-.3-.5-.3Z"/>
          </g>
          <path class="cls-35" d="m309.3,141.1c-.2.4-9.5,21-23.8,9.7l.4-8.7.2.5c-.1-.1,11.9,4.1,23.2-1.5Z"/>
          <path class="cls-45" d="m313.2,118.8c1,15.2-8.6,28-16.8,28.8-8.1.4-19.4-11.1-20.4-26.3s6.5-28.1,16.8-28.8c10.2-.7,19.4,11.1,20.4,26.3Z"/>
          <g>
            <g>
              <g>
                <path class="cls-6" d="m282.9,127.6c0,.3-.8.5-1.8.4-.9-.1-1.7-.4-1.7-.7s.8-.5,1.8-.4c1,.1,1.7.4,1.7.7Z"/>
                <path class="cls-6" d="m283.2,129.4c-.1-.3-.9-.4-1.8-.2s-1.6.6-1.6.9c.1.3.9.4,1.8.2,1-.1,1.7-.6,1.6-.9Z"/>
              </g>
              <g>
                <path class="cls-6" d="m307,127.9c0-.3.8-.5,1.8-.4.9.1,1.7.4,1.7.7s-.8.5-1.8.4c-.9-.1-1.7-.4-1.7-.7Z"/>
                <path class="cls-6" d="m306.8,126c.1.3.9.4,1.8.2.9-.2,1.6-.6,1.6-.9-.1-.3-.9-.4-1.8-.2-1,.2-1.7.6-1.6.9Z"/>
              </g>
            </g>
            <path class="cls-3" d="m287.3,123.4c-.2-2.5-.8-4.4-1.5-4.4l-3.1.3s.5.9,2.4,1c-.2.8-.2,2-.1,3.2.2,2.5.8,4.4,1.5,4.4.6,0,.9-2.1.8-4.5Z"/>
            <path class="cls-3" d="m302.4,122.1c-.1-1.3-.3-2.4-.6-3.2,1.8-.3,2.3-1.3,2.3-1.3l-3.1.1c-.6,0-1,2.1-.9,4.5.2,2.5.8,4.4,1.5,4.4.6,0,1-2,.8-4.5Z"/>
            <g>
              <path class="cls-6" d="m294.9,131.9h-.1c-.5,0-1.7-.3-2-3.3-.5-4.8.1-7.5.1-7.6,0-.2.2-.3.4-.2.2,0,.3.2.2.4,0,0-.6,2.7-.1,7.4.2,2,.8,2.7,1.3,2.7.7,0,1.8-1.3,2.1-3.5,0-.2.2-.3.4-.3s.3.2.3.4c-.3,2.3-1.4,3.9-2.6,4Z"/>
              <path class="cls-6" d="m295.5,136.7c-4.1.3-6.8-2.7-6.9-2.9-.1-.1-.1-.3,0-.4.1-.1.3-.1.4,0,0,0,2.6,2.9,6.5,2.7,3.8-.3,5.5-3.4,5.5-3.4.1-.1.2-.2.4-.1.1.1.2.2.1.4-.1.1-1.8,3.4-6,3.7Z"/>
              <path class="cls-37" d="m303.4,114c-1.1-.4-2.4-.3-3.8.3-.5.2-1.1,0-1.3-.5-.2-.5,0-1.1.5-1.3,1.9-.8,3.7-.9,5.3-.3,2.5,1,3.6,4.7,3.1,4.9-.1.1-2.1-2.4-3.8-3.1Z"/>
              <path class="cls-37" d="m283.7,115.3c1.1-.5,2.3-.4,3.8.1.5.2,1.1-.1,1.3-.6.2-.5-.1-1.1-.6-1.3-1.9-.8-3.7-.8-5.3-.1-2.5,1.1-3.4,4.8-2.9,5,.1.2,2-2.3,3.7-3.1Z"/>
            </g>
          </g>
        </g>
        <g>
          <path class="cls-45" d="m295.5,406.5l-.5-51.9c-2-2.4-3.5-5.1-4.1-8.2-1.7-8.6-3.6-17.5-3-26.3.3-5.1,2-9.7,4.8-13.4-1.1-5.5-2.3-11-3.4-16.5-1.6-8.1-2.4-16.3-4.5-24.3-.7-2.8-.9-5.5-.6-8.2l-5.4,13.6-.2,2.7-5.5,78.9,7.9,70.2,1.6,14.4c5.8.6,7.3-.2,13.2,0l-.1-14.5-.2-16.5Z"/>
          <path class="cls-12" d="m291.1,347.1l-1.6,4.2,6,55.2-.5-51.9c-1.9-2.2-3.3-4.7-3.9-7.5Z"/>
          <g>
            <path class="cls-26" d="m252.6,447h46.4l-2.8-14.9s-5.2,5.6-9.1,3.8c-4-1.4-6-5.4-6-5.4,0,0-7.6,3.4-15.2,6.4h0c-7,2.8-14.7,5.4-13.3,10.1Z"/>
            <path class="cls-40" d="m252.6,447h17.1l.8-.6s-1-5.7-4.6-9.5h0c-7,2.8-14.7,5.4-13.3,10.1Z"/>
            <rect class="cls-26" x="252.5" y="446.4" width="46.6" height="4.2"/>
          </g>
        </g>
        <g>
          <path class="cls-45" d="m330.4,412l-.5-51.9c-2-2.4-3.5-5.1-4.1-8.2-1.7-8.6-3.6-17.5-3-26.3.3-5.1,2-9.7,4.8-13.4-1.1-5.5-2.3-11-3.4-16.5-1.6-8.1-2.4-16.3-4.5-24.3-.7-2.8-.9-5.5-.6-8.2l-5.4,13.6-.2,2.7-5.5,78.9,7.9,70.2,1.6,14.4c5.8.6,7.3-.2,13.2,0l-.1-14.5-.2-16.5Z"/>
          <path class="cls-26" d="m338.7,453.9c-.6-3.9-3.4-11.2-7.9-16,0,0-2.8,4.7-8.1,4.1-1.6-.2-5.7-3.6-5.7-3.6,0,0-6.8,13.3-7.3,16.5"/>
          <path class="cls-40" d="m309.8,454.8s1.6-7.5,13.9-8.4,15,7.5,15,7.5l-13.7,8.8-15.2-7.9Z"/>
          <path class="cls-26" d="m309.7,455.2v5.6s19.9,7.9,29.3-2c0,0,.1-2-.3-5-13.2,8.3-28.1,1.3-28.9.9,0,.3-.1.4-.1.5Z"/>
          <path class="cls-12" d="m326,347.1l-1.6,4.2,6,55.2-.5-51.9c-1.9-2.2-3.3-4.7-3.9-7.5Z"/>
        </g>
        <polygon class="cls-41" points="332.9 430.6 311.7 431.7 295.5 311.7 297.5 428.8 274.3 427.7 264.7 250.8 327.4 261.6 328.7 300.7 332.9 430.6"/>
        <path class="cls-28" d="m327.4,430.4h0c0-32.2-6.3-114.4-12.9-114.6-39.3-1.2-45.7-6.3-45.7-6.3l59.9-8.8.4-.1,3.8,129.9-5.5-.1Z"/>
        <path class="cls-15" d="m265,309c.4.1,3.1.4,3.9.6.7.1,1.4.2,1.7.2,1.7.2,3.4.3,5.2.5,12.8,1,25.8.9,38.6-.2,3.1-.3,6.3-.4,9.4-1h-.2c.6-.1,1.1-.2,1.4-.2,1.7-.3,3.4-.5,5.1-.8.5-.1,1-.2,1.5-.3-.6-9.2-1-18-1.1-24.5-.3-22.4-7.3-32.3-7.3-32.3,0,0-4.1-.6-10.1-1.3-.9-.1-1.9-.2-2.9-.3-16.3-1.8-42.5-3.6-45.8,2.8-.1.1-.1.2-.2.4-1.2,3.3-1.9,30.5-2.3,56.2,1-.2,2,0,3.1.2Z"/>
        <g>
          <rect class="cls-41" x="294.52" y="263.44" width="26.5" height="27.5"/>
          <g>
            <g>
              <path class="cls-10" d="m306.5,305.6c.1,0,6.9-.2,8.8-6.8,1.8-6.3,3.1-21.8,3.1-22.4l-1-.1c0,.2-1.3,16-3.1,22.2-1.7,5.9-7.8,6.1-7.9,6.1l.1,1Z"/>
              <path class="cls-24" d="m302.6,305.1c0,.6,1,1.1,2.2,1.1s2.2-.5,2.2-1.1-1-1.1-2.2-1.1c-1.2-.1-2.2.4-2.2,1.1Z"/>
            </g>
            <g>
              <path class="cls-10" d="m312.9,305.6c-.1,0-6.9-.2-8.8-6.8-1.8-6.3-3.1-21.8-3.1-22.4l1-.1c0,.2,1.3,16,3.1,22.2,1.7,5.9,7.8,6.1,7.9,6.1l-.1,1Z"/>
              <path class="cls-24" d="m316.8,305.1c0,.6-1,1.1-2.2,1.1s-2.2-.5-2.2-1.1,1-1.1,2.2-1.1,2.2.4,2.2,1.1Z"/>
            </g>
            <path class="cls-3" d="m308.7,265.7v-3.7s.1-.8,1-.8,1,.8,1,.8v3.7c4.6.8,8.2,6.6,8.2,13.7h-2.1c0-6.3-3.3-11.7-7.2-11.7s-7.2,5.4-7.2,11.7h-2.1c.2-7.1,3.8-12.9,8.4-13.7Z"/>
          </g>
        </g>
        <path class="cls-15" d="m323.1,250.8c.6,6.4,1,10.3,1,10.3,0,0-2.7-.1-7-.4-2.9-.2-6.5-.4-10.4-.6-17.7-1.2-42.5-3.5-42.3-6.9v-1.3c.3-10.9-.7-30.9-1.7-35.5-1.6-7.6-3.9-16-3.5-26.1,0-6.7,14.1-31.9,14.5-32.4h0l5.2-2.6c2.1-1,3.8-1.7,3.9-1.7-.2.2-2.7,15-.8,15.7,4.9,1.6,28.2-16.7,28.2-16.7,0,0,2.8.8,6.4,2.3,3.8,1.5,8.5,3.8,11.6,6.4h0c1.6,1.4,2.9,2.9,3.3,4.5,2.2,3.7-5,11.4-8.6,22.7-1,3-1.6,6.1-2,9.4-.3,2.4-.5,4.9-.6,7.4v.1c-.1,3.2-.1,6.5,0,10,.9,14.4,2,27.1,2.8,35.4Z"/>
        <path class="cls-38" d="m312.6,245.4c-.3,1-.1,2.4.4,4,1.1,3.7,3.5,8.4,4,11.2,0,.1,0,.3.1.4,2.9,20.3,1,36.3-3.7,49,.3,0,.5,0,.8-.1,3.1-.3,6.3-.4,9.4-1h-.2c.6-.1,1.1-.2,1.4-.2,1.7-.3,3.4-.5,5.1-.8.5-.1,1-.2,1.5-.3-.6-9.2-1-18-1.1-24.5-.3-22.4-7.3-32.3-7.3-32.3-.8-8.3-1.9-21-2.8-35.3,0-3.5-.1-6.8,0-10v-.1c.1-2.6.3-5,.6-7.4l-12.8-20.2s12.3,39.7,4.6,67.6Z"/>
      </g>
      <path class="cls-45" d="m332.6,166s12.7,25.3,21.9,63.3c-4.2,1.6-8.4,1.9-12.9,2.3-1.8.2-3.2.7-4.3,1.4-3.8-10.4-8.2-20.6-13.3-28.9-18.4-29.7,8.6-38.1,8.6-38.1Z"/>
      <g>
        <rect class="cls-32" x="271.63" y="209.19" width="42.3" height="54.3" transform="translate(-82.55 262.92) rotate(-42.96)"/>
        <g>
          <polygon class="cls-26" points="313.5 239.9 317.5 244.7 295.7 265.2 262.3 230.7 289 205.7 317.6 237.1 313.5 239.9"/>
          <path class="cls-25" d="m290.8,212.1l-21.6,20.3c-.1.1-.4.1-.5,0l-.2-.2c-.1-.1-.1-.4,0-.5l21.6-20.3c.1-.1.4-.1.5,0l.2.2c.2.1.2.3,0,.5Z"/>
          <g>
            <path class="cls-20" d="m292.6,214.2l-15,14.1c-.1.1-.2.1-.3,0l-.1-.1c-.1-.1-.1-.2,0-.3l15-14.1c.1-.1.2-.1.3,0l.1.1c.1,0,.1.2,0,.3Z"/>
            <path class="cls-20" d="m293.8,215.5l-15,14c-.1.1-.3.1-.4,0l-.1-.1c-.1-.1-.1-.3,0-.4l15-14c.1-.1.3-.1.4,0l.1.1c.1.2.1.3,0,.4Z"/>
            <path class="cls-20" d="m295.1,216.8l-15,14.1c-.1.1-.2.1-.3,0l-.1-.1c-.1-.1-.1-.2,0-.3l15-14.1c.1-.1.2-.1.3,0l.1.1c.1.1,0,.2,0,.3Z"/>
            <path class="cls-20" d="m288.7,225.3l-7.4,7c-.1.1-.2.1-.3,0l-.1-.1c-.1-.1-.1-.2,0-.3l7.4-7c.1-.1.2-.1.3,0l.1.1c.1,0,.1.2,0,.3Z"/>
            <path class="cls-20" d="m279.2,234.7l-4.2,3.9c-.1.1-.4.1-.5,0l-4.1-4.4c-.1-.1-.1-.4,0-.5l4.2-3.9c.1-.1.4-.1.5,0l.6.7c.1.1.1.4,0,.5s-.4.1-.5,0l-.4-.4-3.7,3.5,3.7,3.9,3.7-3.5-1.6-1.7c-.1-.1-.1-.4,0-.5s.4-.1.5,0l1.9,2c.1,0,.1.2-.1.4Z"/>
            <path class="cls-16" d="m276.1,235.8h0c-.1.1-.2.1-.3.1l-2.4-.4c-.2,0-.3-.2-.3-.4s.2-.3.4-.3l2,.3.5-4.9c0-.2.2-.3.4-.3s.3.2.3.4l-.5,5.3c0,.1,0,.2-.1.2Z"/>
          </g>
          <g>
            <path class="cls-20" d="m298.9,220.9l-15,14.1c-.1.1-.2.1-.3,0l-.1-.1c-.1-.1-.1-.2,0-.3l15-14.1c.1-.1.2-.1.3,0l.1.1c.1.1.1.2,0,.3Z"/>
            <path class="cls-20" d="m300.1,222.2l-15,14.1c-.1.1-.2.1-.3,0l-.1-.1c-.1-.1-.1-.2,0-.3l15-14.1c.1-.1.2-.1.3,0l.1.1c.1.1.1.2,0,.3Z"/>
            <path class="cls-20" d="m301.4,223.5l-15,14.1c-.1.1-.2.1-.3,0l-.1-.1c-.1-.1-.1-.2,0-.3l15-14.1c.1-.1.2-.1.3,0l.1.1c.1.1.1.2,0,.3Z"/>
            <path class="cls-20" d="m295,232l-7.4,7c-.1.1-.2.1-.3,0l-.1-.1c-.1-.1-.1-.2,0-.3l7.4-7c.1-.1.2-.1.3,0l.1.1c.1.1.1.2,0,.3Z"/>
            <path class="cls-20" d="m285.5,241.4l-4.2,3.9c-.1.1-.4.1-.5,0l-4.1-4.4c-.1-.1-.1-.4,0-.5l4.2-3.9c.1-.1.4-.1.5,0l.6.7c.1.1.1.4,0,.5s-.4.1-.5,0l-.4-.4-3.7,3.5,3.7,3.9,3.7-3.5-1.6-1.7c-.1-.1-.1-.4,0-.5s.4-.1.5,0l1.9,2c.1,0,.1.3-.1.4Z"/>
            <path class="cls-16" d="m282.5,242.5s-.1.1,0,0c-.1.1-.2.1-.3.1l-2.4-.4c-.2,0-.3-.2-.3-.4s.2-.3.4-.3l2,.3.5-4.9c0-.2.2-.3.4-.3s.3.2.3.4l-.5,5.3c0,.1-.1.2-.1.2Z"/>
          </g>
          <g>
            <path class="cls-20" d="m305.2,227.6l-15,14.1c-.1.1-.2.1-.3,0l-.1-.1c-.1-.1-.1-.2,0-.3l15-14.1c.1-.1.2-.1.3,0l.1.1c.1.1.1.2,0,.3Z"/>
            <path class="cls-20" d="m306.5,228.9l-15,14.1c-.1.1-.2.1-.3,0l-.1-.1c-.1-.1-.1-.2,0-.3l15-14.1c.1-.1.2-.1.3,0l.1.1v.3Z"/>
            <path class="cls-20" d="m307.7,230.3l-15,14.1c-.1.1-.2.1-.3,0l-.1-.1c-.1-.1-.1-.2,0-.3l15-14.1c.1-.1.2-.1.3,0l.1.1c.1,0,.1.2,0,.3Z"/>
            <path class="cls-20" d="m301.3,238.7l-7.4,7c-.1.1-.2.1-.3,0l-.1-.1c-.1-.1-.1-.2,0-.3l7.4-7c.1-.1.2-.1.3,0l.1.1c.1.1.1.2,0,.3Z"/>
            <path class="cls-20" d="m291.8,248.1l-4.2,3.9c-.1.1-.4.1-.5,0l-4.1-4.4c-.1-.1-.1-.4,0-.5l4.2-3.9c.1-.1.4-.1.5,0l.6.7c.1.1.1.4,0,.5s-.4.1-.5,0l-.4-.4-3.7,3.5,3.7,3.9,3.7-3.5-1.6-1.7c-.1-.1-.1-.4,0-.5s.4-.1.5,0l1.9,2c.1.1.1.3-.1.4Z"/>
            <path class="cls-16" d="m288.8,249.3h0c-.1.1-.2.1-.3.1l-2.4-.4c-.2,0-.3-.2-.3-.4s.2-.3.4-.3l2,.3.5-4.9c0-.2.2-.3.4-.3s.3.2.3.4l-.5,5.3s-.1.1-.1.2Z"/>
          </g>
          <g>
            <path class="cls-20" d="m311.5,234.4l-15,14c-.1.1-.3.1-.4,0l-.1-.1c-.1-.1-.1-.3,0-.4l15-14c.1-.1.3-.1.4,0l.1.1c.1.1.1.3,0,.4Z"/>
            <path class="cls-20" d="m312.8,235.7l-15,14.1c-.1.1-.2.1-.3,0l-.1-.1c-.1-.1-.1-.2,0-.3l15-14.1c.1-.1.2-.1.3,0l.1.1c.1,0,.1.2,0,.3Z"/>
            <path class="cls-20" d="m314,237l-15,14.1c-.1.1-.2.1-.3,0l-.1-.1c-.1-.1-.1-.2,0-.3l15-14.1c.1-.1.2-.1.3,0l.1.1c.1.1.1.2,0,.3Z"/>
            <path class="cls-20" d="m307.7,245.4l-7.4,7c-.1.1-.2.1-.3,0l-.1-.1c-.1-.1-.1-.2,0-.3l7.4-7c.1-.1.2-.1.3,0l.1.1v.3Z"/>
            <path class="cls-20" d="m298.2,254.8l-4.2,3.9c-.1.1-.4.1-.5,0l-4.1-4.4c-.1-.1-.1-.4,0-.5l4.2-3.9c.1-.1.4-.1.5,0l.6.7c.1.1.1.4,0,.5s-.4.1-.5,0l-.4-.4-3.7,3.5,3.7,3.9,3.7-3.5-1.6-1.7c-.1-.1-.1-.4,0-.5s.4-.1.5,0l1.9,2c0,.1,0,.3-.1.4Z"/>
            <path class="cls-16" d="m295.1,256h0c-.1.1-.2.1-.3.1l-2.4-.4c-.2,0-.3-.2-.3-.4s.2-.3.4-.3l2,.3.5-4.9c0-.2.2-.3.4-.3s.3.2.3.4l-.5,5.3s0,.1-.1.2Z"/>
          </g>
          <polygon class="cls-44" points="317.5 244.7 317.6 237.1 313.5 239.9 317.5 244.7"/>
        </g>
        <path class="cls-17" d="m280.1,210.6l2.7,2.9-12.1,11.3-2.7-2.9c-.8-.8-.7-2.1.1-2.9l4-3.7c.3.1.6.1.9-.2.2-.2.3-.6.2-.9l4-3.7c.8-.8,2.1-.8,2.9.1Z"/>
        <path class="cls-17" d="m271.1,213.1c-.7.7-.8,1.8-.1,2.5l2,2.1c.7.7,1.8.8,2.5.1s.8-1.8.1-2.5l-2-2.1c-.6-.8-1.8-.8-2.5-.1Zm1.9,2c-.3.2-.6.3-.9.2-.1,0-.2-.1-.3-.2-.3-.3-.3-.9,0-1.2s.9-.3,1.2,0c.1.1.1.2.2.3.1.3,0,.6-.2.9Z"/>
        <rect class="cls-18" x="267.7" y="217.23" width="16.5" height="2.2" transform="translate(-74.79 246.62) rotate(-42.96)"/>
      </g>
      <path class="cls-45" d="m292.5,250.5s-2.2-3.8-.6-9.9c0,0,10.9-3.6,25-8.9,5.9-2.2,12.2-4.7,18.6-7.3.9-.4,1.7-.7,2.6-1.1,5.1-2.1,12.9-2.4,14.7,1.5.7,1.6,4,6,.5,11.6-4.8,7.2-37.9,10.7-60.8,14.1Z"/>
      <path class="cls-45" d="m267.1,245.4c1.2-1.5,14.9-6.7,14.9-6.7-2.9-1.6-6.1-4.2-4.3-5.6,1.7-1.2,14.3,5.9,15.9,6.9.1.5-.4,1-.3,1.5,0,2.7.1,8.1.1,8.1-5.8,4-8.3,5.8-13.7,5.2-2.8.1-8.4-6.2-8.4-6.2-2.8.9-5.4-1.7-4.2-3.2Z"/>
      <path class="cls-15" d="m322.4,166l5.2-5.1,5.6,4.2s11.7,24.9,17.9,43.6l-23.3,10.8-11.4-21.3c.1,0-6.7-18.8,6-32.2Z"/>
      <path class="cls-41" d="m279.6,172.6c4.9,4,36.9-17.8,36.9-17.8-3.6-1.4-6.4-2.3-6.4-2.3,0,0-23.3,18.3-28.2,16.7-1.9-.7.6-15.5.8-15.7-.1,0-1.7.7-3.9,1.7-1.1,7.6-1.6,15.5.8,17.4Z"/>
      <g>
        <path class="cls-23" d="m268,126.8s-3.3,4.9-1.9,7.5c1.4,2.7,2.5.8,2.5,4.5s3.5,2.4,4.3,1.2c3.2-2.6,3.8,4.6,9.7,1.1,4.3-2-4.8-18.8-4.8-18.8l-7.7-1.2-2.1,5.7Z"/>
        <path class="cls-23" d="m325.6,124.7s1.8,3.7.5,7.3c-1.4,3.6-4.1,1.3-4.5,2-.4.8-.4,3.8-2.8,4.3-2.3.5-2.5-1.8-4-.7-.6.5-1.5,3.6-4.3,3.3-4.6-.2-5.5-5.3-3.4-10.5s10.1-14,10.4-14.2c.3-.1,7.6,2.1,7.6,2.1l.5,6.4Z"/>
        <g>
          <ellipse class="cls-45" cx="295.4" cy="123.9" rx="18.3" ry="27.2"/>
          <g>
            <path class="cls-23" d="m305.2,120.1c-1-.5-2.3-.5-3.7,0-.5.2-1-.1-1.2-.6s.1-1,.6-1.2c1.9-.7,3.7-.7,5.2,0,2.4,1.1,3.2,4.8,2.7,5-.1.1-1.9-2.5-3.6-3.2Z"/>
            <path class="cls-23" d="m280.9,123.6c-.1,0,0-3.9,2.4-5.1,1.5-.8,3.3-.8,5.2-.1.5.2.8.7.6,1.2-.2.5-.7.8-1.2.6-1.4-.5-2.7-.5-3.7,0-1.8.9-2.9,3.4-3.3,3.4Z"/>
          </g>
          <g>
            <g>
              <g>
                <path class="cls-39" d="m283.6,130.5c0,.3-.8.4-1.8.3-.9-.1-1.6-.5-1.6-.8s.8-.4,1.8-.3c.9.2,1.6.5,1.6.8Z"/>
                <path class="cls-39" d="m283.7,132.3c0-.3-.8-.4-1.8-.3-.9.1-1.6.5-1.6.8s.8.4,1.8.3c1-.1,1.7-.5,1.6-.8Z"/>
              </g>
              <g>
                <path class="cls-39" d="m307.2,132.3c0-.3.8-.4,1.8-.3.9.1,1.6.5,1.6.8s-.8.4-1.8.3c-.9-.1-1.6-.5-1.6-.8Z"/>
                <path class="cls-39" d="m307.1,130.5c0,.3.8.4,1.8.3.9-.1,1.6-.5,1.6-.8s-.8-.4-1.8-.3c-.9.2-1.7.5-1.6.8Z"/>
              </g>
            </g>
            <path class="cls-39" d="m295.6,134.8h-.1c-.5,0-1.6-.5-1.7-3.3-.2-4.7.6-7.3.6-7.4,0-.2.2-.3.4-.2.2.1.3.2.2.4,0,0-.8,2.6-.6,7.2.1,1.9.6,2.7,1.1,2.7.7.1,1.8-1.2,2.3-3.3,0-.2.2-.3.4-.2.2,0,.3.2.2.4-.4,2.1-1.6,3.7-2.8,3.7Z"/>
          </g>
        </g>
        <g>
          <path class="cls-3" d="m325.9,113.2c.2-1.7,2.2-4.4.8-7.2-1.4-2.8-4-2-4.3-4.3s-1.1-5.9-4.9-5.5c-3.7.3-1.8-1.9-4-5.3-2.2-3.5-5.6-.3-6.7-.8s-1.3-6.5-6.9-7.7c-5.6-1.3-7.3,5.2-7.9,5.3-.6.1-1.7-1.8-3.7-1.3s-1.1,2.8-2.5,2.7c-1.4-.1-4.9-.8-6.9,0-2.1.8-2.7,4.9-2.7,4.9,0,0-3.3-1.4-5.2,0-2,1.4-1.4,4-2,6s-3.2,1.4-6.2,4.6-.5,9.7-1.8,10.5c-1.3.7-2.9,2.9-2.5,6,.4,3,5.3,3.2,5.2,6.1-.1,2.8-2.2,4.6,1.4,5.6s5.8-6.6,5.8-6.6c1.5,1.2,5,.8,7.8-1.5s.7-7.1.5-8.8c-.3-1.7,1-1.4,3.8-2.3,2.8-.8,3.6-5.2,3.6-5.2,3.3,1.5,4.1-2.3,6-.9-2.1,1.9-1.3,5-1.1,7.1v.3c0,.1-.1.2-.1.4-.3,1.7-2.6,2.5-3.4,1.8-.8-.6-.1-1.8-.1-1.8-1.3.4-1.6,3.2,1.1,3.2h.4c2.8.3,3.4-3.5,4-6.3.3-1.6,1.9-2.7,3.2-3.4.7-.2,1.4-.5,2.1-.8h0c1.7-.9,3-2.1,3-2.1h0s-1.7,5.2,2.3,8.2c4.1,3,2.9,6.3,2.2,6.9-.7.6-2.1.4-2.1.4,0,0,2.1,1.2,3.8-.4,1.7-1.6.9-4.9,0-5.7-.6-.5-.9-1.8-.9-2.9,2.4,1,5.2-1.2,4.5,2.4-.7,3.7.6,6.6,3.7,7.8,3.1,1.3,5.2-3.6,6.3-2.7,1.1.8.8,2.7,2.6,4.3,1.8,1.6,4.9.3,5-2.2.1-2.6-3.4-7.1-3.2-8.8Z"/>
          <path class="cls-23" d="m303.9,103.9c1,.4,2.1.7,3.1.6.5,0,1-.1,1.5-.2.3-.1.5-.1.7-.2.3-.1.5-.2.8-.2.6-.1,1.1-.2,1.7-.1.6,0,1.1.1,1.7.3.5.2,1.1.5,1.4,1,.4.5.6,1.1.6,1.7v.5c0,.2,0,.3-.1.4,0,.3-.1.6-.2.8-.1.5-.2,1.1-.2,1.6-.1,1.1-.1,2.2,0,3.3.1,1.1.2,2.2.6,3.2.2.5.5.9.8,1.3.4.3.9.5,1.4.5v.1c-.5.1-1.2.1-1.7-.2-.5-.3-.9-.8-1.2-1.3-.6-1.1-.8-2.2-.9-3.4-.1-1.2,0-2.3.1-3.5.1-.6.2-1.1.4-1.7.1-.3.2-.6.3-.8,0-.1.1-.3.1-.4l.1-.4c.1-.5,0-1.1-.3-1.5s-.8-.7-1.3-.9c-1-.3-2.1,0-3.1.3-.3.1-.5.2-.7.3-.3.1-.5.2-.8.2-.6.1-1.2.2-1.7.1-1.2-.1-2.3-.6-3.1-1.4h0Z"/>
          <path class="cls-23" d="m306.3,98.6c1.1.9,2.6,1,3.8.7.6-.1,1.3-.4,2-.6s1.4-.3,2.1-.4c.7,0,1.5,0,2.2.5.3.2.6.5.8.9,0,.1.1.2.1.3l.1.3c.1.2.1.4.1.6.1.7.1,1.5.3,2.2.1.7.3,1.4.6,2,.2.3.4.5.6.7.3.2.5.4.8.5.1.1.3.1.5.2s.4.1.6.2c.4.2.7.5.9.8.5.7.7,1.5.7,2.3s-.1,1.6-.4,2.3c-.1.4-.3.7-.5,1.1-.1.2-.2.4-.1.6s.3.5.5.8.4.5.7.8c.5.5,1,1.1,1.4,1.7s.8,1.3.7,2.1h-.1c-.1-.7-.6-1.3-1-1.8-.5-.5-1-1-1.5-1.4-.5-.5-1.1-.9-1.5-1.8-.1-.2-.1-.5-.1-.7,0-.3.1-.5.2-.7.1-.3.3-.6.4-.9.2-.6.3-1.3.4-2,0-.7-.1-1.3-.4-1.8-.1-.3-.4-.4-.6-.6-.1-.1-.3-.1-.4-.2-.2-.1-.4-.1-.5-.2-.3-.2-.7-.4-1-.7-.3-.3-.5-.6-.6-1-.3-.7-.4-1.5-.4-2.2-.1-.7-.1-1.5-.2-2.2s-.5-1.3-1.1-1.6c-.6-.2-1.2-.2-1.9-.1-.7.1-1.3.2-2,.4-.7.1-1.3.4-2.1.5-.7.1-1.5.1-2.2-.2-.8-.3-1.5-.7-1.9-1.4h0Z"/>
          <path class="cls-23" d="m301.9,100.1c-.8-.5-1.6-.9-2.5-1.1-.4-.1-.9-.2-1.3-.3-.4,0-.9,0-1.3.1s-.8.3-1.2.5c-.4.2-.8.5-1.1.8-.8.5-1.5,1.1-2.3,1.6s-1.7.9-2.7,1-2-.2-2.8-.6c-.8-.3-1.7-.5-2.7-.5-.9,0-1.8.2-2.6.7-.8.4-1.3,1.2-1.5,2-.1.2-.1.4-.1.6s0,.5-.1.7c-.1.5-.2,1-.3,1.5-.3,1-1,1.9-1.8,2.5s-1.6,1.1-2.3,1.6l-.6.4c-.2.1-.3.2-.4.4-.2.3-.4.6-.4,1-.1.8.1,1.8.4,2.7.2.9.5,1.8.7,2.8.1.5.1,1,.1,1.5-.1.5-.2,1-.6,1.4l-.1-.1c.3-.4.3-.9.3-1.3,0-.5-.1-.9-.2-1.4-.2-.9-.6-1.8-.9-2.7-.3-.9-.6-1.9-.6-3,0-.5.2-1.1.6-1.6.2-.2.4-.4.6-.6l.6-.4c1.5-1.1,3.3-1.9,3.9-3.5.2-.4.3-.8.3-1.3l.1-.7c.1-.3.1-.5.2-.8.3-1,1-1.9,1.9-2.3s1.9-.6,2.8-.6,1.9.2,2.8.6c.2.1.4.2.7.2.2.1.4.1.6.2s.4,0,.7,0c.2,0,.4,0,.6-.1.9-.2,1.7-.6,2.4-1.1.8-.5,1.5-1.1,2.3-1.6.4-.3.8-.5,1.2-.8.5-.2.9-.4,1.4-.5,1-.1,2,.1,2.9.4.4.2.9.4,1.3.7.3.3.7.6,1,1h0Z"/>
          <path class="cls-23" d="m303.2,95.7c-.9-1-1.9-1.9-3-2.6-1.1-.8-2.2-1.4-3.4-1.6h-.9c-.3.1-.6.1-.8.3-.6.2-1.1.6-1.5,1s-.8,1-1.2,1.6c-.4.6-1.1,1.1-1.9,1.2-.7.1-1.4.1-2.1,0s-1.3-.2-2-.4c-1.3-.3-2.6-.7-3.9-.7-.6,0-1.3.1-1.9.4s-1,.8-1.4,1.3c-.8,1.1-1.1,2.4-1.7,3.7-.3.6-.7,1.3-1.4,1.7-.2.1-.3.2-.5.2s-.4.1-.5.1l-1,.1c-1.2.2-2.3.9-3.2,1.9-.9.9-1.5,2.1-1.5,3.3v.4c0,.1.1.3.1.4.1.2.1.4.2.6,0,.2.1.4,0,.6,0,.4-.2.9-.4,1.2-.2.3-.5.6-.8.8-.5.5-1,.8-1.4,1.3s-.7,1-.8,1.6c-.2.6-.2,1.2-.1,1.9,0,.7.1,1.3.3,2,.2,1.3.5,2.7.6,4.1.1.7.1,1.4,0,2.1s-.4,1.4-1,1.8l-.1-.1c.5-.5.7-1.1.7-1.8.1-.7,0-1.3-.1-2-.2-1.3-.6-2.6-.9-4-.1-.7-.3-1.4-.4-2.1s-.1-1.4.1-2.2c.2-.7.5-1.4,1-2s1-1,1.5-1.4c.2-.2.5-.4.6-.6s.2-.4.3-.7v-.4l-.1-.4c-.1-.2-.1-.4-.1-.6s0-.4-.1-.6c0-.8.2-1.5.6-2.2.3-.7.8-1.2,1.3-1.7,1-1,2.3-1.8,3.7-2l1-.1c.2,0,.3-.1.4-.1s.3-.1.4-.2c.5-.3.9-.8,1.2-1.3.3-.6.6-1.2.9-1.8.3-.6.6-1.2,1-1.8.4-.6.9-1.1,1.5-1.4s1.3-.5,2-.5,1.3.1,2,.2l2,.3c.7.1,1.3.2,1.9.2.7.1,1.3,0,1.9-.1s1-.5,1.4-1,.8-1.1,1.3-1.6,1.1-.9,1.8-1.2c.3-.1.7-.2,1-.3h1.1c.7.1,1.4.4,2,.7.6.3,1.2.7,1.7,1.2.5.4,1,.9,1.5,1.4.4.7.8,1.2,1.1,1.9h0Z"/>
        </g>
        <path class="cls-3" d="m305.9,125.8c-.2-.5-.4-.9-.8-1.2-.3-.3-.6-.5-1-.6s-.8-.1-1.2-.1c-.8.1-1.5.6-2,1.2s-.9,1.2-1.1,2c.6-.4,1.1-.8,1.7-1.2.5-.3,1.1-.6,1.6-.7,1-.2,2.1.4,3.1,1.5l1.8-1.6-2.1.7Z"/>
        <path class="cls-3" d="m284.1,125.5c.2-.4.5-.9.8-1.2.3-.3.7-.5,1-.6.4-.1.8-.1,1.2,0,.8.2,1.4.6,1.9,1.2s.9,1.2,1.1,2c-.6-.4-1.1-.9-1.6-1.2-.5-.3-1.1-.6-1.6-.7-1-.2-2.1.4-3.1,1.5l-1.8-1.7,2.1.7Z"/>
        <path class="cls-39" d="m296,141.2c-4.2.2-6.9-3.4-7.1-3.6-.1-.1-.1-.3,0-.5.1-.1.3-.1.4,0,0,0,2.7,3.5,6.6,3.3s5.6-3.9,5.6-3.9c.1-.2.2-.2.4-.1.1.1.2.3.1.4,0,.3-1.8,4.2-6,4.4Z"/>
      </g>
    </g>
    <g>
      <path class="cls-36" d="m216.1,95.9c-8.8-11.2-18.4-2.2-18.4-2.2l6.8,7.4s2.3,8.2,9.6,13.3c0,0,.1.5.2,1.2l-35.2-3.3s4.2,6.9-8.1,20.3c-12.6,13.8-10.6,31-10.6,31l57.6,2.9.5-41.2s0-.1.1-.1c3.2-5.1,6.3-18.1-2.5-29.3Z"/>
      <g>
        <path class="cls-21" d="m228.5,183.5s12.6,44.4,11.8,97.3c0,0-5.1,2.1-10.7-.4,0,0-4.6-48.6-16.5-75.4-2.7-5.7-2-13.3-.4-17.6,13.6-20.8,15.8-3.9,15.8-3.9Z"/>
        <g>
          <path class="cls-21" d="m236.5,289.9s-3.1,5.7-3.6,6.2-4.4,2-4.7,2.9.9,2.1,3.7,1.1,3.6-1.3,4.2-1.8c.5-.5,3.9-6.5,3.9-6.5l-3.5-1.9Z"/>
          <path class="cls-21" d="m237.5,291.3s-2.6,7-3.2,7.7c-.5.7-4.7,2.9-5,4-.2,1.1,1.4,2.3,4.5.8s4-2,4.5-2.7,3.4-8,3.4-8l-4.2-1.8Z"/>
          <path class="cls-21" d="m240.2,280.4s2.8,8.2,3.1,10.7c.4,2.5-4.6,12-5.3,14.8-1.1,2.9-3.7,2.3-3.1-1.7.6-4.3,2.6-11.4,2.7-12,.1-.6-3.4-4.1-3.9-4.3-.5-.2-2.7,2.9-2.9,3.5s1.3,4.6-1.4,6.6c-2.7,1.9-3.9-6.8-3.5-8.4s1.1-7.4,4.6-10.5h8.2l1.5,1.3Z"/>
        </g>
        <path class="cls-26" d="m243.2,279.2s-8.1,3.6-13.6,1.1c0,0-4.6-48.6-16.5-75.4-2.7-5.7-2-13.3-.4-17.6,4-6,10.7-14.2,10.7-14.2,0,0,18.9,20.2,19.8,106.1Z"/>
        <path class="cls-38" d="m241.1,280s-6.1,2.9-11.6.4c0,0-4.6-48.6-16.5-75.4-2.7-5.7-2-13.3-.4-17.6,4-6,10.7-14.2,10.7-14.2,0,0,9.1,7.2,9.9,32,.9,22.1,6.7,69.5,7.9,74.8Z"/>
      </g>
      <path class="cls-21" d="m190.6,152.2c-22.5,6.4-33.4,14.7-33.4,14.7l20.7,40.6s3.4,16.2-.8,24c-15.1,13.1-11.9,27.5-11.9,27.5,10.5,7.1,41.9,3.1,41.9,3.1,0,0,10.8-3.2,18.5-13.2,0,0-3.4-20.3-.9-31.6,5.1-15.9,6.5-27.2,2.6-38.7-4.4-7.8-16-26.1-36.7-26.4Z"/>
      <g>
        <path class="cls-21" d="m203.1,243.1l.5,7.4.2,2.7.2,2.7,5.8,91.6,5.3,69.4.4,5.3s-.5,9.7-1,11.2c-2.5,4.3.9,12.2,1.2,15.8.3,3.8,22.6,8,23.2,1.4-1.4-4.8-10.2-17.8-10.6-20.1-.4-2.2-.5-9.6-.5-9.6l2-58.4.5-15.2,4.4-90.5v-.3l-5.2-15.1-9.8.5-4.3.2-12.3,1Z"/>
        <path class="cls-3" d="m235.1,441.9s-.4,4.9-7.6,4.7c-7.1-.2-11.3-5.8-11.3-5.8,0,0-1.2-5.9-1.4-6.4-.3-.5-.4-6.8-.4-6.8,0,0-2.5,7.9-1.5,11.4,0,0,1.9,9.2,3.3,11.7,1.4,2.5,8.9,4.6,15.7,4.6,6.9.1,11-4.5,3.2-13.4Z"/>
        <path class="cls-21" d="m164.1,415l-.6,5.3s-2.3,9.5-3,10.9c-3.3,3.8-1.4,12.1-1.7,15.7-.4,3.8,20.7,12,22.5,5.7-.4-5-6.7-19.4-6.7-21.7s1.6-9.4,1.3-9.5l16.1-71.9,13.2-72.5,5.6-31.8-28.9-15s-8.1,7.3-8.9,16.9c-2.1,27-1.1,98.8-1.1,98.8l-7.8,69.1Z"/>
        <path class="cls-42" d="m171.6,327.4l23.5,4s-3.4,19.6-5.3,27.9c-2.8,13.7-12.1,54.7-12.1,54.7l11.8-78.8-17.9-7.8Z"/>
        <path class="cls-42" d="m230.9,330.3l-2.5,67.1-.9,24.6-1.5-87-17.2-2.7c10.5.1,21.9-1.7,22.1-2Z"/>
        <path class="cls-3" d="m179.2,444.7s-1.5,4.7-8.4,3-9.8-8.1-9.8-8.1c0,0,.1-6.1,0-6.6-.2-.5,1.1-6.7,1.1-6.7,0,0-4.1,7.1-3.9,10.9,0,0-.1,9.4.7,12.1.9,2.7,7.7,6.4,14.4,7.9,6.6,1.5,11.6-2.1,5.9-12.5Z"/>
      </g>
      <path class="cls-3" d="m177.4,237.3s-10.2,16.7-12,37.9-4.9,71.2-4.9,71.2c0,0,47.3,9.3,79.4,1.6l-5.1-88.3-57.4-22.4Z"/>
      <polygon class="cls-21" points="184.8 136.4 179.2 158.3 203.7 159 203.7 144.4 196.8 135 184.8 136.4"/>
      <path class="cls-4" d="m186,140.5c.1.4,1,8.1,9.3,10.6,3.1.9,6.3,1.3,8.4,1.1v-7.8h0s-9,1.5-17.7-3.9Z"/>
      <path class="cls-8" d="m162.2,253.4s7.5,4.6,19.8,8.3h0c3.6,1.1,7.7,2.1,12.1,2.9.8.2,1.6.3,2.4.4,14.2,2.6,24.7-.2,28.5-1.5,1-.3,1.5-.6,1.5-.6,1.3-5,1.1-12.8.7-20.8-.5-10.2-1.6-20.6-.6-25.3,1.6-8.3,8.6-17.2,6.3-29-1.5-8.5-11.6-23.5-11.6-23.5-5.6-4.3-14-7.5-14-7.5,0,0,.2,7.8,1.2,12.5,1,4.8-9.2,6.4-15,1.7-7.4-6-14.3-15.5-14.3-15.5,0,0-19.8,7.4-22.4,10.3-4,3,10.2,21.1,10.2,21.1,0,0,1.5,2.8,5.3,10.1,4.7,8.9,9.1,26.3,3.4,33.2-5.6,7.1-13.5,23.2-13.5,23.2Z"/>
      <path class="cls-26" d="m224.5,335.3l20.5-5.9s-17.2-118.9-15.4-120,6-15.7,5.1-20.8-12.2-23.7-14.3-25.7c-2.2-2-16.5-8.5-16.5-8.5h0c.3.9,11,28.3,13.2,42.3.5,3.5.6,9.8.4,17.4-.6,23.2,7,121.2,7,121.2Z"/>
      <path class="cls-30" d="m217.1,196.8c.5,3.5.6,9.8.4,17.4l.4,1.2,3.8-42-8.4-3.5,3.5-4.2-12.9-11.2c.3.8,11,28.3,13.2,42.3Z"/>
      <path class="cls-26" d="m201.6,335.3l-47.2-5s8.1-89,6.6-97.6c-.4-2.3-1.6-7-3-12.8-3.9-16.2-9.4-41.4-4.8-49.2,2.9-10.7,27.5-18.1,27.5-18.1,0,0,18.3,30.1,21,44.2.8,4.1,2.1,12.2,3.6,21.7h0c3.7,22.8-3.7,116.8-3.7,116.8Z"/>
      <path class="cls-38" d="m154.4,330.3s8.1-89,6.6-97.6c-.4-2.3-1.6-7-3-12.8l11.4-10.1s2.6,33.8.6,66.4c-3.1,49.7,8.1,49.9,23.4,58.2l-39-4.1Z"/>
      <path class="cls-30" d="m186.3,168.5l-7.1,7.5,26,42.5c-1.5-9.4-2.9-17.5-3.6-21.7-2.6-14.1-21-44.2-21-44.2l-5.3,10.9,11,5Z"/>
      <g>
        <polygon class="cls-7" points="142.6 259.3 140.7 301.6 193.1 304.9 195 302.8 196.8 261.7 142.6 259.3"/>
        <polygon class="cls-1" points="141.6 259.3 139.8 301.6 193.2 303.4 194.1 302.5 195.9 261.7 141.6 259.3"/>
        <rect class="cls-9" x="145.75" y="255.38" width="42.3" height="54.3" transform="translate(-122.58 437.06) rotate(-87.52)"/>
        <path class="cls-26" d="m190.2,280.7c0,3.4-2.7,6.1-6.1,6.1s-6.1-2.7-6.1-6.1,2.7-6.1,6.1-6.1,6.1,2.7,6.1,6.1Z"/>
        <path class="cls-21" d="m173,306.2c.3-1.9-4.6-15.7-4.6-15.7,3.1,1.2,7.2,1.9,7-.3-.2-2.1-10.7-7.3-12.4-7.9-.5.3-10.6,1.6-10.6,1.6-.8,8.4.7,15.3,4.6,19,1.8,2.2,10.8,2.1,10.8,2.1,1.2,2.8,4.9,3.1,5.2,1.2Z"/>
        <path class="cls-21" d="m152.1,177.1s-7.9,49.9,0,107.2c0,0,5.9,1.6,11.5-1.8,0,0-1.3-53.4,8-84.1,2.2-6.6.4-14.7-1.9-19.2-17.5-20.7-17.6-2.1-17.6-2.1Z"/>
        <path class="cls-26" d="m172.4,197.2c-9.3,30.7-6,84.1-6,84.1-1.5.9-3.5,1.6-5.6,2.1-5.7,1.3-12.3,1.3-12.3,1.3-7.9-57.3,3.4-112.7,3.4-112.7,0,0,4.6-14.5,18,2,1.2,2.4,2.4,6.9,3,11.6.5,4.2.5,8.5-.5,11.6Z"/>
        <path class="cls-38" d="m172.4,197.2c-9.3,30.7-6,84.1-6,84.1-1.5.9-3.5,1.6-5.6,2.1-.4-54.2,2-60.4,6.1-81.3,1.3-6.9,4.3-7.1,4.7-19.6.5,1.1,1,2.1,1.3,3.1,1.1,3.3,1.1,6.6-.5,11.6Z"/>
        <polygon class="cls-5" points="187.4 279.7 185.2 279.7 185.3 277.5 183.2 277.4 183.1 279.6 180.9 279.5 180.8 281.6 183 281.7 182.9 283.9 185.1 284 185.1 281.8 187.3 281.9 187.4 279.7"/>
      </g>
      <g>
        <path class="cls-21" d="m176.1,122.8c2.3,15.8,12.8,27.4,23.4,25.8,10.7-1.5,17.5-15.6,15.2-31.4-2.3-15.8-12.8-27.4-23.4-25.8-10.7,1.5-17.5,15.6-15.2,31.4Z"/>
        <g>
          <g>
            <g>
              <path class="cls-6" d="m210.7,127.9c0,.3.9.5,1.9.3,1-.1,1.7-.5,1.7-.9,0-.3-.9-.5-1.9-.3-1,.2-1.7.5-1.7.9Z"/>
              <path class="cls-6" d="m210.6,129.8c0-.3.9-.5,1.9-.3,1,.1,1.8.5,1.7.8,0,.3-.9.5-1.9.3-1-.1-1.8-.5-1.7-.8Z"/>
            </g>
            <g>
              <path class="cls-6" d="m185.5,130c0-.3-.9-.5-1.9-.3-1,.1-1.7.5-1.7.9s.9.5,1.9.3,1.8-.6,1.7-.9Z"/>
              <path class="cls-6" d="m185.7,128c0,.3-.9.5-1.9.3-1-.1-1.8-.5-1.7-.8,0-.3.9-.5,1.9-.3,1,.1,1.7.5,1.7.8Z"/>
            </g>
          </g>
          <g>
            <path class="cls-6" d="m200.4,133.2h.1c.5-.1,1.7-.6,1.5-3.7-.2-5-1.3-7.7-1.3-7.8-.1-.2-.3-.3-.4-.2-.2.1-.3.3-.2.4,0,0,1,2.7,1.3,7.6.1,2.1-.4,2.9-1,3-.8.1-2.1-1.1-2.7-3.3-.1-.2-.2-.3-.4-.2s-.3.2-.2.4c.6,2.3,2,3.9,3.3,3.8Z"/>
            <path class="cls-6" d="m198.6,138.1c4.3-.4,6.6-3.9,6.7-4,.1-.1,0-.3-.1-.4-.1-.1-.3,0-.4.1,0,0-2.2,3.4-6.2,3.7s-6.2-2.6-6.2-2.7c-.1-.1-.3-.2-.4-.1s-.2.3-.1.4c.1.3,2.4,3.4,6.7,3Z"/>
            <path class="cls-36" d="m188.2,114.6c1.2-.5,2.7-.4,4.4.2.6.2,1.2,0,1.5-.6.2-.5,0-1.1-.6-1.3-2.2-.8-4.3-.9-6.1-.2-2.9,1.1-4,5-3.4,5.2,0,.1,2.3-2.5,4.2-3.3Z"/>
            <path class="cls-36" d="m209.2,114.8c-1.2-.3-2.5-.1-3.9.7-.5.3-1.1.1-1.4-.4-.3-.5-.1-1.1.4-1.4,1.9-1.1,3.7-1.4,5.5-.9,2.7.8,4.3,4.4,3.8,4.7-.2.1-2.5-2.2-4.4-2.7Z"/>
          </g>
          <path class="cls-3" d="m204.8,123c-.1-2.2.5-3.8,1.2-3.9l3.5.1s-.6.7-2.5.9c.3.7.3,1.4.4,2.5.1,2.2-.3,4-1,4.1-.8.1-1.4-1.6-1.6-3.7Z"/>
          <path class="cls-3" d="m189.7,122.9c0-1.1.2-2,.4-2.7-2.2-.1-2.8-.8-2.8-.8l3.8-.3c.8,0,1.4,1.6,1.4,3.7s-.6,3.8-1.4,3.9c-.8-.1-1.5-1.7-1.4-3.8Z"/>
        </g>
        <g>
          <path class="cls-3" d="m207.9,129.7c-5.2,0-6.7-7.3-6.8-11.1v-.5l.4-.1c7.7-2.5,14.3.1,14.6.2l.5.2-.1.6c-.1.4-1.9,9.6-7.5,10.7h-1.1Zm-5.7-10.6c.2,2,1,9.3,5.7,9.3s6.7-7,7.3-9.2c-1.6-.5-7-2-13-.1Z"/>
          <path class="cls-3" d="m190.6,130.3c-6.8-.1-8.8-11.2-8.9-11.7l-.1-.6.5-.2c.3-.1,7.4-2.8,15.6.1l.4.2v.5c-.2,3.8-1.7,10.7-6.4,11.6-.3,0-.7.1-1.1.1Zm-7.6-11.4c.5,2.2,2.6,9.9,7.7,10,5,.1,6.1-7.7,6.3-9.9-6.5-2.1-12.3-.6-14-.1Z"/>
          <path class="cls-3" d="m201.6,122.3l.8-.9c-1.7-2.3-4.4-1.2-5.5-.3l.6,1.1c.1-.1,2.6-1.9,4.1.1Z"/>
          <polygon class="cls-3" points="182.1 119.2 182 117.9 177 118.1 177.1 119.5 182.1 119.2"/>
        </g>
        <path class="cls-36" d="m175.7,92c9.1-18.2,45.2-6.6,45.8,16.5l-3,4.6c-.1-.1-36.5-1.2-42.8-21.1Z"/>
        <path class="cls-36" d="m163.9,150.8c3.1-.6,13.3-4,15.4-10.8,2-6.8.4-21.1.4-21.1-.5-13.2,11-16.6,11-16.6,2.3-8-2.7-17.6-14.7-11-10.6,5.8-14.3,11-11.5,27.7,1,5.8,2.2,13.7.9,23-.8,3.4-1.4,6.4-1.5,8.8Z"/>
      </g>
    </g>
  </g>
</svg>