<?xml version="1.0" encoding="utf-8"?>
<!-- Generator: Adobe Illustrator 27.8.1, SVG Export Plug-In . SVG Version: 6.00 Build 0)  -->
<svg version="1.1" id="Capa_1" xmlns="http://www.w3.org/2000/svg" xmlns:xlink="http://www.w3.org/1999/xlink" x="0px" y="0px"
	 viewBox="0 0 653.8 500" style="enable-background:new 0 0 653.8 500;" xml:space="preserve">
<style type="text/css">
	.st0{fill:#C9D1FF;}
	.st1{fill:#6D7DAC;}
	.st2{opacity:0.4;fill:#D0D1D3;enable-background:new    ;}
	.st3{fill:#434244;}
	.st4{fill:#383838;}
	.st5{fill:#FFFFFF;}
	.st6{fill:#E5B7AC;}
	.st7{fill:#E5E5E6;}
	.st8{fill:#F1F1F2;}
	.st9{opacity:0.5;fill:#CA7E86;enable-background:new    ;}
	.st10{fill:#9CC7ED;}
	.st11{fill:#D0D1D3;}
	.st12{fill:#59595B;}
	.st13{fill:#808083;}
	.st14{fill:#BABCBE;}
	.st15{fill:#BE717E;}
	.st16{fill:#C58F80;}
	.st17{opacity:0.2;fill:#C58F80;enable-background:new    ;}
	.st18{fill:#E6E6E7;}
	.st19{fill:#68AAE3;}
	.st20{opacity:0.4;fill:#AA7168;enable-background:new    ;}
	.st21{fill:#B56F61;}
	.st22{fill:#996158;}
	.st23{fill:#AA7168;}
	.st24{opacity:0.3;fill:#C58F80;enable-background:new    ;}
	.st25{fill:#A87067;}
	.st26{fill:#B78074;}
	.st27{fill:#CA7E86;}
	.st28{fill:#583B1C;}
	.st29{opacity:0.4;fill:#CA7E86;enable-background:new    ;}
	.st30{fill:#BBBCBF;}
	.st31{fill:#A6A8AA;}
	.st32{fill:#6D6E70;}
	.st33{fill:#DF922F;}
	.st34{fill:#CFD1D2;}
	.st35{fill:#6CB476;}
	.st36{fill:#9B7B53;}
	.st37{fill:#7F5E40;}
	.st38{fill:#3B3B3B;}
	.st39{fill:#583C1C;}
	.st40{fill:#D7A39B;}
	.st41{fill:#E38669;}
	.st42{fill:#599C8D;}
	.st43{fill:#4B8C7B;}
	.st44{fill:#72C7B5;}
	.st45{fill:#C53E5D;}
</style>
<g id="BACKGROUND">
	<rect x="-0.1" class="st0" width="653.6" height="500"/>
</g>
<g id="OBJECTS">
	<g>
		<path class="st1" d="M202.1,126.9c5.2,24.7,37.4,41.2,63.6-17.5S185.2,46.4,202.1,126.9z"/>
		<path class="st1" d="M571.8,409.4h-31.2c24.5-39.4,27.4-132.9-7-158.5c-35.9-26.8-84.8-51.5-80.1-117.9
			c4.8-66.4-84.5-111.5-147.8-13.4c-63.2,98.1-75,22.5-146.4,35.3c-99.3,17.8-59.1,206.8-18.6,254.6H77.4c-1.5,0-2.8,1.4-2.8,3.2
			c0,1.7,1.3,3.2,2.8,3.2h494.4c1.5,0,2.8-1.4,2.8-3.2C574.6,410.8,573.3,409.4,571.8,409.4L571.8,409.4z"/>
	</g>
	<rect x="0.4" y="405.6" class="st1" width="653.6" height="94.4"/>
	<path class="st2" d="M540.6,445c0,0-97.6,28.7-218,28.7s-218-28.7-218-28.7s97.6-28.7,218-28.7S540.6,445,540.6,445z"/>
	<g>
		<g>
			<path class="st3" d="M447.1,420.9l-0.6,4.4c0,0-10.6,5.3-12.3,5.3c-1.7,0.1-22.6-4-19.7,15.9l51.9-1.8l-1.1-24.4L447.1,420.9
				L447.1,420.9z"/>
			<path class="st3" d="M483.9,442v4.8c0,0,20.2,6.8,29.8-1.7c0,0,0.1-1.7-0.3-4.3c-0.6-3.4-2.4-8.2-7-12.3l-1.8-10.8l-15.3,3.8v6.1
				c0,0-4.8,11.2-5.3,13.9C483.9,441.8,483.9,441.9,483.9,442L483.9,442z"/>
			<polygon class="st4" points="500.4,238.4 507.7,421.5 486.2,423.4 467.4,274.5 467.4,423.4 443.5,423.4 437.1,239.2 			"/>
			<path class="st4" d="M483.9,442v4.8c0,0,20.2,6.8,29.8-1.7c0,0,0.1-1.7-0.3-4.3c-13.4,7.2-28.5,1.1-29.4,0.8
				C483.9,441.8,483.9,441.9,483.9,442L483.9,442z"/>
			<polygon class="st4" points="466.4,444.7 466,439.9 414.3,442.3 414.5,446.5 			"/>
		</g>
		<path class="st5" d="M520.2,323.8l-21.1,1.7l-28.8,2.4l-4.4-17.5l-3.6,16.6l-37.6-1.2l7.5-140.1l-2.7-38.2
			c0,0,16.5-17.1,36.9-20.8c34.8,2.5,47.3,18.8,47.3,18.8s-1.9,30.3-8.5,47.8c-0.1,0.4-0.2,1.1-0.3,2c-0.1,1.1,0,2.6,0,4.4v0.1
			c0,1.1,0.1,2.3,0.2,3.6v0.2c1.9,29.1,13.3,108.4,14.8,119c0.1,0.4,0.1,0.7,0.1,0.9C520.1,323.7,520.2,323.8,520.2,323.8
			L520.2,323.8z"/>
		<path class="st2" d="M505,199.7C505,199.7,504.9,199.7,505,199.7C504.9,199.7,504.9,199.6,505,199.7L505,199.7z"/>
		<path class="st2" d="M499.1,325.5c0,0,11.1-30.6-2.9-128.7c-4.9-34.2,5.1-45.6,5.4-46.7c0,0.2-0.3,1.6-1.8,10.7
			c-1.4,7.9,0.7,26,1.5,34.4c0.2,2.7,3.2,4.4,3.7,4.4c0,0.4,0.1,1.6,0.2,3.6v0.2c1.9,29.1,13.3,108.4,14.8,119
			c0.1,0.4,0.1,0.7,0.1,0.9v0.3L499.1,325.5L499.1,325.5z"/>
		<g>
			<path class="st6" d="M509.4,255.3c0,0,30.6-29.5,31.2-36c0.5-6.5-12.8-33-12.8-33l-18.7,1.7l14.2,30.7l-21.2,30.4"/>
			<path class="st6" d="M502.1,249.1c0,0-15.2,7.9-15,10.1c0.2,2.3,4.1,0.8,6.9-0.8c0,0-3.5,11.9-1.9,16.1c0.6,1.8,4.1,0.9,4.9-2
				c0,0,8.2-1.6,9.6-4c3.3-4.3,3-7.3,2.6-14.3L502.1,249.1L502.1,249.1z"/>
			<path class="st5" d="M513.1,147.9c0,0,32.2,64.7,31.2,70.7s-28.6,40.8-28.6,40.8l-15.1-15.9l15.1-27.5l-16.9-25.9
				C498.8,190.2,489,152.8,513.1,147.9L513.1,147.9z"/>
		</g>
		<g>
			<path class="st6" d="M432.4,190.7L422,221.4l15.5,30.4c0,0,13.3,6.6,13.5,8.9s-5.2-0.3-7.4-1.4c0,0,4.5,8,3.6,15.5
				c-0.2,1.9-2.8,1.6-3.8-1.1c0,0-6.1,0-7.4-2.2c-2.9-3.6-3.2-6.6-3.8-13.6c0,0-22.3-29.5-22.7-36c-0.4-6.5,9.3-33,9.3-33
				L432.4,190.7L432.4,190.7z"/>
			<path class="st5" d="M429.5,150.5c0,0-23.5,64.7-22.8,70.7s20.8,40.8,20.8,40.8l11-15.8l-11-27.5l12.3-25.9
				C439.9,192.9,447,155.4,429.5,150.5z"/>
		</g>
		<polygon class="st7" points="486.2,286.3 498.2,289.3 510.1,286.3 510.1,263.8 486.2,263.8 		"/>
		<polygon class="st7" points="430.2,286.3 441.3,289.3 452.4,286.3 452.4,263.8 430.2,263.8 		"/>
		<polygon class="st7" points="466.4,315 466.6,295.6 466.7,276.1 466.6,237.3 466.1,198.4 465.7,179 465.2,159.6 465,179 
			465,198.4 465.1,237.3 465.6,276.1 465.9,295.6 		"/>
		<path class="st8" d="M515.7,216.1l-5.8-8.8c3.5,3.7,4.5,4.2,6.5,2.7c6.1-4.5,13.4,0.1,19.8,3.9C524.4,210.5,518,211.3,515.7,216.1
			L515.7,216.1z"/>
		<path class="st8" d="M432.1,162.4l-1.5,50.1l-3,6.2l8.8,21.9c0,0-6.2-17.4-14.3-19.2s-8.1-1.9-8.1-1.9l9-0.9L432.1,162.4
			L432.1,162.4z"/>
		<g>
			<path class="st6" d="M484,128.6l-1.3,5.7c0,0-0.5,1.3-1.3,3.5c-2.7,7.2-9.4,23.4-15.8,30.8c-6.6-13.8-8.8-24.5-9.5-30.1
				c-0.4-2.8,0.2-4.2,0.2-4.2s-0.3-4.9-0.3-6.1v-9.8l11.4,1.8l14.1-13.2c0,0-0.1,1-0.2,2.6c-0.1,2.2-0.2,5.5,0,8.4
				c0.2,1.6,0.5,3.4,0.9,4.9C483.1,126.1,484,128.6,484,128.6L484,128.6z"/>
			<path class="st9" d="M482.3,122.9c-8.9,18.1-21.9,10.6-26.3,7.5v-9.1l11.4,1.8l13.9-13.6c-0.1,2.2-0.2,5.5,0,8.4
				C481.5,119.6,481.9,121.3,482.3,122.9z"/>
		</g>
		<g>
			<path class="st10" d="M483.4,137.8c-2.1,5.6-6.4,16.1-11.2,24.9c-2.3,4.2-4.7,8-7.1,10.7c-1.5-3.1-2.7-6.2-3.7-9.2
				c-4.2-12.6-4.8-24.1-5.5-29.3c7.9,5.8,18,6,27.3-7.8L483.4,137.8L483.4,137.8z"/>
			<polygon class="st11" points="458.2,148.7 466.7,138.8 474.7,149 473.3,152.6 466.7,141.3 459.4,153.3 			"/>
			<path class="st12" d="M467.8,147.7l1.9-4.7c-2.6-2.3-3.9-2-6.3,0c0.4,2,0.8,3.2,1.7,4.9l0,0l-3.7,15.8c1,3,2.2,6.1,3.7,9.2
				c2.4-2.7,4.8-6.6,7.1-10.7L467.8,147.7L467.8,147.7z"/>
		</g>
		<g>
			<polygon class="st7" points="483.5,126.7 465.1,173.4 486.8,152.8 482.7,144.5 491.9,140.7 488.2,131.2 			"/>
			<path class="st7" d="M456,128.2c0.4,14,4,29.5,8.8,44.7l-19.9-20.1l6.4-7.7l-7.6-3.5l6.5-9.8L456,128.2L456,128.2z"/>
		</g>
		<g>
			<g>
				<path class="st13" d="M445.6,187c-0.7-0.3-1.4-0.7-2-1.3c-3.3-3-5.1-9.4-5.2-18.9c-0.1-7.1,0.8-13.4,0.8-13.5l0.8,0.1
					c0,0.2-3.4,24.9,4.2,31.7c1.8,1.6,4.1,2.1,6.9,1.4l0.2,0.8C449.1,187.8,447.3,187.7,445.6,187L445.6,187z"/>
				<path class="st13" d="M437.7,185c-1-0.5-2.1-1.1-3.2-2.1l0.5-0.6c2.8,2.3,5.3,3.1,7.6,2.1c8.5-3.5,11.1-28.5,11.1-28.7l0.8,0.1
					c0,0.1-0.7,6.5-2.4,13.2c-2.3,9.2-5.4,14.6-9.2,16.1C441.3,185.9,439.6,185.8,437.7,185L437.7,185z"/>
				<path class="st12" d="M439.2,153.9c-0.3-0.1-0.4-0.4-0.4-0.7s0.3-7,4-10.1c1.5-1.2,3.3-1.7,5.4-1.4s3.8,1.3,4.9,2.9
					c2.9,4,1.7,10.5,1.6,10.8c-0.1,0.4-0.4,0.6-0.8,0.6c-0.4-0.1-0.6-0.4-0.6-0.8c0-0.1,1.1-6.2-1.4-9.7c-0.9-1.3-2.3-2.1-4-2.3
					s-3.1,0.1-4.3,1.1c-3.2,2.7-3.5,9-3.5,9.1c0,0.4-0.3,0.7-0.7,0.7C439.4,154,439.3,154,439.2,153.9L439.2,153.9z"/>
				<path class="st14" d="M455.3,186.5c0.1,0.9-1,1.7-2.3,1.8s-2.4-0.6-2.5-1.5s1-1.7,2.3-1.8S455.2,185.6,455.3,186.5z"/>
				<path class="st14" d="M435.6,182.9c-0.6,0.7-1.9,0.5-2.9-0.3c-1-0.9-1.3-2.1-0.7-2.8c0.6-0.7,1.9-0.5,2.9,0.3
					C435.9,181,436.2,182.2,435.6,182.9z"/>
				<path class="st12" d="M447.8,142.8c-0.3-0.1-0.5-0.4-0.4-0.8c0.1-0.4,2.1-14.9,8.6-14.9c0.1,0,0,1.4,0,1.4
					c-5.5,0.7-7.2,13.7-7.2,13.8c-0.1,0.4-0.4,0.6-0.8,0.6C448,142.9,447.9,142.9,447.8,142.8z"/>
			</g>
			<g>
				<rect x="488.7" y="180.1" class="st13" width="1" height="4.6"/>
				<path class="st14" d="M493.1,187.6c0,2.4-2,4.4-4.4,4.4s-4.4-2-4.4-4.4s2-4.4,4.4-4.4S493.1,185.1,493.1,187.6z"/>
				<circle class="st13" cx="486.8" cy="186.8" r="2.6"/>
				<path class="st12" d="M488.5,180.8c0-1,0.1-9.3,1-25.4c0.8-13.3-4.4-25.3-6.1-28.9l-0.6-2c0.1-0.8,9.1,9.5,8.1,31
					c-0.8,16.1-0.9,25.2-0.9,25.3C489.5,181.2,488.5,180.8,488.5,180.8z"/>
			</g>
		</g>
		<g>
			<path class="st6" d="M447.8,99.7c-0.5,16.1,7.9,29.4,18.8,29.7s20-12.5,20.5-28.6s-7.9-29.4-18.8-29.7
				C457.4,70.9,448.3,83.6,447.8,99.7z"/>
			<path class="st3" d="M477.5,87.2c0,0-11.5,6.5-14.6,4.1s-2.3-6.1-2.3-6.1s-15,8.1-19.8,3s4.5-8.3,4.5-8.3s-4.9-2.1-3.4-9.3
				c1.7-8.6,14.2-7.6,18.4-6.3c0,0-0.3-5.3,4.4-7.3c4.7-2.1,17.8,7.7,20.3,15.5c0,0,4.9-2.3,7,2c2.2,4.3-1.2,8.4-1.2,8.4
				s2.3,1.1,2.4,3c0.1,3.5-3.4,6.3-3.4,14.3c0,0-4.8,2.3-4.7,8.9c0,0-3.3-11.2-0.1-18C484.9,91.2,477.7,92.1,477.5,87.2L477.5,87.2z
				"/>
			<g>
				<path class="st6" d="M449.5,103.9c0,0-3.5-8.9-9.3-6.9s0.2,16.8,9.1,13.9L449.5,103.9L449.5,103.9z"/>
				<path class="st15" d="M441.8,101.1c4.1,0.1,6.3,3.8,6.4,4s0,0.4-0.1,0.5h-0.2c-0.1,0-0.2-0.1-0.3-0.2c0,0-0.9-1.4-2.4-2.5
					c-1.4,0.9-0.8,3.3-0.8,3.3c0.1,0.2-0.1,0.4-0.2,0.4h-0.1c-0.1,0-0.3-0.1-0.3-0.2s-0.7-2.7,0.8-3.9c-0.8-0.4-1.7-0.7-2.7-0.8
					h-0.1c-0.2,0-0.3-0.2-0.3-0.3C441.5,101.2,441.6,101.1,441.8,101.1L441.8,101.1z"/>
			</g>
			<g>
				<path class="st6" d="M484.9,111.1c5.8,2.3,10.8-3.3,11.8-8c0.5-2.4,0-4.5-1.9-5.3c-4-1.6-7.2,2.2-8.7,4.6
					C485.5,103.4,484.9,111.1,484.9,111.1L484.9,111.1z"/>
				<path class="st15" d="M492.9,101.7c-4.1-0.2-6.5,3.4-6.6,3.6s-0.1,0.4,0.1,0.5c0.1,0,0.1,0.1,0.2,0.1s0.2-0.1,0.3-0.2
					c0,0,0.9-1.4,2.5-2.3c1.4,1,0.6,3.3,0.6,3.4c-0.1,0.2,0,0.4,0.2,0.4h0.1c0.1,0,0.3-0.1,0.3-0.2s0.9-2.6-0.6-3.9
					c0.8-0.4,1.7-0.6,2.8-0.6h0.1c0.2,0,0.3-0.1,0.4-0.3C493.3,101.9,493.1,101.7,492.9,101.7z"/>
			</g>
			<polygon class="st3" points="445.2,89.2 447.7,100.7 450,105.3 450.5,86.9 			"/>
			<path class="st3" d="M460.6,104.5c0,2.2-0.5,4-1.2,4s-1.2-1.8-1.2-4s0.5-4,1.2-4S460.6,102.3,460.6,104.5z"/>
			<path class="st3" d="M475.1,104.5c0,2.2-0.5,4-1.2,4c-0.6,0-1.2-1.8-1.2-4s0.5-4,1.2-4S475.1,102.3,475.1,104.5z"/>
			<g>
				<g>
					<g>
						<path class="st15" d="M479.9,107.8c0,0.3,0.9,0.5,1.9,0.4s1.8-0.5,1.7-0.8c0-0.3-0.9-0.5-1.9-0.4
							C480.7,107.1,479.9,107.5,479.9,107.8z"/>
						<path class="st15" d="M479.7,109.8c0.1-0.3,0.9-0.5,1.9-0.3s1.7,0.6,1.7,0.9c-0.1,0.3-0.9,0.5-1.9,0.3
							S479.6,110.1,479.7,109.8z"/>
					</g>
					<g>
						<path class="st15" d="M454.5,109c0-0.3-0.9-0.5-1.9-0.4s-1.8,0.5-1.7,0.8c0,0.3,0.9,0.5,1.9,0.4
							C453.7,109.7,454.5,109.4,454.5,109z"/>
						<path class="st15" d="M454.7,107.1c-0.1,0.3-0.9,0.5-1.9,0.3s-1.7-0.6-1.7-0.9c0.1-0.3,0.9-0.5,1.9-0.3
							S454.8,106.8,454.7,107.1z"/>
					</g>
				</g>
				<g>
					<path class="st15" d="M466.5,112.2h0.1c0.5,0,1.7-0.4,2-3.5c0.4-5.1-0.4-7.9-0.4-8c0-0.2-0.2-0.3-0.4-0.2
						c-0.2,0-0.3,0.2-0.2,0.4c0,0,0.7,2.8,0.4,7.8c-0.1,2.1-0.8,2.9-1.3,2.9c-0.8,0.1-1.9-1.3-2.4-3.6c0-0.2-0.2-0.3-0.4-0.3
						s-0.3,0.2-0.3,0.4C464,110.5,465.2,112.2,466.5,112.2L466.5,112.2z"/>
					<path class="st15" d="M466.5,117.9c5.2,0.2,8.4-3.7,8.6-3.9c0.1-0.1,0.1-0.4,0-0.5s-0.4-0.1-0.5,0c0,0-3.2,3.8-8,3.7
						c-4.8-0.1-7.1-4-7.1-4.1c-0.1-0.2-0.3-0.2-0.5-0.1s-0.2,0.3-0.1,0.5C459,113.6,461.3,117.7,466.5,117.9z"/>
					<g>
						<path class="st3" d="M456.6,97c1.1-0.4,2.4-0.2,3.7,0.5c0.5,0.2,1.1,0.1,1.3-0.4c0.2-0.5,0.1-1.1-0.4-1.3
							c-1.9-1-3.6-1.2-5.3-0.6c-2.6,0.9-3.9,4.4-3.4,4.7C452.6,99.9,454.8,97.5,456.6,97L456.6,97z"/>
						<path class="st3" d="M480.8,100.8c0.5-0.2-0.3-3.9-2.8-5.1c-1.5-0.7-3.3-0.8-5.3-0.1c-0.5,0.2-0.8,0.7-0.6,1.2
							c0.2,0.5,0.7,0.8,1.2,0.6c1.5-0.5,2.7-0.5,3.8,0C478.9,98.3,480.7,100.9,480.8,100.8L480.8,100.8z"/>
					</g>
				</g>
			</g>
		</g>
	</g>
	<g>
		<g>
			<path class="st16" d="M227.8,186.4c-1.7,2.2-5.7,3.7-10.1,3.2h-0.4c-2.8-0.4-5.7-1.5-8.3-3.7c-1.1-3.4-2.4-7.2-3.6-11.1
				c-0.7-2.2-1.4-4.6-2.1-6.9c-1.9-6.4-3.8-13.1-5.4-19.7c-8-44.2,11.7-25,17.7-16.3c0,0.1,0.1,0.2,0.1,0.3c0.1,0.2,0.2,0.4,0.2,0.6
				c6.2,16,9.3,24.7,10.8,38c0.3,2.8,0.6,5.8,0.8,9.1C227.6,181.9,227.7,184.1,227.8,186.4L227.8,186.4z"/>
			<path class="st17" d="M209,185.8C209,185.8,211.6,188,209,185.8c-1.1-3.4-2.4-7.2-3.6-11.1c-0.7-2.2-1.4-4.6-2.1-6.9
				c6.7-10.8,10.7-23.1,12.4-35.6c0.1,0.2,0.2,0.4,0.2,0.6c6.2,16,9.3,24.7,10.8,38c-2.8-2.3-13.1-7.1-13.6-5.4
				C210.2,175.7,209,185.8,209,185.8L209,185.8z"/>
			<path class="st10" d="M209.8,162c8.3,0,15.2,5.6,17.5,9.2c0-12-5.5-28.5-11.7-39.4c-6-8.7-25.6-27.9-17.6,16.3
				C198.5,150.2,209.2,159.9,209.8,162L209.8,162z"/>
		</g>
		<g>
			<path class="st5" d="M205.8,443.5l-29-1l1.1-26l18.6,0.7l0.6,4.6c0,0,10.8,5.6,12.6,5.7"/>
			<path class="st18" d="M209.8,427.5c1.8,0.1,20.3,2.2,20.1,16.9l-24.1-0.9"/>
			<path class="st5" d="M157.9,441.4c0,0.2,0.1,0.3,0.1,0.4v5.6c0,0-22.6,7.9-33.4-2c0,0-0.2-2,0.4-5"/>
			<path class="st5" d="M125,440.5c0.7-3.9,2.6-9.5,7.8-14.3l2.1-12.6l17.1,4.5v7.1c0,0,5.4,13,6,16.1"/>
			<path class="st18" d="M157.9,441.4c0,0-1.8-7.5-15.9-8.4c-14-0.9-17.1,7.5-17.1,7.5l15.5,8.8L157.9,441.4z"/>
			<polygon class="st19" points="203.5,247.1 203.5,418.2 173,420 172.5,368 171.6,264.4 168.4,299.4 157.3,420 128.8,417.3 
				133.2,298.3 135.3,243.3 			"/>
			<path class="st2" d="M203.5,247.1v46.5c-10.1,1.6-22.6,1.2-22.9,4.2c-1.4,13.5-2.8,40.3-8.1,75.5l-0.9-109l-2.7,29.7
				c-9.1,0.3-27.8-1.1-27.9,0c-2.6,24.9-8.8,58.2-11.2,97l5.5-147.9L203.5,247.1L203.5,247.1z"/>
			<polygon class="st5" points="176.8,442.5 176.8,437.3 230.2,439.9 229.9,444.4 			"/>
			<path class="st5" d="M157.9,441.8v5.6c0,0-22.6,7.9-33.4-2c0,0-0.2-2,0.4-5c15,8.3,31.9,1.3,32.9,0.9
				C157.9,441.6,157.9,441.7,157.9,441.8z"/>
		</g>
		<path class="st10" d="M213.2,289l-30.4,1l-3.9,0.1l-5.5-17.6l-3,18.7l-3.1-0.3l-39.4-3.4c0,0,8.1-104.6,5.1-112.9
			c-4.2-11.5-6.5-28.3-7.7-39.4c-0.7-6.8-1-11.4-1-11.4s12.8-17.3,48.4-20c21,4,37.8,22.1,37.8,22.1s-0.5,33-1.3,46.8
			C206.5,220.8,213.2,289,213.2,289L213.2,289z"/>
		
			<rect x="132.5" y="244.1" transform="matrix(6.522893e-02 -0.9979 0.9979 6.522893e-02 -118.8043 385.2636)" class="st19" width="27.5" height="23.9"/>
		<path class="st2" d="M198.7,123.9l7.6,37.4c0,0,3.8,0.5,7.7,1.2c4,0.7,9.7,4.8,9.7,4.8s-1.6-4.9-5.9-7.3c-2.6-1.5-5.2-1.9-6.6-1.9
			C210.3,158.1,198.7,123.9,198.7,123.9z"/>
		<path class="st2" d="M141.3,204.5c-6.1,52-5.1,76.9,17.1,85.6l-30.3-2.5c0,0,8.1-104.6,5.1-112.9c-4.2-11.5-6.5-28.3-7.7-39.4
			l3.4-11.5c0,0,24,13.9,30.4,31c6.4,17.1,46.9,6.5,46.9,6.5l3.8,0.6c0,0-2.2,27.2-1.8,36.6C208.7,207.9,141.3,204.5,141.3,204.5
			L141.3,204.5z"/>
		<path class="st2" d="M179,290.1l-5.5-17.6c0.3-2.9,1.4-13.2,1.4-13.2C175,275.5,179,290.1,179,290.1L179,290.1z"/>
		<path class="st19" d="M185.9,108.2c-3.9-1.6-8.1-3.4-12.4-4.3c-7.9,0.6-20.1,3.1-21.6,3.7c0,0,0.2,6.8,1.4,11.2
			c3.8,13.7,11.9,17.5,20.6,25c12.9-12,11.5-26.6,11.5-26.6S185.9,109.3,185.9,108.2z"/>
		<g>
			<g>
				<path class="st13" d="M165.2,165.8c-0.8-0.1-1.6-0.2-2.3-0.6c-4.2-1.7-8.1-7.3-11.5-16.5c-2.5-6.8-3.9-13.2-3.9-13.2l0.8-0.2
					c0.1,0.3,5.3,25.2,14.9,29.2c2.3,0.9,4.7,0.6,7.1-1l0.4,0.7C168.8,165.4,167,165.9,165.2,165.8z"/>
				<path class="st13" d="M156.9,166.6c-1.2-0.1-2.4-0.4-3.8-0.9l0.3-0.7c3.5,1.3,6.2,1.1,8-0.5c7.1-6.3,1-31.3,0.9-31.5l0.8-0.2
					c0,0.1,1.6,6.5,2.2,13.6c0.9,9.6-0.3,15.9-3.4,18.7C160.6,166.2,158.9,166.8,156.9,166.6L156.9,166.6z"/>
				<path class="st12" d="M147.7,136.1c-0.3,0-0.5-0.2-0.6-0.5c-0.1-0.3-2.1-6.9,0.5-11.1c1-1.7,2.6-2.8,4.7-3.2
					c2.1-0.4,4.1-0.1,5.7,1.1c4.1,2.9,5.2,9.5,5.3,9.8c0.1,0.4-0.2,0.7-0.6,0.8c-0.4,0.1-0.7-0.2-0.8-0.6c0-0.1-1.1-6.4-4.7-8.9
					c-1.3-0.9-2.9-1.2-4.6-0.9c-1.7,0.4-3,1.2-3.8,2.6c-2.2,3.7-0.3,9.9-0.3,10c0.1,0.4-0.1,0.8-0.5,0.9
					C148,136.1,147.7,136.1,147.7,136.1z"/>
				<path class="st11" d="M174.3,162c0.4,0.9-0.3,2-1.6,2.5c-1.2,0.5-2.5,0.3-2.9-0.6c-0.4-0.9,0.3-2,1.6-2.5S174,161.2,174.3,162z"
					/>
				<path class="st14" d="M154.1,165.3c-0.3,0.9-1.6,1.2-2.9,0.7c-1.2-0.5-2-1.6-1.6-2.5c0.3-0.9,1.6-1.2,2.9-0.7
					C153.7,163.3,154.4,164.4,154.1,165.3z"/>
				<path class="st12" d="M152.2,122.4c-0.3,0-0.6-0.3-0.6-0.6c-0.1-0.4-3.1-15.1,3.2-17.4c0.1,0,0.5,1.3,0.5,1.3
					c-5,2.6-2.3,15.7-2.3,15.8c0.1,0.4-0.2,0.8-0.6,0.8C152.4,122.4,152.3,122.4,152.2,122.4z"/>
			</g>
			<g>
				
					<rect x="192.3" y="160.1" transform="matrix(0.9953 -9.688807e-02 9.688807e-02 0.9953 -14.8326 19.4463)" class="st13" width="1" height="4.7"/>
				<path class="st14" d="M189.3,167.3c-0.2,3.1,2.7,5.4,5.6,4.6c1.9-0.5,3.3-2.2,3.4-4.1c0.2-3.1-2.7-5.4-5.6-4.6
					C190.8,163.7,189.4,165.4,189.3,167.3z"/>
				<path class="st13" d="M193,166.4c-0.2,1.9,1.6,3.3,3.4,2.8c1-0.3,1.8-1.2,1.8-2.2c0.2-1.9-1.6-3.3-3.4-2.8
					C193.9,164.4,193.1,165.3,193,166.4z"/>
				<path class="st12" d="M192,161.1c-0.1-1.1-0.9-9.5-1.6-26c-0.6-13.6-7.1-25.3-9.2-28.8l-0.8-2c0-0.9,10.3,8.7,11.4,30.7
					c0.9,16.5,1.6,25.7,1.6,25.8C193.1,161.4,192,161.1,192,161.1z"/>
			</g>
		</g>
		<g>
			<path class="st16" d="M155,107.6c0,0,1.7,9.2,2.5,11.5c2.8,7.3,8.3,12.9,15.8,19.3c10.3-10.9,9.9-22.9,9.9-22.9s0.3-5,0.3-6.2
				s0.5-11.2,0.5-11.2l-12.2,3L155.7,93L155,107.6L155,107.6z"/>
			<path class="st20" d="M155.2,102c9.1,18.6,23.5,16.6,28,13.4l0.4-13.3l-11.7,1.8l-16.2-14.8c0.1,1.5,0.1,6.1-0.1,9.5
				C155.5,100.2,155.4,101.5,155.2,102z"/>
		</g>
		<g>
			<g>
				<path class="st16" d="M154.9,86.5l-0.4,6.5c-5.6,1.6-9.8-4.2-10.3-8.7c-0.3-2.3,0.4-4.2,2.3-4.8c3.9-1.1,6.5,2.8,7.7,5.2
					C154.7,85.7,154.9,86.5,154.9,86.5z"/>
				<path class="st21" d="M147.6,82.3c3.6,1.5,4.2,5.5,4.3,5.7c0,0.2-0.1,0.3-0.3,0.4h-0.2c-0.1,0-0.2-0.1-0.2-0.2
					c0,0-0.3-1.5-1.2-3c-1.6,0.3-1.8,2.6-1.8,2.6c0,0.2-0.2,0.3-0.4,0.3h-0.1c-0.1-0.1-0.1-0.3-0.1-0.4s0.3-2.6,2-3.1
					c-0.5-0.6-1.2-1.2-2.1-1.6h-0.1c-0.2,0-0.2-0.3-0.2-0.4C147.3,82.3,147.5,82.2,147.6,82.3L147.6,82.3z"/>
			</g>
			<g>
				<path class="st16" d="M189,84.9l-0.4,6.5c5.4,2.3,10.2-2.8,11.3-7.2c0.5-2.2,0.1-4.2-1.6-5c-3.7-1.6-6.8,1.9-8.3,4.1
					C189.3,84.2,189,84.9,189,84.9z"/>
				<path class="st21" d="M196.8,81.7c-3.7,1-4.9,4.9-5,5.1c-0.1,0.2,0,0.3,0.2,0.4h0.2c0.1,0,0.2-0.1,0.2-0.2c0,0,0.5-1.5,1.6-2.8
					c1.5,0.5,1.5,2.8,1.5,2.9c0,0.2,0.1,0.3,0.3,0.3h0.1c0.1,0,0.2-0.2,0.2-0.3s0.1-2.6-1.6-3.4c0.6-0.6,1.4-1.1,2.3-1.3h0.1
					c0.2,0,0.3-0.2,0.2-0.4C197.1,81.8,197,81.7,196.8,81.7L196.8,81.7z"/>
			</g>
			<path class="st16" d="M192,73.6c0.2,5.7-1.7,20.9-2.2,23.5s-7.8,15-10.1,15.3c-2.3,0.2-10.4,0.9-13.3-0.7
				c-2.9-1.6-11.8-12.7-12.4-14.9c-0.6-2.2-2-16.6-2.2-22c-0.5-16.5,8.1-23.7,19.2-24S191.5,57.1,192,73.6z"/>
			<path class="st3" d="M178.9,83.7c0,1.6,0.5,2.9,1.2,2.9s1.2-1.3,1.2-2.9s-0.5-2.9-1.2-2.9C179.5,80.8,178.9,82.1,178.9,83.7z"/>
			<path class="st3" d="M164,83.7c0,1.6,0.5,2.9,1.2,2.9s1.2-1.3,1.2-2.9s-0.5-2.9-1.2-2.9C164.6,80.8,164,82.1,164,83.7z"/>
			<path class="st22" d="M186.3,97.5c-1.1,0.5,0.7-4.2-13.4-3.9c-12.7,0.3-12.2,3.4-14.8,3.4s-5.1-7.2-5.1-7.2l0,0
				c0.4,3.4,0.7,6.2,1,7c0.6,2.2,9.6,13.4,12.4,14.9s11,0.9,13.3,0.7c2.3-0.2,9.6-12.7,10.1-15.3c0.2-1.2,0.7-4.9,1.2-9.2
				C191,87.9,187.3,96.9,186.3,97.5z M173.3,105.6c-5.8,0-11.5-3.1-11.5-6.1s5.6-4.5,11.5-4.5c5.9,0,11.7,1.3,11.7,4.3
				S179.1,105.6,173.3,105.6z"/>
			<g>
				<g>
					<g>
						<path class="st21" d="M159.1,88.3c0,0.3-0.9,0.5-1.9,0.4s-1.8-0.5-1.8-0.8s0.9-0.5,1.9-0.4C158.4,87.6,159.1,88,159.1,88.3z"
							/>
						<path class="st21" d="M159.3,90.3c-0.1-0.3-0.9-0.5-1.9-0.3s-1.8,0.6-1.7,0.9c0.1,0.3,0.9,0.5,1.9,0.3
							C158.6,91.1,159.4,90.7,159.3,90.3z"/>
					</g>
					<g>
						<path class="st21" d="M185.2,89.6c0-0.3,0.9-0.5,1.9-0.4s1.8,0.5,1.8,0.8s-0.9,0.5-1.9,0.4C185.9,90.3,185.1,89.9,185.2,89.6z
							"/>
						<path class="st21" d="M184.9,87.6c0.1,0.3,0.9,0.5,1.9,0.3s1.8-0.6,1.7-0.9s-0.9-0.5-1.9-0.3
							C185.6,86.8,184.9,87.2,184.9,87.6z"/>
					</g>
				</g>
				<g>
					<path class="st21" d="M172.9,92.8L172.9,92.8c-0.6,0-1.9-0.4-2.1-3.6c-0.4-5.2,0.4-8.1,0.4-8.2c0-0.2,0.2-0.3,0.4-0.2
						c0.2,0,0.3,0.2,0.2,0.4c0,0-0.8,2.9-0.4,7.9c0.2,2.1,0.8,2.9,1.3,3c0.8,0.1,2-1.4,2.4-3.7c0-0.2,0.2-0.3,0.4-0.3
						c0.2,0,0.3,0.2,0.3,0.4C175.5,91,174.2,92.8,172.9,92.8L172.9,92.8z"/>
					<path class="st21" d="M174,101.7c-4.9,0.1-8-3.5-8.1-3.7c-0.1-0.1-0.1-0.3,0-0.5c0.1-0.1,0.3-0.1,0.5,0c0,0,3,3.6,7.6,3.5
						c4.6-0.1,6.7-3.8,6.7-3.8c0.1-0.2,0.3-0.2,0.4-0.1c0.2,0.1,0.2,0.3,0.1,0.4C181.2,97.7,179,101.6,174,101.7z"/>
					<g>
						<path class="st22" d="M183,77.2c-1.1-0.4-2.4-0.2-3.8,0.5c-0.5,0.3-1.1,0.1-1.3-0.4c-0.3-0.5-0.1-1.1,0.4-1.3
							c1.9-1,3.7-1.2,5.4-0.6c2.6,0.9,4,4.6,3.5,4.8C187,80.2,184.8,77.8,183,77.2z"/>
						<path class="st22" d="M158.2,81.2c-0.5-0.2,0.3-4,2.8-5.2c1.6-0.8,3.4-0.8,5.4-0.1c0.5,0.2,0.8,0.8,0.6,1.3s-0.8,0.8-1.3,0.6
							c-1.5-0.5-2.8-0.5-3.9,0C160.2,78.6,158.3,81.2,158.2,81.2z"/>
					</g>
				</g>
			</g>
		</g>
		<g>
			<g>
				<path class="st16" d="M190.2,163.3c0,0,7.5-1.7,14.6-0.9c3.8,1,8.2,5.4,9,6.1c1.5,1.8,2.8,7.8,2.6,9.4c0.2,2.2-1,4.2-2.7,2
					c-1.8-3.7-3.6-7.7-3.6-7.7l-4-4.2c0,0,3.2,3.1,4,4.2c0.8,1.2,2.4,11.3,1.7,12.6s-3.1,0.2-3.4-2.2c0,0,0.1,2.4-0.6,3
					c-0.7,0.6-1.5,0.2-2.3-2.9c0,0-0.6,1.9-1.5,2c-1.9-0.1-2.6-6.9-2.9-7.3c-0.4-0.4-6.4,2.5-9.8-5
					C187.2,165.9,190.2,163.3,190.2,163.3L190.2,163.3z"/>
				<path class="st23" d="M208.4,182.6c0-1.4-0.2-2.7-0.3-4c-0.2-1.3-0.5-2.6-1-3.8C207.4,177.4,207.8,180,208.4,182.6z"/>
				<path class="st23" d="M205.5,182.6c0-1.1-0.2-2.2-0.4-3.3c-0.3-1-0.5-2.1-1.1-3C204.5,178.5,204.8,180.6,205.5,182.6z"/>
			</g>
			<path class="st16" d="M212.4,195.3c-0.3,0-0.6-0.1-0.9-0.1c-9.3-1.1-52.8-12.9-52.8-12.9l-0.1-2.7l-0.3-5.8l6.4-1.8
				c0,0,15-0.1,36.4,2.4c1.5,0,3,0.1,4.4,0.2c9.7,0.9,17,4.1,20.3,7.8c1.2,1.3,1.9,2.6,2,3.9C228.5,191.8,221.2,196,212.4,195.3
				L212.4,195.3z"/>
			<path class="st16" d="M212.4,195.3c-0.3,0-0.6-0.1-0.9-0.1c-9.3-1.1-52.8-12.9-52.8-12.9l-0.1-2.7l-0.3-5.8l6.4-1.8
				c0,0,15.1-1.7,36.5,0.8c18.1,1.9,21.3,6,24.6,9.7c1.2,1.3,1.9,2.6,2,3.9C228.5,191.8,221.2,196,212.4,195.3L212.4,195.3z"/>
			<path class="st24" d="M211.5,174.4c0,0-6.2-1.7-14.6-1.4c0,0,13.4,1.3,20.6,4.8C217.5,177.7,214.3,175.3,211.5,174.4L211.5,174.4
				z"/>
			<path class="st17" d="M212.4,195.3c-0.3,0-0.6-0.1-0.9-0.1c-9.3-1.1-52.8-12.9-52.8-12.9l-0.1-2.7c7.5,2.5,14.9,5.1,22.6,6.8
				c11.8,2.6,23.7,5.4,35.6,3.3c0.2,0,0.4-0.1,0.6-0.1c9.4-2.1,9.7-9,10-9.9l0.3,0.3c0.1,2,0.2,4.2,0.3,6.5
				C228.5,191.8,221.2,196,212.4,195.3L212.4,195.3z"/>
			<path class="st16" d="M120.4,147.6c5.4,23.1,9,31.2,22.1,51.7c4.4,1.3,11.6-2.3,14-11c-3.2-10.9-6.4-25.4-11.1-38.1
				c-9.1-20.1-15.1-26.4-18.7-24.5C122.9,127.7,118.6,134.4,120.4,147.6z"/>
			<path class="st10" d="M126.8,180.8c3-1.2,29.8-18.9,29.7-19.2c-9.1-20.1-26.1-43.3-29.3-40.6c-5.9,5-8.6,13.4-6.8,26.5
				C121.4,152.2,125.8,177.3,126.8,180.8z"/>
			<g>
				<path class="st16" d="M167.6,179.1c0,0-4.8-12-6.5-14.2c-2.8-3.3-9.5-6-10.5-6.5c-2.3-0.7-7.9,0.1-9.1,1c-2.1,0.7-3.9,2.6-1,3.4
					c4.3,0.3,9.1,0,9.1,0l5.7,3.1c0,0-4.4-1.9-5.8-2.2c-1.5-0.3-11.5,2.3-12.4,3.5c-0.8,1.2,1.3,3.1,3.7,2.4c0,0-2.2,0.9-2.4,1.8
					c-0.2,0.9,0.6,1.6,3.8,1c0,0-1.5,1.4-1.1,2.3c1.1,1.8,7.6-0.3,8.2-0.1c0.6,0.2,0.8,7.3,9.4,7.5
					C166.5,183.5,167.6,179.1,167.6,179.1z"/>
				<path class="st24" d="M150.9,173c-0.5,0.1-5.5,2.4-9.8,1.9c1.1,1.8,7.6-0.3,8.2-0.1c0.6,0.2,0.8,7.3,9.4,7.5
					c3,0.5,8.9-4.2,10.3-4.8C156.8,178.8,154.2,181.3,150.9,173L150.9,173z"/>
				<path class="st24" d="M140.8,169.7c1.2-0.6,2.5-1,3.9-1.3c1.3-0.3,2.6-0.6,4-0.5C146,168.5,143.5,169.3,140.8,169.7z"/>
				<path class="st24" d="M142.2,172.5c1-0.5,2.1-0.7,3.2-1c1.1-0.2,2.2-0.4,3.3-0.2C146.5,171.9,144.4,172.3,142.2,172.5z"/>
			</g>
			<path class="st16" d="M198,162.9l-7.9,0.4c0,0-11.2,4.5-29,13.6c-13.2,5.1-20.7,14.1-19.8,19.7c1,5.6,8.9,7.2,16.7,3.3
				c7.7-4,41.6-29.8,41.6-29.8S198,162.9,198,162.9z"/>
			<path class="st17" d="M158,199.9c0.2-0.1,0.4-0.2,0.6-0.3c10.6-6.7,37.5-26.2,37.5-26.2s-2,1.4-5.3,3.5l0,0
				c-1.1,0.7-2.2,1.4-3.5,2.2c-0.1,0.1-0.2,0.1-0.3,0.2c-0.6,0.4-1.3,0.8-2,1.2h-0.1c-0.6,0.4-1.3,0.8-2,1.2
				c-0.2,0.1-0.3,0.2-0.5,0.3c-1.4,0.9-2.9,1.7-4.4,2.7c-0.2,0.1-0.4,0.2-0.6,0.4c-0.7,0.4-1.4,0.8-2,1.2c-0.1,0.1-0.2,0.1-0.3,0.2
				c-0.8,0.4-1.6,0.9-2.4,1.3c-0.2,0.1-0.4,0.2-0.6,0.4c-0.7,0.4-1.3,0.7-2,1.1c-0.2,0.1-0.4,0.2-0.5,0.3c-0.8,0.4-1.6,0.9-2.4,1.3
				c-0.2,0.1-0.4,0.2-0.6,0.3c-0.7,0.4-1.3,0.7-2,1.1c-0.2,0.1-0.4,0.2-0.6,0.3c-0.8,0.4-1.6,0.8-2.4,1.2c-0.2,0.1-0.3,0.2-0.5,0.2
				c-0.7,0.3-1.3,0.7-2,1c-0.2,0.1-0.4,0.2-0.6,0.3c-0.8,0.4-1.6,0.8-2.4,1.1c-0.1,0-0.2,0.1-0.3,0.1c-0.7,0.3-1.4,0.6-2,0.9
				c-0.2,0.1-0.4,0.2-0.6,0.3c-3.6,1.3-4.9-0.1-5.3-0.4c0,0-0.1,0-0.1-0.1c-0.2-0.1-0.3-0.3-0.5-0.4l-0.1-0.1
				c-0.1-0.1-0.3-0.3-0.5-0.4l-0.1-0.1l-0.5-0.5l-0.1-0.1c-1-1-2-2.2-3-3.5l0,0c-0.2-0.3-0.4-0.5-0.6-0.8l0,0
				c-2.2-3-6.1-11.3-6.1-11.3s0.1-2.2,4.1-7.5l-9.7,6.2c2.8,5.9,6.2,11.7,11.3,19.6l0,0c0.1,0.1,0.2,0.3,0.2,0.4
				c0.1,0.2,0.2,0.4,0.4,0.5l0,0c0.1,0.1,0.1,0.2,0.2,0.2l0,0c0.1,0.1,0.3,0.3,0.4,0.4l0,0c0.1,0.1,0.2,0.2,0.3,0.3l0,0
				c0.1,0.1,0.3,0.2,0.4,0.3l0,0c0.1,0.1,0.2,0.2,0.4,0.2l0,0c0.2,0.1,0.4,0.2,0.7,0.4c0.1,0,0.1,0.1,0.2,0.1l0,0
				c0.2,0.1,0.4,0.2,0.7,0.3l0,0c0.1,0,0.2,0.1,0.3,0.1c0.8,0.2,1.6,0.4,2.5,0.5h2.3c0.4,0,0.8-0.1,1.2-0.2l0,0c0.1,0,0.2,0,0.3-0.1
				l0,0c0.3-0.1,0.7-0.1,1-0.2l0,0c0.1,0,0.3-0.1,0.4-0.1c0.3-0.1,0.6-0.2,1-0.3l0,0c0.1,0,0.2-0.1,0.3-0.1c0.4-0.1,0.7-0.3,1.1-0.4
				l0,0c0.1-0.1,0.3-0.1,0.4-0.2l0,0C157.1,200.3,157.6,200.1,158,199.9L158,199.9L158,199.9z"/>
		</g>
	</g>
	<g>
		<g>
			<path class="st16" d="M337.3,179.4c0,0-13.9,44.1-14.6,96.9c0,0,5.1,2.3,10.7-0.1c0,0,6.1-48.4,18.7-74.9
				c2.9-5.7,2.3-13.3,0.9-17.6C339.9,162.6,337.3,179.4,337.3,179.4L337.3,179.4z"/>
			<g>
				<path class="st25" d="M326.1,285.5c0,0,2.9,5.8,3.4,6.3c0.5,0.6,4.3,2.1,4.6,3.1c0.3,1-0.9,2-3.7,1c-2.8-1.1-3.6-1.4-4.1-2
					s-3.7-6.6-3.7-6.6L326.1,285.5z"/>
				<path class="st26" d="M325.1,286.9c0,0,2.4,7.1,2.9,7.8c0.5,0.7,4.7,3,4.9,4.2c0.2,1.1-1.4,2.3-4.5,0.6
					c-3.1-1.6-3.9-2.1-4.4-2.8c-0.5-0.7-3.2-8.1-3.2-8.1L325.1,286.9z"/>
				<path class="st16" d="M322.7,276c0,0-3,8.2-3.4,10.6c-0.5,2.5,4.2,12.1,4.8,14.9c1,2.9,3.7,2.4,3.1-1.6
					c-0.5-4.3-2.3-11.4-2.4-12.1c-0.1-0.6,3.5-4,4-4.2s2.7,3,2.8,3.6s-1.4,4.6,1.2,6.6c2.7,2,4.1-6.6,3.8-8.3
					c-0.3-1.7-0.8-7.4-4.2-10.6l-8.2-0.2L322.7,276L322.7,276z"/>
			</g>
		</g>
		<g>
			<path class="st10" d="M348.2,157.7c0,0-4.8,3-5.8,4.7c-5.8,7.3-16.6,41.9-16.6,41.9l18.6,7.4l6.4-27.1L348.2,157.7L348.2,157.7z"
				/>
			<path class="st2" d="M335.2,208.2c0,0-3.4-13.9-0.7-20.6c2.6-6.7,9.8-22.8,9.8-22.8s-9.8,14.4-13.2,27.4
				c-1.2,4.5,1.6,15.1,1.6,15.1L335.2,208.2L335.2,208.2z"/>
		</g>
		<g>
			<path class="st16" d="M373,149.3c23.2,6.1,29.6,13.4,29.6,13.4L387,205.9c0,0-3.2,16.7,1.3,24.6c15.8,13.2,3.5,35,3.5,35
				c-10.6,7.5-33.7-2.9-33.7-2.9s-11.2-3.1-19.3-13.2c0,0,4.3-16.7,1.6-28.2c-5.5-16.2-6.5-30-2.7-41.9
				C342.1,171,351.7,150,373,149.3L373,149.3z"/>
			<polygon class="st16" points="383.1,133.4 384.7,154.6 359.7,156.5 360.1,148 360.5,141 360.7,140.6 366.2,131.7 			"/>
			<g>
				<g>
					<path class="st16" d="M385.9,122.9c0,0,3-8.6,8.6-6.9s0.4,15.9-8.1,13.4C386.4,129.4,385.9,122.9,385.9,122.9z"/>
					<path class="st27" d="M393,119.9c-3.9,0.2-5.9,3.8-5.9,4c-0.1,0.2,0,0.4,0.1,0.4h0.2c0.1,0,0.2-0.1,0.3-0.2
						c0,0,0.8-1.4,2.2-2.4c1.4,0.8,0.9,3.1,0.9,3.1c0,0.2,0.1,0.3,0.2,0.4h0.1c0.1,0,0.3-0.1,0.3-0.2s0.6-2.5-0.9-3.7
						c0.7-0.4,1.6-0.8,2.6-0.8h0.1c0.2,0,0.3-0.2,0.3-0.3C393.3,120.1,393.2,119.9,393,119.9L393,119.9z"/>
				</g>
				<path class="st24" d="M383.9,141.1c-0.2,0.4-9.5,21-23.8,9.7l0.4-8.7l0.2,0.5C360.6,142.5,372.6,146.7,383.9,141.1L383.9,141.1z
					"/>
				<path class="st16" d="M387.8,118.8c1,15.2-8.6,28-16.8,28.8c-8.1,0.4-19.4-11.1-20.4-26.3s6.5-28.1,16.8-28.8
					C377.6,91.8,386.8,103.6,387.8,118.8z"/>
				<g>
					<g>
						<g>
							<path class="st27" d="M357.5,127.6c0,0.3-0.8,0.5-1.8,0.4c-0.9-0.1-1.7-0.4-1.7-0.7s0.8-0.5,1.8-0.4S357.5,127.3,357.5,127.6
								z"/>
							<path class="st27" d="M357.8,129.4c-0.1-0.3-0.9-0.4-1.8-0.2s-1.6,0.6-1.6,0.9c0.1,0.3,0.9,0.4,1.8,0.2
								C357.2,130.2,357.9,129.7,357.8,129.4z"/>
						</g>
						<g>
							<path class="st27" d="M381.6,127.9c0-0.3,0.8-0.5,1.8-0.4c0.9,0.1,1.7,0.4,1.7,0.7c0,0.3-0.8,0.5-1.8,0.4
								C382.4,128.5,381.6,128.2,381.6,127.9z"/>
							<path class="st27" d="M381.4,126c0.1,0.3,0.9,0.4,1.8,0.2c0.9-0.2,1.6-0.6,1.6-0.9c-0.1-0.3-0.9-0.4-1.8-0.2
								C382,125.3,381.3,125.7,381.4,126z"/>
						</g>
					</g>
					<path class="st3" d="M361.9,123.4c-0.2-2.5-0.8-4.4-1.5-4.4l-3.1,0.3c0,0,0.5,0.9,2.4,1c-0.2,0.8-0.2,2-0.1,3.2
						c0.2,2.5,0.8,4.4,1.5,4.4C361.7,127.9,362,125.8,361.9,123.4L361.9,123.4z"/>
					<path class="st3" d="M377,122.1c-0.1-1.3-0.3-2.4-0.6-3.2c1.8-0.3,2.3-1.3,2.3-1.3l-3.1,0.1c-0.6,0-1,2.1-0.9,4.5
						c0.2,2.5,0.8,4.4,1.5,4.4C376.8,126.6,377.2,124.6,377,122.1L377,122.1z"/>
					<g>
						<path class="st27" d="M369.5,131.9h-0.1c-0.5,0-1.7-0.3-2-3.3c-0.5-4.8,0.1-7.5,0.1-7.6c0-0.2,0.2-0.3,0.4-0.2
							c0.2,0,0.3,0.2,0.2,0.4c0,0-0.6,2.7-0.1,7.4c0.2,2,0.8,2.7,1.3,2.7c0.7,0,1.8-1.3,2.1-3.5c0-0.2,0.2-0.3,0.4-0.3
							s0.3,0.2,0.3,0.4C371.8,130.2,370.7,131.8,369.5,131.9L369.5,131.9z"/>
						<path class="st27" d="M370.1,136.7c-4.1,0.3-6.8-2.7-6.9-2.9c-0.1-0.1-0.1-0.3,0-0.4c0.1-0.1,0.3-0.1,0.4,0
							c0,0,2.6,2.9,6.5,2.7c3.8-0.3,5.5-3.4,5.5-3.4c0.1-0.1,0.2-0.2,0.4-0.1c0.1,0.1,0.2,0.2,0.1,0.4
							C376,133.1,374.3,136.4,370.1,136.7z"/>
						<path class="st28" d="M378,114c-1.1-0.4-2.4-0.3-3.8,0.3c-0.5,0.2-1.1,0-1.3-0.5c-0.2-0.5,0-1.1,0.5-1.3
							c1.9-0.8,3.7-0.9,5.3-0.3c2.5,1,3.6,4.7,3.1,4.9C381.7,117.2,379.7,114.7,378,114L378,114z"/>
						<path class="st28" d="M358.3,115.3c1.1-0.5,2.3-0.4,3.8,0.1c0.5,0.2,1.1-0.1,1.3-0.6c0.2-0.5-0.1-1.1-0.6-1.3
							c-1.9-0.8-3.7-0.8-5.3-0.1c-2.5,1.1-3.4,4.8-2.9,5C354.7,118.6,356.6,116.1,358.3,115.3z"/>
					</g>
				</g>
			</g>
			<g>
				<path class="st16" d="M370.1,406.5l-0.5-51.9c-2-2.4-3.5-5.1-4.1-8.2c-1.7-8.6-3.6-17.5-3-26.3c0.3-5.1,2-9.7,4.8-13.4
					c-1.1-5.5-2.3-11-3.4-16.5c-1.6-8.1-2.4-16.3-4.5-24.3c-0.7-2.8-0.9-5.5-0.6-8.2l-5.4,13.6l-0.2,2.7l-5.5,78.9l7.9,70.2
					l1.6,14.4c5.8,0.6,7.3-0.2,13.2,0l-0.1-14.5L370.1,406.5L370.1,406.5z"/>
				<path class="st29" d="M365.7,347.1l-1.6,4.2l6,55.2l-0.5-51.9C367.7,352.4,366.3,349.9,365.7,347.1L365.7,347.1z"/>
				<g>
					<path class="st5" d="M327.2,447h46.4l-2.8-14.9c0,0-5.2,5.6-9.1,3.8c-4-1.4-6-5.4-6-5.4s-7.6,3.4-15.2,6.4l0,0
						C333.5,439.7,325.8,442.3,327.2,447L327.2,447z"/>
					<path class="st18" d="M327.2,447h17.1l0.8-0.6c0,0-1-5.7-4.6-9.5l0,0C333.5,439.7,325.8,442.3,327.2,447L327.2,447z"/>
					<rect x="327.1" y="446.4" class="st5" width="46.6" height="4.2"/>
				</g>
			</g>
			<g>
				<path class="st16" d="M405,412l-0.5-51.9c-2-2.4-3.5-5.1-4.1-8.2c-1.7-8.6-3.6-17.5-3-26.3c0.3-5.1,2-9.7,4.8-13.4
					c-1.1-5.5-2.3-11-3.4-16.5c-1.6-8.1-2.4-16.3-4.5-24.3c-0.7-2.8-0.9-5.5-0.6-8.2l-5.4,13.6l-0.2,2.7l-5.5,78.9l7.9,70.2
					l1.6,14.4c5.8,0.6,7.3-0.2,13.2,0l-0.1-14.5L405,412L405,412z"/>
				<path class="st5" d="M413.3,453.9c-0.6-3.9-3.4-11.2-7.9-16c0,0-2.8,4.7-8.1,4.1c-1.6-0.2-5.7-3.6-5.7-3.6s-6.8,13.3-7.3,16.5"
					/>
				<path class="st18" d="M384.4,454.8c0,0,1.6-7.5,13.9-8.4s15,7.5,15,7.5l-13.7,8.8L384.4,454.8L384.4,454.8z"/>
				<path class="st5" d="M384.3,455.2v5.6c0,0,19.9,7.9,29.3-2c0,0,0.1-2-0.3-5c-13.2,8.3-28.1,1.3-28.9,0.9
					C384.4,455,384.3,455.1,384.3,455.2z"/>
				<path class="st29" d="M400.6,347.1l-1.6,4.2l6,55.2l-0.5-51.9C402.6,352.4,401.2,349.9,400.6,347.1L400.6,347.1z"/>
			</g>
			<polygon class="st19" points="407.5,430.6 386.3,431.7 370.1,311.7 372.1,428.8 348.9,427.7 339.3,250.8 402,261.6 403.3,300.7 
							"/>
			<path class="st8" d="M402,430.4L402,430.4c0-32.2-6.3-114.4-12.9-114.6c-39.3-1.2-45.7-6.3-45.7-6.3l59.9-8.8l0.4-0.1l3.8,129.9
				L402,430.4L402,430.4z"/>
			<path class="st10" d="M339.6,309c0.4,0.1,3.1,0.4,3.9,0.6c0.7,0.1,1.4,0.2,1.7,0.2c1.7,0.2,3.4,0.3,5.2,0.5
				c12.8,1,25.8,0.9,38.6-0.2c3.1-0.3,6.3-0.4,9.4-1h-0.2c0.6-0.1,1.1-0.2,1.4-0.2c1.7-0.3,3.4-0.5,5.1-0.8c0.5-0.1,1-0.2,1.5-0.3
				c-0.6-9.2-1-18-1.1-24.5c-0.3-22.4-7.3-32.3-7.3-32.3s-4.1-0.6-10.1-1.3c-0.9-0.1-1.9-0.2-2.9-0.3c-16.3-1.8-42.5-3.6-45.8,2.8
				c-0.1,0.1-0.1,0.2-0.2,0.4c-1.2,3.3-1.9,30.5-2.3,56.2C337.5,308.6,338.5,308.8,339.6,309L339.6,309z"/>
			<g>
				<rect x="369.1" y="263.4" class="st19" width="26.5" height="27.5"/>
				<g>
					<g>
						<path class="st30" d="M381.1,305.6c0.1,0,6.9-0.2,8.8-6.8c1.8-6.3,3.1-21.8,3.1-22.4l-1-0.1c0,0.2-1.3,16-3.1,22.2
							c-1.7,5.9-7.8,6.1-7.9,6.1L381.1,305.6L381.1,305.6z"/>
						<path class="st31" d="M377.2,305.1c0,0.6,1,1.1,2.2,1.1s2.2-0.5,2.2-1.1s-1-1.1-2.2-1.1C378.2,303.9,377.2,304.4,377.2,305.1z
							"/>
					</g>
					<g>
						<path class="st30" d="M387.5,305.6c-0.1,0-6.9-0.2-8.8-6.8c-1.8-6.3-3.1-21.8-3.1-22.4l1-0.1c0,0.2,1.3,16,3.1,22.2
							c1.7,5.9,7.8,6.1,7.9,6.1L387.5,305.6L387.5,305.6z"/>
						<path class="st31" d="M391.4,305.1c0,0.6-1,1.1-2.2,1.1s-2.2-0.5-2.2-1.1s1-1.1,2.2-1.1S391.4,304.4,391.4,305.1z"/>
					</g>
					<path class="st3" d="M383.3,265.7V262c0,0,0.1-0.8,1-0.8s1,0.8,1,0.8v3.7c4.6,0.8,8.2,6.6,8.2,13.7h-2.1
						c0-6.3-3.3-11.7-7.2-11.7s-7.2,5.4-7.2,11.7h-2.1C375.1,272.3,378.7,266.5,383.3,265.7L383.3,265.7z"/>
				</g>
			</g>
			<path class="st10" d="M397.7,250.8c0.6,6.4,1,10.3,1,10.3s-2.7-0.1-7-0.4c-2.9-0.2-6.5-0.4-10.4-0.6c-17.7-1.2-42.5-3.5-42.3-6.9
				v-1.3c0.3-10.9-0.7-30.9-1.7-35.5c-1.6-7.6-3.9-16-3.5-26.1c0-6.7,14.1-31.9,14.5-32.4l0,0l5.2-2.6c2.1-1,3.8-1.7,3.9-1.7
				c-0.2,0.2-2.7,15-0.8,15.7c4.9,1.6,28.2-16.7,28.2-16.7s2.8,0.8,6.4,2.3c3.8,1.5,8.5,3.8,11.6,6.4l0,0c1.6,1.4,2.9,2.9,3.3,4.5
				c2.2,3.7-5,11.4-8.6,22.7c-1,3-1.6,6.1-2,9.4c-0.3,2.4-0.5,4.9-0.6,7.4v0.1c-0.1,3.2-0.1,6.5,0,10
				C395.8,229.8,396.9,242.5,397.7,250.8L397.7,250.8z"/>
			<path class="st2" d="M387.2,245.4c-0.3,1-0.1,2.4,0.4,4c1.1,3.7,3.5,8.4,4,11.2c0,0.1,0,0.3,0.1,0.4c2.9,20.3,1,36.3-3.7,49
				c0.3,0,0.5,0,0.8-0.1c3.1-0.3,6.3-0.4,9.4-1H398c0.6-0.1,1.1-0.2,1.4-0.2c1.7-0.3,3.4-0.5,5.1-0.8c0.5-0.1,1-0.2,1.5-0.3
				c-0.6-9.2-1-18-1.1-24.5c-0.3-22.4-7.3-32.3-7.3-32.3c-0.8-8.3-1.9-21-2.8-35.3c0-3.5-0.1-6.8,0-10v-0.1c0.1-2.6,0.3-5,0.6-7.4
				l-12.8-20.2C382.6,177.8,394.9,217.5,387.2,245.4z"/>
		</g>
		<path class="st16" d="M407.2,166c0,0,12.7,25.3,21.9,63.3c-4.2,1.6-8.4,1.9-12.9,2.3c-1.8,0.2-3.2,0.7-4.3,1.4
			c-3.8-10.4-8.2-20.6-13.3-28.9C380.2,174.4,407.2,166,407.2,166L407.2,166z"/>
		<g>
			
				<rect x="346.2" y="209.2" transform="matrix(0.7318 -0.6815 0.6815 0.7318 -62.5484 313.7584)" class="st32" width="42.3" height="54.3"/>
			<g>
				<polygon class="st5" points="388.1,239.9 392.1,244.7 370.3,265.2 336.9,230.7 363.6,205.7 392.2,237.1 				"/>
				<path class="st33" d="M365.4,212.1l-21.6,20.3c-0.1,0.1-0.4,0.1-0.5,0l-0.2-0.2c-0.1-0.1-0.1-0.4,0-0.5l21.6-20.3
					c0.1-0.1,0.4-0.1,0.5,0l0.2,0.2C365.6,211.7,365.6,211.9,365.4,212.1z"/>
				<g>
					<path class="st34" d="M367.2,214.2l-15,14.1c-0.1,0.1-0.2,0.1-0.3,0l-0.1-0.1c-0.1-0.1-0.1-0.2,0-0.3l15-14.1
						c0.1-0.1,0.2-0.1,0.3,0l0.1,0.1C367.3,213.9,367.3,214.1,367.2,214.2z"/>
					<path class="st34" d="M368.4,215.5l-15,14c-0.1,0.1-0.3,0.1-0.4,0l-0.1-0.1c-0.1-0.1-0.1-0.3,0-0.4l15-14
						c0.1-0.1,0.3-0.1,0.4,0l0.1,0.1C368.5,215.3,368.5,215.4,368.4,215.5z"/>
					<path class="st34" d="M369.7,216.8l-15,14.1c-0.1,0.1-0.2,0.1-0.3,0l-0.1-0.1c-0.1-0.1-0.1-0.2,0-0.3l15-14.1
						c0.1-0.1,0.2-0.1,0.3,0l0.1,0.1C369.8,216.6,369.7,216.7,369.7,216.8z"/>
					<path class="st34" d="M363.3,225.3l-7.4,7c-0.1,0.1-0.2,0.1-0.3,0l-0.1-0.1c-0.1-0.1-0.1-0.2,0-0.3l7.4-7
						c0.1-0.1,0.2-0.1,0.3,0l0.1,0.1C363.4,225,363.4,225.2,363.3,225.3z"/>
					<path class="st34" d="M353.8,234.7l-4.2,3.9c-0.1,0.1-0.4,0.1-0.5,0l-4.1-4.4c-0.1-0.1-0.1-0.4,0-0.5l4.2-3.9
						c0.1-0.1,0.4-0.1,0.5,0l0.6,0.7c0.1,0.1,0.1,0.4,0,0.5s-0.4,0.1-0.5,0l-0.4-0.4l-3.7,3.5l3.7,3.9l3.7-3.5l-1.6-1.7
						c-0.1-0.1-0.1-0.4,0-0.5s0.4-0.1,0.5,0l1.9,2C354,234.3,354,234.5,353.8,234.7z"/>
					<path class="st35" d="M350.7,235.8L350.7,235.8c-0.1,0.1-0.2,0.1-0.3,0.1l-2.4-0.4c-0.2,0-0.3-0.2-0.3-0.4s0.2-0.3,0.4-0.3
						l2,0.3l0.5-4.9c0-0.2,0.2-0.3,0.4-0.3s0.3,0.2,0.3,0.4l-0.5,5.3C350.8,235.7,350.8,235.8,350.7,235.8L350.7,235.8z"/>
				</g>
				<g>
					<path class="st34" d="M373.5,220.9l-15,14.1c-0.1,0.1-0.2,0.1-0.3,0l-0.1-0.1c-0.1-0.1-0.1-0.2,0-0.3l15-14.1
						c0.1-0.1,0.2-0.1,0.3,0l0.1,0.1C373.6,220.7,373.6,220.8,373.5,220.9z"/>
					<path class="st34" d="M374.7,222.2l-15,14.1c-0.1,0.1-0.2,0.1-0.3,0l-0.1-0.1c-0.1-0.1-0.1-0.2,0-0.3l15-14.1
						c0.1-0.1,0.2-0.1,0.3,0l0.1,0.1C374.8,222,374.8,222.1,374.7,222.2z"/>
					<path class="st34" d="M376,223.5l-15,14.1c-0.1,0.1-0.2,0.1-0.3,0l-0.1-0.1c-0.1-0.1-0.1-0.2,0-0.3l15-14.1
						c0.1-0.1,0.2-0.1,0.3,0l0.1,0.1C376.1,223.3,376.1,223.4,376,223.5z"/>
					<path class="st34" d="M369.6,232l-7.4,7c-0.1,0.1-0.2,0.1-0.3,0l-0.1-0.1c-0.1-0.1-0.1-0.2,0-0.3l7.4-7c0.1-0.1,0.2-0.1,0.3,0
						l0.1,0.1C369.7,231.8,369.7,231.9,369.6,232z"/>
					<path class="st34" d="M360.1,241.4l-4.2,3.9c-0.1,0.1-0.4,0.1-0.5,0l-4.1-4.4c-0.1-0.1-0.1-0.4,0-0.5l4.2-3.9
						c0.1-0.1,0.4-0.1,0.5,0l0.6,0.7c0.1,0.1,0.1,0.4,0,0.5s-0.4,0.1-0.5,0l-0.4-0.4l-3.7,3.5l3.7,3.9l3.7-3.5l-1.6-1.7
						c-0.1-0.1-0.1-0.4,0-0.5s0.4-0.1,0.5,0l1.9,2C360.3,241,360.3,241.3,360.1,241.4z"/>
					<path class="st35" d="M357.1,242.5C357.1,242.5,357,242.6,357.1,242.5c-0.1,0.1-0.2,0.1-0.3,0.1l-2.4-0.4
						c-0.2,0-0.3-0.2-0.3-0.4s0.2-0.3,0.4-0.3l2,0.3l0.5-4.9c0-0.2,0.2-0.3,0.4-0.3s0.3,0.2,0.3,0.4l-0.5,5.3
						C357.2,242.4,357.1,242.5,357.1,242.5L357.1,242.5z"/>
				</g>
				<g>
					<path class="st34" d="M379.8,227.6l-15,14.1c-0.1,0.1-0.2,0.1-0.3,0l-0.1-0.1c-0.1-0.1-0.1-0.2,0-0.3l15-14.1
						c0.1-0.1,0.2-0.1,0.3,0l0.1,0.1C379.9,227.4,379.9,227.5,379.8,227.6z"/>
					<path class="st34" d="M381.1,228.9l-15,14.1c-0.1,0.1-0.2,0.1-0.3,0l-0.1-0.1c-0.1-0.1-0.1-0.2,0-0.3l15-14.1
						c0.1-0.1,0.2-0.1,0.3,0l0.1,0.1V228.9z"/>
					<path class="st34" d="M382.3,230.3l-15,14.1c-0.1,0.1-0.2,0.1-0.3,0l-0.1-0.1c-0.1-0.1-0.1-0.2,0-0.3l15-14.1
						c0.1-0.1,0.2-0.1,0.3,0l0.1,0.1C382.4,230,382.4,230.2,382.3,230.3z"/>
					<path class="st34" d="M375.9,238.7l-7.4,7c-0.1,0.1-0.2,0.1-0.3,0l-0.1-0.1c-0.1-0.1-0.1-0.2,0-0.3l7.4-7
						c0.1-0.1,0.2-0.1,0.3,0l0.1,0.1C376,238.5,376,238.6,375.9,238.7z"/>
					<path class="st34" d="M366.4,248.1l-4.2,3.9c-0.1,0.1-0.4,0.1-0.5,0l-4.1-4.4c-0.1-0.1-0.1-0.4,0-0.5l4.2-3.9
						c0.1-0.1,0.4-0.1,0.5,0l0.6,0.7c0.1,0.1,0.1,0.4,0,0.5s-0.4,0.1-0.5,0L362,244l-3.7,3.5l3.7,3.9l3.7-3.5l-1.6-1.7
						c-0.1-0.1-0.1-0.4,0-0.5s0.4-0.1,0.5,0l1.9,2C366.6,247.8,366.6,248,366.4,248.1z"/>
					<path class="st35" d="M363.4,249.3L363.4,249.3c-0.1,0.1-0.2,0.1-0.3,0.1l-2.4-0.4c-0.2,0-0.3-0.2-0.3-0.4s0.2-0.3,0.4-0.3
						l2,0.3l0.5-4.9c0-0.2,0.2-0.3,0.4-0.3s0.3,0.2,0.3,0.4l-0.5,5.3C363.5,249.1,363.4,249.2,363.4,249.3L363.4,249.3z"/>
				</g>
				<g>
					<path class="st34" d="M386.1,234.4l-15,14c-0.1,0.1-0.3,0.1-0.4,0l-0.1-0.1c-0.1-0.1-0.1-0.3,0-0.4l15-14
						c0.1-0.1,0.3-0.1,0.4,0l0.1,0.1C386.2,234.1,386.2,234.3,386.1,234.4z"/>
					<path class="st34" d="M387.4,235.7l-15,14.1c-0.1,0.1-0.2,0.1-0.3,0l-0.1-0.1c-0.1-0.1-0.1-0.2,0-0.3l15-14.1
						c0.1-0.1,0.2-0.1,0.3,0l0.1,0.1C387.5,235.4,387.5,235.6,387.4,235.7z"/>
					<path class="st34" d="M388.6,237l-15,14.1c-0.1,0.1-0.2,0.1-0.3,0l-0.1-0.1c-0.1-0.1-0.1-0.2,0-0.3l15-14.1
						c0.1-0.1,0.2-0.1,0.3,0l0.1,0.1C388.7,236.8,388.7,236.9,388.6,237z"/>
					<path class="st34" d="M382.3,245.4l-7.4,7c-0.1,0.1-0.2,0.1-0.3,0l-0.1-0.1c-0.1-0.1-0.1-0.2,0-0.3l7.4-7
						c0.1-0.1,0.2-0.1,0.3,0l0.1,0.1V245.4z"/>
					<path class="st34" d="M372.8,254.8l-4.2,3.9c-0.1,0.1-0.4,0.1-0.5,0l-4.1-4.4c-0.1-0.1-0.1-0.4,0-0.5l4.2-3.9
						c0.1-0.1,0.4-0.1,0.5,0l0.6,0.7c0.1,0.1,0.1,0.4,0,0.5s-0.4,0.1-0.5,0l-0.4-0.4l-3.7,3.5l3.7,3.9l3.7-3.5l-1.6-1.7
						c-0.1-0.1-0.1-0.4,0-0.5s0.4-0.1,0.5,0l1.9,2C372.9,254.5,372.9,254.7,372.8,254.8L372.8,254.8z"/>
					<path class="st35" d="M369.7,256L369.7,256c-0.1,0.1-0.2,0.1-0.3,0.1l-2.4-0.4c-0.2,0-0.3-0.2-0.3-0.4s0.2-0.3,0.4-0.3l2,0.3
						l0.5-4.9c0-0.2,0.2-0.3,0.4-0.3s0.3,0.2,0.3,0.4l-0.5,5.3C369.8,255.8,369.8,255.9,369.7,256L369.7,256z"/>
				</g>
				<polygon class="st14" points="392.1,244.7 392.2,237.1 388.1,239.9 				"/>
			</g>
			<path class="st36" d="M354.7,210.6l2.7,2.9l-12.1,11.3l-2.7-2.9c-0.8-0.8-0.7-2.1,0.1-2.9l4-3.7c0.3,0.1,0.6,0.1,0.9-0.2
				c0.2-0.2,0.3-0.6,0.2-0.9l4-3.7C352.6,209.7,353.9,209.7,354.7,210.6L354.7,210.6z"/>
			<path class="st36" d="M345.7,213.1c-0.7,0.7-0.8,1.8-0.1,2.5l2,2.1c0.7,0.7,1.8,0.8,2.5,0.1s0.8-1.8,0.1-2.5l-2-2.1
				C347.6,212.4,346.4,212.4,345.7,213.1z M347.6,215.1c-0.3,0.2-0.6,0.3-0.9,0.2c-0.1,0-0.2-0.1-0.3-0.2c-0.3-0.3-0.3-0.9,0-1.2
				s0.9-0.3,1.2,0c0.1,0.1,0.1,0.2,0.2,0.3C347.9,214.5,347.8,214.8,347.6,215.1L347.6,215.1z"/>
			
				<rect x="342.3" y="217.2" transform="matrix(0.7318 -0.6815 0.6815 0.7318 -54.7876 297.4588)" class="st37" width="16.5" height="2.2"/>
		</g>
		<path class="st16" d="M367.1,250.5c0,0-2.2-3.8-0.6-9.9c0,0,10.9-3.6,25-8.9c5.9-2.2,12.2-4.7,18.6-7.3c0.9-0.4,1.7-0.7,2.6-1.1
			c5.1-2.1,12.9-2.4,14.7,1.5c0.7,1.6,4,6,0.5,11.6C423.1,243.6,390,247.1,367.1,250.5L367.1,250.5z"/>
		<path class="st16" d="M341.7,245.4c1.2-1.5,14.9-6.7,14.9-6.7c-2.9-1.6-6.1-4.2-4.3-5.6c1.7-1.2,14.3,5.9,15.9,6.9
			c0.1,0.5-0.4,1-0.3,1.5c0,2.7,0.1,8.1,0.1,8.1c-5.8,4-8.3,5.8-13.7,5.2c-2.8,0.1-8.4-6.2-8.4-6.2
			C343.1,249.5,340.5,246.9,341.7,245.4z"/>
		<path class="st10" d="M397,166l5.2-5.1l5.6,4.2c0,0,11.7,24.9,17.9,43.6l-23.3,10.8L391,198.2C391.1,198.2,384.3,179.4,397,166
			L397,166z"/>
		<path class="st19" d="M354.2,172.6c4.9,4,36.9-17.8,36.9-17.8c-3.6-1.4-6.4-2.3-6.4-2.3s-23.3,18.3-28.2,16.7
			c-1.9-0.7,0.6-15.5,0.8-15.7c-0.1,0-1.7,0.7-3.9,1.7C352.3,162.8,351.8,170.7,354.2,172.6L354.2,172.6z"/>
		<g>
			<path class="st38" d="M342.6,126.8c0,0-3.3,4.9-1.9,7.5c1.4,2.7,2.5,0.8,2.5,4.5s3.5,2.4,4.3,1.2c3.2-2.6,3.8,4.6,9.7,1.1
				c4.3-2-4.8-18.8-4.8-18.8l-7.7-1.2L342.6,126.8z"/>
			<path class="st38" d="M400.2,124.7c0,0,1.8,3.7,0.5,7.3c-1.4,3.6-4.1,1.3-4.5,2c-0.4,0.8-0.4,3.8-2.8,4.3c-2.3,0.5-2.5-1.8-4-0.7
				c-0.6,0.5-1.5,3.6-4.3,3.3c-4.6-0.2-5.5-5.3-3.4-10.5s10.1-14,10.4-14.2c0.3-0.1,7.6,2.1,7.6,2.1L400.2,124.7L400.2,124.7z"/>
			<g>
				<ellipse class="st16" cx="370" cy="123.9" rx="18.3" ry="27.2"/>
				<g>
					<path class="st38" d="M379.8,120.1c-1-0.5-2.3-0.5-3.7,0c-0.5,0.2-1-0.1-1.2-0.6s0.1-1,0.6-1.2c1.9-0.7,3.7-0.7,5.2,0
						c2.4,1.1,3.2,4.8,2.7,5C383.3,123.4,381.5,120.8,379.8,120.1z"/>
					<path class="st38" d="M355.5,123.6c-0.1,0,0-3.9,2.4-5.1c1.5-0.8,3.3-0.8,5.2-0.1c0.5,0.2,0.8,0.7,0.6,1.2
						c-0.2,0.5-0.7,0.8-1.2,0.6c-1.4-0.5-2.7-0.5-3.7,0C357,121.1,355.9,123.6,355.5,123.6z"/>
				</g>
				<g>
					<g>
						<g>
							<path class="st21" d="M358.2,130.5c0,0.3-0.8,0.4-1.8,0.3c-0.9-0.1-1.6-0.5-1.6-0.8s0.8-0.4,1.8-0.3
								C357.5,129.9,358.2,130.2,358.2,130.5z"/>
							<path class="st21" d="M358.3,132.3c0-0.3-0.8-0.4-1.8-0.3c-0.9,0.1-1.6,0.5-1.6,0.8s0.8,0.4,1.8,0.3
								C357.7,133,358.4,132.6,358.3,132.3z"/>
						</g>
						<g>
							<path class="st21" d="M381.8,132.3c0-0.3,0.8-0.4,1.8-0.3c0.9,0.1,1.6,0.5,1.6,0.8s-0.8,0.4-1.8,0.3
								C382.5,133,381.8,132.6,381.8,132.3z"/>
							<path class="st21" d="M381.7,130.5c0,0.3,0.8,0.4,1.8,0.3c0.9-0.1,1.6-0.5,1.6-0.8s-0.8-0.4-1.8-0.3
								C382.4,129.9,381.6,130.2,381.7,130.5z"/>
						</g>
					</g>
					<path class="st21" d="M370.2,134.8h-0.1c-0.5,0-1.6-0.5-1.7-3.3c-0.2-4.7,0.6-7.3,0.6-7.4c0-0.2,0.2-0.3,0.4-0.2
						c0.2,0.1,0.3,0.2,0.2,0.4c0,0-0.8,2.6-0.6,7.2c0.1,1.9,0.6,2.7,1.1,2.7c0.7,0.1,1.8-1.2,2.3-3.3c0-0.2,0.2-0.3,0.4-0.2
						c0.2,0,0.3,0.2,0.2,0.4C372.6,133.2,371.4,134.8,370.2,134.8L370.2,134.8z"/>
				</g>
			</g>
			<g>
				<path class="st3" d="M400.5,113.2c0.2-1.7,2.2-4.4,0.8-7.2c-1.4-2.8-4-2-4.3-4.3s-1.1-5.9-4.9-5.5c-3.7,0.3-1.8-1.9-4-5.3
					c-2.2-3.5-5.6-0.3-6.7-0.8s-1.3-6.5-6.9-7.7c-5.6-1.3-7.3,5.2-7.9,5.3c-0.6,0.1-1.7-1.8-3.7-1.3s-1.1,2.8-2.5,2.7
					c-1.4-0.1-4.9-0.8-6.9,0c-2.1,0.8-2.7,4.9-2.7,4.9s-3.3-1.4-5.2,0c-2,1.4-1.4,4-2,6s-3.2,1.4-6.2,4.6s-0.5,9.7-1.8,10.5
					c-1.3,0.7-2.9,2.9-2.5,6c0.4,3,5.3,3.2,5.2,6.1c-0.1,2.8-2.2,4.6,1.4,5.6s5.8-6.6,5.8-6.6c1.5,1.2,5,0.8,7.8-1.5
					s0.7-7.1,0.5-8.8c-0.3-1.7,1-1.4,3.8-2.3c2.8-0.8,3.6-5.2,3.6-5.2c3.3,1.5,4.1-2.3,6-0.9c-2.1,1.9-1.3,5-1.1,7.1v0.3
					c0,0.1-0.1,0.2-0.1,0.4c-0.3,1.7-2.6,2.5-3.4,1.8c-0.8-0.6-0.1-1.8-0.1-1.8c-1.3,0.4-1.6,3.2,1.1,3.2h0.4c2.8,0.3,3.4-3.5,4-6.3
					c0.3-1.6,1.9-2.7,3.2-3.4c0.7-0.2,1.4-0.5,2.1-0.8l0,0c1.7-0.9,3-2.1,3-2.1l0,0c0,0-1.7,5.2,2.3,8.2c4.1,3,2.9,6.3,2.2,6.9
					c-0.7,0.6-2.1,0.4-2.1,0.4s2.1,1.2,3.8-0.4c1.7-1.6,0.9-4.9,0-5.7c-0.6-0.5-0.9-1.8-0.9-2.9c2.4,1,5.2-1.2,4.5,2.4
					c-0.7,3.7,0.6,6.6,3.7,7.8c3.1,1.3,5.2-3.6,6.3-2.7c1.1,0.8,0.8,2.7,2.6,4.3c1.8,1.6,4.9,0.3,5-2.2
					C403.8,119.4,400.3,114.9,400.5,113.2L400.5,113.2z"/>
				<path class="st38" d="M378.5,103.9c1,0.4,2.1,0.7,3.1,0.6c0.5,0,1-0.1,1.5-0.2c0.3-0.1,0.5-0.1,0.7-0.2c0.3-0.1,0.5-0.2,0.8-0.2
					c0.6-0.1,1.1-0.2,1.7-0.1c0.6,0,1.1,0.1,1.7,0.3c0.5,0.2,1.1,0.5,1.4,1c0.4,0.5,0.6,1.1,0.6,1.7v0.5c0,0.2,0,0.3-0.1,0.4
					c0,0.3-0.1,0.6-0.2,0.8c-0.1,0.5-0.2,1.1-0.2,1.6c-0.1,1.1-0.1,2.2,0,3.3c0.1,1.1,0.2,2.2,0.6,3.2c0.2,0.5,0.5,0.9,0.8,1.3
					c0.4,0.3,0.9,0.5,1.4,0.5v0.1c-0.5,0.1-1.2,0.1-1.7-0.2c-0.5-0.3-0.9-0.8-1.2-1.3c-0.6-1.1-0.8-2.2-0.9-3.4
					c-0.1-1.2,0-2.3,0.1-3.5c0.1-0.6,0.2-1.1,0.4-1.7c0.1-0.3,0.2-0.6,0.3-0.8c0-0.1,0.1-0.3,0.1-0.4l0.1-0.4c0.1-0.5,0-1.1-0.3-1.5
					s-0.8-0.7-1.3-0.9c-1-0.3-2.1,0-3.1,0.3c-0.3,0.1-0.5,0.2-0.7,0.3c-0.3,0.1-0.5,0.2-0.8,0.2c-0.6,0.1-1.2,0.2-1.7,0.1
					C380.4,105.2,379.3,104.7,378.5,103.9L378.5,103.9L378.5,103.9z"/>
				<path class="st38" d="M380.9,98.6c1.1,0.9,2.6,1,3.8,0.7c0.6-0.1,1.3-0.4,2-0.6s1.4-0.3,2.1-0.4c0.7,0,1.5,0,2.2,0.5
					c0.3,0.2,0.6,0.5,0.8,0.9c0,0.1,0.1,0.2,0.1,0.3l0.1,0.3c0.1,0.2,0.1,0.4,0.1,0.6c0.1,0.7,0.1,1.5,0.3,2.2
					c0.1,0.7,0.3,1.4,0.6,2c0.2,0.3,0.4,0.5,0.6,0.7c0.3,0.2,0.5,0.4,0.8,0.5c0.1,0.1,0.3,0.1,0.5,0.2s0.4,0.1,0.6,0.2
					c0.4,0.2,0.7,0.5,0.9,0.8c0.5,0.7,0.7,1.5,0.7,2.3s-0.1,1.6-0.4,2.3c-0.1,0.4-0.3,0.7-0.5,1.1c-0.1,0.2-0.2,0.4-0.1,0.6
					s0.3,0.5,0.5,0.8s0.4,0.5,0.7,0.8c0.5,0.5,1,1.1,1.4,1.7s0.8,1.3,0.7,2.1h-0.1c-0.1-0.7-0.6-1.3-1-1.8c-0.5-0.5-1-1-1.5-1.4
					c-0.5-0.5-1.1-0.9-1.5-1.8c-0.1-0.2-0.1-0.5-0.1-0.7c0-0.3,0.1-0.5,0.2-0.7c0.1-0.3,0.3-0.6,0.4-0.9c0.2-0.6,0.3-1.3,0.4-2
					c0-0.7-0.1-1.3-0.4-1.8c-0.1-0.3-0.4-0.4-0.6-0.6c-0.1-0.1-0.3-0.1-0.4-0.2c-0.2-0.1-0.4-0.1-0.5-0.2c-0.3-0.2-0.7-0.4-1-0.7
					c-0.3-0.3-0.5-0.6-0.6-1c-0.3-0.7-0.4-1.5-0.4-2.2c-0.1-0.7-0.1-1.5-0.2-2.2s-0.5-1.3-1.1-1.6c-0.6-0.2-1.2-0.2-1.9-0.1
					c-0.7,0.1-1.3,0.2-2,0.4c-0.7,0.1-1.3,0.4-2.1,0.5c-0.7,0.1-1.5,0.1-2.2-0.2C382,99.7,381.3,99.3,380.9,98.6L380.9,98.6
					L380.9,98.6z"/>
				<path class="st38" d="M376.5,100.1c-0.8-0.5-1.6-0.9-2.5-1.1c-0.4-0.1-0.9-0.2-1.3-0.3c-0.4,0-0.9,0-1.3,0.1s-0.8,0.3-1.2,0.5
					c-0.4,0.2-0.8,0.5-1.1,0.8c-0.8,0.5-1.5,1.1-2.3,1.6s-1.7,0.9-2.7,1s-2-0.2-2.8-0.6c-0.8-0.3-1.7-0.5-2.7-0.5
					c-0.9,0-1.8,0.2-2.6,0.7c-0.8,0.4-1.3,1.2-1.5,2c-0.1,0.2-0.1,0.4-0.1,0.6s0,0.5-0.1,0.7c-0.1,0.5-0.2,1-0.3,1.5
					c-0.3,1-1,1.9-1.8,2.5s-1.6,1.1-2.3,1.6l-0.6,0.4c-0.2,0.1-0.3,0.2-0.4,0.4c-0.2,0.3-0.4,0.6-0.4,1c-0.1,0.8,0.1,1.8,0.4,2.7
					c0.2,0.9,0.5,1.8,0.7,2.8c0.1,0.5,0.1,1,0.1,1.5c-0.1,0.5-0.2,1-0.6,1.4l-0.1-0.1c0.3-0.4,0.3-0.9,0.3-1.3
					c0-0.5-0.1-0.9-0.2-1.4c-0.2-0.9-0.6-1.8-0.9-2.7c-0.3-0.9-0.6-1.9-0.6-3c0-0.5,0.2-1.1,0.6-1.6c0.2-0.2,0.4-0.4,0.6-0.6
					l0.6-0.4c1.5-1.1,3.3-1.9,3.9-3.5c0.2-0.4,0.3-0.8,0.3-1.3l0.1-0.7c0.1-0.3,0.1-0.5,0.2-0.8c0.3-1,1-1.9,1.9-2.3
					s1.9-0.6,2.8-0.6s1.9,0.2,2.8,0.6c0.2,0.1,0.4,0.2,0.7,0.2c0.2,0.1,0.4,0.1,0.6,0.2s0.4,0,0.7,0c0.2,0,0.4,0,0.6-0.1
					c0.9-0.2,1.7-0.6,2.4-1.1c0.8-0.5,1.5-1.1,2.3-1.6c0.4-0.3,0.8-0.5,1.2-0.8c0.5-0.2,0.9-0.4,1.4-0.5c1-0.1,2,0.1,2.9,0.4
					c0.4,0.2,0.9,0.4,1.3,0.7C375.8,99.4,376.2,99.7,376.5,100.1L376.5,100.1L376.5,100.1z"/>
				<path class="st38" d="M377.8,95.7c-0.9-1-1.9-1.9-3-2.6c-1.1-0.8-2.2-1.4-3.4-1.6h-0.9c-0.3,0.1-0.6,0.1-0.8,0.3
					c-0.6,0.2-1.1,0.6-1.5,1s-0.8,1-1.2,1.6c-0.4,0.6-1.1,1.1-1.9,1.2c-0.7,0.1-1.4,0.1-2.1,0s-1.3-0.2-2-0.4
					c-1.3-0.3-2.6-0.7-3.9-0.7c-0.6,0-1.3,0.1-1.9,0.4s-1,0.8-1.4,1.3c-0.8,1.1-1.1,2.4-1.7,3.7c-0.3,0.6-0.7,1.3-1.4,1.7
					c-0.2,0.1-0.3,0.2-0.5,0.2s-0.4,0.1-0.5,0.1l-1,0.1c-1.2,0.2-2.3,0.9-3.2,1.9c-0.9,0.9-1.5,2.1-1.5,3.3v0.4
					c0,0.1,0.1,0.3,0.1,0.4c0.1,0.2,0.1,0.4,0.2,0.6c0,0.2,0.1,0.4,0,0.6c0,0.4-0.2,0.9-0.4,1.2c-0.2,0.3-0.5,0.6-0.8,0.8
					c-0.5,0.5-1,0.8-1.4,1.3s-0.7,1-0.8,1.6c-0.2,0.6-0.2,1.2-0.1,1.9c0,0.7,0.1,1.3,0.3,2c0.2,1.3,0.5,2.7,0.6,4.1
					c0.1,0.7,0.1,1.4,0,2.1s-0.4,1.4-1,1.8l-0.1-0.1c0.5-0.5,0.7-1.1,0.7-1.8c0.1-0.7,0-1.3-0.1-2c-0.2-1.3-0.6-2.6-0.9-4
					c-0.1-0.7-0.3-1.4-0.4-2.1s-0.1-1.4,0.1-2.2c0.2-0.7,0.5-1.4,1-2s1-1,1.5-1.4c0.2-0.2,0.5-0.4,0.6-0.6s0.2-0.4,0.3-0.7v-0.4
					l-0.1-0.4c-0.1-0.2-0.1-0.4-0.1-0.6s0-0.4-0.1-0.6c0-0.8,0.2-1.5,0.6-2.2c0.3-0.7,0.8-1.2,1.3-1.7c1-1,2.3-1.8,3.7-2l1-0.1
					c0.2,0,0.3-0.1,0.4-0.1s0.3-0.1,0.4-0.2c0.5-0.3,0.9-0.8,1.2-1.3c0.3-0.6,0.6-1.2,0.9-1.8c0.3-0.6,0.6-1.2,1-1.8
					c0.4-0.6,0.9-1.1,1.5-1.4s1.3-0.5,2-0.5s1.3,0.1,2,0.2l2,0.3c0.7,0.1,1.3,0.2,1.9,0.2c0.7,0.1,1.3,0,1.9-0.1s1-0.5,1.4-1
					s0.8-1.1,1.3-1.6s1.1-0.9,1.8-1.2c0.3-0.1,0.7-0.2,1-0.3h1.1c0.7,0.1,1.4,0.4,2,0.7c0.6,0.3,1.2,0.7,1.7,1.2
					c0.5,0.4,1,0.9,1.5,1.4C377.1,94.5,377.5,95,377.8,95.7L377.8,95.7L377.8,95.7z"/>
			</g>
			<path class="st3" d="M380.5,125.8c-0.2-0.5-0.4-0.9-0.8-1.2c-0.3-0.3-0.6-0.5-1-0.6s-0.8-0.1-1.2-0.1c-0.8,0.1-1.5,0.6-2,1.2
				s-0.9,1.2-1.1,2c0.6-0.4,1.1-0.8,1.7-1.2c0.5-0.3,1.1-0.6,1.6-0.7c1-0.2,2.1,0.4,3.1,1.5l1.8-1.6
				C382.6,125.1,380.5,125.8,380.5,125.8z"/>
			<path class="st3" d="M358.7,125.5c0.2-0.4,0.5-0.9,0.8-1.2c0.3-0.3,0.7-0.5,1-0.6c0.4-0.1,0.8-0.1,1.2,0c0.8,0.2,1.4,0.6,1.9,1.2
				s0.9,1.2,1.1,2c-0.6-0.4-1.1-0.9-1.6-1.2c-0.5-0.3-1.1-0.6-1.6-0.7c-1-0.2-2.1,0.4-3.1,1.5l-1.8-1.7
				C356.6,124.8,358.7,125.5,358.7,125.5z"/>
			<path class="st21" d="M370.6,141.2c-4.2,0.2-6.9-3.4-7.1-3.6c-0.1-0.1-0.1-0.3,0-0.5c0.1-0.1,0.3-0.1,0.4,0c0,0,2.7,3.5,6.6,3.3
				s5.6-3.9,5.6-3.9c0.1-0.2,0.2-0.2,0.4-0.1c0.1,0.1,0.2,0.3,0.1,0.4C376.6,137.1,374.8,141,370.6,141.2L370.6,141.2z"/>
		</g>
	</g>
	<g>
		<path class="st39" d="M290.7,95.9c-8.8-11.2-18.4-2.2-18.4-2.2l6.8,7.4c0,0,2.3,8.2,9.6,13.3c0,0,0.1,0.5,0.2,1.2l-35.2-3.3
			c0,0,4.2,6.9-8.1,20.3c-12.6,13.8-10.6,31-10.6,31l57.6,2.9l0.5-41.2c0,0,0-0.1,0.1-0.1C296.4,120.1,299.5,107.1,290.7,95.9z"/>
		<g>
			<path class="st6" d="M303.1,183.5c0,0,12.6,44.4,11.8,97.3c0,0-5.1,2.1-10.7-0.4c0,0-4.6-48.6-16.5-75.4
				c-2.7-5.7-2-13.3-0.4-17.6C300.9,166.6,303.1,183.5,303.1,183.5L303.1,183.5z"/>
			<g>
				<path class="st6" d="M311.1,289.9c0,0-3.1,5.7-3.6,6.2s-4.4,2-4.7,2.9c-0.3,0.9,0.9,2.1,3.7,1.1c2.8-1,3.6-1.3,4.2-1.8
					c0.5-0.5,3.9-6.5,3.9-6.5L311.1,289.9L311.1,289.9z"/>
				<path class="st6" d="M312.1,291.3c0,0-2.6,7-3.2,7.7c-0.5,0.7-4.7,2.9-5,4c-0.2,1.1,1.4,2.3,4.5,0.8s4-2,4.5-2.7s3.4-8,3.4-8
					L312.1,291.3z"/>
				<path class="st6" d="M314.8,280.4c0,0,2.8,8.2,3.1,10.7c0.4,2.5-4.6,12-5.3,14.8c-1.1,2.9-3.7,2.3-3.1-1.7
					c0.6-4.3,2.6-11.4,2.7-12c0.1-0.6-3.4-4.1-3.9-4.3c-0.5-0.2-2.7,2.9-2.9,3.5c-0.2,0.6,1.3,4.6-1.4,6.6c-2.7,1.9-3.9-6.8-3.5-8.4
					s1.1-7.4,4.6-10.5h8.2L314.8,280.4L314.8,280.4z"/>
			</g>
			<path class="st5" d="M317.8,279.2c0,0-8.1,3.6-13.6,1.1c0,0-4.6-48.6-16.5-75.4c-2.7-5.7-2-13.3-0.4-17.6
				c4-6,10.7-14.2,10.7-14.2S316.9,193.3,317.8,279.2z"/>
			<path class="st2" d="M315.7,280c0,0-6.1,2.9-11.6,0.4c0,0-4.6-48.6-16.5-75.4c-2.7-5.7-2-13.3-0.4-17.6c4-6,10.7-14.2,10.7-14.2
				s9.1,7.2,9.9,32C308.7,227.3,314.5,274.7,315.7,280L315.7,280z"/>
		</g>
		<path class="st6" d="M265.2,152.2c-22.5,6.4-33.4,14.7-33.4,14.7l20.7,40.6c0,0,3.4,16.2-0.8,24c-15.1,13.1-11.9,27.5-11.9,27.5
			c10.5,7.1,41.9,3.1,41.9,3.1s10.8-3.2,18.5-13.2c0,0-3.4-20.3-0.9-31.6c5.1-15.9,6.5-27.2,2.6-38.7
			C297.5,170.8,285.9,152.5,265.2,152.2L265.2,152.2z"/>
		<g>
			<path class="st6" d="M277.7,243.1l0.5,7.4l0.2,2.7l0.2,2.7l5.8,91.6l5.3,69.4l0.4,5.3c0,0-0.5,9.7-1,11.2
				c-2.5,4.3,0.9,12.2,1.2,15.8c0.3,3.8,22.6,8,23.2,1.4c-1.4-4.8-10.2-17.8-10.6-20.1c-0.4-2.2-0.5-9.6-0.5-9.6l2-58.4l0.5-15.2
				l4.4-90.5v-0.3l-5.2-15.1l-9.8,0.5l-4.3,0.2L277.7,243.1L277.7,243.1z"/>
			<path class="st3" d="M309.7,441.9c0,0-0.4,4.9-7.6,4.7c-7.1-0.2-11.3-5.8-11.3-5.8s-1.2-5.9-1.4-6.4c-0.3-0.5-0.4-6.8-0.4-6.8
				s-2.5,7.9-1.5,11.4c0,0,1.9,9.2,3.3,11.7c1.4,2.5,8.9,4.6,15.7,4.6C313.4,455.4,317.5,450.8,309.7,441.9L309.7,441.9z"/>
			<path class="st6" d="M238.7,415l-0.6,5.3c0,0-2.3,9.5-3,10.9c-3.3,3.8-1.4,12.1-1.7,15.7c-0.4,3.8,20.7,12,22.5,5.7
				c-0.4-5-6.7-19.4-6.7-21.7s1.6-9.4,1.3-9.5l16.1-71.9l13.2-72.5l5.6-31.8l-28.9-15c0,0-8.1,7.3-8.9,16.9
				c-2.1,27-1.1,98.8-1.1,98.8L238.7,415L238.7,415z"/>
			<path class="st40" d="M246.2,327.4l23.5,4c0,0-3.4,19.6-5.3,27.9c-2.8,13.7-12.1,54.7-12.1,54.7l11.8-78.8L246.2,327.4
				L246.2,327.4z"/>
			<path class="st40" d="M305.5,330.3l-2.5,67.1l-0.9,24.6l-1.5-87l-17.2-2.7C293.9,332.4,305.3,330.6,305.5,330.3L305.5,330.3z"/>
			<path class="st3" d="M253.8,444.7c0,0-1.5,4.7-8.4,3s-9.8-8.1-9.8-8.1s0.1-6.1,0-6.6c-0.2-0.5,1.1-6.7,1.1-6.7s-4.1,7.1-3.9,10.9
				c0,0-0.1,9.4,0.7,12.1c0.9,2.7,7.7,6.4,14.4,7.9C254.5,458.7,259.5,455.1,253.8,444.7L253.8,444.7z"/>
		</g>
		<path class="st3" d="M252,237.3c0,0-10.2,16.7-12,37.9s-4.9,71.2-4.9,71.2s47.3,9.3,79.4,1.6l-5.1-88.3L252,237.3L252,237.3z"/>
		<polygon class="st6" points="259.4,136.4 253.8,158.3 278.3,159 278.3,144.4 271.4,135 		"/>
		<path class="st9" d="M260.6,140.5c0.1,0.4,1,8.1,9.3,10.6c3.1,0.9,6.3,1.3,8.4,1.1v-7.8l0,0C278.3,144.4,269.3,145.9,260.6,140.5
			L260.6,140.5z"/>
		<path class="st41" d="M236.8,253.4c0,0,7.5,4.6,19.8,8.3l0,0c3.6,1.1,7.7,2.1,12.1,2.9c0.8,0.2,1.6,0.3,2.4,0.4
			c14.2,2.6,24.7-0.2,28.5-1.5c1-0.3,1.5-0.6,1.5-0.6c1.3-5,1.1-12.8,0.7-20.8c-0.5-10.2-1.6-20.6-0.6-25.3c1.6-8.3,8.6-17.2,6.3-29
			c-1.5-8.5-11.6-23.5-11.6-23.5c-5.6-4.3-14-7.5-14-7.5s0.2,7.8,1.2,12.5c1,4.8-9.2,6.4-15,1.7c-7.4-6-14.3-15.5-14.3-15.5
			s-19.8,7.4-22.4,10.3c-4,3,10.2,21.1,10.2,21.1s1.5,2.8,5.3,10.1c4.7,8.9,9.1,26.3,3.4,33.2C244.7,237.3,236.8,253.4,236.8,253.4
			L236.8,253.4z"/>
		<path class="st5" d="M299.1,335.3l20.5-5.9c0,0-17.2-118.9-15.4-120c1.8-1.1,6-15.7,5.1-20.8s-12.2-23.7-14.3-25.7
			c-2.2-2-16.5-8.5-16.5-8.5l0,0c0.3,0.9,11,28.3,13.2,42.3c0.5,3.5,0.6,9.8,0.4,17.4C291.5,237.3,299.1,335.3,299.1,335.3z"/>
		<path class="st7" d="M291.7,196.8c0.5,3.5,0.6,9.8,0.4,17.4l0.4,1.2l3.8-42l-8.4-3.5l3.5-4.2l-12.9-11.2
			C278.8,155.3,289.5,182.8,291.7,196.8z"/>
		<path class="st5" d="M276.2,335.3l-47.2-5c0,0,8.1-89,6.6-97.6c-0.4-2.3-1.6-7-3-12.8c-3.9-16.2-9.4-41.4-4.8-49.2
			c2.9-10.7,27.5-18.1,27.5-18.1s18.3,30.1,21,44.2c0.8,4.1,2.1,12.2,3.6,21.7l0,0C283.6,241.3,276.2,335.3,276.2,335.3L276.2,335.3
			z"/>
		<path class="st2" d="M229,330.3c0,0,8.1-89,6.6-97.6c-0.4-2.3-1.6-7-3-12.8l11.4-10.1c0,0,2.6,33.8,0.6,66.4
			c-3.1,49.7,8.1,49.9,23.4,58.2L229,330.3z"/>
		<path class="st7" d="M260.9,168.5l-7.1,7.5l26,42.5c-1.5-9.4-2.9-17.5-3.6-21.7c-2.6-14.1-21-44.2-21-44.2l-5.3,10.9L260.9,168.5
			L260.9,168.5z"/>
		<g>
			<polygon class="st42" points="217.2,259.3 215.3,301.6 267.7,304.9 269.6,302.8 271.4,261.7 			"/>
			<polygon class="st43" points="216.2,259.3 214.4,301.6 267.8,303.4 268.7,302.5 270.5,261.7 			"/>
			
				<rect x="220.4" y="255.4" transform="matrix(4.327071e-02 -0.9991 0.9991 4.327071e-02 -51.2036 511.6139)" class="st44" width="42.3" height="54.3"/>
			<path class="st5" d="M264.8,280.7c0,3.4-2.7,6.1-6.1,6.1c-3.4,0-6.1-2.7-6.1-6.1s2.7-6.1,6.1-6.1
				C262.1,274.6,264.8,277.3,264.8,280.7z"/>
			<path class="st6" d="M247.6,306.2c0.3-1.9-4.6-15.7-4.6-15.7c3.1,1.2,7.2,1.9,7-0.3c-0.2-2.1-10.7-7.3-12.4-7.9
				c-0.5,0.3-10.6,1.6-10.6,1.6c-0.8,8.4,0.7,15.3,4.6,19c1.8,2.2,10.8,2.1,10.8,2.1C243.6,307.8,247.3,308.1,247.6,306.2
				L247.6,306.2z"/>
			<path class="st6" d="M226.7,177.1c0,0-7.9,49.9,0,107.2c0,0,5.9,1.6,11.5-1.8c0,0-1.3-53.4,8-84.1c2.2-6.6,0.4-14.7-1.9-19.2
				C226.8,158.5,226.7,177.1,226.7,177.1L226.7,177.1z"/>
			<path class="st5" d="M247,197.2c-9.3,30.7-6,84.1-6,84.1c-1.5,0.9-3.5,1.6-5.6,2.1c-5.7,1.3-12.3,1.3-12.3,1.3
				c-7.9-57.3,3.4-112.7,3.4-112.7s4.6-14.5,18,2c1.2,2.4,2.4,6.9,3,11.6C248,189.8,248,194.1,247,197.2L247,197.2z"/>
			<path class="st2" d="M247,197.2c-9.3,30.7-6,84.1-6,84.1c-1.5,0.9-3.5,1.6-5.6,2.1c-0.4-54.2,2-60.4,6.1-81.3
				c1.3-6.9,4.3-7.1,4.7-19.6c0.5,1.1,1,2.1,1.3,3.1C248.6,188.9,248.6,192.2,247,197.2z"/>
			<polygon class="st45" points="262,279.7 259.8,279.7 259.9,277.5 257.8,277.4 257.7,279.6 255.5,279.5 255.4,281.6 257.6,281.7 
				257.5,283.9 259.7,284 259.7,281.8 261.9,281.9 			"/>
		</g>
		<g>
			<path class="st6" d="M250.7,122.8c2.3,15.8,12.8,27.4,23.4,25.8c10.7-1.5,17.5-15.6,15.2-31.4c-2.3-15.8-12.8-27.4-23.4-25.8
				C255.2,92.9,248.4,107,250.7,122.8z"/>
			<g>
				<g>
					<g>
						<path class="st27" d="M285.3,127.9c0,0.3,0.9,0.5,1.9,0.3c1-0.1,1.7-0.5,1.7-0.9c0-0.3-0.9-0.5-1.9-0.3
							S285.3,127.5,285.3,127.9z"/>
						<path class="st27" d="M285.2,129.8c0-0.3,0.9-0.5,1.9-0.3c1,0.1,1.8,0.5,1.7,0.8c0,0.3-0.9,0.5-1.9,0.3
							C285.9,130.5,285.1,130.1,285.2,129.8z"/>
					</g>
					<g>
						<path class="st27" d="M260.1,130c0-0.3-0.9-0.5-1.9-0.3c-1,0.1-1.7,0.5-1.7,0.9s0.9,0.5,1.9,0.3S260.2,130.3,260.1,130z"/>
						<path class="st27" d="M260.3,128c0,0.3-0.9,0.5-1.9,0.3c-1-0.1-1.8-0.5-1.7-0.8c0-0.3,0.9-0.5,1.9-0.3
							C259.6,127.3,260.3,127.7,260.3,128z"/>
					</g>
				</g>
				<g>
					<path class="st27" d="M275,133.2h0.1c0.5-0.1,1.7-0.6,1.5-3.7c-0.2-5-1.3-7.7-1.3-7.8c-0.1-0.2-0.3-0.3-0.4-0.2
						c-0.2,0.1-0.3,0.3-0.2,0.4c0,0,1,2.7,1.3,7.6c0.1,2.1-0.4,2.9-1,3c-0.8,0.1-2.1-1.1-2.7-3.3c-0.1-0.2-0.2-0.3-0.4-0.2
						c-0.2,0.1-0.3,0.2-0.2,0.4C272.3,131.7,273.7,133.3,275,133.2L275,133.2z"/>
					<path class="st27" d="M273.2,138.1c4.3-0.4,6.6-3.9,6.7-4c0.1-0.1,0-0.3-0.1-0.4c-0.1-0.1-0.3,0-0.4,0.1c0,0-2.2,3.4-6.2,3.7
						s-6.2-2.6-6.2-2.7c-0.1-0.1-0.3-0.2-0.4-0.1c-0.1,0.1-0.2,0.3-0.1,0.4C266.6,135.4,268.9,138.5,273.2,138.1z"/>
					<path class="st39" d="M262.8,114.6c1.2-0.5,2.7-0.4,4.4,0.2c0.6,0.2,1.2,0,1.5-0.6c0.2-0.5,0-1.1-0.6-1.3
						c-2.2-0.8-4.3-0.9-6.1-0.2c-2.9,1.1-4,5-3.4,5.2C258.6,118,260.9,115.4,262.8,114.6L262.8,114.6z"/>
					<path class="st39" d="M283.8,114.8c-1.2-0.3-2.5-0.1-3.9,0.7c-0.5,0.3-1.1,0.1-1.4-0.4s-0.1-1.1,0.4-1.4
						c1.9-1.1,3.7-1.4,5.5-0.9c2.7,0.8,4.3,4.4,3.8,4.7C288,117.6,285.7,115.3,283.8,114.8L283.8,114.8z"/>
				</g>
				<path class="st3" d="M279.4,123c-0.1-2.2,0.5-3.8,1.2-3.9l3.5,0.1c0,0-0.6,0.7-2.5,0.9c0.3,0.7,0.3,1.4,0.4,2.5
					c0.1,2.2-0.3,4-1,4.1C280.2,126.8,279.6,125.1,279.4,123L279.4,123z"/>
				<path class="st3" d="M264.3,122.9c0-1.1,0.2-2,0.4-2.7c-2.2-0.1-2.8-0.8-2.8-0.8l3.8-0.3c0.8,0,1.4,1.6,1.4,3.7
					s-0.6,3.8-1.4,3.9C264.9,126.6,264.2,125,264.3,122.9z"/>
			</g>
			<g>
				<path class="st3" d="M282.5,129.7c-5.2,0-6.7-7.3-6.8-11.1v-0.5l0.4-0.1c7.7-2.5,14.3,0.1,14.6,0.2l0.5,0.2l-0.1,0.6
					c-0.1,0.4-1.9,9.6-7.5,10.7H282.5L282.5,129.7z M276.8,119.1c0.2,2,1,9.3,5.7,9.3c4.7,0,6.7-7,7.3-9.2
					C288.2,118.7,282.8,117.2,276.8,119.1z"/>
				<path class="st3" d="M265.2,130.3c-6.8-0.1-8.8-11.2-8.9-11.7l-0.1-0.6l0.5-0.2c0.3-0.1,7.4-2.8,15.6,0.1l0.4,0.2v0.5
					c-0.2,3.8-1.7,10.7-6.4,11.6C266,130.2,265.6,130.3,265.2,130.3L265.2,130.3z M257.6,118.9c0.5,2.2,2.6,9.9,7.7,10
					c5,0.1,6.1-7.7,6.3-9.9C265.1,116.9,259.3,118.4,257.6,118.9z"/>
				<path class="st3" d="M276.2,122.3l0.8-0.9c-1.7-2.3-4.4-1.2-5.5-0.3l0.6,1.1C272.2,122.1,274.7,120.3,276.2,122.3L276.2,122.3z"
					/>
				<polygon class="st3" points="256.7,119.2 256.6,117.9 251.6,118.1 251.7,119.5 				"/>
			</g>
			<path class="st39" d="M250.3,92c9.1-18.2,45.2-6.6,45.8,16.5l-3,4.6C293,113,256.6,111.9,250.3,92z"/>
			<path class="st39" d="M238.5,150.8c3.1-0.6,13.3-4,15.4-10.8c2-6.8,0.4-21.1,0.4-21.1c-0.5-13.2,11-16.6,11-16.6
				c2.3-8-2.7-17.6-14.7-11c-10.6,5.8-14.3,11-11.5,27.7c1,5.8,2.2,13.7,0.9,23C239.2,145.4,238.6,148.4,238.5,150.8L238.5,150.8z"
				/>
		</g>
	</g>
</g>
</svg>
