<?xml version="1.0" encoding="UTF-8"?>
<svg id="Capa_1" data-name="Capa 1" xmlns="http://www.w3.org/2000/svg" viewBox="0 0 755.8 500">
  <defs>
    <style>
      .cls-1 {
        fill: #4b8c7b;
      }

      .cls-1, .cls-2, .cls-3, .cls-4, .cls-5, .cls-6, .cls-7, .cls-8, .cls-9, .cls-10, .cls-11, .cls-12, .cls-13, .cls-14, .cls-15, .cls-16, .cls-17, .cls-18, .cls-19, .cls-20, .cls-21, .cls-22, .cls-23, .cls-24, .cls-25, .cls-26, .cls-27, .cls-28, .cls-29, .cls-30, .cls-31, .cls-32, .cls-33, .cls-34, .cls-35, .cls-36, .cls-37, .cls-38, .cls-39, .cls-40, .cls-41, .cls-42, .cls-43, .cls-44, .cls-45 {
        stroke-width: 0px;
      }

      .cls-2 {
        fill: #59595b;
      }

      .cls-3 {
        fill: #434244;
      }

      .cls-4 {
        opacity: .5;
      }

      .cls-4, .cls-6, .cls-12 {
        fill: #ca7e86;
      }

      .cls-4, .cls-11, .cls-12, .cls-32, .cls-33, .cls-36 {
        isolation: isolate;
      }

      .cls-5 {
        fill: #c53e5d;
      }

      .cls-7 {
        fill: #599c8d;
      }

      .cls-8 {
        fill: #e38669;
      }

      .cls-9 {
        fill: #72c7b5;
      }

      .cls-10 {
        fill: #bbbcbf;
      }

      .cls-11, .cls-12, .cls-36 {
        opacity: .4;
      }

      .cls-11, .cls-19 {
        fill: #aa7168;
      }

      .cls-13, .cls-36 {
        fill: #d0d1d3;
      }

      .cls-14 {
        fill: #be717e;
      }

      .cls-15 {
        fill: #9cc7ed;
      }

      .cls-16 {
        fill: #6cb476;
      }

      .cls-17 {
        fill: #9b7b53;
      }

      .cls-18 {
        fill: #7f5e40;
      }

      .cls-20 {
        fill: #cfd1d2;
      }

      .cls-21 {
        fill: #e5b7ac;
      }

      .cls-22 {
        fill: #996158;
      }

      .cls-23 {
        fill: #3b3b3b;
      }

      .cls-24 {
        fill: #a6a8aa;
      }

      .cls-25 {
        fill: #df922f;
      }

      .cls-26 {
        fill: #fff;
      }

      .cls-27 {
        fill: #f1f1f2;
      }

      .cls-28 {
        fill: #b78074;
      }

      .cls-29 {
        fill: #e5e5e6;
      }

      .cls-30 {
        fill: #808083;
      }

      .cls-31 {
        fill: #6d6e70;
      }

      .cls-32 {
        opacity: .2;
      }

      .cls-32, .cls-33, .cls-44 {
        fill: #c58f80;
      }

      .cls-33 {
        opacity: .3;
      }

      .cls-34 {
        fill: #583c1c;
      }

      .cls-35 {
        fill: #583b1c;
      }

      .cls-37 {
        fill: #b56f61;
      }

      .cls-38 {
        fill: #e6e6e7;
      }

      .cls-39 {
        fill: #68aae3;
      }

      .cls-40 {
        fill: #d7a39b;
      }

      .cls-41 {
        fill: #849a5d;
      }

      .cls-42 {
        fill: #383838;
      }

      .cls-43 {
        fill: #babcbe;
      }

      .cls-45 {
        fill: #a87067;
      }
    </style>
  </defs>
  <g id="OBJECTS">
    <g>
      <path class="cls-41" d="m292.5,134.8c.2,2,.5,3.9,1,5.8,5.7,22.2,21,34.2,58-15.2,38.3-51-65.5-64-59,9.4Z"/>
      <path class="cls-41" d="m636.6,407.6h-31.2c24.5-39.4,68.4-102.8,34-128.4-35.9-26.8-88.9-53-84.2-119.4,4.8-66.4-121.4-140.1-184.7-42-63.2,98.1-161.1,73-232.5,85.8-99.3,17.7-27.1,158.4,13.4,206.2l-9.3-2.2c-1.5,0-2.8,1.4-2.8,3.2,0,1.7,1.3,3.2,2.8,3.2h494.4c1.5,0,2.8-1.4,2.8-3.2.1-1.8-1.2-3.2-2.7-3.2h0Z"/>
    </g>
    <rect class="cls-41" x="-1.2" y="405.31" width="757" height="94.69"/>
    <path class="cls-36" d="m556.6,442.2s-97.6,28.7-218,28.7-218-28.7-218-28.7c0,0,97.6-28.7,218-28.7s218,28.7,218,28.7Z"/>
    <g>
      <g>
        <path class="cls-3" d="m463.1,418.1l-.6,4.4s-10.6,5.3-12.3,5.3c-1.7.1-22.6-4-19.7,15.9l51.9-1.8-1.1-24.4-18.2.6h0Z"/>
        <path class="cls-3" d="m499.9,439.2v4.8s20.2,6.8,29.8-1.7c0,0,.1-1.7-.3-4.3-.6-3.4-2.4-8.2-7-12.3l-1.8-10.8-15.3,3.8v6.1s-4.8,11.2-5.3,13.9c-.1.3-.1.4-.1.5h0Z"/>
        <polygon class="cls-42" points="516.4 235.6 523.7 418.7 502.2 420.6 483.4 271.7 483.4 420.6 459.5 420.6 453.1 236.4 516.4 235.6"/>
        <path class="cls-42" d="m499.9,439.2v4.8s20.2,6.8,29.8-1.7c0,0,.1-1.7-.3-4.3-13.4,7.2-28.5,1.1-29.4.8-.1.2-.1.3-.1.4h0Z"/>
        <polygon class="cls-42" points="482.4 441.9 482 437.1 430.3 439.5 430.5 443.7 482.4 441.9"/>
      </g>
      <path class="cls-26" d="m536.2,321l-21.1,1.7-28.8,2.4-4.4-17.5-3.6,16.6-37.6-1.2,7.5-140.1-2.7-38.2s16.5-17.1,36.9-20.8c34.8,2.5,47.3,18.8,47.3,18.8,0,0-1.9,30.3-8.5,47.8-.1.4-.2,1.1-.3,2-.1,1.1,0,2.6,0,4.4v.1c0,1.1.1,2.3.2,3.6v.2c1.9,29.1,13.3,108.4,14.8,119,.1.4.1.7.1.9.1.2.2.3.2.3h0Z"/>
      <path class="cls-36" d="m521,196.9s-.1,0,0,0c-.1,0-.1-.1,0,0h0Z"/>
      <path class="cls-36" d="m515.1,322.7s11.1-30.6-2.9-128.7c-4.9-34.2,5.1-45.6,5.4-46.7,0,.2-.3,1.6-1.8,10.7-1.4,7.9.7,26,1.5,34.4.2,2.7,3.2,4.4,3.7,4.4,0,.4.1,1.6.2,3.6v.2c1.9,29.1,13.3,108.4,14.8,119,.1.4.1.7.1.9v.3l-21,1.9h0Z"/>
      <g>
        <path class="cls-21" d="m525.4,252.5s30.6-29.5,31.2-36c.5-6.5-12.8-33-12.8-33l-18.7,1.7,14.2,30.7-21.2,30.4"/>
        <path class="cls-21" d="m518.1,246.3s-15.2,7.9-15,10.1c.2,2.3,4.1.8,6.9-.8,0,0-3.5,11.9-1.9,16.1.6,1.8,4.1.9,4.9-2,0,0,8.2-1.6,9.6-4,3.3-4.3,3-7.3,2.6-14.3l-7.1-5.1h0Z"/>
        <path class="cls-26" d="m529.1,145.1s32.2,64.7,31.2,70.7-28.6,40.8-28.6,40.8l-15.1-15.9,15.1-27.5-16.9-25.9c0,.1-9.8-37.3,14.3-42.2h0Z"/>
      </g>
      <g>
        <path class="cls-21" d="m448.4,187.9l-10.4,30.7,15.5,30.4s13.3,6.6,13.5,8.9c.2,2.3-5.2-.3-7.4-1.4,0,0,4.5,8,3.6,15.5-.2,1.9-2.8,1.6-3.8-1.1,0,0-6.1,0-7.4-2.2-2.9-3.6-3.2-6.6-3.8-13.6,0,0-22.3-29.5-22.7-36-.4-6.5,9.3-33,9.3-33l13.6,1.8h0Z"/>
        <path class="cls-26" d="m445.5,147.7s-23.5,64.7-22.8,70.7,20.8,40.8,20.8,40.8l11-15.8-11-27.5,12.3-25.9c.1.1,7.2-37.4-10.3-42.3Z"/>
      </g>
      <polygon class="cls-29" points="502.2 283.5 514.2 286.5 526.1 283.5 526.1 261 502.2 261 502.2 283.5"/>
      <polygon class="cls-29" points="446.2 283.5 457.3 286.5 468.4 283.5 468.4 261 446.2 261 446.2 283.5"/>
      <polygon class="cls-29" points="482.4 312.2 482.6 292.8 482.7 273.3 482.6 234.5 482.1 195.6 481.7 176.2 481.2 156.8 481 176.2 481 195.6 481.1 234.5 481.6 273.3 481.9 292.8 482.4 312.2"/>
      <path class="cls-27" d="m531.7,213.3l-5.8-8.8c3.5,3.7,4.5,4.2,6.5,2.7,6.1-4.5,13.4.1,19.8,3.9-11.8-3.4-18.2-2.6-20.5,2.2h0Z"/>
      <path class="cls-27" d="m448.1,159.6l-1.5,50.1-3,6.2,8.8,21.9s-6.2-17.4-14.3-19.2-8.1-1.9-8.1-1.9l9-.9,9.1-56.2h0Z"/>
      <g>
        <path class="cls-21" d="m500,125.8l-1.3,5.7s-.5,1.3-1.3,3.5c-2.7,7.2-9.4,23.4-15.8,30.8-6.6-13.8-8.8-24.5-9.5-30.1-.4-2.8.2-4.2.2-4.2,0,0-.3-4.9-.3-6.1v-9.8l11.4,1.8,14.1-13.2s-.1,1-.2,2.6c-.1,2.2-.2,5.5,0,8.4.2,1.6.5,3.4.9,4.9.9,3.2,1.8,5.7,1.8,5.7h0Z"/>
        <path class="cls-4" d="m498.3,120.1c-8.9,18.1-21.9,10.6-26.3,7.5v-9.1l11.4,1.8,13.9-13.6c-.1,2.2-.2,5.5,0,8.4.2,1.7.6,3.4,1,5Z"/>
      </g>
      <g>
        <path class="cls-15" d="m499.4,135c-2.1,5.6-6.4,16.1-11.2,24.9-2.3,4.2-4.7,8-7.1,10.7-1.5-3.1-2.7-6.2-3.7-9.2-4.2-12.6-4.8-24.1-5.5-29.3,7.9,5.8,18,6,27.3-7.8l.2,10.7h0Z"/>
        <polygon class="cls-13" points="474.2 145.9 482.7 136 490.7 146.2 489.3 149.8 482.7 138.5 475.4 150.5 474.2 145.9"/>
        <path class="cls-2" d="m483.8,144.9l1.9-4.7c-2.6-2.3-3.9-2-6.3,0,.4,2,.8,3.2,1.7,4.9h0l-3.7,15.8c1,3,2.2,6.1,3.7,9.2,2.4-2.7,4.8-6.6,7.1-10.7l-4.4-14.5h0Z"/>
      </g>
      <g>
        <polygon class="cls-29" points="499.5 123.9 481.1 170.6 502.8 150 498.7 141.7 507.9 137.9 504.2 128.4 499.5 123.9"/>
        <path class="cls-29" d="m472,125.4c.4,14,4,29.5,8.8,44.7l-19.9-20.1,6.4-7.7-7.6-3.5,6.5-9.8,5.8-3.6h0Z"/>
      </g>
      <g>
        <g>
          <path class="cls-30" d="m461.6,184.2c-.7-.3-1.4-.7-2-1.3-3.3-3-5.1-9.4-5.2-18.9-.1-7.1.8-13.4.8-13.5l.8.1c0,.2-3.4,24.9,4.2,31.7,1.8,1.6,4.1,2.1,6.9,1.4l.2.8c-2.2.5-4,.4-5.7-.3h0Z"/>
          <path class="cls-30" d="m453.7,182.2c-1-.5-2.1-1.1-3.2-2.1l.5-.6c2.8,2.3,5.3,3.1,7.6,2.1,8.5-3.5,11.1-28.5,11.1-28.7l.8.1c0,.1-.7,6.5-2.4,13.2-2.3,9.2-5.4,14.6-9.2,16.1-1.6.8-3.3.7-5.2-.1h0Z"/>
          <path class="cls-2" d="m455.2,151.1c-.3-.1-.4-.4-.4-.7s.3-7,4-10.1c1.5-1.2,3.3-1.7,5.4-1.4s3.8,1.3,4.9,2.9c2.9,4,1.7,10.5,1.6,10.8-.1.4-.4.6-.8.6-.4-.1-.6-.4-.6-.8,0-.1,1.1-6.2-1.4-9.7-.9-1.3-2.3-2.1-4-2.3s-3.1.1-4.3,1.1c-3.2,2.7-3.5,9-3.5,9.1,0,.4-.3.7-.7.7,0-.1-.1-.1-.2-.2h0Z"/>
          <path class="cls-43" d="m471.3,183.7c.1.9-1,1.7-2.3,1.8s-2.4-.6-2.5-1.5,1-1.7,2.3-1.8,2.4.6,2.5,1.5Z"/>
          <path class="cls-43" d="m451.6,180.1c-.6.7-1.9.5-2.9-.3-1-.9-1.3-2.1-.7-2.8.6-.7,1.9-.5,2.9.3,1,.9,1.3,2.1.7,2.8Z"/>
          <path class="cls-2" d="m463.8,140c-.3-.1-.5-.4-.4-.8.1-.4,2.1-14.9,8.6-14.9.1,0,0,1.4,0,1.4-5.5.7-7.2,13.7-7.2,13.8-.1.4-.4.6-.8.6,0,0-.1,0-.2-.1Z"/>
        </g>
        <g>
          <rect class="cls-30" x="504.7" y="177.3" width="1" height="4.6"/>
          <path class="cls-43" d="m509.1,184.8c0,2.4-2,4.4-4.4,4.4s-4.4-2-4.4-4.4,2-4.4,4.4-4.4,4.4,1.9,4.4,4.4Z"/>
          <circle class="cls-30" cx="502.8" cy="184" r="2.6"/>
          <path class="cls-2" d="m504.5,178c0-1,.1-9.3,1-25.4.8-13.3-4.4-25.3-6.1-28.9l-.6-2c.1-.8,9.1,9.5,8.1,31-.8,16.1-.9,25.2-.9,25.3-.5.4-1.5,0-1.5,0Z"/>
        </g>
      </g>
      <g>
        <path class="cls-21" d="m463.8,96.9c-.5,16.1,7.9,29.4,18.8,29.7s20-12.5,20.5-28.6-7.9-29.4-18.8-29.7c-10.9-.2-20,12.5-20.5,28.6Z"/>
        <path class="cls-3" d="m493.5,84.4s-11.5,6.5-14.6,4.1-2.3-6.1-2.3-6.1c0,0-15,8.1-19.8,3s4.5-8.3,4.5-8.3c0,0-4.9-2.1-3.4-9.3,1.7-8.6,14.2-7.6,18.4-6.3,0,0-.3-5.3,4.4-7.3,4.7-2.1,17.8,7.7,20.3,15.5,0,0,4.9-2.3,7,2,2.2,4.3-1.2,8.4-1.2,8.4,0,0,2.3,1.1,2.4,3,.1,3.5-3.4,6.3-3.4,14.3,0,0-4.8,2.3-4.7,8.9,0,0-3.3-11.2-.1-18-.1.1-7.3,1-7.5-3.9h0Z"/>
        <g>
          <path class="cls-21" d="m465.5,101.1s-3.5-8.9-9.3-6.9.2,16.8,9.1,13.9l.2-7h0Z"/>
          <path class="cls-14" d="m457.8,98.3c4.1.1,6.3,3.8,6.4,4s0,.4-.1.5h-.2c-.1,0-.2-.1-.3-.2,0,0-.9-1.4-2.4-2.5-1.4.9-.8,3.3-.8,3.3.1.2-.1.4-.2.4h-.1c-.1,0-.3-.1-.3-.2s-.7-2.7.8-3.9c-.8-.4-1.7-.7-2.7-.8h-.1c-.2,0-.3-.2-.3-.3,0-.2.1-.3.3-.3h0Z"/>
        </g>
        <g>
          <path class="cls-21" d="m500.9,108.3c5.8,2.3,10.8-3.3,11.8-8,.5-2.4,0-4.5-1.9-5.3-4-1.6-7.2,2.2-8.7,4.6-.6,1-1.2,8.7-1.2,8.7h0Z"/>
          <path class="cls-14" d="m508.9,98.9c-4.1-.2-6.5,3.4-6.6,3.6s-.1.4.1.5c.1,0,.1.1.2.1s.2-.1.3-.2c0,0,.9-1.4,2.5-2.3,1.4,1,.6,3.3.6,3.4-.1.2,0,.4.2.4h.1c.1,0,.3-.1.3-.2s.9-2.6-.6-3.9c.8-.4,1.7-.6,2.8-.6h.1c.2,0,.3-.1.4-.3,0-.3-.2-.5-.4-.5Z"/>
        </g>
        <polygon class="cls-3" points="461.2 86.4 463.7 97.9 466 102.5 466.5 84.1 461.2 86.4"/>
        <path class="cls-3" d="m476.6,101.7c0,2.2-.5,4-1.2,4s-1.2-1.8-1.2-4,.5-4,1.2-4,1.2,1.8,1.2,4Z"/>
        <path class="cls-3" d="m491.1,101.7c0,2.2-.5,4-1.2,4-.6,0-1.2-1.8-1.2-4s.5-4,1.2-4,1.2,1.8,1.2,4Z"/>
        <g>
          <g>
            <g>
              <path class="cls-14" d="m495.9,105c0,.3.9.5,1.9.4s1.8-.5,1.7-.8c0-.3-.9-.5-1.9-.4-.9.1-1.7.5-1.7.8Z"/>
              <path class="cls-14" d="m495.7,107c.1-.3.9-.5,1.9-.3s1.7.6,1.7.9c-.1.3-.9.5-1.9.3s-1.8-.6-1.7-.9Z"/>
            </g>
            <g>
              <path class="cls-14" d="m470.5,106.2c0-.3-.9-.5-1.9-.4s-1.8.5-1.7.8c0,.3.9.5,1.9.4.9-.1,1.7-.4,1.7-.8Z"/>
              <path class="cls-14" d="m470.7,104.3c-.1.3-.9.5-1.9.3s-1.7-.6-1.7-.9c.1-.3.9-.5,1.9-.3s1.8.6,1.7.9Z"/>
            </g>
          </g>
          <g>
            <path class="cls-14" d="m482.5,109.4h.1c.5,0,1.7-.4,2-3.5.4-5.1-.4-7.9-.4-8,0-.2-.2-.3-.4-.2-.2,0-.3.2-.2.4,0,0,.7,2.8.4,7.8-.1,2.1-.8,2.9-1.3,2.9-.8.1-1.9-1.3-2.4-3.6,0-.2-.2-.3-.4-.3s-.3.2-.3.4c.4,2.4,1.6,4.1,2.9,4.1h0Z"/>
            <path class="cls-14" d="m482.5,115.1c5.2.2,8.4-3.7,8.6-3.9.1-.1.1-.4,0-.5s-.4-.1-.5,0c0,0-3.2,3.8-8,3.7-4.8-.1-7.1-4-7.1-4.1-.1-.2-.3-.2-.5-.1s-.2.3-.1.5c.1.1,2.4,4.2,7.6,4.4Z"/>
            <g>
              <path class="cls-3" d="m472.6,94.2c1.1-.4,2.4-.2,3.7.5.5.2,1.1.1,1.3-.4.2-.5.1-1.1-.4-1.3-1.9-1-3.6-1.2-5.3-.6-2.6.9-3.9,4.4-3.4,4.7.1,0,2.3-2.4,4.1-2.9h0Z"/>
              <path class="cls-3" d="m496.8,98c.5-.2-.3-3.9-2.8-5.1-1.5-.7-3.3-.8-5.3-.1-.5.2-.8.7-.6,1.2.2.5.7.8,1.2.6,1.5-.5,2.7-.5,3.8,0,1.8.9,3.6,3.5,3.7,3.4h0Z"/>
            </g>
          </g>
        </g>
      </g>
    </g>
    <g>
      <g>
        <path class="cls-44" d="m243.8,183.6c-1.7,2.2-5.7,3.7-10.1,3.2h-.4c-2.8-.4-5.7-1.5-8.3-3.7-1.1-3.4-2.4-7.2-3.6-11.1-.7-2.2-1.4-4.6-2.1-6.9-1.9-6.4-3.8-13.1-5.4-19.7-8-44.2,11.7-25,17.7-16.3,0,.1.1.2.1.3.1.2.2.4.2.6,6.2,16,9.3,24.7,10.8,38,.3,2.8.6,5.8.8,9.1.1,2,.2,4.2.3,6.5h0Z"/>
        <path class="cls-32" d="m225,183s2.6,2.2,0,0c-1.1-3.4-2.4-7.2-3.6-11.1-.7-2.2-1.4-4.6-2.1-6.9,6.7-10.8,10.7-23.1,12.4-35.6.1.2.2.4.2.6,6.2,16,9.3,24.7,10.8,38-2.8-2.3-13.1-7.1-13.6-5.4-2.9,10.3-4.1,20.4-4.1,20.4h0Z"/>
        <path class="cls-15" d="m225.8,159.2c8.3,0,15.2,5.6,17.5,9.2,0-12-5.5-28.5-11.7-39.4-6-8.7-25.6-27.9-17.6,16.3.5,2.1,11.2,11.8,11.8,13.9h0Z"/>
      </g>
      <g>
        <path class="cls-26" d="m221.8,440.7l-29-1,1.1-26,18.6.7.6,4.6s10.8,5.6,12.6,5.7"/>
        <path class="cls-38" d="m225.8,424.7c1.8.1,20.3,2.2,20.1,16.9l-24.1-.9"/>
        <path class="cls-26" d="m173.9,438.6c0,.2.1.3.1.4v5.6s-22.6,7.9-33.4-2c0,0-.2-2,.4-5"/>
        <path class="cls-26" d="m141,437.7c.7-3.9,2.6-9.5,7.8-14.3l2.1-12.6,17.1,4.5v7.1s5.4,13,6,16.1"/>
        <path class="cls-38" d="m173.9,438.6s-1.8-7.5-15.9-8.4c-14-.9-17.1,7.5-17.1,7.5l15.5,8.8,17.5-7.9Z"/>
        <polygon class="cls-39" points="219.5 244.3 219.5 415.4 189 417.2 188.5 365.2 187.6 261.6 184.4 296.6 173.3 417.2 144.8 414.5 149.2 295.5 151.3 240.5 219.5 244.3"/>
        <path class="cls-36" d="m219.5,244.3v46.5c-10.1,1.6-22.6,1.2-22.9,4.2-1.4,13.5-2.8,40.3-8.1,75.5l-.9-109-2.7,29.7c-9.1.3-27.8-1.1-27.9,0-2.6,24.9-8.8,58.2-11.2,97l5.5-147.9,68.2,4h0Z"/>
        <polygon class="cls-26" points="192.8 439.7 192.8 434.5 246.2 437.1 245.9 441.6 192.8 439.7"/>
        <path class="cls-26" d="m173.9,439v5.6s-22.6,7.9-33.4-2c0,0-.2-2,.4-5,15,8.3,31.9,1.3,32.9.9.1.3.1.4.1.5Z"/>
      </g>
      <path class="cls-15" d="m229.2,286.2l-30.4,1-3.9.1-5.5-17.6-3,18.7-3.1-.3-39.4-3.4s8.1-104.6,5.1-112.9c-4.2-11.5-6.5-28.3-7.7-39.4-.7-6.8-1-11.4-1-11.4,0,0,12.8-17.3,48.4-20,21,4,37.8,22.1,37.8,22.1,0,0-.5,33-1.3,46.8-2.7,48.1,4,116.3,4,116.3h0Z"/>
      <rect class="cls-39" x="148.57" y="241.29" width="27.5" height="23.9" transform="translate(-100.97 398.7) rotate(-86.26)"/>
      <path class="cls-36" d="m214.7,121.1l7.6,37.4s3.8.5,7.7,1.2c4,.7,9.7,4.8,9.7,4.8,0,0-1.6-4.9-5.9-7.3-2.6-1.5-5.2-1.9-6.6-1.9-.9,0-12.5-34.2-12.5-34.2Z"/>
      <path class="cls-36" d="m157.3,201.7c-6.1,52-5.1,76.9,17.1,85.6l-30.3-2.5s8.1-104.6,5.1-112.9c-4.2-11.5-6.5-28.3-7.7-39.4l3.4-11.5s24,13.9,30.4,31,46.9,6.5,46.9,6.5l3.8.6s-2.2,27.2-1.8,36.6c.5,9.4-66.9,6-66.9,6h0Z"/>
      <path class="cls-36" d="m195,287.3l-5.5-17.6c.3-2.9,1.4-13.2,1.4-13.2.1,16.2,4.1,30.8,4.1,30.8h0Z"/>
      <path class="cls-39" d="m201.9,105.4c-3.9-1.6-8.1-3.4-12.4-4.3-7.9.6-20.1,3.1-21.6,3.7,0,0,.2,6.8,1.4,11.2,3.8,13.7,11.9,17.5,20.6,25,12.9-12,11.5-26.6,11.5-26.6,0,0,.5-7.9.5-9Z"/>
      <g>
        <g>
          <path class="cls-30" d="m181.2,163c-.8-.1-1.6-.2-2.3-.6-4.2-1.7-8.1-7.3-11.5-16.5-2.5-6.8-3.9-13.2-3.9-13.2l.8-.2c.1.3,5.3,25.2,14.9,29.2,2.3.9,4.7.6,7.1-1l.4.7c-1.9,1.2-3.7,1.7-5.5,1.6Z"/>
          <path class="cls-30" d="m172.9,163.8c-1.2-.1-2.4-.4-3.8-.9l.3-.7c3.5,1.3,6.2,1.1,8-.5,7.1-6.3,1-31.3.9-31.5l.8-.2c0,.1,1.6,6.5,2.2,13.6.9,9.6-.3,15.9-3.4,18.7-1.3,1.1-3,1.7-5,1.5h0Z"/>
          <path class="cls-2" d="m163.7,133.3c-.3,0-.5-.2-.6-.5s-2.1-6.9.5-11.1c1-1.7,2.6-2.8,4.7-3.2,2.1-.4,4.1-.1,5.7,1.1,4.1,2.9,5.2,9.5,5.3,9.8.1.4-.2.7-.6.8s-.7-.2-.8-.6c0-.1-1.1-6.4-4.7-8.9-1.3-.9-2.9-1.2-4.6-.9-1.7.4-3,1.2-3.8,2.6-2.2,3.7-.3,9.9-.3,10,.1.4-.1.8-.5.9h-.3Z"/>
          <path class="cls-13" d="m190.3,159.2c.4.9-.3,2-1.6,2.5-1.2.5-2.5.3-2.9-.6-.4-.9.3-2,1.6-2.5s2.6-.2,2.9.6Z"/>
          <path class="cls-43" d="m170.1,162.5c-.3.9-1.6,1.2-2.9.7-1.2-.5-2-1.6-1.6-2.5.3-.9,1.6-1.2,2.9-.7,1.2.5,1.9,1.6,1.6,2.5Z"/>
          <path class="cls-2" d="m168.2,119.6c-.3,0-.6-.3-.6-.6-.1-.4-3.1-15.1,3.2-17.4.1,0,.5,1.3.5,1.3-5,2.6-2.3,15.7-2.3,15.8.1.4-.2.8-.6.8,0,.1-.1.1-.2.1Z"/>
        </g>
        <g>
          <rect class="cls-30" x="208.3" y="157.31" width="1" height="4.7" transform="translate(-14.49 20.98) rotate(-5.56)"/>
          <path class="cls-43" d="m205.3,164.5c-.2,3.1,2.7,5.4,5.6,4.6,1.9-.5,3.3-2.2,3.4-4.1.2-3.1-2.7-5.4-5.6-4.6-1.9.5-3.3,2.2-3.4,4.1Z"/>
          <path class="cls-30" d="m209,163.6c-.2,1.9,1.6,3.3,3.4,2.8,1-.3,1.8-1.2,1.8-2.2.2-1.9-1.6-3.3-3.4-2.8-.9.2-1.7,1.1-1.8,2.2Z"/>
          <path class="cls-2" d="m208,158.3c-.1-1.1-.9-9.5-1.6-26-.6-13.6-7.1-25.3-9.2-28.8l-.8-2c0-.9,10.3,8.7,11.4,30.7.9,16.5,1.6,25.7,1.6,25.8-.3.6-1.4.3-1.4.3Z"/>
        </g>
      </g>
      <g>
        <path class="cls-44" d="m171,104.8s1.7,9.2,2.5,11.5c2.8,7.3,8.3,12.9,15.8,19.3,10.3-10.9,9.9-22.9,9.9-22.9,0,0,.3-5,.3-6.2s.5-11.2.5-11.2l-12.2,3-16.1-8.1-.7,14.6h0Z"/>
        <path class="cls-11" d="m171.2,99.2c9.1,18.6,23.5,16.6,28,13.4l.4-13.3-11.7,1.8-16.2-14.8c.1,1.5.1,6.1-.1,9.5-.1,1.6-.2,2.9-.4,3.4Z"/>
      </g>
      <g>
        <g>
          <path class="cls-44" d="m170.9,83.7l-.4,6.5c-5.6,1.6-9.8-4.2-10.3-8.7-.3-2.3.4-4.2,2.3-4.8,3.9-1.1,6.5,2.8,7.7,5.2.5,1,.7,1.8.7,1.8Z"/>
          <path class="cls-37" d="m163.6,79.5c3.6,1.5,4.2,5.5,4.3,5.7,0,.2-.1.3-.3.4h-.2c-.1,0-.2-.1-.2-.2,0,0-.3-1.5-1.2-3-1.6.3-1.8,2.6-1.8,2.6,0,.2-.2.3-.4.3h-.1c-.1-.1-.1-.3-.1-.4s.3-2.6,2-3.1c-.5-.6-1.2-1.2-2.1-1.6h-.1c-.2,0-.2-.3-.2-.4.1-.3.3-.4.4-.3h0Z"/>
        </g>
        <g>
          <path class="cls-44" d="m205,82.1l-.4,6.5c5.4,2.3,10.2-2.8,11.3-7.2.5-2.2.1-4.2-1.6-5-3.7-1.6-6.8,1.9-8.3,4.1-.7.9-1,1.6-1,1.6Z"/>
          <path class="cls-37" d="m212.8,78.9c-3.7,1-4.9,4.9-5,5.1s0,.3.2.4h.2c.1,0,.2-.1.2-.2,0,0,.5-1.5,1.6-2.8,1.5.5,1.5,2.8,1.5,2.9,0,.2.1.3.3.3h.1c.1,0,.2-.2.2-.3s.1-2.6-1.6-3.4c.6-.6,1.4-1.1,2.3-1.3h.1c.2,0,.3-.2.2-.4,0-.2-.1-.3-.3-.3h0Z"/>
        </g>
        <path class="cls-44" d="m208,70.8c.2,5.7-1.7,20.9-2.2,23.5s-7.8,15-10.1,15.3c-2.3.2-10.4.9-13.3-.7-2.9-1.6-11.8-12.7-12.4-14.9-.6-2.2-2-16.6-2.2-22-.5-16.5,8.1-23.7,19.2-24s20.5,6.3,21,22.8Z"/>
        <path class="cls-3" d="m194.9,80.9c0,1.6.5,2.9,1.2,2.9s1.2-1.3,1.2-2.9-.5-2.9-1.2-2.9c-.6,0-1.2,1.3-1.2,2.9Z"/>
        <path class="cls-3" d="m180,80.9c0,1.6.5,2.9,1.2,2.9s1.2-1.3,1.2-2.9-.5-2.9-1.2-2.9c-.6,0-1.2,1.3-1.2,2.9Z"/>
        <path class="cls-22" d="m202.3,94.7c-1.1.5.7-4.2-13.4-3.9-12.7.3-12.2,3.4-14.8,3.4s-5.1-7.2-5.1-7.2h0c.4,3.4.7,6.2,1,7,.6,2.2,9.6,13.4,12.4,14.9s11,.9,13.3.7c2.3-.2,9.6-12.7,10.1-15.3.2-1.2.7-4.9,1.2-9.2,0,0-3.7,9-4.7,9.6Zm-13,8.1c-5.8,0-11.5-3.1-11.5-6.1s5.6-4.5,11.5-4.5,11.7,1.3,11.7,4.3-5.9,6.3-11.7,6.3Z"/>
        <g>
          <g>
            <g>
              <path class="cls-37" d="m175.1,85.5c0,.3-.9.5-1.9.4s-1.8-.5-1.8-.8.9-.5,1.9-.4c1.1.1,1.8.5,1.8.8Z"/>
              <path class="cls-37" d="m175.3,87.5c-.1-.3-.9-.5-1.9-.3s-1.8.6-1.7.9.9.5,1.9.3c1-.1,1.8-.5,1.7-.9Z"/>
            </g>
            <g>
              <path class="cls-37" d="m201.2,86.8c0-.3.9-.5,1.9-.4s1.8.5,1.8.8-.9.5-1.9.4c-1.1-.1-1.9-.5-1.8-.8Z"/>
              <path class="cls-37" d="m200.9,84.8c.1.3.9.5,1.9.3s1.8-.6,1.7-.9-.9-.5-1.9-.3c-1,.1-1.7.5-1.7.9Z"/>
            </g>
          </g>
          <g>
            <path class="cls-37" d="m188.9,90h0c-.6,0-1.9-.4-2.1-3.6-.4-5.2.4-8.1.4-8.2,0-.2.2-.3.4-.2.2,0,.3.2.2.4,0,0-.8,2.9-.4,7.9.2,2.1.8,2.9,1.3,3,.8.1,2-1.4,2.4-3.7,0-.2.2-.3.4-.3s.3.2.3.4c-.3,2.5-1.6,4.3-2.9,4.3h0Z"/>
            <path class="cls-37" d="m190,98.9c-4.9.1-8-3.5-8.1-3.7-.1-.1-.1-.3,0-.5.1-.1.3-.1.5,0,0,0,3,3.6,7.6,3.5s6.7-3.8,6.7-3.8c.1-.2.3-.2.4-.1.2.1.2.3.1.4,0,.2-2.2,4.1-7.2,4.2Z"/>
            <g>
              <path class="cls-22" d="m199,74.4c-1.1-.4-2.4-.2-3.8.5-.5.3-1.1.1-1.3-.4-.3-.5-.1-1.1.4-1.3,1.9-1,3.7-1.2,5.4-.6,2.6.9,4,4.6,3.5,4.8-.2,0-2.4-2.4-4.2-3Z"/>
              <path class="cls-22" d="m174.2,78.4c-.5-.2.3-4,2.8-5.2,1.6-.8,3.4-.8,5.4-.1.5.2.8.8.6,1.3s-.8.8-1.3.6c-1.5-.5-2.8-.5-3.9,0-1.6.8-3.5,3.4-3.6,3.4Z"/>
            </g>
          </g>
        </g>
      </g>
      <g>
        <g>
          <path class="cls-44" d="m206.2,160.5s7.5-1.7,14.6-.9c3.8,1,8.2,5.4,9,6.1,1.5,1.8,2.8,7.8,2.6,9.4.2,2.2-1,4.2-2.7,2-1.8-3.7-3.6-7.7-3.6-7.7l-4-4.2s3.2,3.1,4,4.2c.8,1.2,2.4,11.3,1.7,12.6s-3.1.2-3.4-2.2c0,0,.1,2.4-.6,3-.7.6-1.5.2-2.3-2.9,0,0-.6,1.9-1.5,2-1.9-.1-2.6-6.9-2.9-7.3-.4-.4-6.4,2.5-9.8-5-4.1-6.5-1.1-9.1-1.1-9.1h0Z"/>
          <path class="cls-19" d="m224.4,179.8c0-1.4-.2-2.7-.3-4-.2-1.3-.5-2.6-1-3.8.3,2.6.7,5.2,1.3,7.8Z"/>
          <path class="cls-19" d="m221.5,179.8c0-1.1-.2-2.2-.4-3.3-.3-1-.5-2.1-1.1-3,.5,2.2.8,4.3,1.5,6.3Z"/>
        </g>
        <path class="cls-44" d="m228.4,192.5c-.3,0-.6-.1-.9-.1-9.3-1.1-52.8-12.9-52.8-12.9l-.1-2.7-.3-5.8,6.4-1.8s15-.1,36.4,2.4c1.5,0,3,.1,4.4.2,9.7.9,17,4.1,20.3,7.8,1.2,1.3,1.9,2.6,2,3.9.7,5.5-6.6,9.7-15.4,9h0Z"/>
        <path class="cls-44" d="m228.4,192.5c-.3,0-.6-.1-.9-.1-9.3-1.1-52.8-12.9-52.8-12.9l-.1-2.7-.3-5.8,6.4-1.8s15.1-1.7,36.5.8c18.1,1.9,21.3,6,24.6,9.7,1.2,1.3,1.9,2.6,2,3.9.7,5.4-6.6,9.6-15.4,8.9h0Z"/>
        <path class="cls-33" d="m227.5,171.6s-6.2-1.7-14.6-1.4c0,0,13.4,1.3,20.6,4.8,0-.1-3.2-2.5-6-3.4h0Z"/>
        <path class="cls-32" d="m228.4,192.5c-.3,0-.6-.1-.9-.1-9.3-1.1-52.8-12.9-52.8-12.9l-.1-2.7c7.5,2.5,14.9,5.1,22.6,6.8,11.8,2.6,23.7,5.4,35.6,3.3.2,0,.4-.1.6-.1,9.4-2.1,9.7-9,10-9.9l.3.3c.1,2,.2,4.2.3,6.5.5,5.3-6.8,9.5-15.6,8.8h0Z"/>
        <path class="cls-44" d="m136.4,144.8c5.4,23.1,9,31.2,22.1,51.7,4.4,1.3,11.6-2.3,14-11-3.2-10.9-6.4-25.4-11.1-38.1-9.1-20.1-15.1-26.4-18.7-24.5-3.8,2-8.1,8.7-6.3,21.9Z"/>
        <path class="cls-15" d="m142.8,178c3-1.2,29.8-18.9,29.7-19.2-9.1-20.1-26.1-43.3-29.3-40.6-5.9,5-8.6,13.4-6.8,26.5,1,4.7,5.4,29.8,6.4,33.3Z"/>
        <g>
          <path class="cls-44" d="m183.6,176.3s-4.8-12-6.5-14.2c-2.8-3.3-9.5-6-10.5-6.5-2.3-.7-7.9.1-9.1,1-2.1.7-3.9,2.6-1,3.4,4.3.3,9.1,0,9.1,0l5.7,3.1s-4.4-1.9-5.8-2.2c-1.5-.3-11.5,2.3-12.4,3.5-.8,1.2,1.3,3.1,3.7,2.4,0,0-2.2.9-2.4,1.8-.2.9.6,1.6,3.8,1,0,0-1.5,1.4-1.1,2.3,1.1,1.8,7.6-.3,8.2-.1s.8,7.3,9.4,7.5c7.8,1.4,8.9-3,8.9-3Z"/>
          <path class="cls-33" d="m166.9,170.2c-.5.1-5.5,2.4-9.8,1.9,1.1,1.8,7.6-.3,8.2-.1s.8,7.3,9.4,7.5c3,.5,8.9-4.2,10.3-4.8-12.2,1.3-14.8,3.8-18.1-4.5h0Z"/>
          <path class="cls-33" d="m156.8,166.9c1.2-.6,2.5-1,3.9-1.3,1.3-.3,2.6-.6,4-.5-2.7.6-5.2,1.4-7.9,1.8Z"/>
          <path class="cls-33" d="m158.2,169.7c1-.5,2.1-.7,3.2-1,1.1-.2,2.2-.4,3.3-.2-2.2.6-4.3,1-6.5,1.2Z"/>
        </g>
        <path class="cls-44" d="m214,160.1l-7.9.4s-11.2,4.5-29,13.6c-13.2,5.1-20.7,14.1-19.8,19.7,1,5.6,8.9,7.2,16.7,3.3,7.7-4,41.6-29.8,41.6-29.8l-1.6-7.2Z"/>
        <path class="cls-32" d="m174,197.1c.2-.1.4-.2.6-.3,10.6-6.7,37.5-26.2,37.5-26.2,0,0-2,1.4-5.3,3.5h0c-1.1.7-2.2,1.4-3.5,2.2-.1.1-.2.1-.3.2-.6.4-1.3.8-2,1.2h-.1c-.6.4-1.3.8-2,1.2-.2.1-.3.2-.5.3-1.4.9-2.9,1.7-4.4,2.7-.2.1-.4.2-.6.4-.7.4-1.4.8-2,1.2-.1.1-.2.1-.3.2-.8.4-1.6.9-2.4,1.3-.2.1-.4.2-.6.4-.7.4-1.3.7-2,1.1-.2.1-.4.2-.5.3-.8.4-1.6.9-2.4,1.3-.2.1-.4.2-.6.3-.7.4-1.3.7-2,1.1-.2.1-.4.2-.6.3-.8.4-1.6.8-2.4,1.2-.2.1-.3.2-.5.2-.7.3-1.3.7-2,1-.2.1-.4.2-.6.3-.8.4-1.6.8-2.4,1.1-.1,0-.2.1-.3.1-.7.3-1.4.6-2,.9-.2.1-.4.2-.6.3-3.6,1.3-4.9-.1-5.3-.4,0,0-.1,0-.1-.1-.2-.1-.3-.3-.5-.4l-.1-.1c-.1-.1-.3-.3-.5-.4l-.1-.1-.5-.5-.1-.1c-1-1-2-2.2-3-3.5h0c-.2-.3-.4-.5-.6-.8h0c-2.2-3-6.1-11.3-6.1-11.3,0,0,.1-2.2,4.1-7.5l-9.7,6.2c2.8,5.9,6.2,11.7,11.3,19.6h0c.1.1.2.3.2.4.1.2.2.4.4.5h0c.1.1.1.2.2.2h0c.1.1.3.3.4.4h0c.1.1.2.2.3.3h0c.1.1.3.2.4.3h0c.1.1.2.2.4.2h0c.2.1.4.2.7.4.1,0,.1.1.2.1h0c.2.1.4.2.7.3h0c.1,0,.2.1.3.1.8.2,1.6.4,2.5.5h2.3c.4,0,.8-.1,1.2-.2h0c.1,0,.2,0,.3-.1h0c.3-.1.7-.1,1-.2h0c.1,0,.3-.1.4-.1.3-.1.6-.2,1-.3h0c.1,0,.2-.1.3-.1.4-.1.7-.3,1.1-.4h0c.1-.1.3-.1.4-.2h0c.4-.1.9-.3,1.3-.5h0Z"/>
      </g>
    </g>
    <g>
      <g>
        <path class="cls-44" d="m353.3,176.6s-13.9,44.1-14.6,96.9c0,0,5.1,2.3,10.7-.1,0,0,6.1-48.4,18.7-74.9,2.9-5.7,2.3-13.3.9-17.6-13.1-21.1-15.7-4.3-15.7-4.3h0Z"/>
        <g>
          <path class="cls-45" d="m342.1,282.7s2.9,5.8,3.4,6.3c.5.6,4.3,2.1,4.6,3.1.3,1-.9,2-3.7,1-2.8-1.1-3.6-1.4-4.1-2s-3.7-6.6-3.7-6.6l3.5-1.8Z"/>
          <path class="cls-28" d="m341.1,284.1s2.4,7.1,2.9,7.8c.5.7,4.7,3,4.9,4.2.2,1.1-1.4,2.3-4.5.6-3.1-1.6-3.9-2.1-4.4-2.8-.5-.7-3.2-8.1-3.2-8.1l4.3-1.7Z"/>
          <path class="cls-44" d="m338.7,273.2s-3,8.2-3.4,10.6c-.5,2.5,4.2,12.1,4.8,14.9,1,2.9,3.7,2.4,3.1-1.6-.5-4.3-2.3-11.4-2.4-12.1-.1-.6,3.5-4,4-4.2s2.7,3,2.8,3.6-1.4,4.6,1.2,6.6c2.7,2,4.1-6.6,3.8-8.3-.3-1.7-.8-7.4-4.2-10.6l-8.2-.2-1.5,1.3h0Z"/>
        </g>
      </g>
      <g>
        <path class="cls-15" d="m364.2,154.9s-4.8,3-5.8,4.7c-5.8,7.3-16.6,41.9-16.6,41.9l18.6,7.4,6.4-27.1-2.6-26.9h0Z"/>
        <path class="cls-36" d="m351.2,205.4s-3.4-13.9-.7-20.6c2.6-6.7,9.8-22.8,9.8-22.8,0,0-9.8,14.4-13.2,27.4-1.2,4.5,1.6,15.1,1.6,15.1l2.5.9h0Z"/>
      </g>
      <g>
        <path class="cls-44" d="m389,146.5c23.2,6.1,29.6,13.4,29.6,13.4l-15.6,43.2s-3.2,16.7,1.3,24.6c15.8,13.2,3.5,35,3.5,35-10.6,7.5-33.7-2.9-33.7-2.9,0,0-11.2-3.1-19.3-13.2,0,0,4.3-16.7,1.6-28.2-5.5-16.2-6.5-30-2.7-41.9,4.4-8.3,14-29.3,35.3-30h0Z"/>
        <polygon class="cls-44" points="399.1 130.6 400.7 151.8 375.7 153.7 376.1 145.2 376.5 138.2 376.7 137.8 382.2 128.9 399.1 130.6"/>
        <g>
          <g>
            <path class="cls-44" d="m401.9,120.1s3-8.6,8.6-6.9.4,15.9-8.1,13.4l-.5-6.5Z"/>
            <path class="cls-6" d="m409,117.1c-3.9.2-5.9,3.8-5.9,4-.1.2,0,.4.1.4h.2c.1,0,.2-.1.3-.2,0,0,.8-1.4,2.2-2.4,1.4.8.9,3.1.9,3.1,0,.2.1.3.2.4h.1c.1,0,.3-.1.3-.2s.6-2.5-.9-3.7c.7-.4,1.6-.8,2.6-.8h.1c.2,0,.3-.2.3-.3-.2-.1-.3-.3-.5-.3h0Z"/>
          </g>
          <path class="cls-33" d="m399.9,138.3c-.2.4-9.5,21-23.8,9.7l.4-8.7.2.5c-.1-.1,11.9,4.1,23.2-1.5h0Z"/>
          <path class="cls-44" d="m403.8,116c1,15.2-8.6,28-16.8,28.8-8.1.4-19.4-11.1-20.4-26.3s6.5-28.1,16.8-28.8c10.2-.7,19.4,11.1,20.4,26.3Z"/>
          <g>
            <g>
              <g>
                <path class="cls-6" d="m373.5,124.8c0,.3-.8.5-1.8.4-.9-.1-1.7-.4-1.7-.7s.8-.5,1.8-.4,1.7.4,1.7.7Z"/>
                <path class="cls-6" d="m373.8,126.6c-.1-.3-.9-.4-1.8-.2s-1.6.6-1.6.9c.1.3.9.4,1.8.2,1-.1,1.7-.6,1.6-.9Z"/>
              </g>
              <g>
                <path class="cls-6" d="m397.6,125.1c0-.3.8-.5,1.8-.4.9.1,1.7.4,1.7.7s-.8.5-1.8.4c-.9-.1-1.7-.4-1.7-.7Z"/>
                <path class="cls-6" d="m397.4,123.2c.1.3.9.4,1.8.2.9-.2,1.6-.6,1.6-.9-.1-.3-.9-.4-1.8-.2-1,.2-1.7.6-1.6.9Z"/>
              </g>
            </g>
            <path class="cls-3" d="m377.9,120.6c-.2-2.5-.8-4.4-1.5-4.4l-3.1.3s.5.9,2.4,1c-.2.8-.2,2-.1,3.2.2,2.5.8,4.4,1.5,4.4.6,0,.9-2.1.8-4.5h0Z"/>
            <path class="cls-3" d="m393,119.3c-.1-1.3-.3-2.4-.6-3.2,1.8-.3,2.3-1.3,2.3-1.3l-3.1.1c-.6,0-1,2.1-.9,4.5.2,2.5.8,4.4,1.5,4.4.6,0,1-2,.8-4.5h0Z"/>
            <g>
              <path class="cls-6" d="m385.5,129.1h-.1c-.5,0-1.7-.3-2-3.3-.5-4.8.1-7.5.1-7.6,0-.2.2-.3.4-.2.2,0,.3.2.2.4,0,0-.6,2.7-.1,7.4.2,2,.8,2.7,1.3,2.7.7,0,1.8-1.3,2.1-3.5,0-.2.2-.3.4-.3s.3.2.3.4c-.3,2.3-1.4,3.9-2.6,4h0Z"/>
              <path class="cls-6" d="m386.1,133.9c-4.1.3-6.8-2.7-6.9-2.9-.1-.1-.1-.3,0-.4.1-.1.3-.1.4,0,0,0,2.6,2.9,6.5,2.7,3.8-.3,5.5-3.4,5.5-3.4.1-.1.2-.2.4-.1.1.1.2.2.1.4-.1.1-1.8,3.4-6,3.7Z"/>
              <path class="cls-35" d="m394,111.2c-1.1-.4-2.4-.3-3.8.3-.5.2-1.1,0-1.3-.5-.2-.5,0-1.1.5-1.3,1.9-.8,3.7-.9,5.3-.3,2.5,1,3.6,4.7,3.1,4.9-.1.1-2.1-2.4-3.8-3.1h0Z"/>
              <path class="cls-35" d="m374.3,112.5c1.1-.5,2.3-.4,3.8.1.5.2,1.1-.1,1.3-.6.2-.5-.1-1.1-.6-1.3-1.9-.8-3.7-.8-5.3-.1-2.5,1.1-3.4,4.8-2.9,5,.1.2,2-2.3,3.7-3.1Z"/>
            </g>
          </g>
        </g>
        <g>
          <path class="cls-44" d="m386.1,403.7l-.5-51.9c-2-2.4-3.5-5.1-4.1-8.2-1.7-8.6-3.6-17.5-3-26.3.3-5.1,2-9.7,4.8-13.4-1.1-5.5-2.3-11-3.4-16.5-1.6-8.1-2.4-16.3-4.5-24.3-.7-2.8-.9-5.5-.6-8.2l-5.4,13.6-.2,2.7-5.5,78.9,7.9,70.2,1.6,14.4c5.8.6,7.3-.2,13.2,0l-.1-14.5-.2-16.5h0Z"/>
          <path class="cls-12" d="m381.7,344.3l-1.6,4.2,6,55.2-.5-51.9c-1.9-2.2-3.3-4.7-3.9-7.5h0Z"/>
          <g>
            <path class="cls-26" d="m343.2,444.2h46.4l-2.8-14.9s-5.2,5.6-9.1,3.8c-4-1.4-6-5.4-6-5.4,0,0-7.6,3.4-15.2,6.4h0c-7,2.8-14.7,5.4-13.3,10.1h0Z"/>
            <path class="cls-38" d="m343.2,444.2h17.1l.8-.6s-1-5.7-4.6-9.5h0c-7,2.8-14.7,5.4-13.3,10.1h0Z"/>
            <rect class="cls-26" x="343.1" y="443.6" width="46.6" height="4.2"/>
          </g>
        </g>
        <g>
          <path class="cls-44" d="m421,409.2l-.5-51.9c-2-2.4-3.5-5.1-4.1-8.2-1.7-8.6-3.6-17.5-3-26.3.3-5.1,2-9.7,4.8-13.4-1.1-5.5-2.3-11-3.4-16.5-1.6-8.1-2.4-16.3-4.5-24.3-.7-2.8-.9-5.5-.6-8.2l-5.4,13.6-.2,2.7-5.5,78.9,7.9,70.2,1.6,14.4c5.8.6,7.3-.2,13.2,0l-.1-14.5-.2-16.5h0Z"/>
          <path class="cls-26" d="m429.3,451.1c-.6-3.9-3.4-11.2-7.9-16,0,0-2.8,4.7-8.1,4.1-1.6-.2-5.7-3.6-5.7-3.6,0,0-6.8,13.3-7.3,16.5"/>
          <path class="cls-38" d="m400.4,452s1.6-7.5,13.9-8.4,15,7.5,15,7.5l-13.7,8.8-15.2-7.9h0Z"/>
          <path class="cls-26" d="m400.3,452.4v5.6s19.9,7.9,29.3-2c0,0,.1-2-.3-5-13.2,8.3-28.1,1.3-28.9.9,0,.3-.1.4-.1.5Z"/>
          <path class="cls-12" d="m416.6,344.3l-1.6,4.2,6,55.2-.5-51.9c-1.9-2.2-3.3-4.7-3.9-7.5h0Z"/>
        </g>
        <polygon class="cls-39" points="423.5 427.8 402.3 428.9 386.1 308.9 388.1 426 364.9 424.9 355.3 248 418 258.8 419.3 297.9 423.5 427.8"/>
        <path class="cls-27" d="m418,427.6h0c0-32.2-6.3-114.4-12.9-114.6-39.3-1.2-45.7-6.3-45.7-6.3l59.9-8.8.4-.1,3.8,129.9-5.5-.1h0Z"/>
        <path class="cls-15" d="m355.6,306.2c.4.1,3.1.4,3.9.6.7.1,1.4.2,1.7.2,1.7.2,3.4.3,5.2.5,12.8,1,25.8.9,38.6-.2,3.1-.3,6.3-.4,9.4-1h-.2c.6-.1,1.1-.2,1.4-.2,1.7-.3,3.4-.5,5.1-.8.5-.1,1-.2,1.5-.3-.6-9.2-1-18-1.1-24.5-.3-22.4-7.3-32.3-7.3-32.3,0,0-4.1-.6-10.1-1.3-.9-.1-1.9-.2-2.9-.3-16.3-1.8-42.5-3.6-45.8,2.8-.1.1-.1.2-.2.4-1.2,3.3-1.9,30.5-2.3,56.2,1-.2,2,0,3.1.2h0Z"/>
        <g>
          <rect class="cls-39" x="385.1" y="260.6" width="26.5" height="27.5"/>
          <g>
            <g>
              <path class="cls-10" d="m397.1,302.8c.1,0,6.9-.2,8.8-6.8,1.8-6.3,3.1-21.8,3.1-22.4l-1-.1c0,.2-1.3,16-3.1,22.2-1.7,5.9-7.8,6.1-7.9,6.1l.1,1h0Z"/>
              <path class="cls-24" d="m393.2,302.3c0,.6,1,1.1,2.2,1.1s2.2-.5,2.2-1.1-1-1.1-2.2-1.1c-1.2-.1-2.2.4-2.2,1.1Z"/>
            </g>
            <g>
              <path class="cls-10" d="m403.5,302.8c-.1,0-6.9-.2-8.8-6.8-1.8-6.3-3.1-21.8-3.1-22.4l1-.1c0,.2,1.3,16,3.1,22.2,1.7,5.9,7.8,6.1,7.9,6.1l-.1,1h0Z"/>
              <path class="cls-24" d="m407.4,302.3c0,.6-1,1.1-2.2,1.1s-2.2-.5-2.2-1.1,1-1.1,2.2-1.1,2.2.4,2.2,1.1Z"/>
            </g>
            <path class="cls-3" d="m399.3,262.9v-3.7s.1-.8,1-.8,1,.8,1,.8v3.7c4.6.8,8.2,6.6,8.2,13.7h-2.1c0-6.3-3.3-11.7-7.2-11.7s-7.2,5.4-7.2,11.7h-2.1c.2-7.1,3.8-12.9,8.4-13.7h0Z"/>
          </g>
        </g>
        <path class="cls-15" d="m413.7,248c.6,6.4,1,10.3,1,10.3,0,0-2.7-.1-7-.4-2.9-.2-6.5-.4-10.4-.6-17.7-1.2-42.5-3.5-42.3-6.9v-1.3c.3-10.9-.7-30.9-1.7-35.5-1.6-7.6-3.9-16-3.5-26.1,0-6.7,14.1-31.9,14.5-32.4h0l5.2-2.6c2.1-1,3.8-1.7,3.9-1.7-.2.2-2.7,15-.8,15.7,4.9,1.6,28.2-16.7,28.2-16.7,0,0,2.8.8,6.4,2.3,3.8,1.5,8.5,3.8,11.6,6.4h0c1.6,1.4,2.9,2.9,3.3,4.5,2.2,3.7-5,11.4-8.6,22.7-1,3-1.6,6.1-2,9.4-.3,2.4-.5,4.9-.6,7.4v.1c-.1,3.2-.1,6.5,0,10,.9,14.4,2,27.1,2.8,35.4h0Z"/>
        <path class="cls-36" d="m403.2,242.6c-.3,1-.1,2.4.4,4,1.1,3.7,3.5,8.4,4,11.2,0,.1,0,.3.1.4,2.9,20.3,1,36.3-3.7,49,.3,0,.5,0,.8-.1,3.1-.3,6.3-.4,9.4-1h-.2c.6-.1,1.1-.2,1.4-.2,1.7-.3,3.4-.5,5.1-.8.5-.1,1-.2,1.5-.3-.6-9.2-1-18-1.1-24.5-.3-22.4-7.3-32.3-7.3-32.3-.8-8.3-1.9-21-2.8-35.3,0-3.5-.1-6.8,0-10v-.1c.1-2.6.3-5,.6-7.4l-12.8-20.2s12.3,39.7,4.6,67.6Z"/>
      </g>
      <path class="cls-44" d="m423.2,163.2s12.7,25.3,21.9,63.3c-4.2,1.6-8.4,1.9-12.9,2.3-1.8.2-3.2.7-4.3,1.4-3.8-10.4-8.2-20.6-13.3-28.9-18.4-29.7,8.6-38.1,8.6-38.1h0Z"/>
      <g>
        <rect class="cls-31" x="362.23" y="206.51" width="42.3" height="54.3" transform="translate(-56.42 323.94) rotate(-42.96)"/>
        <g>
          <polygon class="cls-26" points="404.1 237.1 408.1 241.9 386.3 262.4 352.9 227.9 379.6 202.9 408.2 234.3 404.1 237.1"/>
          <path class="cls-25" d="m381.4,209.3l-21.6,20.3c-.1.1-.4.1-.5,0l-.2-.2c-.1-.1-.1-.4,0-.5l21.6-20.3c.1-.1.4-.1.5,0l.2.2c.2.1.2.3,0,.5Z"/>
          <g>
            <path class="cls-20" d="m383.2,211.4l-15,14.1c-.1.1-.2.1-.3,0l-.1-.1c-.1-.1-.1-.2,0-.3l15-14.1c.1-.1.2-.1.3,0l.1.1c.1,0,.1.2,0,.3Z"/>
            <path class="cls-20" d="m384.4,212.7l-15,14c-.1.1-.3.1-.4,0l-.1-.1c-.1-.1-.1-.3,0-.4l15-14c.1-.1.3-.1.4,0l.1.1c.1.2.1.3,0,.4Z"/>
            <path class="cls-20" d="m385.7,214l-15,14.1c-.1.1-.2.1-.3,0l-.1-.1c-.1-.1-.1-.2,0-.3l15-14.1c.1-.1.2-.1.3,0l.1.1c.1.1,0,.2,0,.3Z"/>
            <path class="cls-20" d="m379.3,222.5l-7.4,7c-.1.1-.2.1-.3,0l-.1-.1c-.1-.1-.1-.2,0-.3l7.4-7c.1-.1.2-.1.3,0l.1.1c.1,0,.1.2,0,.3Z"/>
            <path class="cls-20" d="m369.8,231.9l-4.2,3.9c-.1.1-.4.1-.5,0l-4.1-4.4c-.1-.1-.1-.4,0-.5l4.2-3.9c.1-.1.4-.1.5,0l.6.7c.1.1.1.4,0,.5s-.4.1-.5,0l-.4-.4-3.7,3.5,3.7,3.9,3.7-3.5-1.6-1.7c-.1-.1-.1-.4,0-.5s.4-.1.5,0l1.9,2c.1,0,.1.2-.1.4Z"/>
            <path class="cls-16" d="m366.7,233h0c-.1.1-.2.1-.3.1l-2.4-.4c-.2,0-.3-.2-.3-.4s.2-.3.4-.3l2,.3.5-4.9c0-.2.2-.3.4-.3s.3.2.3.4l-.5,5.3c0,.1,0,.2-.1.2h0Z"/>
          </g>
          <g>
            <path class="cls-20" d="m389.5,218.1l-15,14.1c-.1.1-.2.1-.3,0l-.1-.1c-.1-.1-.1-.2,0-.3l15-14.1c.1-.1.2-.1.3,0l.1.1c.1.1.1.2,0,.3Z"/>
            <path class="cls-20" d="m390.7,219.4l-15,14.1c-.1.1-.2.1-.3,0l-.1-.1c-.1-.1-.1-.2,0-.3l15-14.1c.1-.1.2-.1.3,0l.1.1c.1.1.1.2,0,.3Z"/>
            <path class="cls-20" d="m392,220.7l-15,14.1c-.1.1-.2.1-.3,0l-.1-.1c-.1-.1-.1-.2,0-.3l15-14.1c.1-.1.2-.1.3,0l.1.1c.1.1.1.2,0,.3Z"/>
            <path class="cls-20" d="m385.6,229.2l-7.4,7c-.1.1-.2.1-.3,0l-.1-.1c-.1-.1-.1-.2,0-.3l7.4-7c.1-.1.2-.1.3,0l.1.1c.1.1.1.2,0,.3Z"/>
            <path class="cls-20" d="m376.1,238.6l-4.2,3.9c-.1.1-.4.1-.5,0l-4.1-4.4c-.1-.1-.1-.4,0-.5l4.2-3.9c.1-.1.4-.1.5,0l.6.7c.1.1.1.4,0,.5s-.4.1-.5,0l-.4-.4-3.7,3.5,3.7,3.9,3.7-3.5-1.6-1.7c-.1-.1-.1-.4,0-.5s.4-.1.5,0l1.9,2c.1,0,.1.3-.1.4Z"/>
            <path class="cls-16" d="m373.1,239.7s-.1.1,0,0c-.1.1-.2.1-.3.1l-2.4-.4c-.2,0-.3-.2-.3-.4s.2-.3.4-.3l2,.3.5-4.9c0-.2.2-.3.4-.3s.3.2.3.4l-.5,5.3c0,.1-.1.2-.1.2h0Z"/>
          </g>
          <g>
            <path class="cls-20" d="m395.8,224.8l-15,14.1c-.1.1-.2.1-.3,0l-.1-.1c-.1-.1-.1-.2,0-.3l15-14.1c.1-.1.2-.1.3,0l.1.1c.1.1.1.2,0,.3Z"/>
            <path class="cls-20" d="m397.1,226.1l-15,14.1c-.1.1-.2.1-.3,0l-.1-.1c-.1-.1-.1-.2,0-.3l15-14.1c.1-.1.2-.1.3,0l.1.1v.3Z"/>
            <path class="cls-20" d="m398.3,227.5l-15,14.1c-.1.1-.2.1-.3,0l-.1-.1c-.1-.1-.1-.2,0-.3l15-14.1c.1-.1.2-.1.3,0l.1.1c.1,0,.1.2,0,.3Z"/>
            <path class="cls-20" d="m391.9,235.9l-7.4,7c-.1.1-.2.1-.3,0l-.1-.1c-.1-.1-.1-.2,0-.3l7.4-7c.1-.1.2-.1.3,0l.1.1c.1.1.1.2,0,.3Z"/>
            <path class="cls-20" d="m382.4,245.3l-4.2,3.9c-.1.1-.4.1-.5,0l-4.1-4.4c-.1-.1-.1-.4,0-.5l4.2-3.9c.1-.1.4-.1.5,0l.6.7c.1.1.1.4,0,.5s-.4.1-.5,0l-.4-.4-3.7,3.5,3.7,3.9,3.7-3.5-1.6-1.7c-.1-.1-.1-.4,0-.5s.4-.1.5,0l1.9,2c.1.1.1.3-.1.4Z"/>
            <path class="cls-16" d="m379.4,246.5h0c-.1.1-.2.1-.3.1l-2.4-.4c-.2,0-.3-.2-.3-.4s.2-.3.4-.3l2,.3.5-4.9c0-.2.2-.3.4-.3s.3.2.3.4l-.5,5.3s-.1.1-.1.2h0Z"/>
          </g>
          <g>
            <path class="cls-20" d="m402.1,231.6l-15,14c-.1.1-.3.1-.4,0l-.1-.1c-.1-.1-.1-.3,0-.4l15-14c.1-.1.3-.1.4,0l.1.1c.1.1.1.3,0,.4Z"/>
            <path class="cls-20" d="m403.4,232.9l-15,14.1c-.1.1-.2.1-.3,0l-.1-.1c-.1-.1-.1-.2,0-.3l15-14.1c.1-.1.2-.1.3,0l.1.1c.1,0,.1.2,0,.3Z"/>
            <path class="cls-20" d="m404.6,234.2l-15,14.1c-.1.1-.2.1-.3,0l-.1-.1c-.1-.1-.1-.2,0-.3l15-14.1c.1-.1.2-.1.3,0l.1.1c.1.1.1.2,0,.3Z"/>
            <path class="cls-20" d="m398.3,242.6l-7.4,7c-.1.1-.2.1-.3,0l-.1-.1c-.1-.1-.1-.2,0-.3l7.4-7c.1-.1.2-.1.3,0l.1.1v.3Z"/>
            <path class="cls-20" d="m388.8,252l-4.2,3.9c-.1.1-.4.1-.5,0l-4.1-4.4c-.1-.1-.1-.4,0-.5l4.2-3.9c.1-.1.4-.1.5,0l.6.7c.1.1.1.4,0,.5s-.4.1-.5,0l-.4-.4-3.7,3.5,3.7,3.9,3.7-3.5-1.6-1.7c-.1-.1-.1-.4,0-.5s.4-.1.5,0l1.9,2c0,.1,0,.3-.1.4h0Z"/>
            <path class="cls-16" d="m385.7,253.2h0c-.1.1-.2.1-.3.1l-2.4-.4c-.2,0-.3-.2-.3-.4s.2-.3.4-.3l2,.3.5-4.9c0-.2.2-.3.4-.3s.3.2.3.4l-.5,5.3s0,.1-.1.2h0Z"/>
          </g>
          <polygon class="cls-43" points="408.1 241.9 408.2 234.3 404.1 237.1 408.1 241.9"/>
        </g>
        <path class="cls-17" d="m370.7,207.8l2.7,2.9-12.1,11.3-2.7-2.9c-.8-.8-.7-2.1.1-2.9l4-3.7c.3.1.6.1.9-.2.2-.2.3-.6.2-.9l4-3.7c.8-.8,2.1-.8,2.9.1h0Z"/>
        <path class="cls-17" d="m361.7,210.3c-.7.7-.8,1.8-.1,2.5l2,2.1c.7.7,1.8.8,2.5.1s.8-1.8.1-2.5l-2-2.1c-.6-.8-1.8-.8-2.5-.1Zm1.9,2c-.3.2-.6.3-.9.2-.1,0-.2-.1-.3-.2-.3-.3-.3-.9,0-1.2s.9-.3,1.2,0c.1.1.1.2.2.3.1.3,0,.6-.2.9h0Z"/>
        <rect class="cls-18" x="358.28" y="214.43" width="16.5" height="2.2" transform="translate(-48.58 307.6) rotate(-42.96)"/>
      </g>
      <path class="cls-44" d="m383.1,247.7s-2.2-3.8-.6-9.9c0,0,10.9-3.6,25-8.9,5.9-2.2,12.2-4.7,18.6-7.3.9-.4,1.7-.7,2.6-1.1,5.1-2.1,12.9-2.4,14.7,1.5.7,1.6,4,6,.5,11.6-4.8,7.2-37.9,10.7-60.8,14.1h0Z"/>
      <path class="cls-44" d="m357.7,242.6c1.2-1.5,14.9-6.7,14.9-6.7-2.9-1.6-6.1-4.2-4.3-5.6,1.7-1.2,14.3,5.9,15.9,6.9.1.5-.4,1-.3,1.5,0,2.7.1,8.1.1,8.1-5.8,4-8.3,5.8-13.7,5.2-2.8.1-8.4-6.2-8.4-6.2-2.8.9-5.4-1.7-4.2-3.2Z"/>
      <path class="cls-15" d="m413,163.2l5.2-5.1,5.6,4.2s11.7,24.9,17.9,43.6l-23.3,10.8-11.4-21.3c.1,0-6.7-18.8,6-32.2h0Z"/>
      <path class="cls-39" d="m370.2,169.8c4.9,4,36.9-17.8,36.9-17.8-3.6-1.4-6.4-2.3-6.4-2.3,0,0-23.3,18.3-28.2,16.7-1.9-.7.6-15.5.8-15.7-.1,0-1.7.7-3.9,1.7-1.1,7.6-1.6,15.5.8,17.4h0Z"/>
      <g>
        <path class="cls-23" d="m358.6,124s-3.3,4.9-1.9,7.5c1.4,2.7,2.5.8,2.5,4.5s3.5,2.4,4.3,1.2c3.2-2.6,3.8,4.6,9.7,1.1,4.3-2-4.8-18.8-4.8-18.8l-7.7-1.2-2.1,5.7Z"/>
        <path class="cls-23" d="m416.2,121.9s1.8,3.7.5,7.3c-1.4,3.6-4.1,1.3-4.5,2-.4.8-.4,3.8-2.8,4.3-2.3.5-2.5-1.8-4-.7-.6.5-1.5,3.6-4.3,3.3-4.6-.2-5.5-5.3-3.4-10.5s10.1-14,10.4-14.2c.3-.1,7.6,2.1,7.6,2.1l.5,6.4h0Z"/>
        <g>
          <ellipse class="cls-44" cx="386" cy="121.1" rx="18.3" ry="27.2"/>
          <g>
            <path class="cls-23" d="m395.8,117.3c-1-.5-2.3-.5-3.7,0-.5.2-1-.1-1.2-.6s.1-1,.6-1.2c1.9-.7,3.7-.7,5.2,0,2.4,1.1,3.2,4.8,2.7,5-.1.1-1.9-2.5-3.6-3.2Z"/>
            <path class="cls-23" d="m371.5,120.8c-.1,0,0-3.9,2.4-5.1,1.5-.8,3.3-.8,5.2-.1.5.2.8.7.6,1.2-.2.5-.7.8-1.2.6-1.4-.5-2.7-.5-3.7,0-1.8.9-2.9,3.4-3.3,3.4Z"/>
          </g>
          <g>
            <g>
              <g>
                <path class="cls-37" d="m374.2,127.7c0,.3-.8.4-1.8.3-.9-.1-1.6-.5-1.6-.8s.8-.4,1.8-.3c.9.2,1.6.5,1.6.8Z"/>
                <path class="cls-37" d="m374.3,129.5c0-.3-.8-.4-1.8-.3-.9.1-1.6.5-1.6.8s.8.4,1.8.3c1-.1,1.7-.5,1.6-.8Z"/>
              </g>
              <g>
                <path class="cls-37" d="m397.8,129.5c0-.3.8-.4,1.8-.3.9.1,1.6.5,1.6.8s-.8.4-1.8.3c-.9-.1-1.6-.5-1.6-.8Z"/>
                <path class="cls-37" d="m397.7,127.7c0,.3.8.4,1.8.3.9-.1,1.6-.5,1.6-.8s-.8-.4-1.8-.3c-.9.2-1.7.5-1.6.8Z"/>
              </g>
            </g>
            <path class="cls-37" d="m386.2,132h-.1c-.5,0-1.6-.5-1.7-3.3-.2-4.7.6-7.3.6-7.4,0-.2.2-.3.4-.2.2.1.3.2.2.4,0,0-.8,2.6-.6,7.2.1,1.9.6,2.7,1.1,2.7.7.1,1.8-1.2,2.3-3.3,0-.2.2-.3.4-.2.2,0,.3.2.2.4-.4,2.1-1.6,3.7-2.8,3.7h0Z"/>
          </g>
        </g>
        <g>
          <path class="cls-3" d="m416.5,110.4c.2-1.7,2.2-4.4.8-7.2-1.4-2.8-4-2-4.3-4.3s-1.1-5.9-4.9-5.5c-3.7.3-1.8-1.9-4-5.3-2.2-3.5-5.6-.3-6.7-.8s-1.3-6.5-6.9-7.7c-5.6-1.3-7.3,5.2-7.9,5.3-.6.1-1.7-1.8-3.7-1.3s-1.1,2.8-2.5,2.7c-1.4-.1-4.9-.8-6.9,0-2.1.8-2.7,4.9-2.7,4.9,0,0-3.3-1.4-5.2,0-2,1.4-1.4,4-2,6s-3.2,1.4-6.2,4.6-.5,9.7-1.8,10.5c-1.3.7-2.9,2.9-2.5,6,.4,3,5.3,3.2,5.2,6.1-.1,2.8-2.2,4.6,1.4,5.6s5.8-6.6,5.8-6.6c1.5,1.2,5,.8,7.8-1.5s.7-7.1.5-8.8c-.3-1.7,1-1.4,3.8-2.3,2.8-.8,3.6-5.2,3.6-5.2,3.3,1.5,4.1-2.3,6-.9-2.1,1.9-1.3,5-1.1,7.1v.3c0,.1-.1.2-.1.4-.3,1.7-2.6,2.5-3.4,1.8-.8-.6-.1-1.8-.1-1.8-1.3.4-1.6,3.2,1.1,3.2h.4c2.8.3,3.4-3.5,4-6.3.3-1.6,1.9-2.7,3.2-3.4.7-.2,1.4-.5,2.1-.8h0c1.7-.9,3-2.1,3-2.1h0s-1.7,5.2,2.3,8.2c4.1,3,2.9,6.3,2.2,6.9-.7.6-2.1.4-2.1.4,0,0,2.1,1.2,3.8-.4,1.7-1.6.9-4.9,0-5.7-.6-.5-.9-1.8-.9-2.9,2.4,1,5.2-1.2,4.5,2.4-.7,3.7.6,6.6,3.7,7.8,3.1,1.3,5.2-3.6,6.3-2.7,1.1.8.8,2.7,2.6,4.3,1.8,1.6,4.9.3,5-2.2.1-2.6-3.4-7.1-3.2-8.8h0Z"/>
          <path class="cls-23" d="m394.5,101.1c1,.4,2.1.7,3.1.6.5,0,1-.1,1.5-.2.3-.1.5-.1.7-.2.3-.1.5-.2.8-.2.6-.1,1.1-.2,1.7-.1.6,0,1.1.1,1.7.3.5.2,1.1.5,1.4,1,.4.5.6,1.1.6,1.7v.5c0,.2,0,.3-.1.4,0,.3-.1.6-.2.8-.1.5-.2,1.1-.2,1.6-.1,1.1-.1,2.2,0,3.3.1,1.1.2,2.2.6,3.2.2.5.5.9.8,1.3.4.3.9.5,1.4.5v.1c-.5.1-1.2.1-1.7-.2-.5-.3-.9-.8-1.2-1.3-.6-1.1-.8-2.2-.9-3.4-.1-1.2,0-2.3.1-3.5.1-.6.2-1.1.4-1.7.1-.3.2-.6.3-.8,0-.1.1-.3.1-.4l.1-.4c.1-.5,0-1.1-.3-1.5s-.8-.7-1.3-.9c-1-.3-2.1,0-3.1.3-.3.1-.5.2-.7.3-.3.1-.5.2-.8.2-.6.1-1.2.2-1.7.1-1.2-.1-2.3-.6-3.1-1.4h0Z"/>
          <path class="cls-23" d="m396.9,95.8c1.1.9,2.6,1,3.8.7.6-.1,1.3-.4,2-.6s1.4-.3,2.1-.4c.7,0,1.5,0,2.2.5.3.2.6.5.8.9,0,.1.1.2.1.3l.1.3c.1.2.1.4.1.6.1.7.1,1.5.3,2.2.1.7.3,1.4.6,2,.2.3.4.5.6.7.3.2.5.4.8.5.1.1.3.1.5.2s.4.1.6.2c.4.2.7.5.9.8.5.7.7,1.5.7,2.3s-.1,1.6-.4,2.3c-.1.4-.3.7-.5,1.1-.1.2-.2.4-.1.6s.3.5.5.8.4.5.7.8c.5.5,1,1.1,1.4,1.7s.8,1.3.7,2.1h-.1c-.1-.7-.6-1.3-1-1.8-.5-.5-1-1-1.5-1.4-.5-.5-1.1-.9-1.5-1.8-.1-.2-.1-.5-.1-.7,0-.3.1-.5.2-.7.1-.3.3-.6.4-.9.2-.6.3-1.3.4-2,0-.7-.1-1.3-.4-1.8-.1-.3-.4-.4-.6-.6-.1-.1-.3-.1-.4-.2-.2-.1-.4-.1-.5-.2-.3-.2-.7-.4-1-.7-.3-.3-.5-.6-.6-1-.3-.7-.4-1.5-.4-2.2-.1-.7-.1-1.5-.2-2.2s-.5-1.3-1.1-1.6c-.6-.2-1.2-.2-1.9-.1-.7.1-1.3.2-2,.4-.7.1-1.3.4-2.1.5-.7.1-1.5.1-2.2-.2-.8-.3-1.5-.7-1.9-1.4h0Z"/>
          <path class="cls-23" d="m392.5,97.3c-.8-.5-1.6-.9-2.5-1.1-.4-.1-.9-.2-1.3-.3-.4,0-.9,0-1.3.1s-.8.3-1.2.5c-.4.2-.8.5-1.1.8-.8.5-1.5,1.1-2.3,1.6s-1.7.9-2.7,1-2-.2-2.8-.6c-.8-.3-1.7-.5-2.7-.5-.9,0-1.8.2-2.6.7-.8.4-1.3,1.2-1.5,2-.1.2-.1.4-.1.6s0,.5-.1.7c-.1.5-.2,1-.3,1.5-.3,1-1,1.9-1.8,2.5s-1.6,1.1-2.3,1.6l-.6.4c-.2.1-.3.2-.4.4-.2.3-.4.6-.4,1-.1.8.1,1.8.4,2.7.2.9.5,1.8.7,2.8.1.5.1,1,.1,1.5-.1.5-.2,1-.6,1.4l-.1-.1c.3-.4.3-.9.3-1.3,0-.5-.1-.9-.2-1.4-.2-.9-.6-1.8-.9-2.7-.3-.9-.6-1.9-.6-3,0-.5.2-1.1.6-1.6.2-.2.4-.4.6-.6l.6-.4c1.5-1.1,3.3-1.9,3.9-3.5.2-.4.3-.8.3-1.3l.1-.7c.1-.3.1-.5.2-.8.3-1,1-1.9,1.9-2.3s1.9-.6,2.8-.6,1.9.2,2.8.6c.2.1.4.2.7.2.2.1.4.1.6.2s.4,0,.7,0c.2,0,.4,0,.6-.1.9-.2,1.7-.6,2.4-1.1.8-.5,1.5-1.1,2.3-1.6.4-.3.8-.5,1.2-.8.5-.2.9-.4,1.4-.5,1-.1,2,.1,2.9.4.4.2.9.4,1.3.7.3.3.7.6,1,1h0Z"/>
          <path class="cls-23" d="m393.8,92.9c-.9-1-1.9-1.9-3-2.6-1.1-.8-2.2-1.4-3.4-1.6h-.9c-.3.1-.6.1-.8.3-.6.2-1.1.6-1.5,1s-.8,1-1.2,1.6c-.4.6-1.1,1.1-1.9,1.2-.7.1-1.4.1-2.1,0s-1.3-.2-2-.4c-1.3-.3-2.6-.7-3.9-.7-.6,0-1.3.1-1.9.4s-1,.8-1.4,1.3c-.8,1.1-1.1,2.4-1.7,3.7-.3.6-.7,1.3-1.4,1.7-.2.1-.3.2-.5.2s-.4.1-.5.1l-1,.1c-1.2.2-2.3.9-3.2,1.9-.9.9-1.5,2.1-1.5,3.3v.4c0,.1.1.3.1.4.1.2.1.4.2.6,0,.2.1.4,0,.6,0,.4-.2.9-.4,1.2-.2.3-.5.6-.8.8-.5.5-1,.8-1.4,1.3s-.7,1-.8,1.6c-.2.6-.2,1.2-.1,1.9,0,.7.1,1.3.3,2,.2,1.3.5,2.7.6,4.1.1.7.1,1.4,0,2.1s-.4,1.4-1,1.8l-.1-.1c.5-.5.7-1.1.7-1.8.1-.7,0-1.3-.1-2-.2-1.3-.6-2.6-.9-4-.1-.7-.3-1.4-.4-2.1s-.1-1.4.1-2.2c.2-.7.5-1.4,1-2s1-1,1.5-1.4c.2-.2.5-.4.6-.6s.2-.4.3-.7v-.4l-.1-.4c-.1-.2-.1-.4-.1-.6s0-.4-.1-.6c0-.8.2-1.5.6-2.2.3-.7.8-1.2,1.3-1.7,1-1,2.3-1.8,3.7-2l1-.1c.2,0,.3-.1.4-.1s.3-.1.4-.2c.5-.3.9-.8,1.2-1.3.3-.6.6-1.2.9-1.8.3-.6.6-1.2,1-1.8.4-.6.9-1.1,1.5-1.4s1.3-.5,2-.5,1.3.1,2,.2l2,.3c.7.1,1.3.2,1.9.2.7.1,1.3,0,1.9-.1s1-.5,1.4-1,.8-1.1,1.3-1.6,1.1-.9,1.8-1.2c.3-.1.7-.2,1-.3h1.1c.7.1,1.4.4,2,.7.6.3,1.2.7,1.7,1.2.5.4,1,.9,1.5,1.4.4.7.8,1.2,1.1,1.9h0Z"/>
        </g>
        <path class="cls-3" d="m396.5,123c-.2-.5-.4-.9-.8-1.2-.3-.3-.6-.5-1-.6s-.8-.1-1.2-.1c-.8.1-1.5.6-2,1.2s-.9,1.2-1.1,2c.6-.4,1.1-.8,1.7-1.2.5-.3,1.1-.6,1.6-.7,1-.2,2.1.4,3.1,1.5l1.8-1.6s-2.1.7-2.1.7Z"/>
        <path class="cls-3" d="m374.7,122.7c.2-.4.5-.9.8-1.2.3-.3.7-.5,1-.6.4-.1.8-.1,1.2,0,.8.2,1.4.6,1.9,1.2s.9,1.2,1.1,2c-.6-.4-1.1-.9-1.6-1.2-.5-.3-1.1-.6-1.6-.7-1-.2-2.1.4-3.1,1.5l-1.8-1.7s2.1.7,2.1.7Z"/>
        <path class="cls-37" d="m386.6,138.4c-4.2.2-6.9-3.4-7.1-3.6-.1-.1-.1-.3,0-.5.1-.1.3-.1.4,0,0,0,2.7,3.5,6.6,3.3s5.6-3.9,5.6-3.9c.1-.2.2-.2.4-.1.1.1.2.3.1.4,0,.3-1.8,4.2-6,4.4h0Z"/>
      </g>
    </g>
    <g>
      <path class="cls-34" d="m306.7,93.1c-8.8-11.2-18.4-2.2-18.4-2.2l6.8,7.4s2.3,8.2,9.6,13.3c0,0,.1.5.2,1.2l-35.2-3.3s4.2,6.9-8.1,20.3c-12.6,13.8-10.6,31-10.6,31l57.6,2.9.5-41.2s0-.1.1-.1c3.2-5.1,6.3-18.1-2.5-29.3Z"/>
      <g>
        <path class="cls-21" d="m319.1,180.7s12.6,44.4,11.8,97.3c0,0-5.1,2.1-10.7-.4,0,0-4.6-48.6-16.5-75.4-2.7-5.7-2-13.3-.4-17.6,13.6-20.8,15.8-3.9,15.8-3.9h0Z"/>
        <g>
          <path class="cls-21" d="m327.1,287.1s-3.1,5.7-3.6,6.2-4.4,2-4.7,2.9c-.3.9.9,2.1,3.7,1.1,2.8-1,3.6-1.3,4.2-1.8.5-.5,3.9-6.5,3.9-6.5l-3.5-1.9h0Z"/>
          <path class="cls-21" d="m328.1,288.5s-2.6,7-3.2,7.7c-.5.7-4.7,2.9-5,4-.2,1.1,1.4,2.3,4.5.8s4-2,4.5-2.7,3.4-8,3.4-8l-4.2-1.8Z"/>
          <path class="cls-21" d="m330.8,277.6s2.8,8.2,3.1,10.7c.4,2.5-4.6,12-5.3,14.8-1.1,2.9-3.7,2.3-3.1-1.7.6-4.3,2.6-11.4,2.7-12s-3.4-4.1-3.9-4.3c-.5-.2-2.7,2.9-2.9,3.5-.2.6,1.3,4.6-1.4,6.6-2.7,1.9-3.9-6.8-3.5-8.4s1.1-7.4,4.6-10.5h8.2l1.5,1.3h0Z"/>
        </g>
        <path class="cls-26" d="m333.8,276.4s-8.1,3.6-13.6,1.1c0,0-4.6-48.6-16.5-75.4-2.7-5.7-2-13.3-.4-17.6,4-6,10.7-14.2,10.7-14.2,0,0,18.9,20.2,19.8,106.1Z"/>
        <path class="cls-36" d="m331.7,277.2s-6.1,2.9-11.6.4c0,0-4.6-48.6-16.5-75.4-2.7-5.7-2-13.3-.4-17.6,4-6,10.7-14.2,10.7-14.2,0,0,9.1,7.2,9.9,32,.9,22.1,6.7,69.5,7.9,74.8h0Z"/>
      </g>
      <path class="cls-21" d="m281.2,149.4c-22.5,6.4-33.4,14.7-33.4,14.7l20.7,40.6s3.4,16.2-.8,24c-15.1,13.1-11.9,27.5-11.9,27.5,10.5,7.1,41.9,3.1,41.9,3.1,0,0,10.8-3.2,18.5-13.2,0,0-3.4-20.3-.9-31.6,5.1-15.9,6.5-27.2,2.6-38.7-4.4-7.8-16-26.1-36.7-26.4h0Z"/>
      <g>
        <path class="cls-21" d="m293.7,240.3l.5,7.4.2,2.7.2,2.7,5.8,91.6,5.3,69.4.4,5.3s-.5,9.7-1,11.2c-2.5,4.3.9,12.2,1.2,15.8.3,3.8,22.6,8,23.2,1.4-1.4-4.8-10.2-17.8-10.6-20.1-.4-2.2-.5-9.6-.5-9.6l2-58.4.5-15.2,4.4-90.5v-.3l-5.2-15.1-9.8.5-4.3.2-12.3,1h0Z"/>
        <path class="cls-3" d="m325.7,439.1s-.4,4.9-7.6,4.7c-7.1-.2-11.3-5.8-11.3-5.8,0,0-1.2-5.9-1.4-6.4-.3-.5-.4-6.8-.4-6.8,0,0-2.5,7.9-1.5,11.4,0,0,1.9,9.2,3.3,11.7s8.9,4.6,15.7,4.6c6.9.1,11-4.5,3.2-13.4h0Z"/>
        <path class="cls-21" d="m254.7,412.2l-.6,5.3s-2.3,9.5-3,10.9c-3.3,3.8-1.4,12.1-1.7,15.7-.4,3.8,20.7,12,22.5,5.7-.4-5-6.7-19.4-6.7-21.7s1.6-9.4,1.3-9.5l16.1-71.9,13.2-72.5,5.6-31.8-28.9-15s-8.1,7.3-8.9,16.9c-2.1,27-1.1,98.8-1.1,98.8l-7.8,69.1h0Z"/>
        <path class="cls-40" d="m262.2,324.6l23.5,4s-3.4,19.6-5.3,27.9c-2.8,13.7-12.1,54.7-12.1,54.7l11.8-78.8-17.9-7.8h0Z"/>
        <path class="cls-40" d="m321.5,327.5l-2.5,67.1-.9,24.6-1.5-87-17.2-2.7c10.5.1,21.9-1.7,22.1-2h0Z"/>
        <path class="cls-3" d="m269.8,441.9s-1.5,4.7-8.4,3-9.8-8.1-9.8-8.1c0,0,.1-6.1,0-6.6-.2-.5,1.1-6.7,1.1-6.7,0,0-4.1,7.1-3.9,10.9,0,0-.1,9.4.7,12.1.9,2.7,7.7,6.4,14.4,7.9,6.6,1.5,11.6-2.1,5.9-12.5h0Z"/>
      </g>
      <path class="cls-3" d="m268,234.5s-10.2,16.7-12,37.9c-1.8,21.2-4.9,71.2-4.9,71.2,0,0,47.3,9.3,79.4,1.6l-5.1-88.3-57.4-22.4h0Z"/>
      <polygon class="cls-21" points="275.4 133.6 269.8 155.5 294.3 156.2 294.3 141.6 287.4 132.2 275.4 133.6"/>
      <path class="cls-4" d="m276.6,137.7c.1.4,1,8.1,9.3,10.6,3.1.9,6.3,1.3,8.4,1.1v-7.8h0s-9,1.5-17.7-3.9h0Z"/>
      <path class="cls-8" d="m252.8,250.6s7.5,4.6,19.8,8.3h0c3.6,1.1,7.7,2.1,12.1,2.9.8.2,1.6.3,2.4.4,14.2,2.6,24.7-.2,28.5-1.5,1-.3,1.5-.6,1.5-.6,1.3-5,1.1-12.8.7-20.8-.5-10.2-1.6-20.6-.6-25.3,1.6-8.3,8.6-17.2,6.3-29-1.5-8.5-11.6-23.5-11.6-23.5-5.6-4.3-14-7.5-14-7.5,0,0,.2,7.8,1.2,12.5,1,4.8-9.2,6.4-15,1.7-7.4-6-14.3-15.5-14.3-15.5,0,0-19.8,7.4-22.4,10.3-4,3,10.2,21.1,10.2,21.1,0,0,1.5,2.8,5.3,10.1,4.7,8.9,9.1,26.3,3.4,33.2-5.6,7.1-13.5,23.2-13.5,23.2h0Z"/>
      <path class="cls-26" d="m315.1,332.5l20.5-5.9s-17.2-118.9-15.4-120c1.8-1.1,6-15.7,5.1-20.8s-12.2-23.7-14.3-25.7c-2.2-2-16.5-8.5-16.5-8.5h0c.3.9,11,28.3,13.2,42.3.5,3.5.6,9.8.4,17.4-.6,23.2,7,121.2,7,121.2Z"/>
      <path class="cls-29" d="m307.7,194c.5,3.5.6,9.8.4,17.4l.4,1.2,3.8-42-8.4-3.5,3.5-4.2-12.9-11.2c.3.8,11,28.3,13.2,42.3Z"/>
      <path class="cls-26" d="m292.2,332.5l-47.2-5s8.1-89,6.6-97.6c-.4-2.3-1.6-7-3-12.8-3.9-16.2-9.4-41.4-4.8-49.2,2.9-10.7,27.5-18.1,27.5-18.1,0,0,18.3,30.1,21,44.2.8,4.1,2.1,12.2,3.6,21.7h0c3.7,22.8-3.7,116.8-3.7,116.8h0Z"/>
      <path class="cls-36" d="m245,327.5s8.1-89,6.6-97.6c-.4-2.3-1.6-7-3-12.8l11.4-10.1s2.6,33.8.6,66.4c-3.1,49.7,8.1,49.9,23.4,58.2l-39-4.1Z"/>
      <path class="cls-29" d="m276.9,165.7l-7.1,7.5,26,42.5c-1.5-9.4-2.9-17.5-3.6-21.7-2.6-14.1-21-44.2-21-44.2l-5.3,10.9,11,5h0Z"/>
      <g>
        <polygon class="cls-7" points="233.2 256.5 231.3 298.8 283.7 302.1 285.6 300 287.4 258.9 233.2 256.5"/>
        <polygon class="cls-1" points="232.2 256.5 230.4 298.8 283.8 300.6 284.7 299.7 286.5 258.9 232.2 256.5"/>
        <rect class="cls-9" x="236.51" y="252.58" width="42.3" height="54.3" transform="translate(-32.96 525.05) rotate(-87.52)"/>
        <path class="cls-26" d="m280.8,277.9c0,3.4-2.7,6.1-6.1,6.1s-6.1-2.7-6.1-6.1,2.7-6.1,6.1-6.1,6.1,2.7,6.1,6.1Z"/>
        <path class="cls-21" d="m263.6,303.4c.3-1.9-4.6-15.7-4.6-15.7,3.1,1.2,7.2,1.9,7-.3-.2-2.1-10.7-7.3-12.4-7.9-.5.3-10.6,1.6-10.6,1.6-.8,8.4.7,15.3,4.6,19,1.8,2.2,10.8,2.1,10.8,2.1,1.2,2.8,4.9,3.1,5.2,1.2h0Z"/>
        <path class="cls-21" d="m242.7,174.3s-7.9,49.9,0,107.2c0,0,5.9,1.6,11.5-1.8,0,0-1.3-53.4,8-84.1,2.2-6.6.4-14.7-1.9-19.2-17.5-20.7-17.6-2.1-17.6-2.1h0Z"/>
        <path class="cls-26" d="m263,194.4c-9.3,30.7-6,84.1-6,84.1-1.5.9-3.5,1.6-5.6,2.1-5.7,1.3-12.3,1.3-12.3,1.3-7.9-57.3,3.4-112.7,3.4-112.7,0,0,4.6-14.5,18,2,1.2,2.4,2.4,6.9,3,11.6.5,4.2.5,8.5-.5,11.6h0Z"/>
        <path class="cls-36" d="m263,194.4c-9.3,30.7-6,84.1-6,84.1-1.5.9-3.5,1.6-5.6,2.1-.4-54.2,2-60.4,6.1-81.3,1.3-6.9,4.3-7.1,4.7-19.6.5,1.1,1,2.1,1.3,3.1,1.1,3.3,1.1,6.6-.5,11.6Z"/>
        <polygon class="cls-5" points="278 276.9 275.8 276.9 275.9 274.7 273.8 274.6 273.7 276.8 271.5 276.7 271.4 278.8 273.6 278.9 273.5 281.1 275.7 281.2 275.7 279 277.9 279.1 278 276.9"/>
      </g>
      <g>
        <path class="cls-21" d="m266.7,120c2.3,15.8,12.8,27.4,23.4,25.8,10.7-1.5,17.5-15.6,15.2-31.4s-12.8-27.4-23.4-25.8c-10.7,1.5-17.5,15.6-15.2,31.4Z"/>
        <g>
          <g>
            <g>
              <path class="cls-6" d="m301.3,125.1c0,.3.9.5,1.9.3,1-.1,1.7-.5,1.7-.9,0-.3-.9-.5-1.9-.3s-1.7.5-1.7.9Z"/>
              <path class="cls-6" d="m301.2,127c0-.3.9-.5,1.9-.3,1,.1,1.8.5,1.7.8,0,.3-.9.5-1.9.3-1-.1-1.8-.5-1.7-.8Z"/>
            </g>
            <g>
              <path class="cls-6" d="m276.1,127.2c0-.3-.9-.5-1.9-.3-1,.1-1.7.5-1.7.9s.9.5,1.9.3,1.8-.6,1.7-.9Z"/>
              <path class="cls-6" d="m276.3,125.2c0,.3-.9.5-1.9.3-1-.1-1.8-.5-1.7-.8,0-.3.9-.5,1.9-.3,1,.1,1.7.5,1.7.8Z"/>
            </g>
          </g>
          <g>
            <path class="cls-6" d="m291,130.4h.1c.5-.1,1.7-.6,1.5-3.7-.2-5-1.3-7.7-1.3-7.8-.1-.2-.3-.3-.4-.2-.2.1-.3.3-.2.4,0,0,1,2.7,1.3,7.6.1,2.1-.4,2.9-1,3-.8.1-2.1-1.1-2.7-3.3-.1-.2-.2-.3-.4-.2-.2.1-.3.2-.2.4.6,2.3,2,3.9,3.3,3.8h0Z"/>
            <path class="cls-6" d="m289.2,135.3c4.3-.4,6.6-3.9,6.7-4s0-.3-.1-.4c-.1-.1-.3,0-.4.1,0,0-2.2,3.4-6.2,3.7s-6.2-2.6-6.2-2.7c-.1-.1-.3-.2-.4-.1s-.2.3-.1.4c.1.3,2.4,3.4,6.7,3Z"/>
            <path class="cls-34" d="m278.8,111.8c1.2-.5,2.7-.4,4.4.2.6.2,1.2,0,1.5-.6.2-.5,0-1.1-.6-1.3-2.2-.8-4.3-.9-6.1-.2-2.9,1.1-4,5-3.4,5.2,0,.1,2.3-2.5,4.2-3.3h0Z"/>
            <path class="cls-34" d="m299.8,112c-1.2-.3-2.5-.1-3.9.7-.5.3-1.1.1-1.4-.4s-.1-1.1.4-1.4c1.9-1.1,3.7-1.4,5.5-.9,2.7.8,4.3,4.4,3.8,4.7-.2.1-2.5-2.2-4.4-2.7h0Z"/>
          </g>
          <path class="cls-3" d="m295.4,120.2c-.1-2.2.5-3.8,1.2-3.9l3.5.1s-.6.7-2.5.9c.3.7.3,1.4.4,2.5.1,2.2-.3,4-1,4.1-.8.1-1.4-1.6-1.6-3.7h0Z"/>
          <path class="cls-3" d="m280.3,120.1c0-1.1.2-2,.4-2.7-2.2-.1-2.8-.8-2.8-.8l3.8-.3c.8,0,1.4,1.6,1.4,3.7s-.6,3.8-1.4,3.9c-.8-.1-1.5-1.7-1.4-3.8Z"/>
        </g>
        <g>
          <path class="cls-3" d="m298.5,126.9c-5.2,0-6.7-7.3-6.8-11.1v-.5l.4-.1c7.7-2.5,14.3.1,14.6.2l.5.2-.1.6c-.1.4-1.9,9.6-7.5,10.7h-1.1Zm-5.7-10.6c.2,2,1,9.3,5.7,9.3s6.7-7,7.3-9.2c-1.6-.5-7-2-13-.1Z"/>
          <path class="cls-3" d="m281.2,127.5c-6.8-.1-8.8-11.2-8.9-11.7l-.1-.6.5-.2c.3-.1,7.4-2.8,15.6.1l.4.2v.5c-.2,3.8-1.7,10.7-6.4,11.6-.3,0-.7.1-1.1.1h0Zm-7.6-11.4c.5,2.2,2.6,9.9,7.7,10,5,.1,6.1-7.7,6.3-9.9-6.5-2.1-12.3-.6-14-.1Z"/>
          <path class="cls-3" d="m292.2,119.5l.8-.9c-1.7-2.3-4.4-1.2-5.5-.3l.6,1.1c.1-.1,2.6-1.9,4.1.1h0Z"/>
          <polygon class="cls-3" points="272.7 116.4 272.6 115.1 267.6 115.3 267.7 116.7 272.7 116.4"/>
        </g>
        <path class="cls-34" d="m266.3,89.2c9.1-18.2,45.2-6.6,45.8,16.5l-3,4.6c-.1-.1-36.5-1.2-42.8-21.1Z"/>
        <path class="cls-34" d="m254.5,148c3.1-.6,13.3-4,15.4-10.8,2-6.8.4-21.1.4-21.1-.5-13.2,11-16.6,11-16.6,2.3-8-2.7-17.6-14.7-11-10.6,5.8-14.3,11-11.5,27.7,1,5.8,2.2,13.7.9,23-.8,3.4-1.4,6.4-1.5,8.8h0Z"/>
      </g>
    </g>
  </g>
</svg>