<?xml version="1.0" encoding="UTF-8"?>
<svg id="Capa_1" data-name="Capa 1" xmlns="http://www.w3.org/2000/svg" viewBox="0 0 180.5 106.8">
  <defs>
    <style>
      .cls-1 {
        font-family: MicrosoftSansSerif, 'Microsoft Sans Serif';
        font-size: 9px;
        isolation: isolate;
      }

      .cls-1, .cls-2 {
        fill: #fff;
      }

      .cls-2 {
        stroke-width: 0px;
      }
    </style>
  </defs>
  <polygon class="cls-2" points="45.8 24.1 41.5 31.5 31.1 49 26.3 40.8 41 15.9 50.4 15.9 59.9 15.9 64.6 24.1 45.8 24.1"/>
  <polygon class="cls-2" points="73 36.8 64.3 36.8 43.5 36.8 48.4 28.6 77.8 28.6 82.5 36.6 87.2 44.6 82.4 52.7 73 36.8"/>
  <polygon class="cls-2" points="75.3 66.1 71 58.7 60.6 41.2 70.2 41.2 85 66.1 80.3 74.1 75.5 82.1 65.9 82 75.3 66.1"/>
  <polygon class="cls-2" points="50.5 82.8 54.9 75.4 65.2 57.8 70.1 66 55.3 90.9 45.9 90.9 36.4 90.9 31.8 82.8 50.5 82.8"/>
  <polygon class="cls-2" points="23.4 70.1 32.1 70.1 52.8 70.1 48 78.2 18.5 78.2 13.9 70.3 9.1 62.2 14 54.2 23.4 70.1"/>
  <polygon class="cls-2" points="21 40.7 25.4 48.1 35.7 65.7 26.1 65.7 11.4 40.7 16.1 32.8 20.8 24.7 30.4 24.9 21 40.7"/>
  <path class="cls-2" d="m48.2,0C51.7,0,54.5,2.8,54.5,6.2s-2.8,6.2-6.3,6.2-6.3-2.8-6.3-6.2S44.7,0,48.2,0h0Z"/>
  <path class="cls-2" d="m48.2,94.5c3.5,0,6.3,2.8,6.3,6.2s-2.8,6.2-6.3,6.2-6.3-2.8-6.3-6.2,2.8-6.2,6.3-6.2h0Z"/>
  <path class="cls-2" d="m95.5,26.7c1.7,3,.7,6.7-2.3,8.4-3,1.7-6.9.7-8.6-2.3-1.7-2.9-.7-6.7,2.3-8.4,3-1.6,6.9-.6,8.6,2.3h0Z"/>
  <path class="cls-2" d="m11.8,74c1.7,2.9.7,6.7-2.3,8.4s-6.9.7-8.6-2.3c-1.7-2.9-.7-6.7,2.3-8.4,3-1.7,6.8-.7,8.6,2.3h0Z"/>
  <path class="cls-2" d="m95.5,80.1c-1.7,2.9-5.6,3.9-8.6,2.3-3-1.7-4.1-5.5-2.3-8.4,1.7-2.9,5.6-3.9,8.6-2.3,3,1.7,4,5.5,2.3,8.4h0Z"/>
  <path class="cls-2" d="m11.8,32.9c-1.7,3-5.6,4-8.6,2.3C.2,33.5-.8,29.7.9,26.8s5.6-4,8.6-2.2c3,1.6,4,5.3,2.3,8.3h0Z"/>
  <g>
    <path class="cls-2" d="m111.8,62.2c-4,0-7.2-1.2-9.6-3.5s-3.6-5.5-3.6-9.6,1.2-7.2,3.6-9.6,5.6-3.5,9.6-3.5c3.1,0,5.7.7,7.9,2.2,2.2,1.5,3.4,3.5,3.7,5.9h-3.9c-.2-1.6-.9-2.9-2.3-3.8s-3.2-1.4-5.3-1.4c-2.9,0-5.2.9-6.8,2.7s-2.5,4.3-2.5,7.6.8,5.8,2.5,7.6,3.9,2.7,6.8,2.7c2.2,0,4-.5,5.4-1.5s2.1-2.3,2.3-4.2h3.9c-.3,2.7-1.5,4.8-3.6,6.3s-4.9,2.1-8.1,2.1h0Z"/>
    <path class="cls-2" d="m128.6,36.4h9c9.6,0,14.4,4.2,14.4,12.5s-4.8,12.8-14.4,12.8h-9v-25.3Zm3.7,22.3h5.2c4.1,0,6.9-.9,8.4-2.6s2.2-4.1,2.2-7.2-.7-5.4-2.2-7-4.3-2.5-8.4-2.5h-5.2v19.3h0Z"/>
    <path class="cls-2" d="m169,62.2c-4,0-7.2-1.2-9.6-3.5s-3.6-5.5-3.6-9.6,1.2-7.2,3.6-9.6,5.6-3.5,9.6-3.5c3.1,0,5.7.7,7.9,2.2s3.4,3.5,3.6,5.9h-3.9c-.1-1.6-.9-2.9-2.3-3.8s-3.2-1.4-5.3-1.4c-2.9,0-5.1.9-6.8,2.7s-2.5,4.3-2.5,7.6.8,5.8,2.5,7.6,3.9,2.7,6.8,2.7c2.2,0,4-.5,5.4-1.5s2.1-2.3,2.3-4.2h3.9c-.3,2.7-1.5,4.8-3.6,6.3s-4.8,2.1-8,2.1h0Z"/>
  </g>
  <text class="cls-1" transform="translate(98.64 70.89) scale(1.04 1)"><tspan x="0" y="0">Servicio de Guardia</tspan></text>
</svg>