<?xml version="1.0" encoding="utf-8"?>
<!-- Generator: Adobe Illustrator 28.0.0, SVG Export Plug-In . SVG Version: 6.00 Build 0)  -->
<svg version="1.1" id="Capa_1" xmlns="http://www.w3.org/2000/svg" xmlns:xlink="http://www.w3.org/1999/xlink" x="0px" y="0px"
	 viewBox="0 0 750 500" style="enable-background:new 0 0 750 500;" xml:space="preserve">
<style type="text/css">
	.st0{fill:#FEFEFE;}
	.st1{fill:#FFE0D9;}
	.st2{fill:#CBADAF;}
	.st3{fill:#69445D;}
	.st4{fill:#8F5C7E;}
	.st5{fill:#F1CDCF;}
	.st6{fill:none;stroke:#FEFEF4;stroke-width:1.9411;stroke-miterlimit:10;}
	.st7{fill:none;stroke:#F6F9FE;stroke-width:1.4768;stroke-miterlimit:10;}
	.st8{fill:#F6F9FE;}
	.st9{fill:none;stroke:#F6F9FE;stroke-width:4.522;stroke-miterlimit:10;}
	.st10{font-family:'ArialMT';}
	.st11{font-size:69.3587px;}
	.st12{fill:none;stroke:#F6F9FE;stroke-width:1.4304;stroke-miterlimit:10;}
	.st13{fill:#2198D5;}
	.st14{fill:none;stroke:#000000;stroke-width:1.5516;stroke-miterlimit:10;}
	.st15{fill:#F08573;}
	.st16{fill:#FEFEF4;}
	.st17{fill:none;stroke:#DB5749;stroke-width:1.5;stroke-miterlimit:10;}
	.st18{fill:none;stroke:#FCE7E4;stroke-width:1.5516;stroke-miterlimit:10;}
	.st19{fill:#D57867;}
	.st20{fill:none;stroke:#000000;stroke-width:1.2385;stroke-linecap:round;stroke-linejoin:round;stroke-miterlimit:10;}
</style>
<g id="BACKGROUND">
	<rect y="0.2" class="st0" width="750" height="500"/>
	<rect y="0.2" class="st1" width="750" height="500"/>
</g>
<g id="OBJECTS">
	<g>
		<g>
			<path class="st2" d="M199,184.4H84.6c-2.4,0-4.4-2-4.4-4.4l0,0c0-2.4,2-4.4,4.4-4.4H199c2.4,0,4.4,2,4.4,4.4l0,0
				C203.4,182.4,201.4,184.4,199,184.4z"/>
			<path class="st2" d="M409.8,66.2h-74.5c-2.5,0-4.5-2-4.5-4.5l0,0c0-2.5,2-4.5,4.5-4.5h74.5c2.5,0,4.5,2,4.5,4.5l0,0
				C414.4,64.2,412.2,66.2,409.8,66.2z"/>
			<path class="st3" d="M135.5,242.8h-13.1c-3.5,0-6.3-2.8-6.3-6.3v-12.4c0-3.5,2.8-6.3,6.3-6.3h13.2c3.5,0,6.3,2.8,6.3,6.3v12.4
				C141.8,240,139,242.8,135.5,242.8z"/>
			<path class="st2" d="M518.1,462h-7.2c-1.9,0-3.4-1.5-3.4-3.4v-6.7c0-1.9,1.5-3.4,3.4-3.4h7.2c1.9,0,3.4,1.5,3.4,3.4v6.7
				C521.5,460.5,519.9,462,518.1,462z"/>
			<path class="st3" d="M646.8,174.3h-7.2c-1.9,0-3.4-1.5-3.4-3.4v-6.7c0-1.9,1.5-3.4,3.4-3.4h7.2c1.9,0,3.4,1.5,3.4,3.4v6.7
				C650.2,172.8,648.8,174.3,646.8,174.3z"/>
			<polygon class="st4" points="145.1,382.5 108.8,401.3 119.2,406.3 106.2,421.8 116.4,430.1 128.9,413.5 137.2,422.5 			"/>
			<path class="st2" d="M271.1,460.6h-42.3c-3.1,0-5.7-2.5-5.7-5.7l0,0c0-3.1,2.5-5.7,5.7-5.7h42.3c3.1,0,5.7,2.5,5.7,5.7l0,0
				C276.9,458.1,274.4,460.6,271.1,460.6z"/>
		</g>
		<g>
			<path class="st5" d="M542.9,420.4h-341c-3.9,0-7.1-3.2-7.1-7.1v-284c0-3.9,3.2-7.2,7.1-7.2h341c4,0,7.2,3.2,7.2,7.2v284
				C550,417.2,546.8,420.4,542.9,420.4z"/>
			<line class="st6" x1="194.8" y1="158" x2="550" y2="158"/>
			<path class="st6" d="M542.9,420.4h-341c-3.9,0-7.1-3.2-7.1-7.1v-284c0-3.9,3.2-7.2,7.1-7.2h341c4,0,7.2,3.2,7.2,7.2v284
				C550,417.2,546.8,420.4,542.9,420.4z"/>
			<g>
				<circle class="st6" cx="224.9" cy="140.4" r="5"/>
				<circle class="st6" cx="244.2" cy="140.4" r="5"/>
				<circle class="st6" cx="263.8" cy="140.4" r="5"/>
			</g>
		</g>
	</g>
	<g>
		<g>
			<path class="st2" d="M268.6,366.6H87.9c-5.7,0-10.3-4.6-10.3-10.4v-66.9c0-5.7,4.6-10.4,10.3-10.4h180.5
				c5.7,0,10.4,4.6,10.4,10.4v67C278.9,362,274.2,366.6,268.6,366.6z"/>
			<g>
				<path class="st7" d="M102.1,295.3c0,2.1-1.7,3.8-3.8,3.8s-3.8-1.7-3.8-3.8s1.7-3.8,3.8-3.8C100.4,291.4,102.1,293.1,102.1,295.3
					z"/>
				<circle class="st7" cx="113.1" cy="295.3" r="3.8"/>
				<circle class="st7" cx="127.9" cy="295.3" r="3.8"/>
			</g>
			<line class="st7" x1="77.7" y1="309.7" x2="278.9" y2="309.7"/>
		</g>
		<g>
			<path class="st2" d="M593,167.7h-81c-6.8,0-12.2-5.5-12.2-12.2V90.2c0-6.8,5.5-12.2,12.2-12.2h81c6.8,0,12.2,5.5,12.2,12.2v65.3
				C605.2,162.3,599.8,167.7,593,167.7z"/>
			<g>
				<path class="st8" d="M545.8,133c-10,0-18.2-8.2-18.2-18.2s8.2-18.2,18.2-18.2s18.2,8.2,18.2,18.2S555.9,133,545.8,133z
					 M545.8,100.7c-7.8,0-14.1,6.3-14.1,14.1s6.3,14.1,14.1,14.1s14.1-6.3,14.1-14.1S553.6,100.7,545.8,100.7z"/>
				
					<rect x="558" y="125.2" transform="matrix(0.7071 -0.7071 0.7071 0.7071 72.8291 433.7655)" class="st8" width="4.1" height="7.6"/>
				<path class="st8" d="M566.8,129.4l10.7,10.6c1.1,1.1,1.1,3,0,4.1l-2.4,2.4c-1.1,1.1-3,1.1-4.1,0l-10.7-10.6
					c-1.1-1.1-1.1-3,0-4.1l2.4-2.4C563.9,128.3,565.8,128.3,566.8,129.4z"/>
			</g>
		</g>
		<g>
			<path class="st4" d="M163.9,139.6h-46.5c-7.8,0-14.1-6.3-14.1-14.1V86c0-7.8,6.3-14.1,14.1-14.1H164c7.8,0,14.1,6.3,14.1,14.1
				v39.5C178,133.3,171.7,139.6,163.9,139.6z"/>
			<g>
				<path class="st8" d="M140.6,120.3c-8.7,0-15.9-7.1-15.9-15.8c0-8.7,7.1-15.8,15.9-15.8s15.9,7.1,15.9,15.8
					C156.5,113.2,149.4,120.3,140.6,120.3z M140.6,93.4c-6.1,0-11.1,5-11.1,11.1c0,6.1,5,11.1,11.1,11.1s11.1-5,11.1-11.1
					C151.7,98.3,146.7,93.4,140.6,93.4z"/>
				<line class="st9" x1="150" y1="93.4" x2="131.8" y2="115.5"/>
			</g>
		</g>
		<g>
			<path class="st4" d="M661.8,377.9H493.1c-7.2,0-13-5.8-13-13V239c0-7.2,5.8-13.1,13-13.1h168.6c7.2,0,13,5.8,13,13.1v125.8
				C674.8,372.1,668.9,377.9,661.8,377.9z"/>
			<text transform="matrix(1 0 0 1 504.2635 331.3793)" class="st8 st10 st11">404</text>
			<g>
				<circle class="st12" cx="500.1" cy="240.3" r="3.7"/>
				<circle class="st12" cx="514.5" cy="240.3" r="3.7"/>
				<circle class="st12" cx="528.8" cy="240.3" r="3.7"/>
			</g>
			<line class="st12" x1="480.1" y1="255.7" x2="674.8" y2="255.7"/>
		</g>
	</g>
	<g>
		<g>
			<path class="st13" d="M391,314.3l-0.7-10l-62.5,3.1v9.7c0,0-14.1,13.4-19.6,102.4h112.6C420.6,419.5,433.1,340.7,391,314.3z"/>
			<g>
				<line class="st14" x1="327.8" y1="317" x2="391" y2="314.3"/>
				<polyline class="st14" points="340.6,358.1 353.6,363.4 360.6,419.5 				"/>
			</g>
		</g>
		<g>
			<g>
				<g>
					<path class="st15" d="M259.4,294.9l17.3-57l38,14.2l-18.3,54.7c-3.7,11.3-16.6,16.6-27.2,11.2
						C260.6,313.7,256.6,304,259.4,294.9z"/>
					<path class="st16" d="M286,207.4c3.4-11.1,15.4-17.2,26.4-13.4c10.7,3.7,16.5,15.2,12.9,26l-10.6,32.2l-38-14.2L286,207.4z"/>
				</g>
				<g>
					<path class="st15" d="M288.6,290.6l-43.4-82.3c0,0,1-14.9-23.7-15.8l0,0c-0.3,0-0.7-0.1-1-0.1h-8.3c-1.5,0-2.9,1.1-3.1,2.6
						c-0.2,1.8,1,3.3,2.6,3.5l8.3,1.2l-11.3,3l-2.1,0.8l-15.4-10.2c-1.2-0.9-2.9-0.5-3.7,0.9c-0.6,1.1-0.3,2.3,0.6,3.1
						c0.9,0.8,2.5,2.1,4.2,3.6l-3.4-2c-1.3-0.8-3-0.2-3.6,1.1c-0.5,1.1-0.1,2.4,0.9,3c0.8,0.6,1.9,1.3,3,2.1l-1.2-0.5
						c-1.3-0.5-2.8-0.1-3.6,1c-1.1,1.6-0.4,3.7,1.3,4.4l16.9,7.1c2.9,1.2,5.7,2,9.1,1.2l15-3.5l33.6,94.1L288.6,290.6z"/>
					<line class="st17" x1="270.9" y1="256.9" x2="278.9" y2="272.1"/>
				</g>
			</g>
			<g>
				<path class="st16" d="M319.8,193.1l-16.1,1.2c0,0-23.4,31.7,24.1,113.1l62.5-3.1l4.7-87.7l-7.7-24.9h-28L319.8,193.1z"/>
				<path class="st18" d="M301.5,247.2c0,0-4.6-9.8-1.7-31.5"/>
			</g>
			<g>
				<g>
					<path class="st15" d="M446.6,283.5l-26-53.6l-35.3,20L412,301c5.5,10.6,19,13.8,28.7,6.9C448.2,302.2,450.9,292,446.6,283.5z"
						/>
					<g>
						<path class="st16" d="M406.6,201.2c-5.1-10.4-17.9-14.6-28.1-9.2c-10,5.3-13.9,17.6-8.7,27.7l15.5,30.1l35.3-20L406.6,201.2z"
							/>
						<line class="st18" x1="385.4" y1="249.8" x2="372.6" y2="225"/>
					</g>
				</g>
				<g>
					<path class="st15" d="M500.9,191.7c-0.8-1.1-2.3-1.5-3.6-1l-7.5,2.9l7.1-6c1.2-1,1.5-2.8,0.6-4c-1-1.4-3-1.7-4.3-0.6l-6.6,5.3
						l5.6-7.4c0.9-1.2,0.9-3-0.3-4c-1.3-1.2-3.2-1-4.3,0.3l-11.1,11.5l-11.3-3l8.3-1.2c1.6-0.2,2.9-1.7,2.6-3.5
						c-0.2-1.5-1.6-2.6-3.1-2.6h-8.3c-4.9,0-9.6,1.7-13.2,4.9c-0.1,0.1-0.1,0.1-0.2,0.1c-5.1,4-3.2,12.2-3.2,12.2L417,283.7
						l30.8,13.7l17.8-94.6h11.4c0.7,0.1,1.4,0.1,2.1,0h0.1l0,0c1.2-0.1,2.4-0.4,3.6-0.9l16.9-6C501.2,195.4,502,193.2,500.9,191.7z"
						/>
					<line class="st17" x1="429.1" y1="247.2" x2="422.4" y2="270.6"/>
				</g>
			</g>
		</g>
		<g>
			<path d="M318.6,120.4c-1.9,1.3-15,4.7-15.2,7.1c0,0,4.3,16.8-0.1,19.9c-11.9,8.5-15.7,25.1-15.7,25.1s31.3,23.5,114.6-1.2
				c0,0,1-10-14.1-17.2c-4.3-2.1-8.2-5.2-10.6-9.4c-1.9-3.3-2.2-4.7-2.7-7.6C373.4,128.8,350.6,98.4,318.6,120.4z"/>
			<path class="st19" d="M319.8,145.5c0.4,5.5-3.8,10.3-9.3,10.7s-10.3-3.8-10.7-9.3s3.8-10.3,9.3-10.7
				C314.6,135.9,319.4,140,319.8,145.5z"/>
			<path class="st15" d="M324.2,170l1.4,21.7c0.5,7.6,3.6,12.8,11.1,12.3l0,0c6.4-0.4,14-5.6,14.4-12l-3.8-34.1L324.2,170z"/>
			<path class="st15" d="M319.8,193.1l39.4-1.4c0,0-1,19.4-24.4,17.6C318.6,208,319.8,193.1,319.8,193.1z"/>
			<polygon class="st19" points="325.5,187.9 350.6,163.3 324.1,167.8 			"/>
			<path class="st15" d="M330.9,173.5L330.9,173.5c-12.8,0-23.4-10.1-23.8-20.6l-0.8-24.7c-0.5-13.1,9.5-24.3,22.7-25.2l0,0
				c13.4-0.9,27.4,9,28.4,22.4l0.4,19.9C358.1,160.8,346.2,172.4,330.9,173.5z"/>
			<g>
				<polyline class="st20" points="320.6,144.3 319.8,150.4 323,150.5 				"/>
				<path d="M333.1,129.3c0,0-7.1-0.6-7.2,2.3c0,0,0,1.9,6.2,2.3c6.2,0.4,7.8-0.1,8.4-1.9C341.1,130.2,336.6,129.3,333.1,129.3z"/>
				<path d="M312.6,133.5c0,0,5.4-0.4,5.9,2.2c0,0,0.3,1.8-4.4,2c-4.7,0.3-6.2-0.3-6.2-1.8C307.8,134.1,310.1,133.5,312.6,133.5z"/>
				<path d="M315.8,141.9c0,1.2-0.9,2.3-2.2,2.3s-2.3-0.9-2.3-2.2s0.9-2.3,2.2-2.3C314.6,139.7,315.8,140.7,315.8,141.9z"/>
				<path d="M334.9,141.3c0,1.2-0.9,2.3-2.2,2.3s-2.3-0.9-2.3-2.2s0.9-2.3,2.2-2.3C333.8,139.1,334.8,140,334.9,141.3z"/>
				<path class="st20" d="M328.1,154.8c0,0-3.4-1.5-7.4,2"/>
			</g>
			<path d="M337,98.8c-3.2-0.2-6.4,0.2-9.5,1c-7.7,2.1-21.5,7.7-23.9,22.5c-0.8,3.9-0.2,5.2-0.2,5.2s25.8,1,41-6.2
				c2.2,9.3,4.2,15,13.4,24.1l8.1-12.2l9.2,8.2C375.1,141.7,375.1,100.8,337,98.8z"/>
			<g>
				<path class="st15" d="M371.1,145.6c0.4,5.5-3.8,10.3-9.3,10.7s-10.3-3.8-10.7-9.3s3.8-10.3,9.3-10.7
					C366,136,370.6,140.1,371.1,145.6z"/>
				<path class="st20" d="M357.4,149.2c0,0-0.5-7.2,6.5-6.6"/>
			</g>
		</g>
	</g>
</g>
<g id="DESIGNED_BY_FREEPIK">
</g>
</svg>
