<?xml version="1.0" encoding="UTF-8"?> <svg xmlns="http://www.w3.org/2000/svg" id="Grupo_3" data-name="Grupo 3" width="162" height="81.013" viewBox="0 0 162 81.013"><g id="Grupo_4" data-name="Grupo 4" transform="translate(0)"><path id="Trazado_1" data-name="Trazado 1" d="M197.551,5.636a42.9,42.9,0,0,0-7.669-5.6l-2.567,2.568a39.526,39.526,0,0,1,7.874,5.6,33.966,33.966,0,0,1,10.02,16.163,37.108,37.108,0,0,1,1.747-5.612,38.258,38.258,0,0,0-9.4-13.125" transform="translate(-127.182 -0.026)" fill="#799a3d"></path><path id="Trazado_2" data-name="Trazado 2" d="M266.5,0a42.9,42.9,0,0,0-7.691,5.609A36.335,36.335,0,0,0,246.581,32.5c0,17.471-.009,19.985-.009,20.008h3.494c0-.023.009-2.513.009-20.008a32.88,32.88,0,0,1,11.1-24.316,39.531,39.531,0,0,1,7.9-5.615Z" transform="translate(-167.416)" fill="#799a3d"></path><path id="Trazado_3" data-name="Trazado 3" d="M159.475,23.183C169.324,26.756,176.4,36.624,176.4,48.24S169.324,69.725,159.475,73.3a25.074,25.074,0,0,0,0-50.115" transform="translate(-108.279 -15.741)" fill="#25408f"></path><path id="Trazado_4" data-name="Trazado 4" d="M293.376,23.183c-9.849,3.573-16.928,13.441-16.928,25.057s7.079,21.484,16.928,25.057a25.074,25.074,0,0,1,0-50.115" transform="translate(-182.785 -15.741)" fill="#25408f"></path><path id="Trazado_5" data-name="Trazado 5" d="M240.988,13.975c0-2.744,1.623-4.969,3.625-4.969s3.625,2.224,3.625,4.969-1.623,4.968-3.625,4.968-3.625-2.224-3.625-4.968" transform="translate(-163.624 -6.115)" fill="#799a3d"></path><path id="Trazado_6" data-name="Trazado 6" d="M11.3,220.662l-.1,1.222a5.89,5.89,0,0,1-1.995.844,10.311,10.311,0,0,1-2.327.262A6.7,6.7,0,0,1,1.838,221.1,7.007,7.007,0,0,1,0,216a6.476,6.476,0,0,1,2.131-5.1,7.621,7.621,0,0,1,5.241-1.8,10.03,10.03,0,0,1,2.122.234,11.272,11.272,0,0,1,2.083.665,6.571,6.571,0,0,0-.235.733q-.117.44-.176.772l-.137.02a3.859,3.859,0,0,0-.763-.665,5.055,5.055,0,0,0-2.972-1.017A4.822,4.822,0,0,0,3.265,211.7a6.869,6.869,0,0,0-1.349,4.374,6.611,6.611,0,0,0,1.447,4.471,4.767,4.767,0,0,0,3.794,1.679,6.2,6.2,0,0,0,2.171-.415,6.519,6.519,0,0,0,1.975-1.149" transform="translate(0 -141.977)" fill="#25408f"></path><path id="Trazado_7" data-name="Trazado 7" d="M44.91,210.018v12.4q.626,0,2.044-.039t1.5-.039a10.407,10.407,0,0,0,1.154-.078q.47-.078.7-.1l-.059.587.059.586H43.189V210.018l.861.059Z" transform="translate(-29.324 -142.597)" fill="#25408f"></path><path id="Trazado_8" data-name="Trazado 8" d="M73.465,223.413v-13.4l.86.059.861-.059v13.376l-.861-.058Z" transform="translate(-49.881 -142.596)" fill="#25408f"></path><path id="Trazado_9" data-name="Trazado 9" d="M101.437,210.009v13.4h-.587l-1.026-1.2-8.439-9.357h-.2v10.541l-.548-.059-.548.079v-13.4l.768,0,9.274,10.084.205-.009V210.009l.548.059Z" transform="translate(-61.172 -142.588)" fill="#25408f"></path><path id="Trazado_10" data-name="Trazado 10" d="M136.635,223.413v-13.4l.86.059.861-.059v13.376l-.861-.058Z" transform="translate(-92.772 -142.596)" fill="#25408f"></path><path id="Trazado_11" data-name="Trazado 11" d="M160.61,220.662l-.1,1.222a5.889,5.889,0,0,1-1.995.844,10.312,10.312,0,0,1-2.327.262,6.7,6.7,0,0,1-5.045-1.894,7.006,7.006,0,0,1-1.838-5.1,6.476,6.476,0,0,1,2.131-5.1,7.622,7.622,0,0,1,5.241-1.8,10.029,10.029,0,0,1,2.122.234,11.273,11.273,0,0,1,2.083.665,6.569,6.569,0,0,0-.235.733q-.118.44-.176.772l-.137.02a3.858,3.858,0,0,0-.763-.665,5.055,5.055,0,0,0-2.972-1.017,4.822,4.822,0,0,0-4.029,1.855,6.868,6.868,0,0,0-1.349,4.374,6.611,6.611,0,0,0,1.447,4.471,4.767,4.767,0,0,0,3.794,1.679,6.2,6.2,0,0,0,2.171-.415,6.519,6.519,0,0,0,1.975-1.149" transform="translate(-101.375 -141.977)" fill="#25408f"></path><path id="Trazado_12" data-name="Trazado 12" d="M194.235,209.1l5.867,13.689-1.017-.078-1.037.059q-.7-2.014-1.193-3.246-.313-.782-.86-2.034h-4.967q-1.134,2.835-1.271,3.226-.293.783-.665,2.054l-.724-.059-.684.059,6.1-13.669Zm1.456,7.568-2.159-4.986-2.14,4.986Z" transform="translate(-127.432 -141.977)" fill="#25408f"></path><path id="Trazado_13" data-name="Trazado 13" d="M249.27,223.335V210.017h5.769a9.54,9.54,0,0,1,2.8.313,4.486,4.486,0,0,1,1.525.861,5.25,5.25,0,0,1,1.575,2.151,7.286,7.286,0,0,1,.518,2.738,8.1,8.1,0,0,1-.685,3.422,7.093,7.093,0,0,1-1.779,2.347,5.708,5.708,0,0,1-2.1,1.1,14.092,14.092,0,0,1-3.8.381Zm1.721-12.535v11.656q.587,0,1.564.029l1,.029a13.664,13.664,0,0,0,1.819-.1,4.189,4.189,0,0,0,1.349-.43,4.608,4.608,0,0,0,2.19-2.308,7.991,7.991,0,0,0,.626-3.3q0-3.09-1.379-4.37t-4.7-1.281q-.411,0-1.388.039t-1.076.039" transform="translate(-169.248 -142.596)" fill="#25408f"></path><path id="Trazado_14" data-name="Trazado 14" d="M297.166,210.937v4.908H300.2q.371,0,.988-.039t.753-.039l-.058.508.058.548q-.352,0-.978-.059t-.763-.058h-3.031v5.71q.625,0,2.044-.039t1.5-.039a7.755,7.755,0,0,0,.8-.03q.254-.029,1-.147l-.059.587.059.586h-7.059V210.018h6.942l-.059.563.059.571q-.587-.117-.958-.166a6.256,6.256,0,0,0-.8-.049h-3.461Z" transform="translate(-200.599 -142.597)" fill="#25408f"></path><path id="Trazado_15" data-name="Trazado 15" d="M349.876,220.662l-.1,1.222a5.885,5.885,0,0,1-1.995.844,10.31,10.31,0,0,1-2.327.262,6.7,6.7,0,0,1-5.045-1.894,7.006,7.006,0,0,1-1.839-5.1,6.475,6.475,0,0,1,2.132-5.1,7.62,7.62,0,0,1,5.241-1.8,10.028,10.028,0,0,1,2.122.234,11.269,11.269,0,0,1,2.083.665,6.51,6.51,0,0,0-.235.733q-.118.44-.176.772l-.137.02a3.86,3.86,0,0,0-.763-.665,5.055,5.055,0,0,0-2.972-1.017,4.822,4.822,0,0,0-4.029,1.855,6.867,6.867,0,0,0-1.35,4.374,6.611,6.611,0,0,0,1.447,4.471,4.767,4.767,0,0,0,3.794,1.679,6.2,6.2,0,0,0,2.171-.415,6.519,6.519,0,0,0,1.975-1.149" transform="translate(-229.882 -141.977)" fill="#25408f"></path><path id="Trazado_16" data-name="Trazado 16" d="M383.789,210.018V217.5a6.539,6.539,0,0,0,.9,3.886,4.014,4.014,0,0,0,3.422,1.328,3.719,3.719,0,0,0,3.266-1.5,6.756,6.756,0,0,0,.958-3.906v-7.283l.548.059.547-.059v7.772a5.262,5.262,0,0,1-5.71,5.819,6.09,6.09,0,0,1-4.244-1.367,4,4,0,0,1-1.154-2.031,9.591,9.591,0,0,1-.254-2.382v-7.811l.86.059Z" transform="translate(-259.414 -142.597)" fill="#25408f"></path><path id="Trazado_17" data-name="Trazado 17" d="M430.855,217.4v6.013l-.861-.078-.86.059v-5.632l-4.791-7.744,1.1.059,1.076-.059q.645,1.272,1.926,3.52t1.789,3.031a15.7,15.7,0,0,0,1.134-1.8q.587-1.017,1.526-2.757.528-1,1.076-1.995l.763.059.762-.059q-.724.92-1.389,1.959l-2.151,3.466q-.392.608-.616,1a10.7,10.7,0,0,0-.479.959" transform="translate(-288.117 -142.597)" fill="#25408f"></path><path id="Trazado_18" data-name="Trazado 18" d="M466.2,222.989a7.242,7.242,0,0,1-5.231-1.884,7.334,7.334,0,0,1,.127-10.126,7.252,7.252,0,0,1,5.144-1.874,8.034,8.034,0,0,1,5.084,1.582,6.094,6.094,0,0,1,2.327,5.1,6.9,6.9,0,0,1-2.073,5.224,7.461,7.461,0,0,1-5.378,1.982m5.534-7.049a9.831,9.831,0,0,0-.254-2.353,5.118,5.118,0,0,0-.978-1.943,4.788,4.788,0,0,0-1.789-1.406,5.411,5.411,0,0,0-2.278-.488,4.958,4.958,0,0,0-4.038,1.787,7.258,7.258,0,0,0-1.477,4.774,6.265,6.265,0,0,0,1.565,4.51,5.008,5.008,0,0,0,3.774,1.523,4.813,4.813,0,0,0,4.283-2.382,7.292,7.292,0,0,0,1.193-4.022" transform="translate(-311.652 -141.977)" fill="#25408f"></path></g></svg> 