<?xml version="1.0" encoding="UTF-8"?>
<svg id="Capa_1" data-name="Capa 1" xmlns="http://www.w3.org/2000/svg" viewBox="0 0 87.87 97.43">
  <defs>
    <style>
      .cls-1 {
        fill: #25418e;
      }

      .cls-1, .cls-2 {
        stroke-width: 0px;
      }

      .cls-2 {
        fill: #659933;
      }
    </style>
  </defs>
  <polygon class="cls-1" points="41.75 22.09 37.82 28.82 28.33 44.74 23.94 37.28 37.36 14.63 45.95 14.63 54.62 14.63 58.91 22.09 41.75 22.09"/>
  <polygon class="cls-2" points="66.58 33.64 58.64 33.64 39.65 33.64 44.12 26.18 70.96 26.18 75.25 33.46 79.54 40.74 75.16 48.11 66.58 33.64"/>
  <polygon class="cls-1" points="68.68 60.3 64.75 53.57 55.26 37.65 64.02 37.65 77.53 60.3 73.24 67.58 68.86 74.86 60.1 74.77 68.68 60.3"/>
  <polygon class="cls-2" points="46.04 75.5 50.05 68.77 59.46 52.75 63.93 60.21 50.42 82.87 41.84 82.87 33.16 82.87 28.96 75.5 46.04 75.5"/>
  <polygon class="cls-1" points="21.3 63.94 29.24 63.94 48.14 63.94 43.75 71.31 16.82 71.31 12.62 64.13 8.24 56.76 12.71 49.48 21.3 63.94"/>
  <polygon class="cls-2" points="19.1 37.19 23.12 43.93 32.53 59.94 23.76 59.94 10.34 37.19 14.63 30 18.92 22.63 27.69 22.82 19.1 37.19"/>
  <path class="cls-1" d="m43.94.16c3.2,0,5.75,2.55,5.75,5.64s-2.56,5.64-5.75,5.64-5.75-2.55-5.75-5.64S40.74.16,43.94.16h0Z"/>
  <path class="cls-2" d="m43.94,86.15c3.2,0,5.75,2.55,5.75,5.64s-2.56,5.64-5.75,5.64-5.75-2.55-5.75-5.64,2.56-5.64,5.75-5.64h0Z"/>
  <path class="cls-2" d="m87.12,24.45c1.55,2.73.64,6.1-2.1,7.64-2.74,1.55-6.3.64-7.85-2.09-1.55-2.64-.64-6.1,2.1-7.64,2.74-1.46,6.3-.55,7.85,2.09h0Z"/>
  <path class="cls-1" d="m10.71,67.5c1.55,2.64.64,6.1-2.1,7.64s-6.3.64-7.85-2.09c-1.55-2.64-.64-6.1,2.1-7.64,2.74-1.55,6.21-.64,7.85,2.09h0Z"/>
  <path class="cls-1" d="m87.12,73.04c-1.55,2.64-5.11,3.55-7.85,2.09-2.74-1.55-3.74-5-2.1-7.64,1.55-2.64,5.11-3.55,7.85-2.09,2.74,1.55,3.65,5,2.1,7.64h0Z"/>
  <path class="cls-2" d="m10.71,30.09c-1.55,2.73-5.11,3.64-7.85,2.09C.12,30.64-.8,27.18.75,24.54c1.55-2.64,5.11-3.64,7.85-2,2.74,1.46,3.65,4.82,2.1,7.55h0Z"/>
</svg>