<?xml version="1.0" encoding="UTF-8"?> <svg xmlns="http://www.w3.org/2000/svg" xmlns:xlink="http://www.w3.org/1999/xlink" id="Grupo_69" data-name="Grupo 69" width="222" height="126.315" viewBox="0 0 222 126.315"><defs><clipPath id="clip-path"><rect id="Rect치ngulo_2" data-name="Rect치ngulo 2" width="222" height="126.316" fill="#fff"></rect></clipPath></defs><g id="Grupo_1" data-name="Grupo 1" clip-path="url(#clip-path)"><path id="Trazado_1" data-name="Trazado 1" d="M201.342,7.709a58.79,58.79,0,0,0-10.51-7.67l-3.518,3.519a54.169,54.169,0,0,1,10.79,7.679,46.546,46.546,0,0,1,13.731,22.149A50.849,50.849,0,0,1,214.23,25.7,52.428,52.428,0,0,0,201.342,7.709" transform="translate(-104.91 -0.022)" fill="#fff"></path><path id="Trazado_2" data-name="Trazado 2" d="M273.886,0a58.789,58.789,0,0,0-10.539,7.687c-10.809,9.919-16.762,23.006-16.762,36.85,0,23.942-.012,27.387-.013,27.418h4.788c0-.032.012-3.444.012-27.418,0-12.486,5.4-24.32,15.212-33.322a54.174,54.174,0,0,1,10.82-7.7Z" transform="translate(-138.098)" fill="#fff"></path><path id="Trazado_3" data-name="Trazado 3" d="M159.475,23.183c13.5,4.9,23.2,18.42,23.2,34.338s-9.7,29.442-23.2,34.338a34.36,34.36,0,0,0,0-68.676" transform="translate(-89.318 -12.984)" fill="#fff"></path><path id="Trazado_4" data-name="Trazado 4" d="M302.327,23.183c-13.5,4.9-23.2,18.42-23.2,34.338s9.7,29.442,23.2,34.338a34.36,34.36,0,0,1,0-68.676" transform="translate(-150.776 -12.984)" fill="#fff"></path><path id="Trazado_5" data-name="Trazado 5" d="M240.988,15.815c0-3.76,2.224-6.809,4.967-6.809s4.968,3.048,4.968,6.809-2.224,6.808-4.968,6.808-4.967-3.048-4.967-6.808" transform="translate(-134.971 -5.044)" fill="#fff"></path><path id="Trazado_6" data-name="Trazado 6" d="M15.489,224.943l-.134,1.674a8.072,8.072,0,0,1-2.734,1.156,14.13,14.13,0,0,1-3.189.359,9.184,9.184,0,0,1-6.914-2.6A9.6,9.6,0,0,1,0,218.552a8.874,8.874,0,0,1,2.921-6.984A10.444,10.444,0,0,1,10.1,209.1a13.745,13.745,0,0,1,2.907.321,15.442,15.442,0,0,1,2.854.911,9.005,9.005,0,0,0-.322,1q-.161.6-.241,1.058l-.188.027a5.288,5.288,0,0,0-1.045-.912A6.927,6.927,0,0,0,10,210.123a6.609,6.609,0,0,0-5.521,2.542,9.413,9.413,0,0,0-1.849,5.994,9.06,9.06,0,0,0,1.983,6.127,6.533,6.533,0,0,0,5.2,2.3,8.5,8.5,0,0,0,2.975-.569,8.932,8.932,0,0,0,2.706-1.575" transform="translate(0 -117.114)" fill="#fff"></path><path id="Trazado_7" data-name="Trazado 7" d="M45.547,210.018v16.99q.857,0,2.8-.054t2.05-.053a14.264,14.264,0,0,0,1.581-.107q.643-.107.965-.134l-.081.8.081.8H43.189v-18.25l1.179.081Z" transform="translate(-24.189 -117.626)" fill="#fff"></path><path id="Trazado_8" data-name="Trazado 8" d="M73.465,228.375V210.017l1.179.081,1.179-.081v18.33l-1.179-.08Z" transform="translate(-41.146 -117.625)" fill="#fff"></path><path id="Trazado_9" data-name="Trazado 9" d="M105.638,210.01v18.358h-.8l-1.406-1.65L91.863,213.9H91.6v14.445l-.751-.081-.751.108V210.01L91.147,210l12.709,13.819.282-.012v-13.8l.751.081Z" transform="translate(-50.46 -117.618)" fill="#fff"></path><path id="Trazado_10" data-name="Trazado 10" d="M136.635,228.375V210.017l1.179.081,1.179-.081v18.33l-1.179-.08Z" transform="translate(-76.526 -117.625)" fill="#fff"></path><path id="Trazado_11" data-name="Trazado 11" d="M164.8,224.943l-.134,1.674a8.072,8.072,0,0,1-2.734,1.156,14.13,14.13,0,0,1-3.189.359,9.184,9.184,0,0,1-6.914-2.6,9.6,9.6,0,0,1-2.519-6.985,8.874,8.874,0,0,1,2.921-6.984,10.444,10.444,0,0,1,7.182-2.462,13.745,13.745,0,0,1,2.907.321,15.443,15.443,0,0,1,2.854.911,9,9,0,0,0-.322,1q-.161.6-.241,1.058l-.188.027a5.288,5.288,0,0,0-1.045-.912,6.927,6.927,0,0,0-4.073-1.394,6.609,6.609,0,0,0-5.521,2.542,9.413,9.413,0,0,0-1.849,5.994,9.06,9.06,0,0,0,1.983,6.127,6.532,6.532,0,0,0,5.2,2.3,8.5,8.5,0,0,0,2.975-.569,8.932,8.932,0,0,0,2.706-1.575" transform="translate(-83.623 -117.114)" fill="#fff"></path><path id="Trazado_12" data-name="Trazado 12" d="M196.662,209.1l8.04,18.759-1.394-.107-1.421.081q-.965-2.76-1.635-4.449-.428-1.071-1.179-2.787h-6.807q-1.555,3.885-1.742,4.421-.4,1.072-.911,2.814l-.992-.081-.938.081,8.361-18.732Zm2,10.371-2.958-6.833-2.933,6.833Z" transform="translate(-105.117 -117.114)" fill="#fff"></path><path id="Trazado_13" data-name="Trazado 13" d="M249.27,228.267v-18.25h7.905a13.076,13.076,0,0,1,3.832.429,6.151,6.151,0,0,1,2.09,1.179,7.2,7.2,0,0,1,2.158,2.948,9.985,9.985,0,0,1,.71,3.752,11.094,11.094,0,0,1-.938,4.69,9.721,9.721,0,0,1-2.438,3.216,7.822,7.822,0,0,1-2.881,1.514,19.311,19.311,0,0,1-5.212.523Zm2.358-17.178v15.972q.8,0,2.144.04l1.367.04a18.722,18.722,0,0,0,2.493-.134,5.741,5.741,0,0,0,1.849-.59,6.315,6.315,0,0,0,3-3.163,10.951,10.951,0,0,0,.858-4.529q0-4.234-1.889-5.989T255,210.982q-.563,0-1.9.054t-1.474.053" transform="translate(-139.61 -117.625)" fill="#fff"></path><path id="Trazado_14" data-name="Trazado 14" d="M297.8,211.278V218h4.154q.509,0,1.354-.054t1.031-.053l-.08.7.08.751q-.482,0-1.34-.081t-1.045-.08H297.8v7.825q.857,0,2.8-.054t2.05-.053a10.623,10.623,0,0,0,1.1-.04q.348-.04,1.367-.2l-.08.8.08.8h-9.674v-18.25h9.513l-.081.772.081.783q-.8-.16-1.313-.228a8.567,8.567,0,0,0-1.1-.067H297.8Z" transform="translate(-165.471 -117.626)" fill="#fff"></path><path id="Trazado_15" data-name="Trazado 15" d="M354.063,224.943l-.134,1.674a8.066,8.066,0,0,1-2.733,1.156,14.127,14.127,0,0,1-3.189.359,9.184,9.184,0,0,1-6.914-2.6,9.6,9.6,0,0,1-2.519-6.985,8.873,8.873,0,0,1,2.922-6.984,10.442,10.442,0,0,1,7.182-2.462,13.744,13.744,0,0,1,2.907.321,15.44,15.44,0,0,1,2.854.911,8.931,8.931,0,0,0-.322,1q-.161.6-.241,1.058l-.188.027a5.287,5.287,0,0,0-1.045-.912,6.927,6.927,0,0,0-4.073-1.394,6.607,6.607,0,0,0-5.521,2.542,9.41,9.41,0,0,0-1.849,5.994,9.06,9.06,0,0,0,1.983,6.127,6.532,6.532,0,0,0,5.2,2.3,8.5,8.5,0,0,0,2.975-.569,8.932,8.932,0,0,0,2.706-1.575" transform="translate(-189.626 -117.114)" fill="#fff"></path><path id="Trazado_16" data-name="Trazado 16" d="M384.426,210.018v10.248q0,3.693,1.233,5.325,1.367,1.82,4.69,1.82a5.1,5.1,0,0,0,4.475-2.06A9.259,9.259,0,0,0,396.137,220v-9.981l.751.081.75-.081v10.651a7.211,7.211,0,0,1-7.825,7.975A8.345,8.345,0,0,1,384,226.77a5.478,5.478,0,0,1-1.581-2.783,13.139,13.139,0,0,1-.348-3.265v-10.7l1.179.081Z" transform="translate(-213.986 -117.626)" fill="#fff"></path><path id="Trazado_17" data-name="Trazado 17" d="M433.267,220.136v8.239l-1.179-.107-1.179.081V220.63l-6.565-10.612,1.5.081,1.474-.081q.884,1.743,2.64,4.824T432.409,219a21.485,21.485,0,0,0,1.554-2.465q.8-1.394,2.091-3.779.724-1.367,1.474-2.734l1.045.081,1.045-.081q-.992,1.261-1.9,2.684l-2.948,4.75q-.537.833-.844,1.37t-.656,1.314" transform="translate(-237.663 -117.626)" fill="#fff"></path><path id="Trazado_18" data-name="Trazado 18" d="M468.867,228.132a9.924,9.924,0,0,1-7.169-2.582,10.05,10.05,0,0,1,.174-13.876,9.937,9.937,0,0,1,7.049-2.569,11.01,11.01,0,0,1,6.968,2.168,8.352,8.352,0,0,1,3.189,6.985,9.45,9.45,0,0,1-2.841,7.159,10.224,10.224,0,0,1-7.37,2.716m7.584-9.66a13.474,13.474,0,0,0-.348-3.224,7.015,7.015,0,0,0-1.34-2.662,6.56,6.56,0,0,0-2.452-1.926,7.414,7.414,0,0,0-3.122-.669,6.794,6.794,0,0,0-5.534,2.448,9.946,9.946,0,0,0-2.024,6.542,8.586,8.586,0,0,0,2.144,6.181,6.862,6.862,0,0,0,5.172,2.087,6.6,6.6,0,0,0,5.869-3.265,9.993,9.993,0,0,0,1.635-5.511" transform="translate(-257.077 -117.114)" fill="#fff"></path><path id="Trazado_19" data-name="Trazado 19" d="M94.04,277.454l-3.248-7.6h.992l2.256,5.6,2.245-5.6h.986Z" transform="translate(-50.85 -151.139)" fill="#fff"></path><path id="Trazado_20" data-name="Trazado 20" d="M112.228,269.2l3.494,7.6h-.992l-1-2.244h-3l-1,2.244h-.991Zm0,1.923-1.223,2.693h2.445Z" transform="translate(-60.905 -150.77)" fill="#fff"></path><path id="Trazado_21" data-name="Trazado 21" d="M132.633,277.169v-7.315h.913v6.485h2.9v.829Z" transform="translate(-74.284 -151.138)" fill="#fff"></path><path id="Trazado_22" data-name="Trazado 22" d="M157.409,273.318a3.637,3.637,0,0,1-.3,1.479,3.694,3.694,0,0,1-.887,1.234,4.156,4.156,0,0,1-1.341.831,4.358,4.358,0,0,1-3.139,0,4.164,4.164,0,0,1-1.336-.831,3.747,3.747,0,0,1-.895-1.239,3.709,3.709,0,0,1,0-2.956,3.737,3.737,0,0,1,.895-1.241,4.122,4.122,0,0,1,1.333-.824,4.422,4.422,0,0,1,3.147,0,4.115,4.115,0,0,1,1.336.824,3.643,3.643,0,0,1,1.191,2.723m-4.1,3.017a3.192,3.192,0,0,0,2.226-.889,2.967,2.967,0,0,0,.688-.974,2.872,2.872,0,0,0,.236-1.154,2.924,2.924,0,0,0-.239-1.169,2.954,2.954,0,0,0-.685-.979,3.141,3.141,0,0,0-1.022-.654,3.25,3.25,0,0,0-1.2-.225,3.283,3.283,0,0,0-1.213.225,3.126,3.126,0,0,0-1.7,1.638,2.917,2.917,0,0,0-.236,1.165,2.861,2.861,0,0,0,.234,1.149,3.029,3.029,0,0,0,.691.979,3.159,3.159,0,0,0,2.226.889" transform="translate(-83.562 -150.929)" fill="#fff"></path><path id="Trazado_23" data-name="Trazado 23" d="M177.452,277.169v-7.315h1.8a5.559,5.559,0,0,1,1.131.083,1.7,1.7,0,0,1,.632.282,1.681,1.681,0,0,1,.53.682,2.316,2.316,0,0,1,.189.947,1.729,1.729,0,0,1-.527,1.366,2.262,2.262,0,0,1-1.545.467H179.5l2.932,3.487h-1.159l-2.8-3.487h-.131v3.487Zm.892-6.58v2.448h.7a2.667,2.667,0,0,0,1.432-.262,1.058,1.058,0,0,0,.362-.917,1.163,1.163,0,0,0-.373-.987,2.51,2.51,0,0,0-1.421-.282Z" transform="translate(-99.386 -151.138)" fill="#fff"></path><path id="Trazado_24" data-name="Trazado 24" d="M211.047,273.887v3.283h-.892v-7.315h1.611a6.539,6.539,0,0,1,1.243.085,2,2,0,0,1,.692.28,1.688,1.688,0,0,1,.575.685,2.346,2.346,0,0,1,0,1.928,1.689,1.689,0,0,1-.575.685,1.934,1.934,0,0,1-.69.285,6.583,6.583,0,0,1-1.246.084h-.719Zm0-.789h.461a3.228,3.228,0,0,0,1.582-.263,1.006,1.006,0,0,0,.406-.917,1.106,1.106,0,0,0-.417-.984,3.016,3.016,0,0,0-1.571-.284h-.461Z" transform="translate(-117.702 -151.139)" fill="#fff"></path><path id="Trazado_25" data-name="Trazado 25" d="M236.195,273.318a3.637,3.637,0,0,1-.3,1.479,3.694,3.694,0,0,1-.887,1.234,4.155,4.155,0,0,1-1.341.831,4.358,4.358,0,0,1-3.139,0,4.164,4.164,0,0,1-1.336-.831,3.747,3.747,0,0,1-.895-1.239,3.709,3.709,0,0,1,0-2.956,3.737,3.737,0,0,1,.895-1.241,4.122,4.122,0,0,1,1.333-.824,4.422,4.422,0,0,1,3.147,0,4.115,4.115,0,0,1,1.336.824,3.644,3.644,0,0,1,1.191,2.723m-4.1,3.017a3.192,3.192,0,0,0,2.227-.889,2.967,2.967,0,0,0,.688-.974,2.872,2.872,0,0,0,.236-1.154,2.924,2.924,0,0,0-.239-1.169,2.955,2.955,0,0,0-.685-.979,3.141,3.141,0,0,0-1.022-.654,3.25,3.25,0,0,0-1.2-.225,3.283,3.283,0,0,0-1.213.225,3.126,3.126,0,0,0-1.7,1.638,2.917,2.917,0,0,0-.236,1.165,2.861,2.861,0,0,0,.234,1.149,3.03,3.03,0,0,0,.691.979,3.159,3.159,0,0,0,2.226.889" transform="translate(-127.688 -150.929)" fill="#fff"></path><path id="Trazado_26" data-name="Trazado 26" d="M256.262,277.169v-7.315h1.8a5.562,5.562,0,0,1,1.131.083,1.7,1.7,0,0,1,.632.282,1.678,1.678,0,0,1,.53.682,2.317,2.317,0,0,1,.189.947,1.731,1.731,0,0,1-.527,1.366,2.262,2.262,0,0,1-1.545.467h-.162l2.933,3.487h-1.16l-2.8-3.487h-.131v3.487Zm.892-6.58v2.448h.7a2.67,2.67,0,0,0,1.432-.262,1.059,1.059,0,0,0,.362-.917,1.163,1.163,0,0,0-.373-.987,2.51,2.51,0,0,0-1.421-.282Z" transform="translate(-143.526 -151.138)" fill="#fff"></path><path id="Trazado_27" data-name="Trazado 27" d="M288.964,277.169v-7.315h.913v6.485h2.9v.829Z" transform="translate(-161.841 -151.138)" fill="#fff"></path><path id="Trazado_28" data-name="Trazado 28" d="M307.416,269.2l3.493,7.6h-.992l-1-2.244h-3l-1,2.244h-.992Zm0,1.923-1.222,2.693h2.444Z" transform="translate(-170.225 -150.77)" fill="#fff"></path><path id="Trazado_29" data-name="Trazado 29" d="M342.1,277.454l-3.247-7.6h.992l2.255,5.6,2.245-5.6h.986Z" transform="translate(-189.784 -151.139)" fill="#fff"></path><rect id="Rect치ngulo_1" data-name="Rect치ngulo 1" width="0.912" height="7.315" transform="translate(159.108 118.716)" fill="#fff"></rect><path id="Trazado_30" data-name="Trazado 30" d="M374.168,277.169v-7.315h1.474a11.466,11.466,0,0,1,2.306.158,3.178,3.178,0,0,1,1.172.527,3.091,3.091,0,0,1,1,1.239,4.6,4.6,0,0,1,0,3.47,3.051,3.051,0,0,1-1,1.237,3.205,3.205,0,0,1-1.146.527,9.217,9.217,0,0,1-2,.157h-1.8Zm.923-.819h.582a10.831,10.831,0,0,0,1.962-.118,2.185,2.185,0,0,0,.908-.4,2.367,2.367,0,0,0,.718-.966,3.856,3.856,0,0,0,0-2.708,2.381,2.381,0,0,0-.721-.962,2.208,2.208,0,0,0-.921-.412,10.447,10.447,0,0,0-1.949-.123h-.582Z" transform="translate(-209.562 -151.138)" fill="#fff"></path><path id="Trazado_31" data-name="Trazado 31" d="M399.191,269.2l3.493,7.6h-.992l-1-2.244h-3l-1,2.244h-.992Zm0,1.923-1.222,2.693h2.444Z" transform="translate(-221.626 -150.77)" fill="#fff"></path></g></svg> 